<?xml version="1.0" encoding="UTF-8" standalone="no"?>
<!DOCTYPE svg PUBLIC "-//W3C//DTD SVG 1.0//EN"
 "http://www.w3.org/TR/2001/REC-SVG-20010904/DTD/svg10.dtd" [
 <!ATTLIST svg xmlns:xlink CDATA #FIXED "http://www.w3.org/1999/xlink">
]>
<!-- Generated by Graphviz version 2.14.1 (Thu Aug 16 12:22:16 UTC 2007)
     For user: Admin -->
<!-- Title: g Pages: 1 -->
<svg width="245pt" height="132pt"
 viewBox="0.00 0.00 245.00 132.00" xmlns="http://www.w3.org/2000/svg" xmlns:xlink="http://www.w3.org/1999/xlink">
<g id="graph0" class="graph" transform="scale(1 1) rotate(0) translate(4 128)">
<title>g</title>
<polygon style="fill:white;stroke:white;" points="-4,4 -4,-128 241,-128 241,4 -4,4"/>
<!-- A1 -->
<g id="node1" class="node"><title>A1</title>
<text text-anchor="middle" x="27" y="-100" style="font-family:Times New Roman;font-size:14.00;">A1</text>
</g>
<!-- B1 -->
<g id="node3" class="node"><title>B1</title>
<text text-anchor="middle" x="27" y="-12" style="font-family:Times New Roman;font-size:14.00;">B1</text>
</g>
<!-- A1&#45;&gt;B1 -->
<g id="edge2" class="edge"><title>A1&#45;&gt;B1</title>
<path style="fill:none;stroke:black;" d="M27,-88C27,-76 27,-60 27,-46"/>
<polygon style="fill:black;stroke:black;" points="30.5001,-46 27,-36 23.5001,-46 30.5001,-46"/>
</g>
<!-- A2 -->
<g id="node4" class="node"><title>A2</title>
<text text-anchor="middle" x="120" y="-100" style="font-family:Times New Roman;font-size:14.00;">A2</text>
</g>
<!-- A1&#45;&gt;A2 -->
<g id="edge8" class="edge"><title>A1&#45;&gt;A2</title>
<path style="fill:none;stroke:black;" d="M54,-106C63,-106 73,-106 83,-106"/>
<polygon style="fill:black;stroke:black;" points="83,-109.5 93,-106 83,-102.5 83,-109.5"/>
<text text-anchor="middle" x="73" y="-108" style="font-family:Times New Roman;font-size:14.00;">f</text>
</g>
<!-- B3 -->
<g id="node9" class="node"><title>B3</title>
<text text-anchor="middle" x="198" y="-12" style="font-family:Times New Roman;font-size:14.00;">B3</text>
</g>
<!-- B1&#45;&gt;B3 -->
<g id="edge14" class="edge"><title>B1&#45;&gt;B3</title>
<path style="fill:none;stroke:black;" d="M27,0C27,0 151,0 188,0"/>
<polygon style="fill:black;stroke:black;" points="188,-3.5001 198,0 188,3.4999 188,-3.5001"/>
<text text-anchor="middle" x="90" y="-56" style="font-family:Times New Roman;font-size:14.00;">(g o f)&#39;</text>
</g>
<!-- B2 -->
<g id="node6" class="node"><title>B2</title>
<text text-anchor="middle" x="108" y="-12" style="font-family:Times New Roman;font-size:14.00;">B2</text>
</g>
<!-- A2&#45;&gt;B2 -->
<g id="edge4" class="edge"><title>A2&#45;&gt;B2</title>
<path style="fill:none;stroke:black;" d="M118,-88C116,-76 114,-60 112,-46"/>
<polygon style="fill:black;stroke:black;" points="115.478,-45.6021 111,-36 108.512,-46.2987 115.478,-45.6021"/>
</g>
<!-- A3 -->
<g id="node7" class="node"><title>A3</title>
<text text-anchor="middle" x="210" y="-100" style="font-family:Times New Roman;font-size:14.00;">A3</text>
</g>
<!-- A2&#45;&gt;A3 -->
<g id="edge10" class="edge"><title>A2&#45;&gt;A3</title>
<path style="fill:none;stroke:black;" d="M147,-106C155,-106 164,-106 173,-106"/>
<polygon style="fill:black;stroke:black;" points="173,-109.5 183,-106 173,-102.5 173,-109.5"/>
<text text-anchor="middle" x="165" y="-108" style="font-family:Times New Roman;font-size:14.00;">g</text>
</g>
<!-- B2&#45;&gt;B3 -->
<g id="edge12" class="edge"><title>B2&#45;&gt;B3</title>
<path style="fill:none;stroke:black;" d="M135,-18C143,-18 152,-18 161,-18"/>
<polygon style="fill:black;stroke:black;" points="161,-21.5001 171,-18 161,-14.5001 161,-21.5001"/>
<text text-anchor="middle" x="153" y="-20" style="font-family:Times New Roman;font-size:14.00;">g&#39;</text>
</g>
<!-- A3&#45;&gt;B3 -->
<g id="edge6" class="edge"><title>A3&#45;&gt;B3</title>
<path style="fill:none;stroke:black;" d="M208,-88C206,-76 204,-60 202,-46"/>
<polygon style="fill:black;stroke:black;" points="205.478,-45.6021 201,-36 198.512,-46.2987 205.478,-45.6021"/>
</g>
</g>
</svg>
