<?xml version="1.0" encoding="UTF-8" standalone="no"?>
<!DOCTYPE svg PUBLIC "-//W3C//DTD SVG 1.0//EN"
 "http://www.w3.org/TR/2001/REC-SVG-20010904/DTD/svg10.dtd" [
 <!ATTLIST svg xmlns:xlink CDATA #FIXED "http://www.w3.org/1999/xlink">
]>
<!-- Generated by dot version 2.8 (Fri Nov 17 20:26:27 UTC 2006)
     For user: (azatoth) Carl Furstenberg,,, -->
<!-- Title: graphname Pages: 1 -->
<svg width="134pt" height="188pt"
 viewBox = "0 0 134 188"
 xmlns="http://www.w3.org/2000/svg" xmlns:xlink="http://www.w3.org/1999/xlink">
<g id="graph0" class="graph" style="font-family:Times-Roman;font-size:14.00;">
<title>graphname</title>
<polygon style="fill:white;stroke:white;" points="-2,190 -2,-2 136,-2 136,190 -2,190"/>
<!-- a -->
<g id="node1" class="node"><title>a</title>
<ellipse style="fill:none;stroke:black;" cx="67" cy="22" rx="27" ry="18"/>
<text text-anchor="middle" x="67" y="27">a</text>
</g>
<!-- b -->
<g id="node3" class="node"><title>b</title>
<ellipse style="fill:none;stroke:black;" cx="67" cy="94" rx="27" ry="18"/>
<text text-anchor="middle" x="67" y="99">b</text>
</g>
<!-- a&#45;&gt;b -->
<g id="edge2" class="edge"><title>a&#45;&gt;b</title>
<path style="fill:none;stroke:black;" d="M67,40C67,48 67,57 67,66"/>
<polygon style="fill:black;stroke:black;" points="71,66 67,76 64,66 71,66"/>
</g>
<!-- c -->
<g id="node4" class="node"><title>c</title>
<ellipse style="fill:none;stroke:black;" cx="31" cy="166" rx="27" ry="18"/>
<text text-anchor="middle" x="31" y="171">c</text>
</g>
<!-- b&#45;&gt;c -->
<g id="edge3" class="edge"><title>b&#45;&gt;c</title>
<path style="fill:none;stroke:black;" d="M58,111C54,120 49,130 44,140"/>
<polygon style="fill:black;stroke:black;" points="47,141 40,149 41,138 47,141"/>
</g>
<!-- d -->
<g id="node6" class="node"><title>d</title>
<ellipse style="fill:none;stroke:black;" cx="103" cy="166" rx="27" ry="18"/>
<text text-anchor="middle" x="103" y="171">d</text>
</g>
<!-- b&#45;&gt;d -->
<g id="edge5" class="edge"><title>b&#45;&gt;d</title>
<path style="fill:none;stroke:black;" d="M76,111C80,120 85,130 90,140"/>
<polygon style="fill:black;stroke:black;" points="93,138 94,149 87,141 93,138"/>
</g>
</g>
</svg>
