<?xml version="1.0" encoding="UTF-8" standalone="no"?>
<!DOCTYPE svg PUBLIC "-//W3C//DTD SVG 1.1//EN"
 "http://www.w3.org/Graphics/SVG/1.1/DTD/svg11.dtd">
<!-- Generated by graphviz version 2.28.0 (20110507.0327)
 -->
<!-- Title: G Pages: 1 -->
<svg width="325pt" height="352pt"
 viewBox="0.00 0.00 325.00 352.00" xmlns="http://www.w3.org/2000/svg" xmlns:xlink="http://www.w3.org/1999/xlink">
<g id="graph1" class="graph" transform="scale(1 1) rotate(0) translate(4 348)">
<title>G</title>
<polygon fill="white" stroke="white" points="-4,5 -4,-348 322,-348 322,5 -4,5"/>
<!-- N -->
<g id="node1" class="node"><title>N</title>
<polygon fill="none" stroke="black" points="68,-1 68,-47 122,-47 122,-1 68,-1"/>
<text text-anchor="middle" x="82" y="-31.8" font-family="Times New Roman,serif" font-size="14.00">N</text>
<polyline fill="none" stroke="black" points="96,-24 96,-47 "/>
<text text-anchor="middle" x="109" y="-31.8" font-family="Times New Roman,serif" font-size="14.00">1</text>
<polyline fill="none" stroke="black" points="68,-24 122,-24 "/>
<text text-anchor="middle" x="95" y="-8.8" font-family="Times New Roman,serif" font-size="14.00">0000</text>
</g>
<!-- R -->
<g id="node2" class="node"><title>R</title>
<polygon fill="none" stroke="black" points="140,-1 140,-47 194,-47 194,-1 140,-1"/>
<text text-anchor="middle" x="154" y="-31.8" font-family="Times New Roman,serif" font-size="14.00">R</text>
<polyline fill="none" stroke="black" points="168,-24 168,-47 "/>
<text text-anchor="middle" x="181" y="-31.8" font-family="Times New Roman,serif" font-size="14.00">1</text>
<polyline fill="none" stroke="black" points="140,-24 194,-24 "/>
<text text-anchor="middle" x="167" y="-8.8" font-family="Times New Roman,serif" font-size="14.00">0001</text>
</g>
<!-- B -->
<g id="node3" class="node"><title>B</title>
<polygon fill="none" stroke="black" points="32,-81 32,-127 86,-127 86,-81 32,-81"/>
<text text-anchor="middle" x="46" y="-111.8" font-family="Times New Roman,serif" font-size="14.00">B</text>
<polyline fill="none" stroke="black" points="60,-104 60,-127 "/>
<text text-anchor="middle" x="73" y="-111.8" font-family="Times New Roman,serif" font-size="14.00">2</text>
<polyline fill="none" stroke="black" points="32,-104 86,-104 "/>
<text text-anchor="middle" x="59" y="-88.8" font-family="Times New Roman,serif" font-size="14.00">001</text>
</g>
<!-- O -->
<g id="node4" class="node"><title>O</title>
<polygon fill="none" stroke="black" points="0,-161 0,-207 54,-207 54,-161 0,-161"/>
<text text-anchor="middle" x="14.5" y="-191.8" font-family="Times New Roman,serif" font-size="14.00">O</text>
<polyline fill="none" stroke="black" points="29,-184 29,-207 "/>
<text text-anchor="middle" x="41.5" y="-191.8" font-family="Times New Roman,serif" font-size="14.00">4</text>
<polyline fill="none" stroke="black" points="0,-184 54,-184 "/>
<text text-anchor="middle" x="27" y="-168.8" font-family="Times New Roman,serif" font-size="14.00">01</text>
</g>
<!-- E -->
<g id="node5" class="node"><title>E</title>
<polygon fill="none" stroke="black" points="191,-81 191,-127 245,-127 245,-81 191,-81"/>
<text text-anchor="middle" x="205" y="-111.8" font-family="Times New Roman,serif" font-size="14.00">E</text>
<polyline fill="none" stroke="black" points="219,-104 219,-127 "/>
<text text-anchor="middle" x="232" y="-111.8" font-family="Times New Roman,serif" font-size="14.00">2</text>
<polyline fill="none" stroke="black" points="191,-104 245,-104 "/>
<text text-anchor="middle" x="218" y="-88.8" font-family="Times New Roman,serif" font-size="14.00">100</text>
</g>
<!-- T -->
<g id="node6" class="node"><title>T</title>
<polygon fill="none" stroke="black" points="263,-81 263,-127 317,-127 317,-81 263,-81"/>
<text text-anchor="middle" x="277" y="-111.8" font-family="Times New Roman,serif" font-size="14.00">T</text>
<polyline fill="none" stroke="black" points="291,-104 291,-127 "/>
<text text-anchor="middle" x="304" y="-111.8" font-family="Times New Roman,serif" font-size="14.00">3</text>
<polyline fill="none" stroke="black" points="263,-104 317,-104 "/>
<text text-anchor="middle" x="290" y="-88.8" font-family="Times New Roman,serif" font-size="14.00">101</text>
</g>
<!-- SPACE -->
<g id="node7" class="node"><title>SPACE</title>
<polygon fill="none" stroke="black" points="144,-161 144,-207 228,-207 228,-161 144,-161"/>
<text text-anchor="middle" x="174.5" y="-191.8" font-family="Times New Roman,serif" font-size="14.00">SPACE</text>
<polyline fill="none" stroke="black" points="205,-184 205,-207 "/>
<text text-anchor="middle" x="216.5" y="-191.8" font-family="Times New Roman,serif" font-size="14.00">5</text>
<polyline fill="none" stroke="black" points="144,-184 228,-184 "/>
<text text-anchor="middle" x="186" y="-168.8" font-family="Times New Roman,serif" font-size="14.00">11</text>
</g>
<!-- 18 -->
<g id="node8" class="node"><title>18</title>
<ellipse fill="none" stroke="black" cx="149" cy="-326" rx="27" ry="18"/>
<text text-anchor="middle" x="149" y="-322.3" font-family="Times New Roman,serif" font-size="14.00">18</text>
</g>
<!-- 8 -->
<g id="node10" class="node"><title>8</title>
<ellipse fill="none" stroke="black" cx="99" cy="-258" rx="27" ry="18"/>
<text text-anchor="middle" x="99" y="-254.3" font-family="Times New Roman,serif" font-size="14.00">8</text>
</g>
<!-- 18&#45;&gt;8 -->
<g id="edge2" class="edge"><title>18&#45;&gt;8</title>
<path fill="none" stroke="black" d="M137.403,-309.692C131.369,-301.728 123.857,-291.811 117.08,-282.866"/>
<polygon fill="black" stroke="black" points="119.709,-280.54 110.881,-274.683 114.13,-284.767 119.709,-280.54"/>
<text text-anchor="middle" x="133.5" y="-288.3" font-family="Times New Roman,serif" font-size="14.00">0</text>
</g>
<!-- 10 -->
<g id="node13" class="node"><title>10</title>
<ellipse fill="none" stroke="black" cx="186" cy="-258" rx="27" ry="18"/>
<text text-anchor="middle" x="186" y="-254.3" font-family="Times New Roman,serif" font-size="14.00">10</text>
</g>
<!-- 18&#45;&gt;10 -->
<g id="edge18" class="edge"><title>18&#45;&gt;10</title>
<path fill="none" stroke="black" d="M158.146,-308.685C162.313,-301.252 167.339,-292.287 171.968,-284.029"/>
<polygon fill="black" stroke="black" points="175.122,-285.561 176.959,-275.127 169.016,-282.138 175.122,-285.561"/>
<text text-anchor="middle" x="175.5" y="-288.3" font-family="Times New Roman,serif" font-size="14.00">1</text>
</g>
<!-- 8&#45;&gt;O -->
<g id="edge14" class="edge"><title>8&#45;&gt;O</title>
<path fill="none" stroke="black" d="M84.4297,-242.43C76.3746,-234.375 66.0689,-224.069 56.4168,-214.417"/>
<polygon fill="black" stroke="black" points="58.7573,-211.808 49.2114,-207.211 53.8076,-216.757 58.7573,-211.808"/>
<text text-anchor="middle" x="77.5" y="-220.3" font-family="Times New Roman,serif" font-size="14.00">1</text>
</g>
<!-- 4 -->
<g id="node11" class="node"><title>4</title>
<ellipse fill="none" stroke="black" cx="99" cy="-184" rx="27" ry="18"/>
<text text-anchor="middle" x="99" y="-180.3" font-family="Times New Roman,serif" font-size="14.00">4</text>
</g>
<!-- 8&#45;&gt;4 -->
<g id="edge3" class="edge"><title>8&#45;&gt;4</title>
<path fill="none" stroke="black" d="M99,-239.937C99,-231.807 99,-221.876 99,-212.705"/>
<polygon fill="black" stroke="black" points="102.5,-212.441 99,-202.441 95.5001,-212.441 102.5,-212.441"/>
<text text-anchor="middle" x="102.5" y="-220.3" font-family="Times New Roman,serif" font-size="14.00">0</text>
</g>
<!-- 4&#45;&gt;B -->
<g id="edge12" class="edge"><title>4&#45;&gt;B</title>
<path fill="none" stroke="black" d="M90.712,-166.838C86.1457,-157.934 80.3218,-146.577 74.9141,-136.033"/>
<polygon fill="black" stroke="black" points="77.9888,-134.358 70.3112,-127.057 71.76,-137.552 77.9888,-134.358"/>
<text text-anchor="middle" x="86.5" y="-140.3" font-family="Times New Roman,serif" font-size="14.00">1</text>
</g>
<!-- 2 -->
<g id="node12" class="node"><title>2</title>
<ellipse fill="none" stroke="black" cx="131" cy="-104" rx="27" ry="18"/>
<text text-anchor="middle" x="131" y="-100.3" font-family="Times New Roman,serif" font-size="14.00">2</text>
</g>
<!-- 4&#45;&gt;2 -->
<g id="edge4" class="edge"><title>4&#45;&gt;2</title>
<path fill="none" stroke="black" d="M105.786,-166.458C110.029,-156.117 115.583,-142.58 120.398,-130.843"/>
<polygon fill="black" stroke="black" points="123.666,-132.098 124.223,-121.518 117.19,-129.441 123.666,-132.098"/>
<text text-anchor="middle" x="121.5" y="-140.3" font-family="Times New Roman,serif" font-size="14.00">0</text>
</g>
<!-- 2&#45;&gt;N -->
<g id="edge5" class="edge"><title>2&#45;&gt;N</title>
<path fill="none" stroke="black" d="M123.365,-86.4582C119.32,-77.6933 114.215,-66.6326 109.455,-56.3182"/>
<polygon fill="black" stroke="black" points="112.588,-54.7559 105.22,-47.143 106.233,-57.6894 112.588,-54.7559"/>
<text text-anchor="middle" x="120.5" y="-60.3" font-family="Times New Roman,serif" font-size="14.00">0</text>
</g>
<!-- 2&#45;&gt;R -->
<g id="edge10" class="edge"><title>2&#45;&gt;R</title>
<path fill="none" stroke="black" d="M138.635,-86.4582C142.68,-77.6933 147.785,-66.6326 152.545,-56.3182"/>
<polygon fill="black" stroke="black" points="155.767,-57.6894 156.78,-47.143 149.412,-54.7559 155.767,-57.6894"/>
<text text-anchor="middle" x="156.5" y="-60.3" font-family="Times New Roman,serif" font-size="14.00">1</text>
</g>
<!-- 10&#45;&gt;SPACE -->
<g id="edge19" class="edge"><title>10&#45;&gt;SPACE</title>
<path fill="none" stroke="black" d="M186,-239.937C186,-233.113 186,-225.02 186,-217.173"/>
<polygon fill="black" stroke="black" points="189.5,-217.125 186,-207.125 182.5,-217.125 189.5,-217.125"/>
<text text-anchor="middle" x="189.5" y="-220.3" font-family="Times New Roman,serif" font-size="14.00">1</text>
</g>
<!-- 5 -->
<g id="node15" class="node"><title>5</title>
<ellipse fill="none" stroke="black" cx="273" cy="-184" rx="27" ry="18"/>
<text text-anchor="middle" x="273" y="-180.3" font-family="Times New Roman,serif" font-size="14.00">5</text>
</g>
<!-- 10&#45;&gt;5 -->
<g id="edge7" class="edge"><title>10&#45;&gt;5</title>
<path fill="none" stroke="black" d="M202.364,-243.457C215.488,-232.596 234.098,-217.194 248.922,-204.926"/>
<polygon fill="black" stroke="black" points="251.237,-207.554 256.709,-198.482 246.774,-202.161 251.237,-207.554"/>
<text text-anchor="middle" x="238.5" y="-220.3" font-family="Times New Roman,serif" font-size="14.00">0</text>
</g>
<!-- 5&#45;&gt;E -->
<g id="edge8" class="edge"><title>5&#45;&gt;E</title>
<path fill="none" stroke="black" d="M261.87,-167.216C255.48,-158.153 247.236,-146.461 239.622,-135.664"/>
<polygon fill="black" stroke="black" points="242.322,-133.419 233.699,-127.264 236.601,-137.453 242.322,-133.419"/>
<text text-anchor="middle" x="253.5" y="-140.3" font-family="Times New Roman,serif" font-size="14.00">0</text>
</g>
<!-- 5&#45;&gt;T -->
<g id="edge16" class="edge"><title>5&#45;&gt;T</title>
<path fill="none" stroke="black" d="M276.689,-166.075C278.53,-157.629 280.82,-147.122 282.978,-137.218"/>
<polygon fill="black" stroke="black" points="286.446,-137.742 285.156,-127.226 279.607,-136.251 286.446,-137.742"/>
<text text-anchor="middle" x="286.5" y="-140.3" font-family="Times New Roman,serif" font-size="14.00">1</text>
</g>
</g>
</svg>
