<?xml version="1.0" encoding="UTF-8" standalone="no"?>
<!-- Created with Inkscape (http://www.inkscape.org/) -->

<svg
   width="180mm"
   height="90mm"
   viewBox="0 0 180 90"
   version="1.1"
   id="svg5"
   sodipodi:docname="The-AWK-Programming-Language.svg"
   inkscape:version="1.1.1 (3bf5ae0d25, 2021-09-20)"
   xmlns:inkscape="http://www.inkscape.org/namespaces/inkscape"
   xmlns:sodipodi="http://sodipodi.sourceforge.net/DTD/sodipodi-0.dtd"
   xmlns="http://www.w3.org/2000/svg"
   xmlns:svg="http://www.w3.org/2000/svg">
  <sodipodi:namedview
     id="namedview7"
     pagecolor="#ffffff"
     bordercolor="#666666"
     borderopacity="1.0"
     inkscape:pageshadow="2"
     inkscape:pageopacity="0.0"
     inkscape:pagecheckerboard="0"
     inkscape:document-units="mm"
     showgrid="false"
     inkscape:zoom="0.54115914"
     inkscape:cx="334.46724"
     inkscape:cy="272.56308"
     inkscape:window-width="1366"
     inkscape:window-height="692"
     inkscape:window-x="0"
     inkscape:window-y="0"
     inkscape:window-maximized="1"
     inkscape:current-layer="layer1" />
  <defs
     id="defs2">
    <rect
       x="42.605576"
       y="577.02264"
       width="666.91473"
       height="395.50803"
       id="rect1652" />
    <rect
       x="42.605576"
       y="577.02264"
       width="666.91473"
       height="395.50803"
       id="rect1652-0" />
    <rect
       x="42.605576"
       y="577.02264"
       width="666.91473"
       height="395.50803"
       id="rect1652-1" />
    <rect
       x="42.605576"
       y="577.02264"
       width="666.91473"
       height="395.50803"
       id="rect1652-1-1" />
  </defs>
  <g
     inkscape:label="Katman 1"
     inkscape:groupmode="layer"
     id="layer1">
    <g
       id="g9345"
       transform="translate(-18.639037,-27.15516)">
      <path
         style="fill:#0a094d;fill-opacity:1;stroke-width:0.264583"
         d="m 179.42945,87.707947 c 0.19264,-0.76752 -0.52378,-1.49261 -1.00214,-1.01426 -0.59014,0.59015 -0.99029,0.35291 -0.82222,-0.48746 0.10113,-0.50565 0.0507,-0.79375 -0.13891,-0.79375 -0.50996,0 -0.32626,-0.7437 0.29039,-1.17562 0.32342,-0.22653 1.12709,-0.4137 1.78593,-0.41593 0.65885,-0.002 1.3765,-0.13092 1.59478,-0.28599 0.30715,-0.21819 0.23652,-0.24708 -0.31237,-0.1278 -0.39008,0.0848 -1.02843,0.0328 -1.41856,-0.11556 -0.5354,-0.20356 -0.90666,-0.17123 -1.51422,0.13186 -1.00712,0.50242 -0.98819,0.50453 -0.98819,-0.11005 0,-0.35128 -0.21304,-0.53783 -0.67983,-0.59531 l -0.67984,-0.0837 0.58116,-0.62034 c 0.61445,-0.65586 1.28462,-0.67563 3.09362,-0.0913 1.1811,0.38154 1.07984,0.007 -0.19113,-0.70772 -1.19279,-0.67038 -2.01613,-1.602 -5.05911,-5.72444 -3.23966,-4.38888 -3.47437,-4.95078 -3.61612,-8.65711 l -0.11859,-3.10086 -1.68052,-1.96956 c -0.92428,-1.08325 -1.80198,-2.04462 -1.95044,-2.13638 -0.14846,-0.0917 -0.86807,-0.23766 -1.59914,-0.32424 -1.50413,-0.17814 -1.59715,-0.39311 -0.77392,-1.78839 0.65316,-1.10702 1.50906,-1.23516 2.75199,-0.412 0.43656,0.28913 0.97234,0.51841 1.19062,0.50952 0.24494,-0.01 0.16897,-0.12608 -0.19843,-0.30327 -0.32743,-0.15791 -0.59532,-0.37088 -0.59532,-0.47327 0,-0.30069 3.48746,-0.5291 4.50415,-0.29499 2.10661,0.48509 2.78715,1.22993 3.14308,3.44005 0.24198,1.50257 0.39963,1.80269 1.48595,2.82882 0.66839,0.63135 1.89318,1.47172 2.72177,1.86748 0.82858,0.39577 1.99094,1.10592 2.58301,1.5781 1.39545,1.11289 3.58367,4.30834 4.32957,6.32247 0.3227,0.87136 0.71897,1.74364 0.88061,1.9384 0.43526,0.52445 -0.26771,0.87964 -1.39188,0.70328 -0.50933,-0.0799 -1.52136,-0.15432 -2.24896,-0.16538 -0.72761,-0.0111 -1.48045,-0.14733 -1.67298,-0.30284 -0.48998,-0.39577 -1.78297,-3.32139 -2.01536,-4.56015 -0.41201,-2.19623 -1.20322,-3.00846 -3.98458,-4.09049 -1.99827,-0.77738 -2.14605,-0.89532 -3.2188,-2.56887 -0.98288,-1.53336 -1.16707,-2.6885 -0.41922,-2.62915 0.76537,0.0607 0.56063,-0.96767 -0.2721,-1.36679 -0.56601,-0.27128 -0.93846,-0.28522 -1.61906,-0.0606 -0.58999,0.19472 -1.24738,0.21007 -1.97686,0.0462 -0.6011,-0.13506 -1.09292,-0.18561 -1.09292,-0.11234 0,0.0733 0.61456,0.80475 1.36569,1.62552 2.19883,2.40269 2.37464,2.79555 2.17667,4.86381 -0.11499,1.20125 -0.0702,1.90519 0.13709,2.15496 0.16933,0.20403 0.2853,0.47279 0.25772,0.59725 -0.0276,0.12445 0.14684,0.66894 0.38759,1.20997 0.24076,0.54103 0.43774,1.16611 0.43774,1.38906 0,0.22296 0.18662,0.40538 0.41471,0.40538 0.30923,0 0.36681,0.15088 0.22641,0.59324 -0.15655,0.49325 -0.12469,0.54045 0.18903,0.28009 0.30758,-0.25527 0.44054,-0.15707 0.71935,0.53124 0.18811,0.46441 0.45508,1.12417 0.59326,1.46614 0.13818,0.34196 0.47969,0.68149 0.75892,0.75451 0.28473,0.0745 0.5782,0.45381 0.66825,0.86385 0.0883,0.40209 0.37821,0.96469 0.64421,1.2502 0.26599,0.28551 0.56476,0.77476 0.66393,1.08721 0.24689,0.77788 1.43912,1.57683 2.54073,1.70263 0.69061,0.0789 0.91388,0.2293 0.91461,0.61625 5.3e-4,0.28156 0.13838,0.48597 0.30632,0.45424 0.16794,-0.0317 0.45041,0.1171 0.62771,0.33073 0.17729,0.21363 0.44759,0.38842 0.60066,0.38842 0.15307,0 -7.9e-4,-0.29719 -0.34212,-0.66042 -0.34123,-0.36323 -0.54548,-0.73536 -0.45387,-0.82697 0.0916,-0.0916 0.48195,0.20826 0.86743,0.66638 0.77128,0.91661 1.65586,1.48464 1.91243,1.22806 0.0908,-0.0907 -0.36593,-0.62411 -1.01484,-1.18526 -0.64891,-0.56116 -1.09172,-1.11053 -0.98403,-1.22084 0.1077,-0.11031 0.49175,0.086 0.85344,0.43622 1.75166,1.69614 3.1696,2.62116 4.01788,2.62116 0.40015,0 0.39795,-0.0452 -0.025,-0.51249 -0.25509,-0.28188 -0.39066,-0.63084 -0.30127,-0.77547 0.0894,-0.14464 0.0444,-0.33596 -0.0999,-0.42518 -0.14435,-0.0892 -0.8148,-1.23166 -1.4899,-2.53877 -0.6751,-1.30711 -1.45191,-2.49669 -1.72624,-2.64351 -0.98563,-0.52749 -0.45724,-0.69223 2.05243,-0.6399 l 2.55122,0.0532 2.19911,2.34212 c 1.20951,1.28816 2.15525,2.38597 2.10165,2.43958 -0.0536,0.0536 -0.33796,-0.0312 -0.6319,-0.18856 -0.73339,-0.3925 -0.80506,-0.36552 -0.64589,0.24315 0.15383,0.58823 -0.1787,0.69713 -0.65976,0.21608 -0.1722,-0.1722 -0.40437,-0.22164 -0.51593,-0.10987 -0.11157,0.11178 0.50601,0.84754 1.3724,1.63503 0.93248,0.84758 1.47228,1.52155 1.32291,1.65174 -0.3458,0.30141 -5.97598,-0.0765 -6.66953,-0.44773 -0.30772,-0.16468 -1.04355,-0.29942 -1.6352,-0.29942 -0.89568,0 -1.07573,0.0877 -1.07573,0.52382 0,1.05801 -0.86356,2.63333 -2.02094,3.68664 -0.65342,0.59467 -1.24219,1.08121 -1.30838,1.08121 -0.0662,0 -0.0509,-0.27672 0.034,-0.61494 z m 1.27027,-1.7195 c -0.11166,-0.35005 -0.0865,-0.36652 0.11905,-0.078 0.21054,0.29541 0.33834,0.2446 0.66552,-0.26458 0.22271,-0.34662 0.44411,-0.86834 0.49198,-1.15938 0.0735,-0.44661 -0.0368,-0.51464 -0.7067,-0.43609 -0.94997,0.11141 -1.68791,0.46916 -2.3151,1.12237 -0.5676,0.59113 -0.5823,0.76893 -0.0636,0.76893 0.2197,0 0.59966,0.23381 0.84434,0.51958 0.51517,0.60167 1.2001,0.26592 0.96447,-0.47278 z m -0.92219,-0.84936 c 0.65953,-0.54944 1.09516,-0.66808 1.09516,-0.29825 0,0.21688 -1.1642,0.84491 -1.5338,0.82742 -0.10229,-0.005 0.0951,-0.24297 0.43864,-0.52917 z m 9.16496,-3.69536 c -0.0899,-0.14552 -0.28259,-0.26458 -0.42811,-0.26458 -0.14552,0 -0.191,0.11906 -0.10106,0.26458 0.0899,0.14552 0.28258,0.26458 0.4281,0.26458 0.14552,0 0.191,-0.11906 0.10107,-0.26458 z m -0.81539,-3.3356 c 0.71693,-0.27511 0.45808,-0.62783 -0.34315,-0.46759 -0.4331,0.0866 -0.83931,0.0267 -0.94166,-0.13891 -0.24518,-0.3967 -0.74839,-0.37033 -0.61421,0.0322 0.0593,0.17789 0.39664,0.40415 0.74965,0.5028 0.35301,0.0986 0.66187,0.19123 0.68635,0.20573 0.0245,0.0145 0.23283,-0.0459 0.46302,-0.13422 z m -2.4919,-1.39859 c 0,-0.12995 -0.18834,-0.30855 -0.41852,-0.39688 -0.64725,-0.24837 -0.73276,-0.19452 -0.37523,0.23628 0.36503,0.43984 0.79375,0.52658 0.79375,0.1606 z m -3.39108,-3.26064 c -0.18986,-0.18985 -0.31309,-0.20547 -0.31309,-0.0397 0,0.35316 0.3129,0.66606 0.48948,0.48948 0.0752,-0.0752 -0.004,-0.27759 -0.17639,-0.44979 z m 0.7163,-0.85356 c -0.45502,-0.45501 -2.17734,-1.46894 -2.29513,-1.35115 -0.08,0.0799 -0.0958,0.18275 -0.0351,0.22843 0.0606,0.0457 0.45372,0.34334 0.87353,0.66146 0.62554,0.47402 1.86054,0.86507 1.45673,0.46126 z m 1.88103,-0.67051 c 0,-0.32062 -0.97017,-0.94712 -1.85209,-1.196 -0.59645,-0.16833 -0.57045,-0.10709 0.26458,0.62315 0.93211,0.81513 1.58751,1.05163 1.58751,0.57285 z m -2.59733,-4.29676 c -0.18986,-0.18985 -0.31309,-0.20547 -0.31309,-0.0397 0,0.35316 0.3129,0.66606 0.48948,0.48948 0.0752,-0.0752 -0.004,-0.27759 -0.17639,-0.44979 z m -1.90059,-1.38226 c 0,-0.0642 -0.11906,-0.19027 -0.26459,-0.2802 -0.14552,-0.0899 -0.26458,-0.0374 -0.26458,0.11667 0,0.15411 0.11906,0.2802 0.26458,0.2802 0.14553,0 0.26459,-0.0525 0.26459,-0.11667 z m -3.55256,-1.07963 c -0.54374,-0.41137 -0.84758,-0.34598 -0.55936,0.12037 0.0959,0.1552 0.37573,0.27839 0.6218,0.27377 0.39282,-0.007 0.3852,-0.0555 -0.0624,-0.39414 z m -5.97244,-7.00578 c 0,-0.14552 -0.12609,-0.26459 -0.2802,-0.26459 -0.15411,0 -0.20661,0.11907 -0.11668,0.26459 0.0899,0.14552 0.21603,0.26458 0.2802,0.26458 0.0642,0 0.11668,-0.11906 0.11668,-0.26458 z m -5.02709,-0.26459 c 0,-0.14552 -0.26789,-0.26276 -0.59531,-0.26053 -0.48139,0.003 -0.51937,0.0531 -0.19844,0.26053 0.51297,0.33151 0.79375,0.33151 0.79375,0 z m 14.99306,21.51945 c -0.097,-0.097 -0.17639,-0.34972 -0.17639,-0.56156 0,-0.31238 0.075,-0.32293 0.39688,-0.0558 0.21828,0.18115 0.39687,0.43386 0.39687,0.56156 0,0.27398 -0.36609,0.30707 -0.61736,0.0558 z m -3.62597,-4.03114 c -0.50382,-0.42236 -0.81782,-0.86786 -0.69776,-0.98998 0.12005,-0.12212 0.33802,-0.008 0.48438,0.25344 0.14635,0.26152 0.55414,0.585 0.90619,0.71885 0.35206,0.13385 0.6401,0.36538 0.6401,0.5145 0,0.44896 -0.36864,0.31156 -1.33291,-0.49681 z m -14.99796,-16.78086 -0.85276,-0.3106 0.6735,-0.8599 c 0.49391,-0.63061 0.8859,-0.85989 1.47011,-0.85989 0.43814,0 0.75066,0.0893 0.69447,0.19843 -0.0562,0.10914 -0.30582,0.64492 -0.55476,1.19063 -0.24894,0.5457 -0.48079,0.98313 -0.51522,0.97206 -0.0344,-0.0111 -0.44633,-0.1599 -0.91534,-0.33073 z"
         id="path8926"
         sodipodi:nodetypes="ssssscsssssscsscsscscsssssssssssssssssssssssssssssssssssssssssssscsscsssssssssscsscssssssssssssscsssssssssscssssssssssssssssssssssssccssssssssssssssssssscsssssssscsssssssssssssscssssss" />
      <g
         aria-label="The"
         transform="matrix(0.56744858,0,0,0.56744858,15.591161,-303.63753)"
         id="text1650"
         style="font-size:40px;line-height:1.25;font-family:'FONTSPRING DEMO - Cheltenham Pro';-inkscape-font-specification:'FONTSPRING DEMO - Cheltenham Pro';letter-spacing:-1.34752px;white-space:pre;shape-inside:url(#rect1652);display:inline;fill:#0a094d;fill-opacity:1">
        <path
           d="m 56.125469,588.1979 h 2.28 c 2.56,0 3.36,0.4 4.16,2.08 1.04,2.28 1.04,2.28 1.68,2.28 h 0.92 v -6.68 c -1.04,0.4 -1.88,0.52 -3.16,0.52 h -15.6 c -1.72,0 -2.4,-0.12 -3.28,-0.52 v 6.68 h 1.24 c 0.4,0 0.64,-0.32 0.84,-1.16 0.6,-2.44 1.68,-3.2 4.48,-3.2 h 2.52 v 21.72 c 0,1.16 -0.28,1.52 -1.24,1.68 l -0.4,0.04 c -0.48,0.08 -0.72,0.32 -0.72,0.76 v 0.68 h 8.64 v -0.68 c 0,-0.44 -0.24,-0.68 -0.64,-0.76 l -0.44,-0.04 c -0.96,-0.12 -1.28,-0.52 -1.28,-1.68 z"
           id="path9290"
           style="fill:#0a094d;fill-opacity:1" />
        <path
           d="m 71.697867,598.4379 c 0.96,-1.32 2.88,-2.24 4.68,-2.24 1.12,0 2.16,0.36 2.88,1.08 0.72,0.68 0.96,1.4 0.96,3 v 9.32 c 0,1.44 -0.08,1.6 -1.16,1.88 l -0.2,0.08 c -0.4,0.12 -0.56,0.32 -0.56,0.8 v 0.72 h 7.48 v -0.72 c 0,-0.48 -0.16,-0.76 -0.52,-0.8 l -0.32,-0.08 c -1,-0.28 -1.12,-0.44 -1.12,-1.88 v -9.8 c 0,-1.76 -0.48,-2.96 -1.6,-3.84 -1.16,-0.92 -2.92,-1.48 -4.76,-1.48 -1.96,0 -3.64,0.56 -5.76,1.88 v -10.08 l -5.56,0.12 v 0.72 c 0,0.48 0.16,0.76 0.48,0.8 l 0.36,0.08 c 1,0.28 1.12,0.44 1.12,1.88 v 19.72 c 0,1.44 -0.12,1.6 -1.12,1.88 l -0.36,0.08 c -0.32,0.04 -0.48,0.32 -0.48,0.8 v 0.72 h 7.52 v -0.72 c 0,-0.48 -0.16,-0.72 -0.56,-0.8 l -0.28,-0.08 c -1,-0.28 -1.12,-0.44 -1.12,-1.88 z"
           id="path9292"
           style="fill:#0a094d;fill-opacity:1" />
        <path
           d="m 103.59023,603.4779 v -0.36 c -0.08,-5.28 -3.2,-8.64 -8.000001,-8.64 -5.24,0 -9.04,4 -9.04,9.48 0,5.68 4.12,9.8 9.76,9.8 3.24,0 5.440001,-1.16 7.600001,-4 l -1.28,-0.96 c -1.92,2.36 -3.480001,3.24 -5.600001,3.24 -3.8,0 -6.56,-3.28 -6.56,-7.84 v -0.72 z m -4.040001,-1.8 h -8.92 c 0.32,-3.44 2.08,-5.48 4.72,-5.48 2.72,0 4.2,1.8 4.2,5.04 z"
           id="path9294"
           style="fill:#0a094d;fill-opacity:1" />
      </g>
      <g
         aria-label="Programming"
         transform="matrix(0.68021839,0,0,0.68021839,-5.0028072,-328.48256)"
         id="text1650-7"
         style="font-size:40px;line-height:1.25;font-family:'FONTSPRING DEMO - Cheltenham Pro';-inkscape-font-specification:'FONTSPRING DEMO - Cheltenham Pro';letter-spacing:-2.29491px;white-space:pre;shape-inside:url(#rect1652-1);display:inline;fill:#0a094d;fill-opacity:1">
        <path
           d="m 50.365469,600.5979 h 4.84 c 2.08,0 3.8,-0.4 5.2,-1.16 2.44,-1.4 3.84,-3.64 3.84,-6.2 0,-2.24 -1.04,-4.04 -3.28,-5.6 -1.36,-0.96 -2.56,-1.24 -5.04,-1.24 h -11.6 v 0.68 c 0,0.44 0.12,0.6 0.64,0.76 l 0.24,0.08 c 0.6,0.32 0.92,0.52 0.96,0.52 0.2,0.2 0.28,0.6 0.28,1.24 v 20.24 c 0,1.2 -0.16,1.4 -1.24,1.68 l -0.2,0.04 c -0.48,0.12 -0.68,0.36 -0.68,0.76 v 0.68 h 8.16 v -0.68 c 0,-0.48 -0.08,-0.6 -0.6,-0.76 l -0.2,-0.04 c -1.16,-0.28 -1.32,-0.48 -1.32,-1.68 z m 0,-1.8 v -10.6 h 4.72 c 2.96,0 4.96,2.16 4.96,5.36 0,3.32 -2.12,5.24 -5.8,5.24 z"
           id="path9267"
           style="fill:#0a094d;fill-opacity:1" />
        <path
           d="m 69.990536,594.8379 -5.6,0.12 v 0.72 c 0,0.48 0.08,0.72 0.32,0.76 l 0.84,0.24 c 0.72,0.24 0.8,0.4 0.8,1.76 v 11.16 c 0,1.32 -0.04,1.44 -0.72,1.76 l -0.52,0.2 c -0.56,0.16 -0.72,0.32 -0.72,0.8 v 0.72 h 7.92 v -0.72 c 0,-0.48 -0.24,-0.76 -0.64,-0.8 l -0.64,-0.08 c -1,-0.28 -1.12,-0.44 -1.08,-1.88 v -1.84 c 0,-2.72 0.4,-4.88 1.28,-7 0.68,-1.6 1.6,-2.72 2.28,-2.72 0.16,0 0.28,0.04 0.68,0.24 0.48,0.2 0.92,0.32 1.36,0.32 1.2,0 2.12,-0.84 2.12,-1.96 0,-1.24 -1,-2.16 -2.4,-2.16 -1.16,0 -2.16,0.6 -3.24,1.92 -0.88,1.08 -1.36,2.08 -2.04,4.24 z"
           id="path9269"
           style="fill:#0a094d;fill-opacity:1" />
        <path
           d="m 85.975529,594.3579 c -2.8,0 -5,0.92 -6.92,2.92 -1.68,1.76 -2.6,4.12 -2.6,6.64 0,5.6 4.08,9.68 9.68,9.68 5.28,0 9.36,-4.24 9.36,-9.72 0,-5.48 -4.04,-9.52 -9.52,-9.52 z m 0.04,1.4 c 3.44,0 5.36,2.92 5.36,8.16 0,5.32 -1.88,8.28 -5.28,8.28 -3.6,0 -5.52,-3.08 -5.52,-8.72 0,-4.8 2.04,-7.72 5.44,-7.72 z"
           id="path9271"
           style="fill:#0a094d;fill-opacity:1" />
        <path
           d="m 100.52058,606.9179 c 1,0.36 1.96,0.52 3.2,0.52 4.24,0 7.64,-3.08 7.64,-6.88 0,-1.32 -0.52,-2.68 -1.44,-3.8 -0.68,-0.8 -0.68,-0.8 -0.68,-1.08 0,-0.36 0.24,-0.68 0.48,-0.68 0.08,0 0.16,0.04 0.32,0.28 0.28,0.36 0.8,0.6 1.32,0.6 1,0 1.68,-0.68 1.68,-1.64 0,-1.04 -0.96,-1.84 -2.16,-1.84 -1.48,0 -2.44,0.88 -2.92,2.72 -1.68,-0.84 -2.84,-1.16 -4.28,-1.16 -4.480001,0 -7.920001,3 -7.920001,6.88 0,2.28 1.08,4.08 3.2,5.36 l -3.36,7 v 0.04 c -0.04,0.16 0.08,0.28 0.24,0.28 0.08,0 0.28,-0.04 0.64,-0.12 2.08,-0.4 4.120001,-0.64 5.720001,-0.64 4.36,0 6.92,1.28 6.92,3.4 0,2 -2.48,3.56 -5.64,3.56 -2.52,0 -4.200001,-0.6 -4.200001,-1.52 0,-0.08 0,-0.16 0.04,-0.24 0.08,-0.64 0.12,-0.84 0.12,-1.04 0,-1 -0.88,-1.76 -2.08,-1.76 -1.28,0 -2.2,0.84 -2.2,2.04 0,2.28 3.36,3.92 8.040001,3.92 5.36,0 9.16,-2.48 9.16,-6 0,-3.36 -3.44,-5.52 -8.76,-5.52 -1.52,0 -3.36,0.24 -4.640001,0.56 z m 3.12,-11.56 c 2.32,0 3.88,2.04 3.88,5.2 0,3.36 -1.56,5.48 -4,5.48 -2.4,0 -3.960001,-2.04 -3.960001,-5.24 0,-3.28 1.600001,-5.44 4.080001,-5.44 z"
           id="path9273"
           style="fill:#0a094d;fill-opacity:1" />
        <path
           d="m 117.26566,594.8379 -5.6,0.12 v 0.72 c 0,0.48 0.08,0.72 0.32,0.76 l 0.84,0.24 c 0.72,0.24 0.8,0.4 0.8,1.76 v 11.16 c 0,1.32 -0.04,1.44 -0.72,1.76 l -0.52,0.2 c -0.56,0.16 -0.72,0.32 -0.72,0.8 v 0.72 h 7.92 v -0.72 c 0,-0.48 -0.24,-0.76 -0.64,-0.8 l -0.64,-0.08 c -1,-0.28 -1.12,-0.44 -1.08,-1.88 v -1.84 c 0,-2.72 0.4,-4.88 1.28,-7 0.68,-1.6 1.6,-2.72 2.28,-2.72 0.16,0 0.28,0.04 0.68,0.24 0.48,0.2 0.92,0.32 1.36,0.32 1.2,0 2.12,-0.84 2.12,-1.96 0,-1.24 -1,-2.16 -2.4,-2.16 -1.16,0 -2.16,0.6 -3.24,1.92 -0.88,1.08 -1.36,2.08 -2.04,4.24 z"
           id="path9275"
           style="fill:#0a094d;fill-opacity:1" />
        <path
           d="m 141.4107,611.2379 c -0.44,0.36 -0.68,0.48 -1.04,0.48 -1.16,0 -1.68,-1.12 -1.68,-3.64 v -4.96 c 0,-2.44 -0.4,-4.64 -1.04,-5.72 -1.08,-1.72 -3.72,-2.92 -6.48,-2.92 -3.16,0 -5.76,1.52 -5.76,3.32 0,1.04 0.84,1.8 2,1.8 1.16,0 2.04,-0.84 2.16,-2.08 0.12,-1.2 0.52,-1.64 1.64,-1.64 1.08,0 2.04,0.52 2.76,1.52 0.64,0.88 0.8,1.72 0.96,4.4 -7.44,0.76 -11.28,3 -11.28,6.6 0,3.12 2.64,5.36 6.32,5.36 2.24,0 3.44,-0.6 5.48,-2.64 0.8,1.88 1.8,2.64 3.48,2.64 1.32,0 2.88,-0.92 2.88,-1.76 0,-0.08 -0.04,-0.2 -0.08,-0.28 z m -6.32,-7.32 v 0.92 c 0,2.44 -0.16,3.76 -0.52,4.64 -0.72,1.56 -2.16,2.56 -3.76,2.56 -1.8,0 -3.04,-1.4 -3.04,-3.48 0,-3 2.56,-4.88 7.32,-5.44 z"
           id="path9277"
           style="fill:#0a094d;fill-opacity:1" />
        <path
           d="m 146.31574,594.8379 -5.32,0.12 v 0.72 c 0,0.48 0.16,0.76 0.52,0.8 l 0.32,0.08 c 1,0.28 1.12,0.44 1.12,1.88 v 11.16 c 0,1.44 -0.12,1.6 -1.12,1.88 l -0.32,0.08 c -0.36,0.04 -0.52,0.32 -0.52,0.8 v 0.72 h 7.68 v -0.72 c 0,-0.48 -0.2,-0.76 -0.56,-0.8 l -0.44,-0.08 c -1,-0.28 -1.12,-0.44 -1.12,-1.88 v -10.96 c 1.12,-1.48 2.84,-2.44 4.24,-2.44 0.72,0 1.48,0.28 2.12,0.8 0.88,0.68 1.16,1.44 1.16,3.24 v 9.36 c 0,1.44 -0.12,1.6 -1.12,1.88 l -0.28,0.08 c -0.4,0.08 -0.56,0.32 -0.56,0.8 v 0.72 h 7.56 v -0.72 c 0,-0.48 -0.2,-0.76 -0.56,-0.8 l -0.32,-0.08 c -1,-0.28 -1.12,-0.44 -1.12,-1.88 v -11 c 1,-1.32 2.64,-2.2 4.08,-2.2 0.88,0 1.88,0.36 2.44,0.92 0.6,0.6 0.84,1.4 0.84,2.92 v 9.36 c 0,1.44 -0.12,1.6 -1.08,1.88 l -0.32,0.08 c -0.36,0.08 -0.52,0.32 -0.52,0.8 v 0.72 h 7.48 v -0.72 c 0,-0.48 -0.16,-0.76 -0.48,-0.8 l -0.36,-0.08 c -1,-0.28 -1.12,-0.44 -1.12,-1.88 v -9.52 c 0,-1.88 -0.28,-2.84 -1.08,-3.8 -0.92,-1.08 -2.8,-1.8 -4.68,-1.8 -2.16,0 -3.56,0.6 -5.76,2.6 -1.08,-1.8 -2.68,-2.6 -5.2,-2.6 -2.08,0 -3.8,0.76 -5.6,2.52 z"
           id="path9279"
           style="fill:#0a094d;fill-opacity:1" />
        <path
           d="m 176.42081,594.8379 -5.32,0.12 v 0.72 c 0,0.48 0.16,0.76 0.52,0.8 l 0.32,0.08 c 1,0.28 1.12,0.44 1.12,1.88 v 11.16 c 0,1.44 -0.12,1.6 -1.12,1.88 l -0.32,0.08 c -0.36,0.04 -0.52,0.32 -0.52,0.8 v 0.72 h 7.68 v -0.72 c 0,-0.48 -0.2,-0.76 -0.56,-0.8 l -0.44,-0.08 c -1,-0.28 -1.12,-0.44 -1.12,-1.88 v -10.96 c 1.12,-1.48 2.84,-2.44 4.24,-2.44 0.72,0 1.48,0.28 2.12,0.8 0.88,0.68 1.16,1.44 1.16,3.24 v 9.36 c 0,1.44 -0.12,1.6 -1.12,1.88 l -0.28,0.08 c -0.4,0.08 -0.56,0.32 -0.56,0.8 v 0.72 h 7.56 v -0.72 c 0,-0.48 -0.2,-0.76 -0.56,-0.8 l -0.32,-0.08 c -1,-0.28 -1.12,-0.44 -1.12,-1.88 v -11 c 1,-1.32 2.64,-2.2 4.08,-2.2 0.88,0 1.88,0.36 2.44,0.92 0.6,0.6 0.84,1.4 0.84,2.92 v 9.36 c 0,1.44 -0.12,1.6 -1.08,1.88 l -0.32,0.08 c -0.36,0.08 -0.52,0.32 -0.52,0.8 v 0.72 h 7.48 v -0.72 c 0,-0.48 -0.16,-0.76 -0.48,-0.8 l -0.36,-0.08 c -1,-0.28 -1.12,-0.44 -1.12,-1.88 v -9.52 c 0,-1.88 -0.28,-2.84 -1.08,-3.8 -0.92,-1.08 -2.8,-1.8 -4.68,-1.8 -2.16,0 -3.56,0.6 -5.76,2.6 -1.08,-1.8 -2.68,-2.6 -5.2,-2.6 -2.08,0 -3.8,0.76 -5.6,2.52 z"
           id="path9281"
           style="fill:#0a094d;fill-opacity:1" />
        <path
           d="m 206.76588,594.8379 -5.56,0.12 v 0.72 c 0.16,0.6 0.2,0.68 0.6,0.8 l 0.24,0.08 c 1.04,0.28 1.12,0.44 1.12,1.88 v 11.16 c 0,1.44 -0.12,1.6 -1.12,1.88 l -0.24,0.08 c -0.4,0.12 -0.44,0.2 -0.6,0.8 v 0.72 h 7.52 v -0.72 l -0.12,-0.32 c -0.04,-0.12 -0.08,-0.2 -0.08,-0.24 -0.08,-0.08 -0.24,-0.2 -0.44,-0.24 l -0.2,-0.08 c -1,-0.28 -1.12,-0.44 -1.12,-1.88 z m -2.44,-7.4 c -1.28,0 -2.36,1.04 -2.36,2.28 0,1.32 1.04,2.4 2.36,2.4 1.28,0 2.32,-1.04 2.32,-2.36 0,-1.28 -1.04,-2.32 -2.32,-2.32 z"
           id="path9283"
           style="fill:#0a094d;fill-opacity:1" />
        <path
           d="m 214.55095,594.8379 -5.32,0.12 v 0.72 c 0,0.48 0.16,0.68 0.64,0.8 l 0.2,0.08 c 1.04,0.28 1.12,0.44 1.12,1.88 v 11.16 c 0,1.44 -0.12,1.6 -1.12,1.88 l -0.2,0.08 c -0.48,0.12 -0.64,0.32 -0.64,0.8 v 0.72 h 7.6 v -0.72 c 0,-0.48 -0.2,-0.76 -0.56,-0.8 l -0.36,-0.08 c -1,-0.28 -1.12,-0.44 -1.12,-1.88 v -11.12 c 0.88,-1.36 2.68,-2.28 4.28,-2.28 1.16,0 2.28,0.4 2.96,1.04 0.64,0.64 0.84,1.52 0.84,3.48 v 8.88 c 0,1.44 -0.12,1.6 -1.16,1.88 l -0.44,0.08 c -0.36,0.04 -0.56,0.32 -0.56,0.8 v 0.72 h 7.72 v -0.72 c 0,-0.48 -0.16,-0.76 -0.48,-0.8 l -0.36,-0.08 c -1,-0.28 -1.12,-0.44 -1.12,-1.88 v -9.84 c 0,-1.84 -0.28,-2.76 -1.2,-3.68 -1.08,-1.08 -2.56,-1.6 -4.72,-1.6 -2.52,0 -3.76,0.44 -6,2.24 z"
           id="path9285"
           style="fill:#0a094d;fill-opacity:1" />
        <path
           d="m 233.57601,606.9179 c 1,0.36 1.96,0.52 3.2,0.52 4.24,0 7.64,-3.08 7.64,-6.88 0,-1.32 -0.52,-2.68 -1.44,-3.8 -0.68,-0.8 -0.68,-0.8 -0.68,-1.08 0,-0.36 0.24,-0.68 0.48,-0.68 0.08,0 0.16,0.04 0.32,0.28 0.28,0.36 0.8,0.6 1.32,0.6 1,0 1.68,-0.68 1.68,-1.64 0,-1.04 -0.96,-1.84 -2.16,-1.84 -1.48,0 -2.44,0.88 -2.92,2.72 -1.68,-0.84 -2.84,-1.16 -4.28,-1.16 -4.48,0 -7.92,3 -7.92,6.88 0,2.28 1.08,4.08 3.2,5.36 l -3.36,7 v 0.04 c -0.04,0.16 0.08,0.28 0.24,0.28 0.08,0 0.28,-0.04 0.64,-0.12 2.08,-0.4 4.12,-0.64 5.72,-0.64 4.36,0 6.92,1.28 6.92,3.4 0,2 -2.48,3.56 -5.64,3.56 -2.52,0 -4.2,-0.6 -4.2,-1.52 0,-0.08 0,-0.16 0.04,-0.24 0.08,-0.64 0.12,-0.84 0.12,-1.04 0,-1 -0.88,-1.76 -2.08,-1.76 -1.28,0 -2.2,0.84 -2.2,2.04 0,2.28 3.36,3.92 8.04,3.92 5.36,0 9.16,-2.48 9.16,-6 0,-3.36 -3.44,-5.52 -8.76,-5.52 -1.52,0 -3.36,0.24 -4.64,0.56 z m 3.12,-11.56 c 2.32,0 3.88,2.04 3.88,5.2 0,3.36 -1.56,5.48 -4,5.48 -2.4,0 -3.96,-2.04 -3.96,-5.24 0,-3.28 1.6,-5.44 4.08,-5.44 z"
           id="path9287"
           style="fill:#0a094d;fill-opacity:1" />
      </g>
      <g
         aria-label="Language"
         transform="matrix(0.68021839,0,0,0.68021839,62.818996,-307.00355)"
         id="text1650-7-1"
         style="font-size:40px;line-height:1.25;font-family:'FONTSPRING DEMO - Cheltenham Pro';-inkscape-font-specification:'FONTSPRING DEMO - Cheltenham Pro';letter-spacing:-2.29491px;white-space:pre;shape-inside:url(#rect1652-1-1);display:inline;fill:#0a094d;fill-opacity:1">
        <path
           d="m 50.365469,611.2779 v -21.72 c 0,-1.2 0.16,-1.4 1.24,-1.68 l 0.2,-0.04 c 0.48,-0.12 0.64,-0.32 0.64,-0.76 v -0.68 h -8.12 v 0.68 c 0,0.4 0.2,0.64 0.64,0.76 l 0.24,0.04 c 1.08,0.28 1.24,0.48 1.24,1.68 v 20.28 c 0,1.08 -0.28,1.48 -1.24,1.76 l -0.24,0.04 c -0.52,0.16 -0.64,0.32 -0.64,0.76 v 0.68 h 19.12 v -6.72 h -1 c -0.52,0 -0.76,0.2 -0.92,0.88 -0.44,1.92 -0.72,2.44 -1.56,3.04 -0.88,0.64 -2.48,1 -4.52,1 z"
           id="path9250"
           style="fill:#0a094d;fill-opacity:1" />
        <path
           d="m 80.990495,611.2379 c -0.44,0.36 -0.68,0.48 -1.04,0.48 -1.16,0 -1.68,-1.12 -1.68,-3.64 v -4.96 c 0,-2.44 -0.4,-4.64 -1.04,-5.72 -1.08,-1.72 -3.72,-2.92 -6.48,-2.92 -3.16,0 -5.76,1.52 -5.76,3.32 0,1.04 0.84,1.8 2,1.8 1.16,0 2.04,-0.84 2.16,-2.08 0.12,-1.2 0.52,-1.64 1.64,-1.64 1.08,0 2.04,0.52 2.76,1.52 0.64,0.88 0.8,1.72 0.96,4.4 -7.44,0.76 -11.28,3 -11.28,6.6 0,3.12 2.64,5.36 6.32,5.36 2.24,0 3.44,-0.6 5.48,-2.64 0.8,1.88 1.8,2.64 3.48,2.64 1.32,0 2.88,-0.92 2.88,-1.76 0,-0.08 -0.04,-0.2 -0.08,-0.28 z m -6.32,-7.32 v 0.92 c 0,2.44 -0.16,3.76 -0.52,4.64 -0.72,1.56 -2.16,2.56 -3.76,2.56 -1.8,0 -3.04,-1.4 -3.04,-3.48 0,-3 2.56,-4.88 7.32,-5.44 z"
           id="path9252"
           style="fill:#0a094d;fill-opacity:1" />
        <path
           d="m 85.895545,594.8379 -5.32,0.12 v 0.72 c 0,0.48 0.16,0.68 0.64,0.8 l 0.2,0.08 c 1.04,0.28 1.12,0.44 1.12,1.88 v 11.16 c 0,1.44 -0.12,1.6 -1.12,1.88 l -0.2,0.08 c -0.48,0.12 -0.64,0.32 -0.64,0.8 v 0.72 h 7.6 v -0.72 c 0,-0.48 -0.2,-0.76 -0.56,-0.8 l -0.36,-0.08 c -1,-0.28 -1.12,-0.44 -1.12,-1.88 v -11.12 c 0.88,-1.36 2.68,-2.28 4.28,-2.28 1.16,0 2.28,0.4 2.96,1.04 0.64,0.64 0.84,1.52 0.84,3.48 v 8.88 c 0,1.44 -0.12,1.6 -1.16,1.88 l -0.44,0.08 c -0.36,0.04 -0.56,0.32 -0.56,0.8 v 0.72 h 7.72 v -0.72 c 0,-0.48 -0.16,-0.76 -0.48,-0.8 l -0.36,-0.08 c -1,-0.28 -1.12,-0.44 -1.12,-1.88 v -9.84 c 0,-1.84 -0.28,-2.76 -1.2,-3.68 -1.08,-1.08 -2.56,-1.6 -4.72,-1.6 -2.52,0 -3.76,0.44 -6,2.24 z"
           id="path9254"
           style="fill:#0a094d;fill-opacity:1" />
        <path
           d="m 104.9206,606.9179 c 1,0.36 1.96,0.52 3.2,0.52 4.24,0 7.64,-3.08 7.64,-6.88 0,-1.32 -0.52,-2.68 -1.44,-3.8 -0.68,-0.8 -0.68,-0.8 -0.68,-1.08 0,-0.36 0.24,-0.68 0.48,-0.68 0.08,0 0.16,0.04 0.32,0.28 0.28,0.36 0.8,0.6 1.32,0.6 1,0 1.68,-0.68 1.68,-1.64 0,-1.04 -0.96,-1.84 -2.16,-1.84 -1.48,0 -2.44,0.88 -2.92,2.72 -1.68,-0.84 -2.84,-1.16 -4.28,-1.16 -4.48,0 -7.92,3 -7.92,6.88 0,2.28 1.08,4.08 3.2,5.36 l -3.36,7 v 0.04 c -0.04,0.16 0.08,0.28 0.24,0.28 0.08,0 0.28,-0.04 0.64,-0.12 2.08,-0.4 4.12,-0.64 5.72,-0.64 4.36,0 6.92,1.28 6.92,3.4 0,2 -2.48,3.56 -5.64,3.56 -2.52,0 -4.2,-0.6 -4.2,-1.52 0,-0.08 0,-0.16 0.04,-0.24 0.08,-0.64 0.12,-0.84 0.12,-1.04 0,-1 -0.88,-1.76 -2.08,-1.76 -1.28,0 -2.199996,0.84 -2.199996,2.04 0,2.28 3.359996,3.92 8.039996,3.92 5.36,0 9.16,-2.48 9.16,-6 0,-3.36 -3.44,-5.52 -8.76,-5.52 -1.52,0 -3.36,0.24 -4.64,0.56 z m 3.12,-11.56 c 2.32,0 3.88,2.04 3.88,5.2 0,3.36 -1.56,5.48 -4,5.48 -2.4,0 -3.96,-2.04 -3.96,-5.24 0,-3.28 1.6,-5.44 4.08,-5.44 z"
           id="path9256"
           style="fill:#0a094d;fill-opacity:1" />
        <path
           d="m 129.90568,613.0779 h 5.64 v -0.72 c 0,-0.48 -0.16,-0.72 -0.56,-0.8 l -0.28,-0.08 c -1,-0.28 -1.12,-0.44 -1.12,-1.88 v -14.76 l -5.76,0.12 v 0.72 c 0,0.48 0.2,0.76 0.56,0.8 l 0.36,0.08 c 1,0.28 1.12,0.44 1.12,1.88 v 11.2 c -1.96,1.48 -2.84,1.84 -4.28,1.84 -1.32,0 -2.56,-0.44 -3.2,-1.12 -0.6,-0.68 -0.76,-1.28 -0.76,-3.2 v -12.32 l -5.56,0.12 v 0.72 c 0,0.48 0.2,0.76 0.52,0.8 l 0.32,0.08 c 1,0.28 1.12,0.44 1.12,1.88 v 9.52 c 0,3.48 2.36,5.64 6.08,5.64 2.04,0 4.28,-0.84 5.8,-2.2 z"
           id="path9258"
           style="fill:#0a094d;fill-opacity:1" />
        <path
           d="m 153.01073,611.2379 c -0.44,0.36 -0.68,0.48 -1.04,0.48 -1.16,0 -1.68,-1.12 -1.68,-3.64 v -4.96 c 0,-2.44 -0.4,-4.64 -1.04,-5.72 -1.08,-1.72 -3.72,-2.92 -6.48,-2.92 -3.16,0 -5.76,1.52 -5.76,3.32 0,1.04 0.84,1.8 2,1.8 1.16,0 2.04,-0.84 2.16,-2.08 0.12,-1.2 0.52,-1.64 1.64,-1.64 1.08,0 2.04,0.52 2.76,1.52 0.64,0.88 0.8,1.72 0.96,4.4 -7.44,0.76 -11.28,3 -11.28,6.6 0,3.12 2.64,5.36 6.32,5.36 2.24,0 3.44,-0.6 5.48,-2.64 0.8,1.88 1.8,2.64 3.48,2.64 1.32,0 2.88,-0.92 2.88,-1.76 0,-0.08 -0.04,-0.2 -0.08,-0.28 z m -6.32,-7.32 v 0.92 c 0,2.44 -0.16,3.76 -0.52,4.64 -0.72,1.56 -2.16,2.56 -3.76,2.56 -1.8,0 -3.04,-1.4 -3.04,-3.48 0,-3 2.56,-4.88 7.32,-5.44 z"
           id="path9260"
           style="fill:#0a094d;fill-opacity:1" />
        <path
           d="m 157.83575,606.9179 c 1,0.36 1.96,0.52 3.2,0.52 4.24,0 7.64,-3.08 7.64,-6.88 0,-1.32 -0.52,-2.68 -1.44,-3.8 -0.68,-0.8 -0.68,-0.8 -0.68,-1.08 0,-0.36 0.24,-0.68 0.48,-0.68 0.08,0 0.16,0.04 0.32,0.28 0.28,0.36 0.8,0.6 1.32,0.6 1,0 1.68,-0.68 1.68,-1.64 0,-1.04 -0.96,-1.84 -2.16,-1.84 -1.48,0 -2.44,0.88 -2.92,2.72 -1.68,-0.84 -2.84,-1.16 -4.28,-1.16 -4.48,0 -7.92,3 -7.92,6.88 0,2.28 1.08,4.08 3.2,5.36 l -3.36,7 v 0.04 c -0.04,0.16 0.08,0.28 0.24,0.28 0.08,0 0.28,-0.04 0.64,-0.12 2.08,-0.4 4.12,-0.64 5.72,-0.64 4.36,0 6.92,1.28 6.92,3.4 0,2 -2.48,3.56 -5.64,3.56 -2.52,0 -4.2,-0.6 -4.2,-1.52 0,-0.08 0,-0.16 0.04,-0.24 0.08,-0.64 0.12,-0.84 0.12,-1.04 0,-1 -0.88,-1.76 -2.08,-1.76 -1.28,0 -2.2,0.84 -2.2,2.04 0,2.28 3.36,3.92 8.04,3.92 5.36,0 9.16,-2.48 9.16,-6 0,-3.36 -3.44,-5.52 -8.76,-5.52 -1.52,0 -3.36,0.24 -4.64,0.56 z m 3.12,-11.56 c 2.32,0 3.88,2.04 3.88,5.2 0,3.36 -1.56,5.48 -4,5.48 -2.4,0 -3.96,-2.04 -3.96,-5.24 0,-3.28 1.6,-5.44 4.08,-5.44 z"
           id="path9262"
           style="fill:#0a094d;fill-opacity:1" />
        <path
           d="m 185.78082,603.4779 v -0.36 c -0.08,-5.28 -3.2,-8.64 -8,-8.64 -5.24,0 -9.04,4 -9.04,9.48 0,5.68 4.12,9.8 9.76,9.8 3.24,0 5.44,-1.16 7.6,-4 l -1.28,-0.96 c -1.92,2.36 -3.48,3.24 -5.6,3.24 -3.8,0 -6.56,-3.28 -6.56,-7.84 v -0.72 z m -4.04,-1.8 h -8.92 c 0.32,-3.44 2.08,-5.48 4.72,-5.48 2.72,0 4.2,1.8 4.2,5.04 z"
           id="path9264"
           style="fill:#0a094d;fill-opacity:1" />
      </g>
      <g
         aria-label="AWK"
         transform="matrix(1.191551,0,0,1.191551,19.149215,-664.16543)"
         id="text1650-9"
         style="font-size:40px;line-height:1.25;font-family:'FONTSPRING DEMO - Cheltenham Pro';-inkscape-font-specification:'FONTSPRING DEMO - Cheltenham Pro';letter-spacing:-5.18486px;white-space:pre;shape-inside:url(#rect1652-0);display:inline;fill:#e70000;fill-opacity:1">
        <path
           d="m 53.685469,590.3579 -7.6,18.6 c -0.8,1.72 -1.32,2.32 -2.2,2.52 -0.68,0.2 -0.88,0.4 -0.88,0.84 v 0.76 h 6.76 v -0.76 c 0,-0.4 -0.16,-0.56 -0.64,-0.72 -1,-0.32 -1.32,-0.6 -1.32,-1.28 0,-0.36 0.12,-0.84 0.48,-1.76 l 1.12,-2.92 h 10.52 l 1.36,3.32 c 0.28,0.68 0.44,1.28 0.44,1.64 0,0.48 -0.28,0.72 -1.2,1 -0.6,0.16 -0.8,0.32 -0.8,0.72 v 0.76 h 8.52 v -0.76 c 0,-0.36 -0.12,-0.52 -0.44,-0.64 -1.16,-0.36 -1.28,-0.48 -1.96,-1.88 l -9.96,-23.96 c -0.08,-0.24 -0.12,-0.28 -0.2,-0.28 -0.08,0 -0.08,0 -0.4,0.2 l -2.04,1.24 c -0.36,0.24 -0.56,0.48 -0.56,0.68 0,0.08 0.04,0.2 0.08,0.36 z m 5.44,13.48 h -8.96 l 4.48,-11.08 z"
           id="path9243"
           style="fill:#e70000;fill-opacity:1" />
        <path
           d="m 80.980571,595.8779 5.84,17.6 h 1.56 l 7.48,-23.04 c 0.84,-2.2 0.88,-2.28 2.16,-2.72 0.28,-0.04 0.4,-0.2 0.4,-0.48 v -0.84 h -6.2 v 0.84 c 0,0.32 0.24,0.56 0.64,0.64 0.96,0.16 1.28,0.4 1.28,0.92 0,0.44 -0.2,1.32 -0.52,2.36 l -5.08,15.72 -5.56,-16.72 c -0.24,-0.76 -0.24,-0.76 -0.24,-1.04 0,-0.64 0.2,-0.8 1.44,-1.16 0.48,-0.16 0.68,-0.36 0.68,-0.72 v -0.84 h -8.04 v 0.84 c 0,0.36 0.24,0.56 0.64,0.64 0.96,0.16 1.2,0.4 1.52,1.52 l 1,3.16 -4.64,13.92 -5.28,-16.04 -0.2,-0.64 c -0.16,-0.44 -0.2,-0.6 -0.2,-0.8 0,-0.6 0.36,-1 0.96,-1.08 0.92,-0.16 1.12,-0.28 1.12,-0.68 v -0.84 h -8 v 0.84 c 0,0.28 0.12,0.44 0.4,0.56 1.04,0.32 1.28,0.56 1.68,1.88 l 7.8,23.8 h 1.52 z"
           id="path9245"
           style="fill:#e70000;fill-opacity:1" />
        <path
           d="m 101.27566,598.0379 v -8.48 c 0,-1.2 0.16,-1.4 1.2,-1.68 l 0.16,-0.04 c 0.52,-0.16 0.64,-0.32 0.64,-0.76 v -0.68 h -8.040004 v 0.68 c 0,0 0.04,0.08 0.32,0.52 0.04,0.08 0.16,0.16 0.4,0.24 l 0.24,0.04 c 1,0.28 1.16,0.52 1.16,1.68 v 20.36 c 0,1.2 -0.16,1.4 -1.24,1.68 l -0.2,0.04 c -0.48,0.12 -0.68,0.36 -0.68,0.76 v 0.68 h 8.040004 v -0.68 c 0,-0.44 -0.12,-0.6 -0.64,-0.76 l -0.16,-0.04 c -1.04,-0.28 -1.2,-0.48 -1.2,-1.68 v -10.72 l 9.76,10.64 c 0.28,0.36 0.44,0.64 0.44,0.88 0,0.48 -0.36,0.72 -1.32,0.92 -0.48,0.08 -0.64,0.28 -0.64,0.76 v 0.68 h 9.6 v -0.68 c 0,-0.56 -0.08,-0.68 -0.72,-0.84 -0.88,-0.24 -1.04,-0.32 -2.28,-1.72 l -11.28,-12.36 8.2,-7.52 c 0.52,-0.44 1.04,-0.88 1.56,-1.28 0.24,-0.2 1,-0.56 1.24,-0.64 1.44,-0.4 1.44,-0.4 1.44,-0.76 v -0.88 h -8.52 v 0.88 c 0,0.36 0.2,0.56 0.84,0.68 0.96,0.2 1.28,0.4 1.28,0.76 0,0.28 -0.44,0.96 -0.8,1.32 z"
           id="path9247"
           style="fill:#e70000;fill-opacity:1" />
      </g>
    </g>
  </g>
</svg>
