<svg width="228" height="120" viewBox="0 0 228 120" fill="none" xmlns="http://www.w3.org/2000/svg">
<rect width="228" height="120" fill="white"/>
<rect x="29" y="54" width="144" height="53" rx="2" fill="#F6F8FA"/>
<rect x="184" y="54" width="32" height="36" rx="2" fill="#F6F8FA"/>
<rect opacity="0.3" x="29" y="59" width="144" height="12" fill="#34D058"/>
<path opacity="0.6" d="M0 0H228V24H0V0Z" fill="#F6F8FA"/>
<rect x="13" y="9" width="32" height="6" rx="3" fill="#D1D5DA"/>
<rect x="29" y="36" width="48" height="6" rx="3" fill="#D1D5DA"/>
<rect x="34" y="62" width="64" height="6" rx="3" fill="#34D058"/>
<rect x="210" y="36" width="6" height="6" rx="1" fill="#D73A49"/>
<rect x="202" y="36" width="6" height="6" rx="1" fill="#34D058"/>
<rect x="53" y="9" width="32" height="6" rx="3" fill="#D1D5DA"/>
<rect x="93" y="9" width="32" height="6" rx="3" fill="#D1D5DA"/>
<mask id="mask0" mask-type="alpha" maskUnits="userSpaceOnUse" x="114" y="0" width="114" height="120">
<path d="M114 0H228V120H114V0Z" fill="white"/>
</mask>
<g mask="url(#mask0)">
<path d="M0 0H228V120H0V0Z" fill="#21262D"/>
<rect x="29" y="54" width="144" height="53" rx="2" fill="#30363D"/>
<rect x="184" y="54" width="32" height="36" rx="2" fill="#30363D"/>
<rect opacity="0.3" x="29" y="59" width="144" height="12" fill="#2EA043"/>
<path opacity="0.6" d="M0 0H228V24H0V0Z" fill="#484F58"/>
<rect x="210" y="36" width="6" height="6" rx="1" fill="#DA3633"/>
<rect x="202" y="36" width="6" height="6" rx="1" fill="#3FB950"/>
<rect x="93" y="9" width="32" height="6" rx="3" fill="#8B949E"/>
</g>
</svg>
