<?xml version="1.0" encoding="UTF-8" standalone="no"?>
<!-- Created with Inkscape (http://www.inkscape.org/) -->

<svg
   width="512.0px"
   height="512.0px"
   viewBox="0 0 512.0 512.0"
   version="1.1"
   id="SVGRoot"
   sodipodi:docname="RefalLogo_512px_V1.svg"
   inkscape:version="1.2.1 (8a69933317, 2022-10-28, custom)"
   xmlns:inkscape="http://www.inkscape.org/namespaces/inkscape"
   xmlns:sodipodi="http://sodipodi.sourceforge.net/DTD/sodipodi-0.dtd"
   xmlns="http://www.w3.org/2000/svg"
   xmlns:svg="http://www.w3.org/2000/svg">
  <sodipodi:namedview
     id="namedview14"
     pagecolor="#ffffff"
     bordercolor="#666666"
     borderopacity="1.0"
     inkscape:showpageshadow="2"
     inkscape:pageopacity="0.0"
     inkscape:pagecheckerboard="0"
     inkscape:deskcolor="#d1d1d1"
     inkscape:document-units="px"
     showgrid="true"
     inkscape:zoom="0.70199214"
     inkscape:cx="397.44035"
     inkscape:cy="245.01699"
     inkscape:window-width="1920"
     inkscape:window-height="967"
     inkscape:window-x="0"
     inkscape:window-y="0"
     inkscape:window-maximized="1"
     inkscape:current-layer="layer1">
    <inkscape:grid
       type="xygrid"
       id="grid20" />
  </sodipodi:namedview>
  <defs
     id="defs9" />
  <g
     inkscape:label="Layer 1"
     inkscape:groupmode="layer"
     id="layer1">
    <text
       xml:space="preserve"
       style="font-style:normal;font-weight:normal;font-size:51.1133px;line-height:1.25;font-family:sans-serif;fill:#000000;fill-opacity:1;stroke:none;stroke-width:1.27783"
       x="46.618259"
       y="214.99332"
       id="text131"
       transform="scale(0.9863245,1.0138651)"><tspan
         sodipodi:role="line"
         id="tspan129"
         x="46.618259"
         y="214.99332"
         style="font-weight:bold;stroke-width:1.27783">Refal</tspan><tspan
         sodipodi:role="line"
         x="46.618259"
         y="278.88495"
         id="tspan133"
         style="font-weight:bold;stroke-width:1.27783">Programming</tspan><tspan
         sodipodi:role="line"
         x="46.618259"
         y="342.77658"
         id="tspan135"
         style="font-weight:bold;stroke-width:1.27783">Language</tspan></text>
    <ellipse
       style="fill:#999999"
       id="path399"
       cx="318.97781"
       cy="144.67476"
       rx="93.536812"
       ry="89.046249" />
    <path
       style="fill:none;stroke:#000000;stroke-width:1px;stroke-linecap:butt;stroke-linejoin:miter;stroke-opacity:1"
       d="m 280.66331,202.30929 c 14.39729,-20.36392 2.9747,-3.01775 11.32936,-18.05131 0.67372,-1.2123 1.68823,-2.22102 2.30928,-3.46113 0.0146,-0.0292 2.30429,-6.89787 2.30928,-6.92783 0.18922,-1.13809 -0.12782,-2.31452 0,-3.46113 0.25917,-2.32505 0.89825,-4.59721 1.15742,-6.92226 0.12781,-1.14661 0,-2.30743 0,-3.46114 0,-2.30927 0.20961,-4.62808 0,-6.92782 -0.17808,-1.95369 -0.97927,-3.81674 -1.15742,-5.77041 -0.20954,-2.29789 0.22915,-4.62625 0,-6.92227 -0.15758,-1.57883 -0.99428,-3.03972 -1.15186,-4.61855 -1.77148,-17.74898 1.77938,1.67126 -1.15742,-11.54082 -0.4256,-1.91468 -0.67587,-3.86762 -1.15186,-5.7704 -0.29521,-1.18015 -0.91818,-2.26838 -1.15742,-3.46114 -0.63176,-3.14972 1.23993,-2.16848 -1.15185,-5.76484 -0.2116,-0.31816 -0.8047,0.17121 -1.14629,0 -0.007,-0.003 -2.29321,-2.29474 -2.29815,-2.30371 -0.14945,-0.27132 0.28406,-0.80574 0,-0.92928 -0.65317,-0.28405 -1.42452,0 -2.13678,0 -0.21701,0 -0.52652,-0.17773 -0.65105,0 -0.35441,0.50587 0,1.23533 0,1.85299"
       id="path626" />
    <path
       style="fill:none;stroke:#000000;stroke-width:1px;stroke-linecap:butt;stroke-linejoin:miter;stroke-opacity:1"
       d="m 356.94177,201.71945 c 2.60567,-2.59315 1.01948,-1.45695 0.0612,-3.38323 -0.60098,-1.20807 1.13774,-1.49908 -1.14629,-2.25919 -0.72686,-0.2419 -1.6133,0.34324 -2.29815,0 -0.9732,-0.48778 -1.3356,-1.82244 -2.30927,-2.30928 -0.6885,-0.34425 -1.59439,0.2854 -2.30928,0 -1.28712,-0.51386 -2.24957,-1.63077 -3.46113,-2.30371 -2.25742,-1.25386 -4.57692,-2.39838 -6.92783,-3.4667 -1.88554,-0.85684 -3.97224,-1.2761 -5.77041,-2.30371 -3.6125,-2.06447 -6.81575,-4.78678 -10.38339,-6.92783 -7.35305,-4.41277 -16.11973,-6.25276 -22.77559,-11.96372 3.41105,0.33202 6.80625,1.03862 10.23316,0.99605 0.86013,-0.0107 1.46072,-1.01077 2.30927,-1.15186 1.51867,-0.2525 3.0885,0.17046 4.61855,0 1.94972,-0.21721 3.82071,-0.94009 5.77041,-1.15742 1.5282,-0.17034 3.07533,0 4.61299,0 1.92347,-0.38395 3.82863,-0.87503 5.77041,-1.15185 0.76205,-0.10864 1.53952,0 2.30927,0 1.53952,-0.38395 3.05337,-0.89162 4.61856,-1.15186 0.75933,-0.12625 1.62095,0.34458 2.30927,0 0.97227,-0.48672 1.43451,-1.65606 2.30371,-2.30927 1.37599,-1.03407 3.40146,-1.09219 4.61856,-2.30928 0.60825,-0.60826 0.67443,-1.59372 1.15185,-2.30928 0.3021,-0.45277 0.91377,-0.66513 1.15742,-1.15185 1.71539,-3.42664 2.14367,-13.23357 2.30372,-14.99639 0.28409,-3.12921 0.0255,-1.65705 -1.15743,-4.61298 -0.55186,-1.37901 -2.31259,-6.93115 -3.46113,-8.07969 -0.89028,-0.89028 -5.03976,-2.01687 -5.77041,-2.30928 -0.79862,-0.3196 -1.49308,-0.88022 -2.30927,-1.15185 -4.49745,-1.49674 -9.30908,-2.09927 -13.85009,-3.46113 -25.00514,-7.49913 8.54409,1.85126 -12.69268,-3.46114 -1.18014,-0.29521 -2.3317,-0.70543 -3.46113,-1.15742 -0.79862,-0.3196 -1.46072,-1.01077 -2.30927,-1.15185 -1.51867,-0.2525 -3.07904,0 -4.61856,0 -1.92347,0 -3.84694,0 -5.77041,0 -7.20234,0 -14.40469,0 -21.60703,0"
       id="path628" />
  </g>
</svg>
