<?xml version="1.0" encoding="UTF-8"?>
<svg id="_Слой_1" data-name="Слой 1" xmlns="http://www.w3.org/2000/svg" viewBox="0 0 1129.21 234.13">
  <defs>
    <style>
      .cls-1 {
        fill: #006400;
      }

      .cls-2 {
        fill: #fff;
      }

      .cls-3 {
        fill: #40a040;
      }

      .cls-4 {
        fill: #575587;
      }
    </style>
  </defs>
  <g>
    <g>
      <g>
        <path class="cls-1" d="m547.44,34.53c-16.15,3.4-35.32,4.13-49.78-7.05-2.12-1.64-3.49,1.09-3.34,3.19,3.15,41.9,61.9,29.5,58.35,9.05.82-.72-.96-5.87-5.23-5.19Z"/>
        <path class="cls-1" d="m545.65,42.89c-14.24,8.35-32.18,15.12-49.44,9.11-2.54-.88-2.97,2.15-2.15,4.09,16.29,38.74,68.06,8.33,58.2-9.94.55-.94-2.77-5.26-6.61-3.26Z"/>
      </g>
      <g>
        <path class="cls-1" d="m587.46,39.72c-3.55,20.45,55.2,32.86,58.35-9.05.16-2.1-1.21-4.83-3.34-3.19-14.46,11.18-33.63,10.45-49.78,7.05-4.27-.68-6.06,4.47-5.23,5.19Z"/>
        <path class="cls-1" d="m587.87,46.15c-9.86,18.27,41.92,48.67,58.2,9.94.82-1.94.38-4.97-2.15-4.09-17.26,6.01-35.21-.76-49.44-9.11-3.84-2.01-7.16,2.32-6.61,3.26Z"/>
      </g>
    </g>
    <g>
      <circle class="cls-1" cx="570.07" cy="111.05" r="81.63"/>
      <path class="cls-3" d="m645.22,111.05c0,41.5-33.65,75.15-75.15,75.15s-75.15-33.65-75.15-75.15"/>
      <path class="cls-1" d="m532.61,110.18c15.09,3.24,30.73,3.96,46.09,2.7,14.3-1.18,28.41-4.28,41.99-8.9,9.86-3.35,19.41-7.52,28.65-12.28-8.75-35.65-40.92-62.1-79.27-62.1s-71.56,27.31-79.68,63.84c13.1,7.87,27.23,13.53,42.22,16.75Z"/>
      <g>
        <path class="cls-1" d="m609.5,58.85c-19.3,0-35.43,13.73-39.43,32.07-4-18.35-20.13-32.07-39.43-32.07-22.31,0-40.39,18.33-40.39,40.95s18.08,40.95,40.39,40.95c13.02,0,24.6-6.25,31.99-15.95,3.56-4.68,10.96-5.47,14.13-1.03,7.33,10.29,19.27,16.98,32.74,16.98,22.31,0,40.39-18.33,40.39-40.95s-18.08-40.95-40.39-40.95Z"/>
        <g>
          <ellipse class="cls-3" cx="609.5" cy="99.98" rx="36.23" ry="36.73"/>
          <circle class="cls-2" cx="603.91" cy="102.42" r="20.07"/>
          <g>
            <circle cx="602.58" cy="103.25" r="10.03"/>
            <path d="m602.58,113.78c-5.81,0-10.53-4.73-10.53-10.53s4.73-10.53,10.53-10.53,10.53,4.73,10.53,10.53-4.73,10.53-10.53,10.53Zm0-20.07c-5.26,0-9.53,4.28-9.53,9.53s4.28,9.53,9.53,9.53,9.53-4.28,9.53-9.53-4.28-9.53-9.53-9.53Z"/>
          </g>
        </g>
        <ellipse class="cls-3" cx="530.64" cy="99.98" rx="36.23" ry="36.73"/>
        <circle class="cls-2" cx="536.23" cy="102.42" r="20.07"/>
        <g>
          <circle cx="537.67" cy="103.25" r="10.03"/>
          <path d="m537.67,113.78c-5.81,0-10.53-4.73-10.53-10.53s4.73-10.53,10.53-10.53,10.53,4.73,10.53,10.53-4.73,10.53-10.53,10.53Zm0-20.07c-5.26,0-9.53,4.28-9.53,9.53s4.28,9.53,9.53,9.53,9.53-4.28,9.53-9.53-4.28-9.53-9.53-9.53Z"/>
        </g>
        <path class="cls-2" d="m582.29,124.49c2.51-8.19-3.57-16.57-12.14-16.64-.1,0-.19,0-.29,0s-.2,0-.3,0c-8.56.07-14.64,8.45-12.13,16.64.59,1.91,1.36,3.89,2.38,5.81,3.47,6.53,10.05,10.45,10.05,10.45,0,0,6.58-3.92,10.05-10.45,1.02-1.92,1.79-3.9,2.38-5.81Z"/>
      </g>
    </g>
  </g>
  <g>
    <path class="cls-1" d="m74.85,154.56l-23.73-80.03h27.45l12.33,49.9,12.33-49.9h26.29l-25.01,80.03h-29.66Z"/>
    <path class="cls-1" d="m135.22,154.56v-80.03h26.29v80.03h-26.29Z"/>
    <path class="cls-1" d="m198.73,156.43c-4.89,0-9.85-.6-14.89-1.8-5.04-1.2-9.31-2.81-12.8-4.83l4.19-18.96c4.5,2.4,8.7,3.97,12.62,4.71,3.92.74,7.54,1.1,10.88,1.1,3.1,0,5.45-.5,7.04-1.51,1.59-1.01,2.39-2.37,2.39-4.07,0-1.55-.89-2.77-2.68-3.67-1.78-.89-4.09-1.72-6.92-2.5s-5.84-1.69-9.02-2.73c-3.18-1.05-6.18-2.44-9.02-4.19s-5.14-4.07-6.92-6.98c-1.79-2.91-2.68-6.57-2.68-10.99,0-5.59,1.36-10.41,4.07-14.48,2.71-4.07,6.59-7.21,11.63-9.42,5.04-2.21,10.97-3.31,17.8-3.31,4.57,0,9.05.6,13.43,1.8,4.38,1.2,7.89,2.81,10.53,4.83l-3.96,17.1c-3.96-1.63-7.5-2.81-10.64-3.55-3.14-.74-6.11-1.11-8.9-1.11-3.26,0-5.74.47-7.45,1.4-1.71.93-2.56,2.17-2.56,3.72s.89,2.68,2.68,3.61c1.78.93,4.07,1.82,6.86,2.68,2.79.86,5.78,1.82,8.96,2.91,3.18,1.09,6.16,2.52,8.96,4.3,2.79,1.78,5.08,4.11,6.86,6.98,1.78,2.87,2.67,6.48,2.67,10.82,0,9-2.93,15.94-8.78,20.82-5.86,4.89-13.98,7.33-24.37,7.33Z"/>
    <path class="cls-1" d="m239.79,154.56v-80.03h26.29v80.03h-26.29Z"/>
    <path class="cls-1" d="m318.31,156.43c-8.45,0-15.9-1.79-22.33-5.35-6.44-3.57-11.46-8.49-15.06-14.77-3.61-6.28-5.41-13.49-5.41-21.63s1.8-15.47,5.41-21.75c3.61-6.28,8.63-11.21,15.06-14.77,6.44-3.57,13.88-5.35,22.33-5.35s15.9,1.77,22.33,5.29c6.44,3.53,11.46,8.43,15.06,14.71,3.61,6.28,5.41,13.57,5.41,21.87s-1.8,15.35-5.41,21.63c-3.61,6.28-8.63,11.21-15.06,14.77-6.44,3.57-13.88,5.35-22.33,5.35Zm0-21.17c4.88,0,8.9-1.9,12.04-5.7,3.14-3.8,4.71-8.8,4.71-15,0-4.19-.72-7.87-2.15-11.05-1.44-3.18-3.41-5.68-5.93-7.5-2.52-1.82-5.45-2.73-8.78-2.73-4.88,0-8.88,1.96-11.98,5.87-3.1,3.92-4.65,9.06-4.65,15.41s1.55,11.21,4.65,15c3.1,3.8,7.13,5.7,12.1,5.7Z"/>
    <path class="cls-1" d="m370.54,154.56v-80.03h23.27l31.41,42.46v-42.46h21.4v80.03h-23.26l-31.41-40.71v40.71h-21.4Z"/>
  </g>
  <g>
    <path class="cls-4" d="m714.9,156.43c-4.89,0-9.85-.6-14.89-1.8-5.04-1.2-9.31-2.81-12.8-4.83l4.19-18.96c4.5,2.4,8.7,3.97,12.62,4.71,3.92.74,7.54,1.1,10.88,1.1,3.1,0,5.45-.5,7.04-1.51,1.59-1.01,2.39-2.37,2.39-4.07,0-1.55-.89-2.77-2.68-3.67-1.78-.89-4.09-1.72-6.92-2.5s-5.84-1.69-9.02-2.73c-3.18-1.05-6.18-2.44-9.02-4.19s-5.14-4.07-6.92-6.98c-1.79-2.91-2.68-6.57-2.68-10.99,0-5.59,1.36-10.41,4.07-14.48,2.71-4.07,6.59-7.21,11.63-9.42,5.04-2.21,10.97-3.31,17.8-3.31,4.57,0,9.05.6,13.43,1.8,4.38,1.2,7.89,2.81,10.53,4.83l-3.96,17.1c-3.96-1.63-7.5-2.81-10.64-3.55-3.14-.74-6.11-1.11-8.9-1.11-3.26,0-5.74.47-7.45,1.4-1.71.93-2.56,2.17-2.56,3.72s.89,2.68,2.68,3.61c1.78.93,4.07,1.82,6.86,2.68,2.79.86,5.78,1.82,8.96,2.91,3.18,1.09,6.16,2.52,8.96,4.3,2.79,1.78,5.08,4.11,6.86,6.98,1.78,2.87,2.67,6.48,2.67,10.82,0,9-2.93,15.94-8.78,20.82-5.86,4.89-13.98,7.33-24.37,7.33Z"/>
    <path class="cls-4" d="m794.23,156.43c-8.38,0-15.69-1.69-21.93-5.06-6.24-3.37-11.09-8.12-14.54-14.25-3.45-6.13-5.18-13.26-5.18-21.4s1.8-15.78,5.41-22.22c3.61-6.44,8.57-11.5,14.89-15.18s13.59-5.53,21.81-5.53c9.15,0,16.32,1.78,21.52,5.35l-3.14,18.5c-2.25-1.09-4.59-1.88-7.04-2.39-2.44-.5-4.75-.76-6.92-.76-6.36,0-11.36,1.9-15.01,5.7-3.65,3.8-5.47,9.07-5.47,15.82,0,6.36,1.76,11.34,5.29,14.95,3.53,3.61,8.43,5.41,14.71,5.41,2.48,0,4.75-.23,6.8-.7,2.05-.46,4.6-1.32,7.62-2.56l3.26,18.38c-6.75,3.95-14.12,5.93-22.1,5.93Z"/>
    <path class="cls-4" d="m885.31,156.43c-5.58,0-10.2-.83-13.84-2.5-3.65-1.67-6.55-3.97-8.72-6.92-2.17-2.95-3.8-6.4-4.88-10.35-1.09-3.96-1.82-8.22-2.21-12.8h-5.47v30.71h-25.47v-80.03h32.92c12.72,0,21.89,2.23,27.51,6.69,5.62,4.46,8.43,10.49,8.43,18.09,0,4.58-1.24,8.67-3.72,12.27-2.48,3.61-6.48,6.61-11.98,9.02.31,1.71.58,3.1.81,4.19.23,1.09.58,2.29,1.05,3.61,1.01,2.79,2.27,4.73,3.78,5.82,1.51,1.09,3.58,1.63,6.22,1.63,1.71,0,3.41-.23,5.12-.7l1.4,19.08c-1.55.62-3.2,1.14-4.94,1.57s-3.74.64-5.99.64Zm-35.13-48.51h4.42c5.74,0,9.79-.64,12.16-1.92,2.36-1.28,3.55-3.47,3.55-6.57,0-2.64-.97-4.55-2.91-5.76-1.94-1.2-5-1.8-9.19-1.8h-8.03v16.05Z"/>
    <path class="cls-4" d="m903.34,154.56v-80.03h26.29v80.03h-26.29Z"/>
    <path class="cls-4" d="m942.43,154.56v-80.15h27.1c13.18,0,23.13,2.15,29.84,6.46,6.71,4.3,10.06,10.64,10.06,19.02,0,5.82-1.45,10.76-4.36,14.83-2.91,4.07-7,7.17-12.27,9.31-5.27,2.13-11.48,3.2-18.61,3.2h-6.05v27.34h-25.71Zm30.71-43.5c4.11,0,7.29-.85,9.54-2.56,2.25-1.71,3.37-4.26,3.37-7.68,0-3.18-1.09-5.56-3.26-7.15-2.17-1.59-5.31-2.39-9.42-2.39h-5.23v19.78h5Z"/>
    <path class="cls-4" d="m1030.25,154.56v-61.65h-18.03v-18.38h63.16v18.38h-18.03v61.65h-27.1Z"/>
  </g>
</svg>