<?xml version="1.0" encoding="UTF-8" standalone="no"?>
<!-- Created with Inkscape (http://www.inkscape.org/) -->

<svg
   xmlns:dc="http://purl.org/dc/elements/1.1/"
   xmlns:cc="http://creativecommons.org/ns#"
   xmlns:rdf="http://www.w3.org/1999/02/22-rdf-syntax-ns#"
   xmlns:svg="http://www.w3.org/2000/svg"
   xmlns="http://www.w3.org/2000/svg"
   xmlns:sodipodi="http://sodipodi.sourceforge.net/DTD/sodipodi-0.dtd"
   xmlns:inkscape="http://www.inkscape.org/namespaces/inkscape"
   width="107.39916mm"
   height="8.2729301mm"
   viewBox="0 0 107.39917 8.2729302"
   version="1.1"
   id="svg12523"
   inkscape:version="0.92.4 (5da689c313, 2019-01-14)"
   sodipodi:docname="freemarker.svg">
  <defs
     id="defs12517" />
  <sodipodi:namedview
     id="base"
     pagecolor="#ffffff"
     bordercolor="#666666"
     borderopacity="1.0"
     inkscape:pageopacity="0.0"
     inkscape:pageshadow="2"
     inkscape:zoom="1.979899"
     inkscape:cx="219.53221"
     inkscape:cy="15.626568"
     inkscape:document-units="mm"
     inkscape:current-layer="layer1"
     showgrid="false"
     inkscape:window-width="1600"
     inkscape:window-height="877"
     inkscape:window-x="-8"
     inkscape:window-y="-8"
     inkscape:window-maximized="1"
     fit-margin-top="0"
     fit-margin-left="0"
     fit-margin-right="0"
     fit-margin-bottom="0" />
  <metadata
     id="metadata12520">
    <rdf:RDF>
      <cc:Work
         rdf:about="">
        <dc:format>image/svg+xml</dc:format>
        <dc:type
           rdf:resource="http://purl.org/dc/dcmitype/StillImage" />
        <dc:title></dc:title>
      </cc:Work>
    </rdf:RDF>
  </metadata>
  <g
     inkscape:label="Layer 1"
     inkscape:groupmode="layer"
     id="layer1"
     transform="translate(-51.698641,-144.69493)">
    <g
       aria-label="&lt;#FREEMARKER&gt;"
       style="font-style:normal;font-variant:normal;font-weight:normal;font-stretch:normal;font-size:11.00196838px;line-height:125%;font-family:Montserrat;-inkscape-font-specification:Montserrat;letter-spacing:0px;word-spacing:0px;fill:#004088;fill-opacity:0.58588239;stroke:none;stroke-width:0.40007153px;stroke-linecap:butt;stroke-linejoin:miter;stroke-opacity:1"
       id="text13081-3">
      <path
         d="m 51.960535,149.29321 v -1.38625 l 5.181927,-2.39843 v 1.25422 l -3.872693,1.74932 v 0.12102 l 3.872693,1.79332 v 1.25422 z"
         style="font-style:normal;font-variant:normal;font-weight:normal;font-stretch:normal;font-family:Montserrat;-inkscape-font-specification:Montserrat;fill:#004088;fill-opacity:0.58588239;stroke-width:0.40007153px"
         id="path13266"
         inkscape:connector-curvature="0" />
      <path
         d="m 66.158841,148.17101 h -1.188213 l -0.319057,1.82632 h 1.353242 l -0.242043,1.21022 h -1.309234 l -0.308055,1.76031 h -1.221219 l 0.308055,-1.76031 h -1.617289 l -0.308055,1.76031 h -1.23222 l 0.308055,-1.76031 h -1.133203 l 0.242043,-1.21022 h 1.100197 l 0.319057,-1.82632 h -1.254224 l 0.242043,-1.21022 h 1.221219 l 0.319057,-1.87033 h 1.221218 l -0.319057,1.87033 h 1.617289 l 0.319057,-1.87033 h 1.232221 l -0.341061,1.87033 h 1.23222 z m -2.398429,0 h -1.617289 l -0.330059,1.82632 h 1.617289 z"
         style="font-style:normal;font-variant:normal;font-weight:normal;font-stretch:normal;font-family:Montserrat;-inkscape-font-specification:Montserrat;fill:#004088;fill-opacity:0.58588239;stroke-width:0.40007153px"
         id="path13268"
         inkscape:connector-curvature="0" />
      <path
         d="m 68.822443,145.26649 h 4.895876 v 0.81414 h -4.015718 v 2.7615 h 3.597644 v 0.80314 h -3.597644 v 3.32259 h -0.880158 z"
         style="fill:#004088;fill-opacity:0.58588239;stroke-width:0.40007153px"
         id="path13270"
         inkscape:connector-curvature="0" />
      <path
         d="m 80.850095,152.96786 -1.617289,-2.46444 q -0.308055,0.022 -0.495089,0.022 h -2.046366 v 2.44243 h -0.880157 v -7.70137 h 2.926523 q 1.441258,0 2.2334,0.68212 0.803144,0.67112 0.803144,1.90334 0,0.94617 -0.451081,1.58428 -0.451081,0.63812 -1.28723,0.90216 l 1.815324,2.62947 z m -2.112378,-3.25658 q 1.056189,0 1.61729,-0.46208 0.572102,-0.47308 0.572102,-1.37525 0,-0.88015 -0.572102,-1.33123 -0.561101,-0.46209 -1.61729,-0.46209 h -2.046366 v 3.63065 z"
         style="fill:#004088;fill-opacity:0.58588239;stroke-width:0.40007153px"
         id="path13272"
         inkscape:connector-curvature="0" />
      <path
         d="m 84.561978,145.26649 h 5.225935 v 0.81414 h -4.345778 v 2.58547 h 3.883695 v 0.80314 h -3.883695 v 2.68448 h 4.488803 v 0.81414 h -5.36896 z"
         style="fill:#004088;fill-opacity:0.58588239;stroke-width:0.40007153px"
         id="path13274"
         inkscape:connector-curvature="0" />
      <path
         d="m 92.517699,145.26649 h 5.225935 v 0.81414 h -4.345778 v 2.58547 h 3.883695 v 0.80314 h -3.883695 v 2.68448 h 4.488803 v 0.81414 h -5.36896 z"
         style="fill:#004088;fill-opacity:0.58588239;stroke-width:0.40007153px"
         id="path13276"
         inkscape:connector-curvature="0" />
      <path
         d="m 100.47342,145.26649 h 1.06719 l 2.93752,5.611 2.90452,-5.611 h 1.0782 v 7.70137 h -0.82515 l -0.011,-6.41414 -2.90452,5.6 h -0.50609 l -2.92653,-5.6 v 6.41414 h -0.81414 z"
         style="fill:#004088;fill-opacity:0.58588239;stroke-width:0.40007153px"
         id="path13278"
         inkscape:connector-curvature="0" />
      <path
         d="m 117.31993,152.96786 -0.86915,-1.96935 h -4.19175 l -0.85816,1.96935 h -0.93516 l 3.45462,-7.70137 h 0.91316 l 3.44361,7.70137 z m -4.69784,-2.78349 h 3.47663 l -1.74932,-3.96071 z"
         style="fill:#004088;fill-opacity:0.58588239;stroke-width:0.40007153px"
         id="path13280"
         inkscape:connector-curvature="0" />
      <path
         d="m 125.33462,152.96786 -1.61729,-2.46444 q -0.30806,0.022 -0.49509,0.022 h -2.04636 v 2.44243 h -0.88016 v -7.70137 h 2.92652 q 1.44126,0 2.2334,0.68212 0.80314,0.67112 0.80314,1.90334 0,0.94617 -0.45108,1.58428 -0.45108,0.63812 -1.28723,0.90216 l 1.81533,2.62947 z m -2.11238,-3.25658 q 1.05619,0 1.61729,-0.46208 0.5721,-0.47308 0.5721,-1.37525 0,-0.88015 -0.5721,-1.33123 -0.5611,-0.46209 -1.61729,-0.46209 h -2.04636 v 3.63065 z"
         style="fill:#004088;fill-opacity:0.58588239;stroke-width:0.40007153px"
         id="path13282"
         inkscape:connector-curvature="0" />
      <path
         d="m 135.32862,152.96786 h -1.06719 l -2.83851,-3.66365 -1.49627,1.63929 v 2.02436 h -0.88015 v -7.70137 h 0.88015 v 4.52181 l 4.13674,-4.52181 h 1.05619 l -3.06955,3.3556 z"
         style="fill:#004088;fill-opacity:0.58588239;stroke-width:0.40007153px"
         id="path13284"
         inkscape:connector-curvature="0" />
      <path
         d="m 137.53942,145.26649 h 5.22594 v 0.81414 h -4.34578 v 2.58547 h 3.8837 v 0.80314 h -3.8837 v 2.68448 h 4.4888 v 0.81414 h -5.36896 z"
         style="fill:#004088;fill-opacity:0.58588239;stroke-width:0.40007153px"
         id="path13286"
         inkscape:connector-curvature="0" />
      <path
         d="m 150.53404,152.96786 -1.61729,-2.46444 q -0.30805,0.022 -0.49508,0.022 h -2.04637 v 2.44243 h -0.88016 v -7.70137 h 2.92653 q 1.44125,0 2.2334,0.68212 0.80314,0.67112 0.80314,1.90334 0,0.94617 -0.45108,1.58428 -0.45108,0.63812 -1.28723,0.90216 l 1.81532,2.62947 z m -2.11237,-3.25658 q 1.05618,0 1.61729,-0.46208 0.5721,-0.47308 0.5721,-1.37525 0,-0.88015 -0.5721,-1.33123 -0.56111,-0.46209 -1.61729,-0.46209 h -2.04637 v 3.63065 z"
         style="fill:#004088;fill-opacity:0.58588239;stroke-width:0.40007153px"
         id="path13288"
         inkscape:connector-curvature="0" />
      <path
         d="m 159.0978,147.90696 v 1.38625 l -5.18193,2.38742 v -1.25422 l 3.87269,-1.79332 v -0.12102 l -3.87269,-1.74932 v -1.25422 z"
         style="font-style:normal;font-variant:normal;font-weight:normal;font-stretch:normal;font-family:Montserrat;-inkscape-font-specification:Montserrat;fill:#004088;fill-opacity:0.58588239;stroke-width:0.40007153px"
         id="path13290"
         inkscape:connector-curvature="0" />
    </g>
    <g
       aria-label="&lt;#FREEMARKER&gt;"
       style="font-style:normal;font-variant:normal;font-weight:normal;font-stretch:normal;font-size:11.00196743px;line-height:125%;font-family:Montserrat;-inkscape-font-specification:Montserrat;letter-spacing:0px;word-spacing:0px;fill:#588eca;fill-opacity:0.96470588;stroke:none;stroke-width:0.40007153px;stroke-linecap:butt;stroke-linejoin:miter;stroke-opacity:1"
       id="text13081">
      <path
         d="m 51.698641,148.89768 v -1.38624 l 5.181926,-2.39843 v 1.25422 l -3.872692,1.74932 v 0.12102 l 3.872692,1.79332 v 1.25422 z"
         style="font-style:normal;font-variant:normal;font-weight:normal;font-stretch:normal;font-family:Montserrat;-inkscape-font-specification:Montserrat;fill:#326cac;fill-opacity:0.96470588"
         id="path13239"
         inkscape:connector-curvature="0" />
      <path
         d="m 65.896946,147.77548 h -1.188213 l -0.319057,1.82633 h 1.353242 l -0.242043,1.21022 h -1.309234 l -0.308055,1.76031 h -1.221219 l 0.308055,-1.76031 h -1.617289 l -0.308055,1.76031 h -1.23222 l 0.308055,-1.76031 H 58.98771 l 0.242043,-1.21022 h 1.100197 l 0.319057,-1.82633 h -1.254224 l 0.242043,-1.21021 h 1.221219 l 0.319057,-1.87034 h 1.221218 l -0.319057,1.87034 h 1.617289 l 0.319057,-1.87034 h 1.232221 l -0.341061,1.87034 h 1.23222 z m -2.398429,0 h -1.617289 l -0.330059,1.82633 h 1.617289 z"
         style="font-style:normal;font-variant:normal;font-weight:normal;font-stretch:normal;font-family:Montserrat;-inkscape-font-specification:Montserrat;fill:#326cac;fill-opacity:0.96470588"
         id="path13241"
         inkscape:connector-curvature="0" />
      <path
         d="m 68.560547,144.87096 h 4.895876 v 0.81415 h -4.015718 v 2.76149 h 3.597643 v 0.80315 h -3.597643 v 3.32259 h -0.880158 z"
         style="fill:#b6b6b6;fill-opacity:0.96470588"
         id="path13243"
         inkscape:connector-curvature="0" />
      <path
         d="m 80.588199,152.57234 -1.61729,-2.46444 q -0.308055,0.022 -0.495088,0.022 h -2.046366 v 2.44243 h -0.880157 v -7.70138 h 2.926523 q 1.441258,0 2.233399,0.68213 0.803144,0.67112 0.803144,1.90334 0,0.94617 -0.451081,1.58428 -0.45108,0.63811 -1.28723,0.90216 l 1.815325,2.62947 z m -2.112378,-3.25658 q 1.056189,0 1.617289,-0.46208 0.572102,-0.47309 0.572102,-1.37525 0,-0.88016 -0.572102,-1.33124 -0.5611,-0.46208 -1.617289,-0.46208 h -2.046366 v 3.63065 z"
         style="fill:#b6b6b6;fill-opacity:0.96470588"
         id="path13245"
         inkscape:connector-curvature="0" />
      <path
         d="m 84.300082,144.87096 h 5.225934 v 0.81415 h -4.345777 v 2.58546 h 3.883694 v 0.80315 h -3.883694 v 2.68448 h 4.488803 v 0.81414 h -5.36896 z"
         style="fill:#b6b6b6;fill-opacity:0.96470588"
         id="path13247"
         inkscape:connector-curvature="0" />
      <path
         d="m 92.255801,144.87096 h 5.225934 v 0.81415 h -4.345777 v 2.58546 h 3.883694 v 0.80315 h -3.883694 v 2.68448 h 4.488803 v 0.81414 h -5.36896 z"
         style="fill:#b6b6b6;fill-opacity:0.96470588"
         id="path13249"
         inkscape:connector-curvature="0" />
      <path
         d="m 100.21152,144.87096 h 1.06719 l 2.93753,5.61101 2.90452,-5.61101 h 1.07819 v 7.70138 h -0.82515 l -0.011,-6.41415 -2.90452,5.60001 h -0.50609 l -2.92652,-5.60001 v 6.41415 h -0.81415 z"
         style="fill:#b6b6b6;fill-opacity:0.96470588"
         id="path13251"
         inkscape:connector-curvature="0" />
      <path
         d="m 117.05803,152.57234 -0.86915,-1.96935 h -4.19175 l -0.85816,1.96935 h -0.93516 l 3.45461,-7.70138 h 0.91317 l 3.44361,7.70138 z m -4.69784,-2.7835 h 3.47662 l -1.74931,-3.9607 z"
         style="fill:#b6b6b6;fill-opacity:0.96470588"
         id="path13253"
         inkscape:connector-curvature="0" />
      <path
         d="m 125.07272,152.57234 -1.61729,-2.46444 q -0.30806,0.022 -0.49509,0.022 h -2.04637 v 2.44243 h -0.88015 v -7.70138 h 2.92652 q 1.44126,0 2.2334,0.68213 0.80314,0.67112 0.80314,1.90334 0,0.94617 -0.45108,1.58428 -0.45108,0.63811 -1.28723,0.90216 l 1.81533,2.62947 z m -2.11238,-3.25658 q 1.05619,0 1.61729,-0.46208 0.5721,-0.47309 0.5721,-1.37525 0,-0.88016 -0.5721,-1.33124 -0.5611,-0.46208 -1.61729,-0.46208 h -2.04637 v 3.63065 z"
         style="fill:#b6b6b6;fill-opacity:0.96470588"
         id="path13255"
         inkscape:connector-curvature="0" />
      <path
         d="m 135.06672,152.57234 h -1.06719 l -2.8385,-3.66365 -1.49627,1.63929 v 2.02436 h -0.88016 v -7.70138 h 0.88016 v 4.52181 l 4.13674,-4.52181 h 1.05619 l -3.06955,3.3556 z"
         style="fill:#b6b6b6;fill-opacity:0.96470588"
         id="path13257"
         inkscape:connector-curvature="0" />
      <path
         d="m 137.27752,144.87096 h 5.22594 v 0.81415 h -4.34578 v 2.58546 h 3.88369 v 0.80315 h -3.88369 v 2.68448 h 4.4888 v 0.81414 h -5.36896 z"
         style="fill:#b6b6b6;fill-opacity:0.96470588"
         id="path13259"
         inkscape:connector-curvature="0" />
      <path
         d="m 150.27214,152.57234 -1.61729,-2.46444 q -0.30805,0.022 -0.49509,0.022 h -2.04636 v 2.44243 h -0.88016 v -7.70138 h 2.92652 q 1.44126,0 2.2334,0.68213 0.80315,0.67112 0.80315,1.90334 0,0.94617 -0.45108,1.58428 -0.45108,0.63811 -1.28723,0.90216 l 1.81532,2.62947 z m -2.11238,-3.25658 q 1.05619,0 1.61729,-0.46208 0.57211,-0.47309 0.57211,-1.37525 0,-0.88016 -0.57211,-1.33124 -0.5611,-0.46208 -1.61729,-0.46208 h -2.04636 v 3.63065 z"
         style="fill:#b6b6b6;fill-opacity:0.96470588"
         id="path13261"
         inkscape:connector-curvature="0" />
      <path
         d="m 158.83589,147.51144 v 1.38624 l -5.18192,2.38743 v -1.25422 l 3.87269,-1.79332 v -0.12102 l -3.87269,-1.74932 v -1.25422 z"
         style="font-style:normal;font-variant:normal;font-weight:normal;font-stretch:normal;font-family:Montserrat;-inkscape-font-specification:Montserrat;fill:#2f649e;fill-opacity:0.96470588"
         id="path13263"
         inkscape:connector-curvature="0" />
    </g>
  </g>
</svg>
