<?xml version="1.0" encoding="UTF-8" standalone="no"?>
<svg
   xmlns:dc="http://purl.org/dc/elements/1.1/"
   xmlns:cc="http://creativecommons.org/ns#"
   xmlns:rdf="http://www.w3.org/1999/02/22-rdf-syntax-ns#"
   xmlns:svg="http://www.w3.org/2000/svg"
   xmlns="http://www.w3.org/2000/svg"
   xmlns:sodipodi="http://sodipodi.sourceforge.net/DTD/sodipodi-0.dtd"
   xmlns:inkscape="http://www.inkscape.org/namespaces/inkscape"
   viewBox="0 0 179.03999 280.01598"
   height="280.01599"
   width="179.03999"
   xml:space="preserve"
   id="svg2"
   version="1.1"
   inkscape:version="0.91 r13725"
   sodipodi:docname="pwrdLogo.svg"><sodipodi:namedview
     pagecolor="#ffffff"
     bordercolor="#666666"
     borderopacity="1"
     objecttolerance="10"
     gridtolerance="10"
     guidetolerance="10"
     inkscape:pageopacity="0"
     inkscape:pageshadow="2"
     inkscape:window-width="1280"
     inkscape:window-height="657"
     id="namedview3467"
     showgrid="false"
     fit-margin-top="0"
     fit-margin-left="0"
     fit-margin-right="0"
     fit-margin-bottom="0"
     inkscape:zoom="0.4346793"
     inkscape:cx="73.930665"
     inkscape:cy="157.97334"
     inkscape:window-x="-8"
     inkscape:window-y="-8"
     inkscape:window-maximized="1"
     inkscape:current-layer="svg2" /><metadata
     id="metadata8"><rdf:RDF><cc:Work
         rdf:about=""><dc:format>image/svg+xml</dc:format><dc:type
           rdf:resource="http://purl.org/dc/dcmitype/StillImage" /><dc:title></dc:title></cc:Work></rdf:RDF></metadata><defs
     id="defs6" /><g
     transform="matrix(1.3333333,0,0,-1.3333333,-322.73599,683.37598)"
     id="g10"><g
       transform="scale(0.1,0.1)"
       id="g12"><path
         id="path14"
         style="fill:#1e5cb3;fill-opacity:1;fill-rule:nonzero;stroke:none"
         d="m 2850.12,3117.98 724.92,-92.78 41.03,901.91 147.25,814.27 -336.79,15.25 -150.2,77.53 -688.06,29.03 -43.91,-812.76 -123.84,-928.33 429.6,-4.12"
         inkscape:connector-curvature="0" /><path
         id="path16"
         style="fill:#f14729;fill-opacity:1;fill-rule:nonzero;stroke:none"
         d="m 2954.46,3376.17 730.48,-22.83 -45.65,901.69 68.48,824.64 -336.7,-17.12 -156.94,62.77 -687.68,-37.09 34.24,-813.23 -34.24,-935.92 428.01,37.09"
         inkscape:connector-curvature="0" /><path
         id="path18"
         style="fill:#1e5cb3;fill-opacity:1;fill-rule:nonzero;stroke:none"
         d="m 3205.32,3906.15 -76.3,-20.81 41.62,100.58 41.62,280.94 -52.03,10.4 62.43,86.7 77.78,292.29 -136.74,-28.69 c 0,0 72.1,132 148.61,217.98 l -100.05,76.82 c 0,0 -322.35,-141.98 -235.64,-603.27 l -66.63,11.66 63.9,-483.56 -54.02,-13.87 c 0,0 55.34,-112.94 132.84,-166.48 7.04,-4.86 -97.11,378.04 13.88,759.55 l 10.4,-24.27 c 0,0 -88.44,-406.66 0,-735.28 0,0 4.07,-7.81 48.3,-2.61 0,0 80.03,150.88 80.03,241.92"
         inkscape:connector-curvature="0" /><path
         id="path20"
         style="fill:#ffffff;fill-opacity:1;fill-rule:nonzero;stroke:none"
         d="m 2636.95,3559.86 15.66,0 0,32.65 c 6.91,0 13.54,0 20.18,1.06 l 0,-33.71 23.37,0 0,-6.11 -23.37,0 0,-81.25 c 0,-4.77 0,-11.94 10.09,-11.94 6.9,0 10.62,4.78 14.87,9.82 l 4.25,-2.92 c -5.05,-10.09 -18.06,-16.19 -28.68,-16.19 -19.11,0 -21.24,10.35 -21.24,23.09 l 0,79.39 -15.13,0 0,6.11"
         inkscape:connector-curvature="0" /><path
         id="path22"
         style="fill:#ffffff;fill-opacity:1;fill-rule:nonzero;stroke:none"
         d="m 2857.8,3487.64 c -6.11,-18.85 -16.73,-35.31 -44.34,-36.37 -41.16,0 -53.64,34.25 -53.64,52.57 0,47.25 37.97,58.67 53.11,58.67 17.25,0 41.68,-7.96 41.68,-28.41 0,-7.17 -4.51,-14.07 -11.95,-14.07 -7.16,0 -12.48,4.78 -12.48,12.48 0,10.35 8.5,11.68 8.5,14.6 0,7.17 -16.73,10.09 -22.57,10.09 -25.48,0 -32.13,-18.58 -32.13,-53.36 0,-15.93 3.99,-28.15 5.58,-31.87 3.98,-8.76 12.21,-14.33 26.02,-15.13 15.4,-0.8 30.27,11.68 36.64,30.8 l 5.58,0"
         inkscape:connector-curvature="0" /><path
         id="path24"
         style="fill:#ffffff;fill-opacity:1;fill-rule:nonzero;stroke:none"
         d="m 2919.34,3454.72 0,6.1 20.45,0 0,170.72 -20.45,0 0,6.11 11.42,0 c 9.83,0 20.18,0.53 29.74,2.39 l 0,-179.22 20.44,0 0,-6.1 -61.6,0"
         inkscape:connector-curvature="0" /><path
         id="path26"
         style="fill:#ffffff;fill-opacity:1;fill-rule:nonzero;stroke:none"
         d="m 3100.63,4460.75 c 0,0 -46.8,-208.69 -33.33,-547.04 4.04,-101.49 15.14,-194.78 28.69,-275.68 l 0.08,-0.01 c 8.81,-71.03 14.71,-96.75 37.7,-182.34 l -1.34,-55.21 c 0,0 -184.06,587.69 -31.8,1060.28"
         inkscape:connector-curvature="0" /><path
         id="path28"
         style="fill:#ffffff;fill-opacity:1;fill-rule:nonzero;stroke:none"
         d="m 3213.62,4641.7 c 0,0 41.4,20.62 100.74,28.12 0,0 64.86,-118.89 -94.77,-321.89 0,0 95.23,212.59 72.77,279.19 0,0 -25.12,15.61 -78.74,14.58"
         inkscape:connector-curvature="0" /><path
         id="path30"
         style="fill:#ffffff;fill-opacity:1;fill-rule:nonzero;stroke:none"
         d="m 3194,4284.82 c 0,0 37.18,-8.61 55.02,5.85 0,0 -35.16,-137.22 -25.94,-212.71 9.22,-75.48 -57.29,-123.8 -57.29,-123.8 0,0 56.65,71.68 38.85,130.07 -12.35,40.47 1.46,144.04 17.04,176.93 0,0 -14.55,2.04 -27.68,23.66"
         inkscape:connector-curvature="0" /><path
         id="path32"
         style="fill:#ffffff;fill-opacity:1;fill-rule:nonzero;stroke:none"
         d="m 3157.25,3923.28 c 0,0 61.43,7.35 67.88,38.38 0,0 7.52,-185.6 -77.83,-262.09 0,0 65.13,101.58 54.91,206.66 l -44.96,17.05"
         inkscape:connector-curvature="0" /><path
         id="path34"
         style="fill:#ffffff;fill-opacity:1;fill-rule:nonzero;stroke:none"
         d="m 2984.45,3846.02 c 0,0 -19.81,-22.18 -79.26,26.76 0,0 18.94,-124.75 136.59,-181.85 0,0 -80.97,61 -102.78,126.89 0,0 28.61,8.43 45.45,28.2"
         inkscape:connector-curvature="0" /><path
         id="path36"
         style="fill:#ffffff;fill-opacity:1;fill-rule:nonzero;stroke:none"
         d="m 2965.48,3893.34 c 0,0 -80.38,204.02 -63.16,479.7 0,0 18.78,-49.93 79.11,-67.43 0,0 -28.43,-5.82 -45.04,-3.3 0,0 -42.05,-116.38 29.09,-408.97"
         inkscape:connector-curvature="0" /><path
         id="path38"
         style="fill:#ffffff;fill-opacity:1;fill-rule:nonzero;stroke:none"
         d="m 3303.13,4841.35 c 0,0 -30.13,221.37 -218.58,-2.5 -150.06,-178.26 -132.17,-329.6 -122.97,-414.04 2.35,-21.6 -27.92,225.51 136.49,388.12 164.4,162.62 201.54,37.86 205.06,28.42"
         inkscape:connector-curvature="0" /><path
         id="path40"
         style="fill:#fff200;fill-opacity:1;fill-rule:nonzero;stroke:none"
         d="m 3025.53,5030.16 c 0,0 -147.87,42.23 -194.94,-447.89 0,0 -36.31,151.28 57.61,365.24 93.92,213.96 137.33,82.65 137.33,82.65"
         inkscape:connector-curvature="0" /><path
         id="path42"
         style="fill:#fff200;fill-opacity:1;fill-rule:nonzero;stroke:none"
         d="m 2842.08,5066 c 0,0 -75.42,-113.44 -58.31,-234.27 0,0 -57.2,227.45 58.31,234.27"
         inkscape:connector-curvature="0" /><path
         id="path44"
         style="fill:#fff200;fill-opacity:1;fill-rule:nonzero;stroke:none"
         d="m 3397.14,4747.9 c 0,0 89.18,32.9 -38.52,-299.06 0,0 66.1,97.01 107.7,249.41 26.71,97.81 -69.18,49.65 -69.18,49.65"
         inkscape:connector-curvature="0" /><path
         id="path46"
         style="fill:#fff200;fill-opacity:1;fill-rule:nonzero;stroke:none"
         d="m 3541.38,4773.77 c 0,0 63.05,-57.08 18.37,-132.58 0,0 112.16,117.85 -18.37,132.58"
         inkscape:connector-curvature="0" /><path
         id="path48"
         style="fill:#ffffff;fill-opacity:1;fill-rule:nonzero;stroke:none"
         d="m 2582.03,3174.59 -15.21,0 0,78.01 20.69,0 c 16.35,0 27.01,-6.52 27.01,-24.21 0,-16.55 -9.01,-24.62 -24.94,-24.62 l -7.55,0 z m 0,41.8 3.1,0 c 9,0 13.87,1.97 13.87,12.1 0,10.04 -5.8,11.49 -14.28,11.49 l -2.69,0 0,-23.59"
         inkscape:connector-curvature="0" /><path
         id="path50"
         style="fill:#ffffff;fill-opacity:1;fill-rule:nonzero;stroke:none"
         d="m 2690.7,3213.7 c 0,21.83 15.82,40.97 38.59,40.97 22.75,0 38.58,-19.14 38.58,-40.97 0,-22.35 -15.83,-41.18 -38.58,-41.18 -22.77,0 -38.59,18.83 -38.59,41.18 z m 15.72,0.62 c 0,-11.79 9.93,-26.8 22.87,-26.8 12.92,0 22.85,15.01 22.85,26.8 0,12.62 -9.51,25.35 -22.85,25.35 -13.35,0 -22.87,-12.73 -22.87,-25.35"
         inkscape:connector-curvature="0" /><path
         id="path52"
         style="fill:#ffffff;fill-opacity:1;fill-rule:nonzero;stroke:none"
         d="m 2872.94,3199.42 0.21,0 15.52,54.21 9,0 16.14,-54.21 0.21,0 15.3,53.18 15.94,0 -26.38,-79.56 -11.18,0 -15.52,51 -0.2,0 -14.69,-51 -11.17,0 -24.83,79.56 15.93,0 15.72,-53.18"
         inkscape:connector-curvature="0" /><path
         id="path54"
         style="fill:#ffffff;fill-opacity:1;fill-rule:nonzero;stroke:none"
         d="m 3037.59,3239.36 0,-17.18 24.21,0 0,-13.24 -24.21,0 0,-21.1 25.14,0 0,-13.25 -40.34,0 0,78.01 40.34,0 0,-13.24 -25.14,0"
         inkscape:connector-curvature="0" /><path
         id="path56"
         style="fill:#ffffff;fill-opacity:1;fill-rule:nonzero;stroke:none"
         d="m 3198.6,3174.59 -18.41,0 -18.94,31.45 -0.2,0 0,-31.45 -15.21,0 0,78.01 20.59,0 c 15.41,0 26.07,-6.83 26.07,-23.49 0,-9.93 -5.48,-19.86 -15.93,-21.62 z m -37.55,42.11 1.97,0 c 8.37,0 14.27,2.48 14.27,12 0,9.62 -6.1,11.48 -14.17,11.48 l -2.07,0 0,-23.48"
         inkscape:connector-curvature="0" /><path
         id="path58"
         style="fill:#ffffff;fill-opacity:1;fill-rule:nonzero;stroke:none"
         d="m 3291.75,3239.36 0,-17.18 24.21,0 0,-13.24 -24.21,0 0,-21.1 25.14,0 0,-13.25 -40.34,0 0,78.01 40.34,0 0,-13.24 -25.14,0"
         inkscape:connector-curvature="0" /><path
         id="path60"
         style="fill:#ffffff;fill-opacity:1;fill-rule:nonzero;stroke:none"
         d="m 3400,3252.6 21.73,0 c 22.55,0 37.65,-16.87 37.65,-39.11 0,-21.93 -15.52,-38.9 -37.76,-38.9 l -21.62,0 z m 15.21,-64.76 2.48,0 c 18.73,0 25.97,10.34 25.97,25.76 0,16.96 -8.69,25.76 -25.97,25.76 l -2.48,0 0,-51.52"
         inkscape:connector-curvature="0" /></g></g></svg>