<?xml version="1.0" encoding="UTF-8" standalone="no"?>
<!-- Created with Inkscape (http://www.inkscape.org/) -->

<svg
   xmlns:dc="http://purl.org/dc/elements/1.1/"
   xmlns:cc="http://creativecommons.org/ns#"
   xmlns:rdf="http://www.w3.org/1999/02/22-rdf-syntax-ns#"
   xmlns:svg="http://www.w3.org/2000/svg"
   xmlns="http://www.w3.org/2000/svg"
   xmlns:sodipodi="http://sodipodi.sourceforge.net/DTD/sodipodi-0.dtd"
   xmlns:inkscape="http://www.inkscape.org/namespaces/inkscape"
   id="svg2985"
   version="1.1"
   inkscape:version="0.48.1 "
   width="64"
   height="64"
   sodipodi:docname="Io-Serif-64x64[1].jpg">
  <metadata
     id="metadata2991">
    <rdf:RDF>
      <cc:Work
         rdf:about="">
        <dc:format>image/svg+xml</dc:format>
        <dc:type
           rdf:resource="http://purl.org/dc/dcmitype/StillImage" />
        <dc:title></dc:title>
      </cc:Work>
    </rdf:RDF>
  </metadata>
  <defs
     id="defs2989" />
  <sodipodi:namedview
     pagecolor="#ffffff"
     bordercolor="#666666"
     borderopacity="1"
     objecttolerance="10"
     gridtolerance="10"
     guidetolerance="10"
     inkscape:pageopacity="0"
     inkscape:pageshadow="2"
     inkscape:window-width="1366"
     inkscape:window-height="706"
     id="namedview2987"
     showgrid="false"
     inkscape:zoom="4.546875"
     inkscape:cx="15.004012"
     inkscape:cy="21.950793"
     inkscape:window-x="-8"
     inkscape:window-y="-8"
     inkscape:window-maximized="1"
     inkscape:current-layer="svg2985" />
  <g
     id="g3815">
    <g
       transform="translate(51.008885,-1.2441191)"
       id="g3790">
      <g
         transform="matrix(1.0109383,0,0,0.98918003,0,0.86438452)"
         style="font-size:54.5714798px;font-style:normal;font-variant:normal;font-weight:normal;font-stretch:normal;line-height:125%;letter-spacing:0px;word-spacing:0px;fill:#000000;fill-opacity:1;stroke:none;font-family:Book Antiqua;-inkscape-font-specification:Book Antiqua"
         id="text2995">
        <path
           d="m -39.783004,51.709937 1.678712,0 c 1.652062,1e-6 2.642412,-0.399692 2.971055,-1.199081 0.32863,-0.799383 0.492948,-4.627554 0.492955,-11.484525 l 0,-9.033072 c -7e-6,-7.105631 -0.14212,-11.022623 -0.42634,-11.750988 -0.284232,-0.728294 -1.136911,-1.092459 -2.558038,-1.092495 l -2.158344,0 0,-1.678713 c 2.948845,0.124387 5.862163,0.186562 8.739963,0.186524 2.398148,3.8e-5 4.574255,-0.06214 6.528327,-0.186524 l 0,1.678713 -2.05176,0 c -1.261269,3.6e-5 -2.051773,0.151031 -2.371515,0.452986 -0.319766,0.302026 -0.50629,1.065884 -0.55957,2.291576 -0.08883,1.900795 -0.133243,5.284863 -0.133232,10.152213 l 0,9.19295 c -1.1e-5,6.910263 0.150984,10.716229 0.452986,11.41791 0.301978,0.701685 1.270124,1.052527 2.904439,1.052526 l 1.758652,0 0,1.678712 c -2.185006,-0.124349 -4.5654,-0.186523 -7.14119,-0.186523 -3.002149,0 -5.711179,0.06217 -8.1271,0.186523 z"
           style="font-family:Book Antiqua;-inkscape-font-specification:Book Antiqua"
           id="path3000"
           inkscape:connector-curvature="0" />
      </g>
      <path
         inkscape:connector-curvature="0"
         d="m -23.262584,38.033867 c 0.301466,-2.537144 1.110238,-4.750592 2.426319,-6.640349 1.316068,-1.88972 3.01068,-3.269155 5.083838,-4.138312 2.073137,-0.869112 4.341406,-1.119687 6.8048138,-0.751724 3.569384,0.533231 6.288954,2.118314 8.15871704,4.755252 1.86971296,2.63698 2.57520196,5.885905 2.11647196,9.746787 -0.54179896,4.559539 -2.371429,7.972398 -5.488897,10.238583 -2.783106,2.035467 -5.9174528,2.792857 -9.4030528,2.272171 -3.351563,-0.500667 -5.931975,-2.144484 -7.741245,-4.931462 -1.809281,-2.786974 -2.461602,-6.303951 -1.956965,-10.550946 z m 4.958347,-1.252091 c -0.450027,3.787366 -0.127041,7.133523 0.968961,10.038479 1.095982,2.904965 2.97622,4.55646 5.640718,4.954488 2.0276728,0.3029 3.7662338,-0.29812 5.2156858,-1.803062 1.449412,-1.50494 2.378384,-3.976427 2.78692,-7.414468 0.329845,-2.776157 0.246806,-5.235094 -0.249118,-7.376821 -0.495971,-2.141693 -1.292064,-3.766894 -2.38828,-4.875607 -1.096259,-1.10867 -2.390097,-1.774414 -3.8815218,-1.997231 -1.32388,-0.19774 -2.56156,-0.0084 -3.713047,0.56803 -1.151513,0.576469 -2.051811,1.443047 -2.7009,2.599737 -0.885872,1.570437 -1.445678,3.339254 -1.679418,5.306455 z"
         style="font-size:54.5714798px;font-style:normal;font-variant:normal;font-weight:normal;font-stretch:normal;line-height:125%;letter-spacing:0px;word-spacing:0px;fill:#000000;fill-opacity:0.9705883;stroke:none;font-family:Book Antiqua;-inkscape-font-specification:Book Antiqua"
         id="path3002-4" />
    </g>
    <text
       transform="scale(1.9849391,0.50379379)"
       sodipodi:linespacing="125%"
       id="text3795"
       y="103.23228"
       x="5.9634275"
       style="font-size:3.38974833px;font-style:normal;font-variant:normal;font-weight:normal;font-stretch:normal;line-height:125%;letter-spacing:0px;word-spacing:0px;fill:#0f0f0f;fill-opacity:1;stroke:none;font-family:Cataneo BT;-inkscape-font-specification:Cataneo BT"
       xml:space="preserve"><tspan
         y="103.23228"
         x="5.9634275"
         id="tspan3797"
         sodipodi:role="line">R-59</tspan></text>
  </g>
</svg>
