<?xml version="1.0" encoding="iso-8859-1"?>
<!DOCTYPE svg PUBLIC "-//W3C//DTD SVG 1.0//EN" "http://www.w3.org/TR/2001/REC-SVG-20010904/DTD/svg10.dtd">
<!-- Creator: CorelDRAW -->
<svg xmlns="http://www.w3.org/2000/svg" xmlns:odm="http://product.corel.com/CGS/11/cddns/" xml:space="preserve" width="300px" height="261px" style="shape-rendering:geometricPrecision; text-rendering:geometricPrecision; image-rendering:optimizeQuality; fill-rule:evenodd"
     viewBox="0 0 3000 2608">
 <defs>
  <style type="text/css">
   <![CDATA[
    .str0 {stroke:#000000;stroke-width:63}
    .str1 {stroke:#09098F;stroke-width:63}
    .fil5 {fill:none}
    .fil1 {fill:#000000}
    .fil2 {fill:#000000}
    .fil3 {fill:#4D66CC}
    .fil0 {fill:#576ECD}
    .fil4 {fill:#89A1D4}
   ]]>
  </style>
 </defs>
 <g id="Layer 1">
  <path class="fil0" d="M2355 2103c0,158 -99,329 -278,329 -184,0 -279,-173 -279,-329 0,-158 100,-330 279,-330 183,0 278,176 278,330zm-81 -2c0,-116 -33,-304 -198,-304 -163,0 -197,187 -197,304 0,44 4,84 12,120 19,87 74,182 185,182 163,0 198,-187 198,-302z"/>
  <path class="fil1" d="M1141 2368c-34,45 -86,68 -119,67 -39,3 -94,-24 -94,-80 -2,-97 133,-148 215,-202l0 -81c1,-30 1,-56 -10,-71 -23,-33 -91,-19 -115,20 -11,13 -35,125 -81,87 -12,-20 -7,-44 20,-72 48,-50 94,-80 160,-77 92,8 96,93 93,154 0,43 0,81 -1,114l-1 109c12,73 47,38 63,33l-2 24c-38,43 -104,59 -128,-25zm1 -188c-73,29 -147,78 -147,153 0,86 94,64 146,-5l1 -148z"/>
  <path class="fil1" d="M1479 2439c-129,-2 -188,-141 -188,-244 0,-103 66,-236 201,-236 68,0 121,29 121,86 0,50 -16,56 -31,39 -26,-43 -43,-101 -104,-101 -96,0 -123,149 -125,208 -3,72 43,206 141,206 58,0 81,-8 115,-47l15 17c-27,39 -85,72 -145,72z"/>
  <path class="fil2" d="M895 2415l-204 0 0 -32c8,0 18,-1 31,-3 31,-4 32,-21 32,-54l-2 -439 -6 0 -177 518 -11 0 -172 -528 -4 0 -19 446c0,18 8,32 16,41 5,6 16,12 32,17 17,6 28,11 33,12l0 22 -182 0 0 -32c11,-1 22,-3 34,-6 12,-3 21,-8 27,-15 9,-8 10,-25 14,-42l13 -484c-8,-8 -17,-14 -28,-18 -10,-4 -21,-6 -32,-6l0 -25 134 0 162 471 163 -470 134 -1 0 31c-6,1 -15,2 -25,4 -11,3 -18,5 -23,7 -18,8 -16,27 -16,45l6 452c0,43 34,62 70,63l0 26z"/>
  <path class="fil0" d="M2734 2177c19,67 6,151 -43,198 -90,90 -230,73 -297,-10l-2 -123 29 0c-5,88 67,185 153,163 32,-8 85,-47 95,-79 18,-63 -4,-131 -59,-169 -15,-10 -37,-24 -57,-34 -20,-9 -38,-18 -52,-26 -29,-16 -52,-37 -68,-63 -29,-48 -37,-101 -16,-155 8,-21 19,-39 34,-56 14,-15 30,-27 49,-36 61,-27 159,-21 207,27l2 104 -18 0c-19,-79 -54,-125 -136,-121 -23,1 -50,17 -67,35 -16,18 -22,48 -22,74 0,46 31,91 67,111 46,28 97,45 142,77 27,20 49,48 59,83z"/>
  <path class="fil3" d="M833 351l767 0 -145 307 -62 291 218 21 34 448 -812 0 0 -1067z"/>
  <path class="fil4" d="M1598 351l607 0 0 1067 -565 0 -22 -459 -228 4 52 -306 156 -306z"/>
  <path class="fil5 str0" d="M1628 1188c151,-3 263,-38 352,-91"/>
  <path class="fil5 str1" d="M1058 1094c171,88 349,108 537,96"/>
  <path class="fil5 str1" d="M1208 528l0 161"/>
  <path class="fil5 str0" d="M1792 528l0 161"/>
  <path class="fil5 str0" d="M1726 188c-170,201 -317,464 -333,771l250 0c-63,209 -29,443 67,632"/>
 </g>
</svg>
