<svg fill="none" height="107" viewBox="0 0 105 107" width="105" xmlns="http://www.w3.org/2000/svg" xmlns:xlink="http://www.w3.org/1999/xlink"><filter id="a" color-interpolation-filters="sRGB" filterUnits="userSpaceOnUse" height="101.314" width="94.8558" x="5.938" y="1.44922"><feFlood flood-opacity="0" result="BackgroundImageFix"/><feColorMatrix in="SourceAlpha" type="matrix" values="0 0 0 0 0 0 0 0 0 0 0 0 0 0 0 0 0 0 127 0"/><feOffset dy="2.83996"/><feGaussianBlur stdDeviation="1.13598"/><feColorMatrix type="matrix" values="0 0 0 0 0 0 0 0 0 0 0 0 0 0 0 0 0 0 0.0365489 0"/><feBlend in2="BackgroundImageFix" mode="normal" result="effect1_dropShadow"/><feBlend in="SourceGraphic" in2="effect1_dropShadow" mode="normal" result="shape"/></filter><filter id="b" color-interpolation-filters="sRGB" filterUnits="userSpaceOnUse" height="89.4231" width="80.3175" x="12.5845" y="17.2061"><feFlood flood-opacity="0" result="BackgroundImageFix"/><feColorMatrix in="SourceAlpha" type="matrix" values="0 0 0 0 0 0 0 0 0 0 0 0 0 0 0 0 0 0 127 0"/><feOffset dy="3.26684"/><feGaussianBlur stdDeviation="1.30674"/><feColorMatrix type="matrix" values="0 0 0 0 0 0 0 0 0 0 0 0 0 0 0 0 0 0 0.0365489 0"/><feBlend in2="BackgroundImageFix" mode="normal" result="effect1_dropShadow"/><feColorMatrix in="SourceAlpha" type="matrix" values="0 0 0 0 0 0 0 0 0 0 0 0 0 0 0 0 0 0 127 0"/><feOffset dy="7.85068"/><feGaussianBlur stdDeviation="3.14027"/><feColorMatrix type="matrix" values="0 0 0 0 0 0 0 0 0 0 0 0 0 0 0 0 0 0 0.0525061 0"/><feBlend in2="effect1_dropShadow" mode="normal" result="effect2_dropShadow"/><feColorMatrix in="SourceAlpha" type="matrix" values="0 0 0 0 0 0 0 0 0 0 0 0 0 0 0 0 0 0 127 0"/><feOffset dy="14.7821"/><feGaussianBlur stdDeviation="5.91285"/><feColorMatrix type="matrix" values="0 0 0 0 0 0 0 0 0 0 0 0 0 0 0 0 0 0 0.165 0"/><feBlend in2="effect2_dropShadow" mode="normal" result="effect3_dropShadow"/><feBlend in="SourceGraphic" in2="effect3_dropShadow" mode="normal" result="shape"/></filter><g filter="url(#a)"><path d="m8.20996 30.8977c0-3.7431 2.03794-7.1894 5.31794-8.9929l34.8933-19.18595c3.0791-1.69304 6.8103-1.69304 9.8894 0l34.8933 19.18595c3.28 1.8035 5.3179 5.2498 5.3179 8.9929v34.3177c0 3.5111-1.795 6.7786-4.7584 8.6617l-34.8932 22.1735c-3.3591 2.1345-7.6495 2.1346-11.0086 0l-34.8932-22.1735c-2.9634-1.8831-4.75844-5.1506-4.75844-8.6617z" fill="#fff"/></g><path d="m8.20996 35.9199h33.86694c3.9676 0 7.1839 3.2164 7.1839 7.1839 0 3.9676-3.2163 7.1839-7.1839 7.1839h-33.86694z" fill="#fbdb5d"/><path d="m0 57.471c0-3.9675 3.21634-7.1839 7.1839-7.1839h5.1314c3.9675 0 7.1839 3.2164 7.1839 7.1839 0 3.9676-3.2164 7.1839-7.1839 7.1839h-5.1314c-3.96756 0-7.1839-3.2163-7.1839-7.1839z" fill="#28a745"/><path d="m41.0505 79.0225c3.9676 0 7.1839 3.2163 7.1839 7.1839 0 3.2263-2.1268 5.9559-5.055 6.8632l-22.1091-14.0471z" fill="#ec6eb9"/><path d="m24.7392 21.5514h29.6533c3.9676 0 7.1839-3.2163 7.1839-7.1839s-3.2164-7.18391-7.1839-7.18391h-14.1113l-21.166 11.65421c1.3162 1.6536 3.3463 2.7136 5.624 2.7136z" fill="#29a745"/><path d="m73.8919 21.5515h8.2102c2.2542 0 4.266-1.0383 5.5831-2.6627l-18.332-10.08997c-1.6144 1.31737-2.6452 3.32267-2.6452 5.56877 0 3.9676 3.2163 7.1839 7.1839 7.1839z" fill="#babbbc" opacity=".8"/><path d="m26.6826 28.7357c0-3.9676 3.2164-7.1839 7.1839-7.1839h47.7216c3.9676 0 7.1839 3.2163 7.1839 7.1839 0 3.9675-3.2163 7.1839-7.1839 7.1839h-47.7216c-3.9675 0-7.1839-3.2164-7.1839-7.1839z" fill="#f3690b"/><path d="m64.6546 79.0225c-3.9676 0-7.1839 3.2163-7.1839 7.1839 0 3.4874 2.485 6.3944 5.7808 7.0469l22.4096-14.2308z" fill="#c8c9c9"/><path d="m23.6045 71.8392c0-3.9676 3.2163-7.1839 7.1839-7.1839h43.1034c3.9676 0 7.1839 3.2163 7.1839 7.1839 0 3.9675-3.2163 7.1839-7.1839 7.1839h-43.1034c-3.9676 0-7.1839-3.2164-7.1839-7.1839z" fill="#fbdb5d"/><path d="m60.5498 57.471c0-3.9675 3.2163-7.1839 7.1839-7.1839h30.7881v14.3678h-30.7881c-3.9676 0-7.1839-3.2163-7.1839-7.1839z" fill="#ee6ebb"/><path d="m85.1807 43.1038c0-3.9675 3.2163-7.1839 7.1839-7.1839h5.1313c3.9671 0 7.1841 3.2164 7.1841 7.1839 0 3.9676-3.217 7.1839-7.1841 7.1839h-5.1313c-3.9676 0-7.1839-3.2163-7.1839-7.1839z" fill="#2188ff"/><g filter="url(#b)"><path d="m49.7042 79.2399-22.2795-13.6105c-1.8725-1.1439-3.0145-3.1799-3.0145-5.3741v-25.7474s.0024-1.0384.2644-1.8511.7108-1.564.7108-1.564l27.3637 14.442v34.4828s-.8179 0-1.5805-.1968-1.4644-.5809-1.4644-.5809z" fill="#6f42bf"/><path d="m81.0762 60.2228c0 2.1904-1.1382 4.2235-3.0055 5.3685l-22.1171 13.5627s-.6642.4182-1.5559.6519c-.8918.2337-1.6605.2152-1.6605.2152v-34.4889l27.3586-14.4393s.5253.8418.7528 1.6597c.2276.8179.2276 1.7527.2276 1.7527z" fill="#8a63d2"/><path clip-rule="evenodd" d="m75.3339 46.8229c.8325.5448.9112 1.8972.1758 3.0207l-7.531 11.5057c-.735 1.123-2.0052 1.5924-2.8378 1.0487l-4.2657-2.7854c-.8331-.544-.9127-1.8961-.1779-3.02s2.0058-1.5941 2.8388-1.0501l2.7585 1.8012 6.2004-9.4728c.7354-1.1236 2.0064-1.5928 2.8389-1.048z" fill="#fff" fill-rule="evenodd"/><path d="m52.7004 46.6641-27.3244-15.5358s.4308-.694.9657-1.2044c.5349-.5105 1.2089-.9031 1.2089-.9031l22.3422-11.1517c1.7681-.8825 3.8478-.8839 5.6171-.0039l22.4019 11.1427s.6732.3816 1.2517.9406c.5473.5289.9487 1.1715.9487 1.1715z" fill="#cfbaf7"/><path clip-rule="evenodd" d="m28.5222 48.8504c-.6005.4013-.6102 1.5753-.0215 2.6223l4.4864 7.9788c.5887 1.047 1.5528 1.5704 2.1534 1.1692.6006-.4013.6102-1.5753.0215-2.6222l-3.4205-6.0832 3.4895-2.3313c.6006-.4012.6102-1.5753.0215-2.6222-.5887-1.047-1.5528-1.5705-2.1533-1.1692zm12.9551 1.4912 4.4864 7.9788c.5887 1.047.579 2.221-.0215 2.6223l-4.577 3.0578c-.6005.4012-1.5646-.1222-2.1533-1.1692s-.5791-2.221.0215-2.6222l3.4895-2.3313-3.4205-6.0832c-.5887-1.0469-.5791-2.2209.0215-2.6222.6006-.4012 1.5647.1222 2.1534 1.1692z" fill="#fff" fill-rule="evenodd"/></g></svg>