<svg fill="none" height="33" viewBox="0 0 160 33" width="160" xmlns="http://www.w3.org/2000/svg"><path d="m78.6789 14.802h-.0257l-1.0005-2.6936c-1.4366-.4361-2.8988-.8722-4.361-1.257l3.4632 8.363h3.2836l2.4627-5.4385c-.9748-.3592-2.001-.7183-2.9758-1.0518zm9.0043 1.1031v3.3093h3.7967v-1.4879c-1.257-.6413-2.514-1.2314-3.7967-1.8214zm-49.511-7.25989c.4361.35915.6413.89787.6413 1.48789 0 1.0518-.667 1.847-1.7957 1.847h-1.1801v-3.02705c-1.257.20522-2.514.41045-3.7453.66699v9.56866h3.7966v-4.4636h1.2571c3.4632 0 5.3615-1.924 5.3615-4.6177 0-.69259-.1283-1.33393-.3848-1.92395-1.3083.15392-2.6423.28219-3.9506.46176zm28.0391.66699c.59.7183.8979 1.7701.8979 3.0527 0 2.6937-1.2827 4.2329-3.3606 4.2329s-3.3606-1.5392-3.3606-4.2329c0-1.77.59-3.0527 1.6162-3.71969-1.411-.17957-2.8476-.3335-4.2841-.46176-.8209 1.2057-1.2057 2.66795-1.2057 4.15585 0 3.5658 2.2061 7.1316 7.2599 7.1316 5.028 0 7.2599-3.5658 7.2599-7.1316 0-.6926-.1027-1.4366-.3079-2.1549-1.5135-.30783-3.0014-.61567-4.515-.8722zm-11.3901.61568c0-.61568-.1282-1.30832-.4617-1.94966-1.4366-.07696-2.8732-.10261-4.3098-.10261-1.8983 0-3.7967.0513-5.6694.17957v11.15922h3.7967v-4.515h1.334l2.3857 4.515h4.2072l-3.181-5.5155c.3078-.1796 1.8983-.9492 1.8983-3.77102zm-5.5667 2.07792h-1.1031v-3.71973h1.1031c1.3339 0 1.8726.92351 1.8726 1.87273-.0256.9748-.59 1.847-1.8726 1.847zm-25.1403-.4105v4.3098h-8.0295v16.2129h-8.0552v-14.1093c5.105-2.6167 10.4666-4.7715 16.0847-6.4134z" fill="#f39b00"/><g fill="#004b8d"><path d="m87.6832 15.9051c1.2826.5644 2.5653 1.18 3.7967 1.8214v-12.21103h-3.7967zm11.5183-10.38963h-4.7202v13.69893h4.7202c5.1825 0 8.1835-2.5654 8.1835-6.8495 0-4.3354-3.053-6.84943-8.1835-6.84943zm.1283 10.87703h-1.0774v-8.05516h1.0774c2.8732 0 4.1812 1.71876 4.1812 4.02756 0 2.001-1 4.0276-4.1812 4.0276zm55.2832 0v-2.7962h4.694v-2.668h-4.694v-2.59096h5.387v-2.82187h-9.107v13.69893h9.107v-2.8219zm-23.653-2.6936h-.077l-6.156-8.18343h-3.694v13.69893h3.719v-8.44h.077l6.362 8.44h3.515v-13.69893h-3.746zm-17.7-.1283h4.694v-2.6679h-4.694v-2.5397h5.387v-2.82187h-9.107v13.69887h9.107v-2.8219h-5.387zm-76.0883-8.05513h-5.0793v4.13019c1.2313-.25653 2.4883-.46176 3.7453-.66699v-.69263h1.1801c.4874 0 .8466.15392 1.1287.35914 1.334-.17957 2.6423-.30784 4.002-.43611-.6927-1.5905-2.3345-2.6936-4.9768-2.6936zm12.2623 0h-5.0537v2.53968c1.8727-.10261 3.7454-.17957 5.6694-.17957 1.4366 0 2.8732.02566 4.3098.10262-.6927-1.30833-2.1806-2.46273-4.9255-2.46273zm95.354 11.10793c-2.617 0-4.028-1.8727-4.028-4.2585 0-2.2318 1.334-4.20713 4.028-4.20713 1.898 0 3.488.97482 3.617 1.05178v-3.1297c-.154-.07696-1.899-.79526-4.182-.79526-4.617 0-7.337 3.0271-7.337 7.08031 0 4.3611 2.925 7.1317 7.337 7.1317 2.95 0 4.72-1.2314 4.926-1.3597l-1.052-2.514c-.205.1283-1.334 1.0005-3.309 1.0005zm-73.7025-11.10793 2.2062 5.33593c1.4622.3848 2.9501.7952 4.361 1.257l-2.4627-6.59293zm-7.3369-.23088c-2.8988 0-4.8741 1.20571-6.0542 2.92448 1.4366.12827 2.8732.2822 4.2841.46177.4874-.30784 1.0775-.46177 1.7444-.46177 1.0518 0 1.8984.38481 2.4628 1.1031 1.5135.25654 3.0014.56437 4.4893.92353-.6926-2.591-2.8219-4.95111-6.9264-4.95111zm15.7768 7.43951c.9748.3335 2.001.6926 2.9758 1.0518l3.7454-8.26043h-3.7454zm-71.4959 3.3349h-8.0295v-8.02949h8.00385v-8.02951h8.08085v8.02951h8.0295v3.54019c-5.5925 1.6418-10.9797 3.7967-16.0847 6.4133z"/><path d="m37.6591 32.1179v-3.848h-4.6176v3.848h-.9491v-8.4399h.9491v3.7197h4.6176v-3.7197h.9492v8.4399"/><path d="m41.3276 29.2449c0 1.1544.667 2.1805 2.0266 2.1805.513 0 1.0774-.2052 1.4366-.4361l.2822.6413c-.4362.3592-1.2058.6157-1.924.6157-1.8984 0-2.8219-1.5392-2.8219-3.2836 0-1.7701 1.0005-3.0784 2.4627-3.0784 1.5649 0 2.4371 1.257 2.4371 3.1297v.2052zm1.4622-2.5397c-.8979 0-1.4622.7952-1.4622 1.7701h2.8731c0-.8722-.4874-1.7701-1.4109-1.7701z"/><path d="m50.2806 32.118-.1283-.59c-.3848.3591-.8722.7183-1.7701.7183-1.0774 0-1.9496-.7183-1.9496-1.8471 0-1.2313.9492-1.9753 2.4371-1.9753h1.2313v-.3078c0-1.0518-.5387-1.3853-1.3083-1.3853s-1.2827.3335-1.5905.5644l-.3848-.6926c.7439-.5131 1.3853-.6927 2.1549-.6927 1.1544 0 2.0779.5131 2.0779 2.0523v2.1549c0 .8465.1026 1.7957.1283 2.0266zm-.1796-2.8732h-1.2057c-1.0261 0-1.5392.5131-1.5392 1.1288s.4361 1.0774 1.1801 1.0774c.7952 0 1.257-.4104 1.5648-.6926z"/><path d="m54.0003 32.2463c-.7439 0-1.0774-.4618-1.0774-1.1031v-8.1065h.9492v7.6704c0 .5644.1539.6926.513.6926.0513 0 .1539 0 .3079-.0256l.1282.6926c-.2822.1283-.513.1796-.8209.1796z"/><path d="m57.5918 32.2463c-.9748 0-1.3596-.59-1.3596-1.3853v-4.0276h-1.0005v-.7696h1.0005v-1.3339l.9491-.3335v1.6674h1.8471l-.3335.7953h-1.5392v3.8223c0 .5131.2052.744.6413.744.4618 0 .9235-.3079 1.0262-.3592l.2821.667c-.1026.077-.7696.5131-1.5135.5131z"/><path d="m64.0308 32.118v-3.8223c0-.7696-.2566-1.5136-1.2314-1.5136-.6926 0-1.4109.6927-1.7188.9492v4.3867h-.9491v-9.0813h.9491v3.7454c.3592-.2822 1.0775-.8722 1.9754-.8722.9748 0 1.8983.6414 1.8983 2.2319v4.0019"/><path d="m75.857 32.195c-.744 0-1.411-.5644-1.9497-1.0518-.2565.2052-1.3083 1.1287-2.8732 1.1287-1.6674 0-2.6166-1.18-2.6166-2.3857 0-1.2314.6927-1.9497 1.924-2.4371-.6157-.7183-1.0261-1.2057-1.0261-2.0779 0-.9749.8465-1.7958 2.1035-1.7958 1.2314 0 2.0523.744 2.0523 1.8214 0 1.0775-.7183 1.6932-1.7701 2.2575.4361.5131 1.5392 1.7188 2.2319 2.3345.3078-.3335.9748-1.1544 1.3083-2.0266l.7696.2822c-.4105 1.103-1.2827 2.1035-1.4622 2.3088.5643.5387.9491.9491 1.4622.9491.2052 0 .3848-.0513.3848-.0513l.1796.6157c-.0513 0-.3335.1283-.7183.1283zm-5.0281-4.1559c-.667.2566-1.4109.8722-1.4109 1.7958 0 .9235.667 1.6418 1.7444 1.6418 1.0518 0 1.8727-.667 2.1036-.8466-.667-.667-1.8727-1.8983-2.4371-2.591zm.5387-3.6427c-.7952 0-1.1544.5643-1.1544 1.0004 0 .5388.3079.9492.9492 1.7188.8979-.4361 1.3596-1.0005 1.3596-1.5905.0257-.4874-.2308-1.1287-1.1544-1.1287z"/><path d="m81.8086 32.2463c-1.1031 0-1.8471-.3592-2.3088-.667l.4361-.744c.3078.2309 1.0005.5901 1.847.5901.7696 0 1.6931-.3848 1.6931-1.2827 0-1.4879-2.0266-1.7957-3.0784-2.9245-.3591-.3848-.6156-.8722-.6156-1.5392 0-1.2057.8978-2.1036 2.437-2.1036.8979 0 1.5136.2309 1.8727.4105v1.0005c-.4361-.3079-1.1544-.5387-1.847-.5387-.8209 0-1.5392.3335-1.5392 1.1544 0 1.8727 3.7454 1.8983 3.7454 4.438.0256 1.334-1.1031 2.2062-2.6423 2.2062z"/><path d="m86.7853 29.2449c0 1.1544.667 2.1805 2.0266 2.1805.5131 0 1.0775-.2052 1.4366-.4361l.2822.6413c-.4361.3592-1.2057.6157-1.8983.6157-1.8984 0-2.8219-1.5392-2.8219-3.2836 0-1.7701 1.0005-3.0784 2.4627-3.0784 1.5649 0 2.4371 1.257 2.4371 3.1297v.2052zm1.4623-2.5397c-.8979 0-1.4623.7952-1.4623 1.7701h2.8732c0-.8722-.4874-1.7701-1.4109-1.7701z"/><path d="m95.2766 26.9874c-.0513-.0257-.3079-.1027-.667-.1027-.4874 0-.9235.2309-1.4366.7183v4.515h-.9492v-6.0542h.7953l.0769.7183c.821-.7696 1.3084-.8722 1.6932-.8722.2308 0 .4104.077.4617.077"/><path d="m98.945 32.1692h-.7439l-2.3088-6.1055h.9491l1.7445 4.8485h.0256l1.9245-4.8485h.923"/><path d="m102.998 24.7812c-.359 0-.667-.2821-.667-.6669 0-.3592.257-.667.616-.667s.693.3078.693.667c.025.3848-.283.6669-.642.6669zm-.462 1.2827h.95v6.0799h-.95z"/><path d="m107.821 32.2463c-1.847 0-2.822-1.4622-2.822-3.104 0-1.6932.975-3.258 3.002-3.258.538 0 1.128.1539 1.539.3848v.8722c-.385-.2309-.924-.4361-1.591-.4361-1.282 0-2.026 1.0005-2.026 2.3857 0 1.334.744 2.3345 2.001 2.3345.667 0 1.128-.2309 1.513-.4618l.308.667c-.385.2822-1.026.6157-1.924.6157z"/><path d="m111.489 29.2449c0 1.1544.667 2.1805 2.001 2.1805.514 0 1.078-.2052 1.437-.4361l.308.667c-.103.0513-.821.59-1.898.59-1.924 0-2.874-1.5392-2.874-3.2836 0-1.7701 1.001-3.0784 2.463-3.0784 1.565 0 2.412 1.257 2.412 3.1297v.2052zm1.463-2.5397c-.898 0-1.463.7952-1.463 1.7701h2.874c0-.8722-.488-1.7701-1.411-1.7701z"/><path d="m118.185 32.2463c-.872 0-1.411-.2309-1.796-.4618l.359-.7439c.283.1796.77.4361 1.437.4361.718 0 1.334-.3335 1.334-.8979 0-1.4878-2.771-.9748-2.771-3.104 0-.8722.616-1.5905 2.001-1.5905.642 0 1.129.1282 1.54.3335v.8209c-.437-.1796-.873-.3592-1.488-.3592-.616 0-1.129.2566-1.129.7953 0 1.3596 2.796 1.0005 2.796 2.9758.026 1.2826-.975 1.7957-2.283 1.7957z"/></g></svg>