<svg enable-background="new 0 0 200 90" viewBox="0 0 200 90" xmlns="http://www.w3.org/2000/svg"><g fill="#117cad"><path d="m70.6 57.1c-3.1 0-5.9 1.7-8.2 3.1-4.4 2.7-6.5 2.5-6.5 2.5s0 0-.1-.1c-.3-.5 1.4-4.8-.5-10-2.1-5.7-5.3-7.1-5-7.5 1.1-1.9 3.9-4.9 5-10.4.7-3.4.5-8.9-1-11.8-.3-.5-2.7.9-2.7.9s-2.3-5.1-3-5.6c-2.1-1.3-4.3 5.5-4.3 5.5s-4.9-.7-8.6 3.3c-.7.8-1.8 1.3-2.8 1.7-.3.1-.7.1-1.6 2.5-1.4 3.7 2.3 7.9 2.3 7.9s-4.4 3.1-6.1 7.1c-1.8 4.3-1.3 8.5-1.3 8.5s-3.2 2.7-3.4 5.6c-.2 2.5.5 4.5 1.3 5.7.9 1.3 1.9.7 1.9.7s-2 2.2 0 3.2c1.8.9 4.8 1.5 6.4-.1 1.2-1.2 1.4-3.8 1.8-4.8.1-.2.5.4.8.7.4.3 1 .7 1 .7s-2.8 1.2-1.7 4c.4.9 1.8 1.5 4 1.5.8 0 10-.5 12.4-1.1 1.4-.3 1.9-1.1 1.9-1.1s5.9-1.6 11.2-5.1c3.4-2.2 4.8-2.8 7.6-3.5 2.4-.5 2.2-4-.8-4z"/><path d="m45 0c-24.8 0-45 20.2-45 45s20.2 45 45 45 45-20.2 45-45-20.2-45-45-45zm27.1 63.7c-2.4.6-3.6 1-6.8 3.2-4.6 3-9.5 4.7-11.3 5.2-.6.5-1.4 1-2.6 1.3-2.8.7-12.2 1.2-13 1.2h-.2c-2.9 0-4.6-.9-5.4-1.8-2.5 1.2-5.7.7-8-.5-1.2-.6-1.9-1.6-2.2-2.8-.1-.5-.1-1 0-1.5-.2-.2-.4-.5-.6-.7-.6-.9-2-3.5-1.7-7.3.2-2.7 2.1-5.1 3.3-6.4-.1-1.8.1-5.1 1.5-8.5 1.1-2.7 3.3-5.1 5-6.5-1.2-2-2.4-5.1-1.2-8.3.9-2.3 1.5-3.5 3.1-4 .7-.3 1.5-.6 1.8-1 2.9-3.2 6.4-4 8.6-4.1.1-.3.3-.7.5-1.1 1.2-2.5 2.4-3.9 3.8-4.4 1.1-.4 2.2-.3 3.2.4.5.3 1.1.7 2.8 4.3 1.2-.3 1.8-.2 2.1-.1.8.2 1.4.7 1.7 1.4 1.8 3.4 2 9.6 1.3 13.5-.9 4.6-2.8 7.6-4.2 9.7 1.2 1.2 2.9 3.4 4.2 6.8 1 2.9 1.2 5.5 1 7.6.6-.3 1.4-.7 2.3-1.2 2.2-1.4 5.6-3.4 9.6-3.5 2.7 0 4.8 1.7 5.1 4.1.1 2.3-1.4 4.5-3.7 5z"/><path d="m198.2 42.7c-.7 0-1.4.6-1.7 2.1-.6 3.1-2.1 7.5-4.8 7.5-1.8 0-1.8-2.6-1.8-3.2v-14.4c0-3.2-1.1-7-5.8-7-3.4 0-5.9 3-7.8 6.9v-3.1c0-1.7-1.5-3.1-3.8-3.1-1 0-1.8.5-1.8 1.2 0 .5.3.9.3 2.2v12.1c-.1.3-.2.6-.3.9-.6 3.1-1.8 7.5-5 7.5-1.9 0-2.8-1.8-2.8-3.8 0-6.9 3.1-15.2 3.1-16 .3-1.6-2.5-3.9-3.3-3.9h-3.6c-.7 0-1.4 0-3.7-.3-.8-2.8-2.7-3.7-4.4-3.7-1.8 0-3.5 1.3-3.5 3.2 0 2 1.3 3.5 3 4.4-.1 3.5-.3 9.3-1.1 12.1 0 .1 0 .2-.1.3v.1c-.6 3.1-1.9 7.5-4.7 7.5-1.7 0-2.4-1.7-2.4-3.2v-11.4c0-1.7-1.5-3.1-3.8-3.1-1 0-1.8.5-1.8 1.2 0 .5.3.9.3 2.2v10.7c-.8 1.9-2 3.6-3.9 3.6-2.4 0-4-2.1-4-5.7 0-10 6.2-14.5 11.5-14.5.7 0 1.4.1 2 .1.7 0 .9-.4.9-1.6 0-1.8-1.3-2.9-3.2-2.9-8.5 0-16.5 7.1-16.5 18.7v1c-1.4 3.5-3.2 6.2-5.2 8.5v-24.4c0-1.7-1.5-3.1-3.8-3.1-1 0-1.8.5-1.8 1.2 0 .5.3.9.3 2.2v11.3c-.8 4.9-2.9 9.4-5.7 9.4-2 0-3.2-2-3.2-5.8 0-5.8.8-8.9 2-14 .3-1 2.3-3.8-1.1-3.8-3.7 0-3.2 1.4-3.7 2.6 0 0-2.3 8.3-2.3 15.6 0 6 2.5 10 7.2 10 3 0 5.1-2 6.8-4.8v8.8c-4.6 4-8.6 7.6-8.6 14.6 0 4.4 2.8 8 6.7 8 3.5 0 7.2-2.6 7.2-9.9v-12c2.4-2.1 4.9-4.6 7.1-8.2 1.4 2.1 3.5 3.4 6.4 3.4 2.6 0 4.6-1.3 6-2.8 1 1.7 2.9 2.8 5.4 2.8 5.7 0 8.5-5.7 9.8-10.2 0-.1.1-.2.1-.3 1.3-4 1.7-10.1 1.7-12.8h6c-2.2 6-3.5 10.9-3.5 15.4 0 6.1 3.9 7.9 7.2 7.9 2.7 0 4.7-1.2 6.2-3 0 2.5 2 3 3.3 3 2 0 1.9-1.7 1.9-3v-10.2c.5-5.5 4.8-11.5 6.8-11.5 1.3 0 1.5 1.8 1.5 4v14.1c0 3.5 2.2 6.5 5.8 6.5 6 0 8.9-6.3 10.1-10.8.1-.3.1-.4.1-.5.2-1.3-1.1-2.8-2.2-2.8zm-86.7 36.5c-1.1 0-1.8-1.7-1.8-3.8 0-4.2 1.5-6.8 3.8-9.1v7.4c0 1.3.2 5.5-2 5.5z"/></g></svg>