<?xml version="1.0" encoding="UTF-8"?>
<!DOCTYPE svg PUBLIC "-//W3C//DTD SVG 1.1//EN" "http://www.w3.org/Graphics/SVG/1.1/DTD/svg11.dtd">
<!-- Creator: CorelDRAW -->
<svg xmlns="http://www.w3.org/2000/svg" xml:space="preserve" width="297mm" height="210mm" style="shape-rendering:geometricPrecision; text-rendering:geometricPrecision; image-rendering:optimizeQuality; fill-rule:evenodd; clip-rule:evenodd"
viewBox="0 0 297 210"
 xmlns:xlink="http://www.w3.org/1999/xlink">
 <defs>
  <style type="text/css">
   <![CDATA[
    .str2 {stroke:blue;stroke-width:0.3323;stroke-linejoin:round}
    .str1 {stroke:black;stroke-width:0.3323;stroke-linejoin:round}
    .str0 {stroke:white;stroke-width:0.3323;stroke-linejoin:round}
    .fil1 {fill:none}
    .fil2 {fill:black}
    .fil0 {fill:white}
   ]]>
  </style>
 </defs>
 <g id="Camada_x0020_1">
  <metadata id="CorelCorpID_0Corel-Layer"/>
  <polygon class="fil0" points="8.2964,0.1677 287.842,0.1677 287.842,209.73 8.2964,209.73 "/>
  <polygon class="fil0" points="44.6457,186.68 44.6457,15.9042 261.301,15.9042 261.301,186.68 "/>
  <polyline class="fil1 str0" points="44.6457,186.68 44.6457,15.9042 261.301,15.9042 261.301,186.68 44.6457,186.68 "/>
  <line class="fil1 str1" x1="44.6457" y1="15.9042" x2="261.301" y2= "15.9042" />
  <line class="fil1 str1" x1="44.6457" y1="186.68" x2="261.301" y2= "186.68" />
  <line class="fil1 str1" x1="261.301" y1="186.68" x2="261.301" y2= "15.9042" />
  <line class="fil1 str1" x1="44.6457" y1="186.68" x2="44.6457" y2= "15.9042" />
  <line class="fil1 str1" x1="44.6457" y1="186.68" x2="261.301" y2= "186.68" />
  <line class="fil1 str1" x1="44.6457" y1="186.68" x2="44.6457" y2= "15.9042" />
  <line class="fil1 str1" x1="44.6457" y1="186.68" x2="44.6457" y2= "184.463" />
  <line class="fil1 str1" x1="44.6457" y1="15.9042" x2="44.6457" y2= "18.0653" />
  <path class="fil2" d="M44.6589 190.04c-1.0106,0 -1.5958,0.8709 -1.5958,2.3737 0.0001,1.5625 0.5652,2.4271 1.6024,2.4271 1.0241,-0.0002 1.6025,-0.8646 1.6025,-2.3871 0.0002,-1.5494 -0.5784,-2.4137 -1.6091,-2.4137l0 0zm-0.9641 2.2606c0.0332,-1.1569 0.3525,-1.7287 0.9707,-1.7287 0.6452,0 0.9709,0.6383 0.9709,1.9149 0,1.1769 -0.3457,1.8287 -0.9775,1.8287 -0.6316,-0.0002 -0.9641,-0.6518 -0.9641,-1.8552 0,-0.0532 0,-0.1063 0,-0.1597l0 0z"/>
  <line class="fil1 str1" x1="75.5649" y1="186.68" x2="75.5649" y2= "184.463" />
  <line class="fil1 str1" x1="75.5649" y1="15.9042" x2="75.5649" y2= "18.0653" />
  <path class="fil2" d="M76.13 190.04l-0.472 0c-0.0733,0.2991 -0.1596,0.4853 -0.2793,0.605 -0.1797,0.1862 -0.4856,0.2727 -0.9709,0.2859l0 0.4654 1.0906 0 0 3.318 0.6316 0 0 -4.6743z"/>
  <line class="fil1 str1" x1="106.539" y1="186.68" x2="106.539" y2= "184.463" />
  <line class="fil1 str1" x1="106.539" y1="15.9042" x2="106.539" y2= "18.0653" />
  <path class="fil2" d="M105.549 194.156c0.0332,-0.1863 0.0663,-0.2528 0.1994,-0.419 0.0665,-0.0732 0.1329,-0.1463 0.2128,-0.2126 0.1728,-0.1399 0.3325,-0.2394 0.8578,-0.5188 0.4853,-0.2527 0.7447,-0.4321 0.9375,-0.6515 0.2194,-0.2594 0.3325,-0.5587 0.3325,-0.911 0,-0.8312 -0.6052,-1.403 -1.4828,-1.403 -0.6184,0 -1.0906,0.2259 -1.3565,0.6449 -0.1663,0.2594 -0.2328,0.5519 -0.2528,1.0307l0.5919 0 0.0133 -0.0865c0.0332,-0.3457 0.0798,-0.5253 0.1929,-0.6982 0.1528,-0.2394 0.3988,-0.359 0.7381,-0.359 0.565,0 0.9241,0.3324 0.9241,0.8643 0,0.3923 -0.1862,0.6716 -0.6116,0.9178l-1.0107 0.5916c-0.2328,0.1397 -0.5055,0.4124 -0.645,0.645 -0.2327,0.379 -0.2859,0.5653 -0.3127,1.1237l3.2052 0 0 -0.5584 -2.5334 0z"/>
  <line class="fil1 str1" x1="137.458" y1="186.68" x2="137.458" y2= "184.463" />
  <line class="fil1 str1" x1="137.458" y1="15.9042" x2="137.458" y2= "18.0653" />
  <path class="fil2" d="M138.323 192.241c0.3724,-0.1331 0.5984,-0.4922 0.5984,-0.9575 0,-0.7581 -0.5652,-1.2434 -1.4496,-1.2434 -0.5984,0 -1.0106,0.1994 -1.27,0.5984 -0.1595,0.2394 -0.2194,0.4921 -0.2394,0.9309l0.5853 0c0.02,-0.2659 0.0331,-0.3325 0.0931,-0.5053 0.1129,-0.3127 0.4122,-0.4987 0.8112,-0.4987 0.5253,0 0.8576,0.2991 0.8576,0.758 0,0.4786 -0.3191,0.7447 -0.8975,0.7447 -0.0932,-0.0002 -0.1531,-0.0068 -0.2994,-0.0134l0 0.5054c0.1065,0 0.1597,0 0.2196,0 0.3591,0 0.5785,0.0399 0.7579,0.133 0.2396,0.1329 0.3791,0.3857 0.3791,0.6982 0,0.5651 -0.3923,0.9243 -1.0241,0.9243 -0.6516,-0.0002 -0.9309,-0.3059 -0.9774,-1.0374l-0.6117 0c0.04,0.5253 0.0732,0.6516 0.2726,0.9775 0.2194,0.3656 0.7447,0.5918 1.3565,0.5918 0.9643,0 1.6157,-0.6118 1.6157,-1.5028 0,-0.4521 -0.2126,-0.8512 -0.5385,-0.9974l-0.1663 -0.0732 -0.0731 -0.0331z"/>
  <line class="fil1 str1" x1="168.433" y1="186.68" x2="168.433" y2= "184.463" />
  <line class="fil1 str1" x1="168.433" y1="15.9042" x2="168.433" y2= "18.0653" />
  <path class="fil2" d="M168.905 190.04l-2.1345 2.9655 0 0.5719 2.0346 0 0 1.1369 0.5919 0 0 -1.1369 0.6849 0 0 -0.5121 -0.6849 0 0 -3.0253 -0.492 0zm-0.0999 0.9043l0 2.121 -1.4893 0 1.4893 -2.121z"/>
  <line class="fil1 str1" x1="199.352" y1="186.68" x2="199.352" y2= "184.463" />
  <line class="fil1 str1" x1="199.352" y1="15.9042" x2="199.352" y2= "18.0653" />
  <path class="fil2" d="M198.261 190.14l-0.3523 2.5068 0.5119 0.0266c0.2594,-0.3059 0.5385,-0.4456 0.871,-0.4456 0.5984,0 1.024,0.4256 1.024,1.0374 0.0002,0.6382 -0.4122,1.0704 -1.024,1.0704 -0.5451,0 -0.8844,-0.2859 -0.9441,-0.7913l-0.6118 0c0.0333,0.2594 0.0531,0.3393 0.1263,0.5122 0.2129,0.5119 0.7181,0.7846 1.4362,0.7846 0.9975,-0.0002 1.649,-0.6518 1.649,-1.6558 0.0002,-0.8444 -0.6715,-1.4828 -1.5491,-1.4828 -0.3325,0 -0.5918,0.0799 -0.8844,0.2793l0.1928 -1.2634 1.9816 0 0 -0.5784 -2.4271 0z"/>
  <line class="fil1 str1" x1="230.326" y1="186.68" x2="230.326" y2= "184.463" />
  <line class="fil1 str1" x1="230.326" y1="15.9042" x2="230.326" y2= "18.0653" />
  <path class="fil2" d="M231.849 191.29c-0.0532,-0.7647 -0.5919,-1.25 -1.3763,-1.25 -1.0838,0 -1.7222,0.9441 -1.7222,2.5465 0.0002,1.4297 0.5851,2.2543 1.5959,2.2543 0.5319,-0.0002 0.8444,-0.1265 1.1435,-0.4456 0.3261,-0.3458 0.4522,-0.6781 0.4522,-1.1569 0,-0.3327 -0.0532,-0.5786 -0.1794,-0.798 -0.2528,-0.4388 -0.7515,-0.7048 -1.31,-0.7048 -0.4853,0 -0.8378,0.1863 -1.0838,0.5651 0,-0.0531 -0.0068,-0.0863 -0.0068,-0.1063 0.0002,-0.3325 0.1197,-0.7846 0.286,-1.1103 0.1798,-0.3327 0.4721,-0.5121 0.8312,-0.5121 0.4322,0 0.6915,0.2327 0.7912,0.7181l0.5785 0zm-1.4628 0.9708c0.5852,0 0.9443,0.3857 0.9443,1.0041 0,0.625 -0.3725,1.0506 -0.9178,1.0506 -0.565,-0.0002 -0.9707,-0.4322 -0.9707,-1.0374 0,-0.6184 0.3723,-1.0173 0.9442,-1.0173l0 0z"/>
  <line class="fil1 str1" x1="261.301" y1="186.68" x2="261.301" y2= "184.463" />
  <line class="fil1 str1" x1="261.301" y1="15.9042" x2="261.301" y2= "18.0653" />
  <path class="fil2" d="M259.711 190.14l0 0.5784 2.5733 0c-0.4853,0.5585 -0.9375,1.2834 -1.2899,2.0281 -0.1729,0.3656 -0.3125,0.7247 -0.419,1.0838 -0.093,0.2925 -0.1197,0.4256 -0.1861,0.8046l-0.0134 0.0797 0.6516 0 0.02 -0.0797c0.04,-0.2194 0.0665,-0.3591 0.0797,-0.4056 0.1199,-0.5519 0.3857,-1.2966 0.6518,-1.8353 0.1265,-0.2525 0.2726,-0.5119 0.4454,-0.7844 0.233,-0.3725 0.399,-0.5919 0.6716,-0.8978l0.0533 -0.0599 0 -0.5119 -3.2383 0z"/>
  <line class="fil1 str1" x1="44.6457" y1="186.68" x2="46.8067" y2= "186.68" />
  <line class="fil1 str1" x1="261.301" y1="186.68" x2="259.084" y2= "186.68" />
  <polygon class="fil2" points="35.463,186.976 35.463,187.582 37.0989,187.582 37.0989,186.976 "/>
  <path class="fil2" d="M39.7784 184.443l-0.472 0c-0.0731,0.2993 -0.1596,0.4856 -0.2793,0.6052 -0.1795,0.1861 -0.4854,0.2726 -0.9709,0.286l0.0002 0.4653 1.0904 0 0 3.3181 0.6316 0 0 -4.6746z"/>
  <line class="fil1 str1" x1="44.6457" y1="169.558" x2="46.8067" y2= "169.558" />
  <line class="fil1 str1" x1="261.301" y1="169.558" x2="259.084" y2= "169.558" />
  <polygon class="fil2" points="29.922,169.855 29.922,170.46 31.5577,170.46 31.5577,169.855 "/>
  <path class="fil2" d="M33.6855 167.321c-1.0107,0 -1.5959,0.871 -1.5959,2.3738 0.0002,1.5625 0.5652,2.4271 1.6025,2.4271 1.024,-0.0002 1.6024,-0.8644 1.6024,-2.3872 0,-1.5495 -0.5784,-2.4137 -1.609,-2.4137l0 0zm-0.9641 2.2607c0.0331,-1.1571 0.3524,-1.7288 0.9707,-1.7288 0.6449,-0.0002 0.9708,0.6384 0.9708,1.915 0,1.1769 -0.3458,1.8287 -0.9774,1.8287 -0.6317,-0.0002 -0.9641,-0.6518 -0.9641,-1.8553 0,-0.0531 0,-0.1063 0,-0.1594l0 -0.0002z"/>
  <polygon class="fil2" points="36.1191,171.291 36.1191,171.996 36.8173,171.996 36.8173,171.291 "/>
  <path class="fil2" d="M40.0622 169.509c0.4056,-0.1995 0.5983,-0.4986 0.5983,-0.9508 0.0001,-0.7514 -0.5717,-1.2368 -1.4561,-1.2368 -0.8446,0 -1.4096,0.5187 -1.4096,1.29 0,0.4322 0.2128,0.7381 0.6316,0.9043 -0.5385,0.2258 -0.7913,0.5917 -0.7913,1.1569 0,0.8976 0.625,1.4497 1.6225,1.4497 0.9309,-0.0002 1.5759,-0.5985 1.5759,-1.4696 0,-0.5319 -0.2594,-0.911 -0.7715,-1.1437l0.0002 0zm-0.9643 -1.6559c0.0334,0 0.06,0.0002 0.0865,0.0002 0.5319,-0.0002 0.8644,0.2728 0.8644,0.7115 0,0.4254 -0.3458,0.7315 -0.8246,0.7315 -0.4719,-0.0001 -0.8178,-0.3059 -0.8178,-0.7315 0,-0.4124 0.2659,-0.6781 0.6915,-0.7115l0 -0.0002zm0.04 1.9552c0.0266,0 0.0531,-0.0066 0.0797,-0.0066 0.6318,-0.0002 0.9775,0.339 0.9775,0.9507 0,0.5387 -0.3457,0.8446 -0.9509,0.8446 -0.5851,-0.0002 -0.9775,-0.3659 -0.9775,-0.911 0.0002,-0.4989 0.3459,-0.8512 0.8712,-0.8777l0 0z"/>
  <line class="fil1 str1" x1="44.6457" y1="152.491" x2="46.8067" y2= "152.491" />
  <line class="fil1 str1" x1="261.301" y1="152.491" x2="259.084" y2= "152.491" />
  <polygon class="fil2" points="29.922,152.788 29.922,153.393 31.5577,153.393 31.5577,152.788 "/>
  <path class="fil2" d="M33.6855 150.255c-1.0107,0 -1.5959,0.871 -1.5959,2.3738 0.0002,1.5625 0.5652,2.4271 1.6025,2.4271 1.024,-0.0002 1.6024,-0.8646 1.6024,-2.3872 0,-1.5495 -0.5784,-2.4137 -1.609,-2.4137l0 0zm-0.9641 2.2607c0.0331,-1.1571 0.3524,-1.7288 0.9707,-1.7288 0.6449,-0.0002 0.9708,0.6384 0.9708,1.915 0,1.1769 -0.3458,1.8287 -0.9774,1.8287 -0.6317,-0.0002 -0.9641,-0.6518 -0.9641,-1.8553 0,-0.0531 0,-0.1063 0,-0.1596l0 0z"/>
  <polygon class="fil2" points="36.1191,154.225 36.1191,154.929 36.8173,154.929 36.8173,154.225 "/>
  <path class="fil2" d="M40.7404 151.505c-0.0532,-0.7645 -0.5919,-1.2499 -1.3765,-1.2499 -1.0838,0 -1.7222,0.9441 -1.7222,2.5466 0,1.4295 0.5853,2.2543 1.5959,2.2543 0.5319,-0.0002 0.8444,-0.1265 1.1437,-0.4456 0.3259,-0.3459 0.4522,-0.6782 0.4522,-1.1569 0,-0.3327 -0.0534,-0.5786 -0.1796,-0.798 -0.2526,-0.4388 -0.7513,-0.7048 -1.31,-0.7048 -0.4853,0 -0.8378,0.1862 -1.0838,0.5651 0,-0.0533 -0.0066,-0.0863 -0.0066,-0.1063 0,-0.3327 0.1197,-0.7847 0.286,-1.1104 0.1794,-0.3326 0.4721,-0.5121 0.8312,-0.5121 0.4322,-0.0002 0.6913,0.2328 0.7912,0.7181l0.5785 -0.0001zm-1.4628 0.971c0.585,0 0.9441,0.3857 0.9441,1.0041 0,0.625 -0.3723,1.0506 -0.9176,1.0506 -0.5652,-0.0002 -0.9708,-0.4322 -0.9708,-1.0374 0,-0.6184 0.3724,-1.0173 0.9443,-1.0173l0 0z"/>
  <line class="fil1 str1" x1="44.6457" y1="135.425" x2="46.8067" y2= "135.425" />
  <line class="fil1 str1" x1="261.301" y1="135.425" x2="259.084" y2= "135.425" />
  <polygon class="fil2" points="29.922,135.722 29.922,136.327 31.5577,136.327 31.5577,135.722 "/>
  <path class="fil2" d="M33.6855 133.189c-1.0107,0 -1.5959,0.871 -1.5959,2.3738 0.0002,1.5625 0.5652,2.4269 1.6025,2.4269 1.024,0 1.6024,-0.8644 1.6024,-2.387 0,-1.5495 -0.5784,-2.4137 -1.609,-2.4137l0 0zm-0.9641 2.2607c0.0331,-1.1571 0.3524,-1.7288 0.9707,-1.7288 0.6449,-0.0002 0.9708,0.6384 0.9708,1.915 0,1.1769 -0.3458,1.8287 -0.9774,1.8287 -0.6317,-0.0002 -0.9641,-0.6518 -0.9641,-1.8553 0,-0.0531 0,-0.1063 0,-0.1596l0 0z"/>
  <polygon class="fil2" points="36.1191,137.158 36.1191,137.863 36.8173,137.863 36.8173,137.158 "/>
  <path class="fil2" d="M39.6898 133.189l-2.1344 2.9656 0 0.5719 2.0347 0 0 1.1369 0.5918 0 0 -1.1369 0.6848 0 0 -0.5121 -0.6848 0 0 -3.0254 -0.4921 0zm-0.0997 0.9044l0 2.121 -1.4894 0 1.4894 -2.121z"/>
  <line class="fil1 str1" x1="44.6457" y1="118.358" x2="46.8067" y2= "118.358" />
  <line class="fil1 str1" x1="261.301" y1="118.358" x2="259.084" y2= "118.358" />
  <polygon class="fil2" points="29.922,118.655 29.922,119.26 31.5577,119.26 31.5577,118.655 "/>
  <path class="fil2" d="M33.6855 116.122c-1.0107,0 -1.5959,0.8711 -1.5959,2.3739 0.0002,1.5625 0.5652,2.4269 1.6025,2.4269 1.024,0 1.6024,-0.8644 1.6024,-2.3869 0,-1.5496 -0.5784,-2.4137 -1.609,-2.4137l0 -0.0002zm-0.9641 2.2608c0.0331,-1.1571 0.3524,-1.7287 0.9707,-1.7287 0.6449,-0.0002 0.9708,0.6383 0.9708,1.9149 0,1.1769 -0.3458,1.8287 -0.9774,1.8287 -0.6317,-0.0002 -0.9641,-0.6518 -0.9641,-1.8552 0,-0.0532 0,-0.1063 0,-0.1597l0 0z"/>
  <polygon class="fil2" points="36.1191,120.092 36.1191,120.796 36.8173,120.796 36.8173,120.092 "/>
  <path class="fil2" d="M38.227 120.238c0.0331,-0.1864 0.0665,-0.2528 0.1994,-0.419 0.0665,-0.0732 0.133,-0.1463 0.2128,-0.2128 0.1728,-0.1397 0.3325,-0.2394 0.8578,-0.5186 0.4853,-0.2527 0.7446,-0.4321 0.9375,-0.6515 0.2194,-0.2594 0.3325,-0.5587 0.3325,-0.911 0,-0.8312 -0.6051,-1.403 -1.4828,-1.403 -0.6185,-0.0002 -1.0906,0.2259 -1.3566,0.6449 -0.1662,0.2594 -0.2325,0.5519 -0.2525,1.0307l0.5918 -0.0002 0.0132 -0.0863c0.0334,-0.3457 0.0797,-0.5253 0.1928,-0.6982 0.1531,-0.2395 0.399,-0.359 0.7381,-0.359 0.5653,-0.0002 0.9243,0.3324 0.9243,0.8643 0,0.3923 -0.1862,0.6716 -0.6118,0.9178l-1.0106 0.5916c-0.2328,0.1395 -0.5053,0.4124 -0.645,0.645 -0.2328,0.3789 -0.2859,0.5653 -0.3125,1.1237l3.205 0 0 -0.5584 -2.5334 0z"/>
  <line class="fil1 str1" x1="44.6457" y1="101.292" x2="46.8067" y2= "101.292" />
  <line class="fil1 str1" x1="261.301" y1="101.292" x2="259.084" y2= "101.292" />
  <path class="fil2" d="M40.8912 99.0554c-1.0109,0 -1.5959,0.8711 -1.5959,2.3739 0,1.5625 0.5652,2.4269 1.6025,2.4269 1.024,0 1.6024,-0.8644 1.6024,-2.3869 0,-1.5495 -0.5784,-2.4137 -1.609,-2.4137l0 -0.0002zm-0.9643 2.2608c0.0333,-1.1571 0.3524,-1.7287 0.9709,-1.7287 0.6449,-0.0002 0.9706,0.6384 0.9706,1.915 0.0002,1.1768 -0.3456,1.8284 -0.9772,1.8284 -0.6318,0 -0.9643,-0.6516 -0.9643,-1.855 0,-0.0532 0,-0.1063 0,-0.1597l0 0z"/>
  <line class="fil1 str1" x1="44.6457" y1="84.1699" x2="46.8067" y2= "84.1699" />
  <line class="fil1 str1" x1="261.301" y1="84.1699" x2="259.084" y2= "84.1699" />
  <path class="fil2" d="M35.3499 81.9336c-1.0106,0 -1.5957,0.8711 -1.5957,2.3737 0,1.5626 0.5651,2.4271 1.6025,2.4271 1.0239,-0.0002 1.6025,-0.8644 1.6025,-2.3871 0,-1.5493 -0.5786,-2.4137 -1.6093,-2.4137l0 0zm-0.964 2.2606c0.0333,-1.1569 0.3524,-1.7287 0.9708,-1.7287 0.645,0 0.9707,0.6384 0.9707,1.915 0,1.1768 -0.3457,1.8286 -0.9775,1.8286 -0.6316,-0.0002 -0.964,-0.6516 -0.964,-1.8552 0,-0.0532 0,-0.1063 0,-0.1595l0 -0.0002z"/>
  <polygon class="fil2" points="37.7836,85.9032 37.7836,86.6079 38.4818,86.6079 38.4818,85.9032 "/>
  <path class="fil2" d="M39.8914 86.0495c0.0334,-0.1862 0.0666,-0.2526 0.1995,-0.4188 0.0665,-0.0734 0.133,-0.1463 0.2128,-0.2128 0.1728,-0.1399 0.3324,-0.2394 0.8577,-0.5187 0.4854,-0.2528 0.7447,-0.4322 0.9376,-0.6516 0.2195,-0.2594 0.3324,-0.5585 0.3324,-0.911 0,-0.8312 -0.605,-1.403 -1.4827,-1.403 -0.6185,0 -1.0904,0.2261 -1.3564,0.645 -0.1662,0.2593 -0.2328,0.5518 -0.2527,1.0306l0.5918 0 0.0132 -0.0865c0.0334,-0.3457 0.0799,-0.5251 0.1928,-0.6982 0.1531,-0.2393 0.399,-0.359 0.7381,-0.359 0.5653,0 0.9243,0.3325 0.9243,0.8645 0,0.3921 -0.1862,0.6716 -0.6118,0.9176l-1.0106 0.5916c-0.2328,0.1397 -0.5053,0.4124 -0.645,0.6452 -0.2328,0.3789 -0.2859,0.5651 -0.3125,1.1235l3.2049 0 0 -0.5584 -2.5334 0z"/>
  <line class="fil1 str1" x1="44.6457" y1="67.1035" x2="46.8067" y2= "67.1035" />
  <line class="fil1 str1" x1="261.301" y1="67.1035" x2="259.084" y2= "67.1035" />
  <path class="fil2" d="M35.3499 64.8672c-1.0106,0 -1.5957,0.8711 -1.5957,2.3737 0,1.5626 0.5651,2.4271 1.6025,2.4271 1.0239,-0.0002 1.6025,-0.8644 1.6025,-2.3871 0,-1.5493 -0.5786,-2.4137 -1.6093,-2.4137l0 0zm-0.964 2.2606c0.0333,-1.1569 0.3524,-1.7287 0.9708,-1.7287 0.645,-0.0002 0.9707,0.6384 0.9707,1.915 0,1.1769 -0.3457,1.8286 -0.9775,1.8286 -0.6316,-0.0002 -0.964,-0.6516 -0.964,-1.8552 0,-0.0532 0,-0.1063 0,-0.1595l0 -0.0002z"/>
  <polygon class="fil2" points="37.7836,68.8368 37.7836,69.5416 38.4818,69.5416 38.4818,68.8368 "/>
  <path class="fil2" d="M41.3543 64.8672l-2.1344 2.9656 0 0.5718 2.0347 0 0 1.137 0.5918 0 0 -1.137 0.6848 0 0 -0.5121 -0.6848 0 0 -3.0253 -0.4921 0zm-0.0997 0.9043l0 2.121 -1.4894 0 1.4894 -2.121z"/>
  <line class="fil1 str1" x1="44.6457" y1="50.0371" x2="46.8067" y2= "50.0371" />
  <line class="fil1 str1" x1="261.301" y1="50.0371" x2="259.084" y2= "50.0371" />
  <path class="fil2" d="M35.3499 47.8008c-1.0106,0 -1.5957,0.8712 -1.5957,2.3737 0,1.5626 0.5651,2.4271 1.6025,2.4271 1.0239,-0.0001 1.6025,-0.8643 1.6025,-2.3871 0,-1.5493 -0.5786,-2.4137 -1.6093,-2.4137l0 0zm-0.964 2.2607c0.0333,-1.157 0.3524,-1.7288 0.9708,-1.7288 0.645,-0.0002 0.9707,0.6384 0.9707,1.915 0,1.1769 -0.3457,1.8286 -0.9775,1.8286 -0.6316,-0.0002 -0.964,-0.6515 -0.964,-1.8552 0,-0.0532 0,-0.1063 0,-0.1595l0 -0.0001z"/>
  <polygon class="fil2" points="37.7836,51.7704 37.7836,52.4752 38.4818,52.4752 38.4818,51.7704 "/>
  <path class="fil2" d="M42.4049 49.0506c-0.0532,-0.7645 -0.5919,-1.2498 -1.3763,-1.2498 -1.084,0 -1.7222,0.9443 -1.7222,2.5468 0,1.4294 0.585,2.254 1.5957,2.254 0.5319,-0.0001 0.8446,-0.1264 1.1437,-0.4455 0.3259,-0.3459 0.4522,-0.6782 0.4522,-1.1569 0,-0.3327 -0.0532,-0.5785 -0.1796,-0.7981 -0.2526,-0.4388 -0.7513,-0.7047 -1.3098,-0.7047 -0.4854,0 -0.8378,0.1862 -1.084,0.5652 0.0002,-0.0535 -0.0066,-0.0865 -0.0066,-0.1065 0,-0.3324 0.1197,-0.7846 0.286,-1.1103 0.1796,-0.3327 0.4721,-0.5121 0.8312,-0.5121 0.4322,-0.0002 0.6915,0.2328 0.7912,0.7181l0.5785 -0.0002zm-1.4628 0.9711c0.585,0 0.9441,0.3856 0.9441,1.004 0,0.625 -0.3723,1.0506 -0.9176,1.0506 -0.565,-0.0002 -0.9708,-0.4322 -0.9708,-1.0374 0,-0.6184 0.3724,-1.0172 0.9443,-1.0172l0 0z"/>
  <line class="fil1 str1" x1="44.6457" y1="32.9707" x2="46.8067" y2= "32.9707" />
  <line class="fil1 str1" x1="261.301" y1="32.9707" x2="259.084" y2= "32.9707" />
  <path class="fil2" d="M35.3499 30.7344c-1.0106,0 -1.5957,0.871 -1.5957,2.3738 0,1.5625 0.5651,2.427 1.6025,2.427 1.0239,-0.0001 1.6025,-0.8643 1.6025,-2.3871 0,-1.5493 -0.5786,-2.4137 -1.6093,-2.4137l0 0zm-0.964 2.2607c0.0333,-1.1569 0.3524,-1.7288 0.9708,-1.7288 0.645,-0.0002 0.9707,0.6384 0.9707,1.915 0,1.1769 -0.3457,1.8286 -0.9775,1.8286 -0.6316,-0.0001 -0.964,-0.6517 -0.964,-1.8552 0,-0.0531 0,-0.1063 0,-0.1595l0 -0.0001z"/>
  <polygon class="fil2" points="37.7836,34.704 37.7836,35.4088 38.4818,35.4088 38.4818,34.704 "/>
  <path class="fil2" d="M41.7267 32.9219c0.4056,-0.1994 0.5984,-0.4985 0.5984,-0.9507 0,-0.7515 -0.5718,-1.2368 -1.4562,-1.2368 -0.8444,0 -1.4096,0.5187 -1.4096,1.29 0,0.4322 0.2128,0.7381 0.6316,0.9043 -0.5385,0.226 -0.7913,0.5917 -0.7913,1.1569 0,0.8976 0.625,1.4496 1.6225,1.4496 0.9309,-0.0001 1.5759,-0.5984 1.5759,-1.4696 0,-0.5319 -0.2594,-0.9109 -0.7713,-1.1437l0 0zm-0.9641 -1.6558c0.0332,0 0.0598,0.0002 0.0863,0.0002 0.5319,-0.0002 0.8644,0.2727 0.8644,0.7115 0,0.4254 -0.3457,0.7315 -0.8244,0.7315 -0.4721,-0.0002 -0.8178,-0.3059 -0.8178,-0.7315 0,-0.4124 0.2659,-0.6781 0.6913,-0.7115l0.0002 -0.0002zm0.0398 1.9551c0.0266,0 0.0531,-0.0066 0.0797,-0.0066 0.6318,-0.0001 0.9775,0.3391 0.9775,0.9508 0,0.5386 -0.3457,0.8445 -0.9507,0.8445 -0.5853,-0.0001 -0.9775,-0.3658 -0.9775,-0.9109 0,-0.4989 0.3457,-0.8512 0.871,-0.8778l0 0z"/>
  <line class="fil1 str1" x1="44.6457" y1="15.9042" x2="46.8067" y2= "15.9042" />
  <line class="fil1 str1" x1="261.301" y1="15.9042" x2="259.084" y2= "15.9042" />
  <path class="fil2" d="M41.443 13.6678l-0.4721 0c-0.0731,0.2991 -0.1597,0.4854 -0.2793,0.605 -0.1795,0.1863 -0.4854,0.2728 -0.9707,0.286l0 0.4653 1.0903 0 0 3.3181 0.6318 0 0 -4.6744z"/>
  <line class="fil1 str1" x1="44.6457" y1="15.9042" x2="261.301" y2= "15.9042" />
  <line class="fil1 str1" x1="44.6457" y1="186.68" x2="261.301" y2= "186.68" />
  <line class="fil1 str1" x1="261.301" y1="186.68" x2="261.301" y2= "15.9042" />
  <line class="fil1 str1" x1="44.6457" y1="186.68" x2="44.6457" y2= "15.9042" />
  <path class="fil1 str2" d="M44.6457 101.292l0.9419 -2.7153 0.9974 -2.6597 0.9421 -2.7152 0.9974 -2.6599 0.9421 -2.6599 0.9974 -2.6043 0.9421 -2.6598 0.9974 -2.6043 0.9421 -2.5491 0.9974 -2.6042 0.9975 -2.4937 0.942 -2.5488 0.9975 -2.4936 0.942 -2.4381 0.9974 -2.3828 0.9421 -2.3826 0.9974 -2.3274 0.9421 -2.272 0.9974 -2.2719 0.9421 -2.1612 0.9974 -2.1609 0.9975 -2.1058 0.942 -2.0503 0.9975 -1.9395 0.942 -1.9395 0.9975 -1.8841 0.942 -1.7732 0.9974 -1.7732 0.9421 -1.6623 0.9974 -1.607 0.9421 -1.5516 0.9974 -1.4962 0.9973 -1.3853 0.9422 -1.3301 0.9973 -1.2744 0.9422 -1.1639 0.9973 -1.108 0.9422 -0.9977 0.9973 -0.9418 0.9422 -0.8867 0.9973 -0.7759 0.9974 -0.7204 0.9421 -0.6096 0.9974 -0.5541 0.942 -0.4988 0.9975 -0.3324 0.942 -0.3327 0.9975 -0.1662 0.9196 -0.1623m1.9857 0l0.9737 0.1621 0.9974 0.166 0.9421 0.3325 0.9974 0.3323 0.9421 0.4985 0.9974 0.5542 0.942 0.6093 0.9975 0.7202 0.942 0.7758 0.9975 0.8865 0.942 0.9418 0.9975 0.9975 0.9974 1.1079 0.9421 1.1637 0.9974 1.2743 0.9421 1.3297 0.9974 1.3852 0.9421 1.4962 0.9974 1.5514 0.942 1.6068 0.9975 1.6621 0.9973 1.773 0.9422 1.7731 0.9972 1.8839 0.9421 1.9393 0.9974 1.9393 0.9421 2.0503 0.9974 2.1055 0.9421 2.161 0.9974 2.1608 0.9421 2.2718 0.9974 2.2717 0.9975 2.3272 0.942 2.3827 0.9975 2.3824 0.942 2.438 0.9974 2.4935 0.9421 2.5488 0.9974 2.4933 0.9421 2.6042 0.9974 2.5487 0.9421 2.6041 0.9974 2.6597 0.9975 2.6042 0.942 2.6595 0.9975 2.6597 0.942 2.7151 0.9975 2.6597 0.942 2.6597 0.9974 2.7149 0.9421 2.6597 0.9974 2.7151 0.9421 2.6597 0.9974 2.6597 0.9975 2.604 0.9416 2.6597 0.9975 2.6041 0.942 2.5487 0.9975 2.6043 0.942 2.4932 0.9975 2.5489 0.942 2.4934 0.9975 2.438 0.9974 2.3825 0.9421 2.3826 0.9974 2.3272 0.9421 2.2718 0.9974 2.2718 0.942 2.1609 0.9975 2.1608 0.942 2.1055 0.9975 2.0503 0.942 1.9393 0.9975 1.9394 0.9974 1.8838 0.9421 1.7731 0.9974 1.7731 0.9421 1.662 0.9974 1.6068 0.9421 1.5514 0.9974 1.4962 0.942 1.3852 0.9975 1.3297 0.942 1.2744 0.9975 1.1636 0.9976 1.1079 0.9419 0.9975 0.9976 0.9419 0.9419 0.8864 0.9976 0.7758 0.9419 0.7202 0.9976 0.6093 0.9419 0.5542 0.9976 0.4985 0.9974 0.3323 0.9421 0.3325 0.9974 0.1661 0.9421 0.166 0.9974 0.0552 0.9421 -0.0554 0.9974 -0.1662 0.9419 -0.1663 0.9976 -0.3324 0.9419 -0.3327 0.9976 -0.4987 0.9975 -0.5542 0.942 -0.6095 0.9974 -0.7204 0.9421 -0.776 0.9974 -0.8866 0.9421 -0.9419 0.9974 -0.9976 0.9421 -1.1081 0.9974 -1.1639 0.9421 -1.2743 0.9974 -1.3302 0.9975 -1.3853 0.942 -1.496 0.9975 -1.5518 0.942 -1.607 0.9974 -1.6622 0.9421 -1.7733 0.9974 -1.7732 0.9421 -1.8841 0.9974 -1.9395 0.9977 -1.9395 0.9418 -2.0503 0.9977 -2.1057 0.9418 -2.161 0.9977 -2.1611 0.9418 -2.272 0.9975 -2.272 0.942 -2.3274 0.9974 -2.3826 0.9421 -2.3828 0.9974 -2.438 0.9977 -2.4937 0.9418 -2.5488 0.9977 -2.4936 0.9418 -2.6043 0.9977 -2.5491 0.9418 -2.6042 0.9977 -2.6599 0.9418 -2.6043 0.9976 -2.6599 0.9419 -2.6598 0.9976 -2.7153 0.9975 -2.6597 0.942 -2.6599"/>
 </g>
</svg>
