<?xml version="1.0" encoding="UTF-8" standalone="no"?>
<!-- Created with Inkscape (http://www.inkscape.org/) -->

<svg
   xmlns:dc="http://purl.org/dc/elements/1.1/"
   xmlns:cc="http://creativecommons.org/ns#"
   xmlns:rdf="http://www.w3.org/1999/02/22-rdf-syntax-ns#"
   xmlns:svg="http://www.w3.org/2000/svg"
   xmlns="http://www.w3.org/2000/svg"
   xmlns:xlink="http://www.w3.org/1999/xlink"
   xmlns:sodipodi="http://sodipodi.sourceforge.net/DTD/sodipodi-0.dtd"
   xmlns:inkscape="http://www.inkscape.org/namespaces/inkscape"
   width="125.67708mm"
   height="54.719818mm"
   viewBox="0 0 125.67708 54.719819"
   version="1.1"
   id="svg2486"
   inkscape:version="0.92.4 (5da689c313, 2019-01-14)"
   sodipodi:docname="pig.svg">
  <defs
     id="defs2480">
    <linearGradient
       inkscape:collect="always"
       id="linearGradient3338">
      <stop
         style="stop-color:#000333;stop-opacity:1"
         offset="0"
         id="stop3334" />
      <stop
         style="stop-color:#3c3fae;stop-opacity:1"
         offset="1"
         id="stop3336" />
    </linearGradient>
    <linearGradient
       inkscape:collect="always"
       id="linearGradient3330">
      <stop
         style="stop-color:#570000;stop-opacity:1"
         offset="0"
         id="stop3326" />
      <stop
         style="stop-color:#cc1616;stop-opacity:1"
         offset="1"
         id="stop3328" />
    </linearGradient>
    <linearGradient
       inkscape:collect="always"
       id="linearGradient3280">
      <stop
         style="stop-color:#c16d40;stop-opacity:1"
         offset="0"
         id="stop3276" />
      <stop
         style="stop-color:#f6aa7d;stop-opacity:1"
         offset="1"
         id="stop3278" />
    </linearGradient>
    <linearGradient
       inkscape:collect="always"
       id="linearGradient3106">
      <stop
         style="stop-color:#91498f;stop-opacity:1"
         offset="0"
         id="stop3102" />
      <stop
         style="stop-color:#743073;stop-opacity:1"
         offset="1"
         id="stop3104" />
    </linearGradient>
    <radialGradient
       inkscape:collect="always"
       xlink:href="#linearGradient3106"
       id="radialGradient3244"
       cx="-30.106422"
       cy="227.4261"
       fx="-30.106422"
       fy="227.4261"
       r="84.348442"
       gradientTransform="matrix(1,0,0,0.82762492,0,39.202592)"
       gradientUnits="userSpaceOnUse" />
    <radialGradient
       inkscape:collect="always"
       xlink:href="#linearGradient3106"
       id="radialGradient3252"
       cx="192.53088"
       cy="168.27415"
       fx="192.53088"
       fy="168.27415"
       r="105.6001"
       gradientTransform="matrix(1,0,0,0.50199165,0,83.801931)"
       gradientUnits="userSpaceOnUse" />
    <radialGradient
       inkscape:collect="always"
       xlink:href="#linearGradient3280"
       id="radialGradient3302"
       cx="65.966644"
       cy="-300.78674"
       fx="65.966644"
       fy="-300.78674"
       r="147.41534"
       gradientTransform="matrix(1,0,0,0.73408692,0,-79.983125)"
       gradientUnits="userSpaceOnUse" />
    <radialGradient
       inkscape:collect="always"
       xlink:href="#linearGradient3280"
       id="radialGradient3312"
       cx="139.58571"
       cy="-284.95236"
       fx="139.58571"
       fy="-284.95236"
       r="31.72694"
       gradientTransform="matrix(1,0,0,0.97447795,0,-7.2725677)"
       gradientUnits="userSpaceOnUse" />
    <radialGradient
       inkscape:collect="always"
       xlink:href="#linearGradient3280"
       id="radialGradient3322"
       cx="173.31322"
       cy="-377.41867"
       fx="173.31322"
       fy="-377.41867"
       r="39.508739"
       gradientTransform="matrix(1,0,0,0.64529198,0,-133.87343)"
       gradientUnits="userSpaceOnUse" />
    <linearGradient
       inkscape:collect="always"
       xlink:href="#linearGradient3330"
       id="linearGradient3332"
       x1="76.956917"
       y1="-271.76981"
       x2="143.47235"
       y2="-247.4841"
       gradientUnits="userSpaceOnUse"
       gradientTransform="matrix(0.07686597,0,0,0.07686597,-24.762545,56.558852)" />
    <radialGradient
       inkscape:collect="always"
       xlink:href="#linearGradient3338"
       id="radialGradient3340"
       cx="92.827469"
       cy="-0.44333377"
       fx="92.827469"
       fy="-0.44333377"
       r="170.50002"
       gradientTransform="matrix(1,0,0,1.0022919,0,0.00101608)"
       gradientUnits="userSpaceOnUse" />
    <linearGradient
       inkscape:collect="always"
       xlink:href="#linearGradient3338"
       id="linearGradient3356"
       x1="161.13425"
       y1="-180.55753"
       x2="244.08571"
       y2="-180.55753"
       gradientUnits="userSpaceOnUse" />
    <linearGradient
       inkscape:collect="always"
       xlink:href="#linearGradient3338"
       id="linearGradient3358"
       x1="77.591873"
       y1="-151.96198"
       x2="153.8765"
       y2="-151.96198"
       gradientUnits="userSpaceOnUse" />
    <radialGradient
       inkscape:collect="always"
       xlink:href="#linearGradient3280"
       id="radialGradient3377"
       cx="56.261429"
       cy="-138.89944"
       fx="56.261429"
       fy="-138.89944"
       r="185.43736"
       gradientTransform="matrix(1,0,0,0.53125972,0,-65.107767)"
       gradientUnits="userSpaceOnUse" />
    <radialGradient
       inkscape:collect="always"
       xlink:href="#linearGradient3280"
       id="radialGradient3385"
       cx="257.68185"
       cy="-201.99667"
       fx="257.68185"
       fy="-201.99667"
       r="79.442772"
       gradientTransform="matrix(1,0,0,0.53909311,0,-93.101656)"
       gradientUnits="userSpaceOnUse" />
  </defs>
  <sodipodi:namedview
     id="base"
     pagecolor="#ffffff"
     bordercolor="#666666"
     borderopacity="1.0"
     inkscape:pageopacity="0.0"
     inkscape:pageshadow="2"
     inkscape:zoom="0.49497475"
     inkscape:cx="744.0671"
     inkscape:cy="471.45612"
     inkscape:document-units="mm"
     inkscape:current-layer="layer1"
     showgrid="false"
     inkscape:snap-global="false"
     fit-margin-top="0"
     fit-margin-left="0"
     fit-margin-right="0"
     fit-margin-bottom="0"
     inkscape:window-width="1600"
     inkscape:window-height="877"
     inkscape:window-x="-8"
     inkscape:window-y="-8"
     inkscape:window-maximized="1" />
  <metadata
     id="metadata2483">
    <rdf:RDF>
      <cc:Work
         rdf:about="">
        <dc:format>image/svg+xml</dc:format>
        <dc:type
           rdf:resource="http://purl.org/dc/dcmitype/StillImage" />
        <dc:title></dc:title>
      </cc:Work>
    </rdf:RDF>
  </metadata>
  <g
     inkscape:label="Layer 1"
     inkscape:groupmode="layer"
     id="layer1"
     transform="translate(34.90224,-24.998589)">
    <g
       id="g3079"
       transform="matrix(0.29051704,0,0,0.29051704,23.772824,43.821063)" />
    <g
       id="g3195"
       transform="matrix(0.29051704,0,0,0.29051704,24.07701,59.975292)">
      <g
         id="g3401">
        <path
           transform="matrix(0.26458333,0,0,0.26458333,-168.11253,-11.759859)"
           inkscape:connector-curvature="0"
           id="path3389"
           d="m 8.3288098,-104.48357 c -8.04181428,0.239 -16.1148143,1.57574 -23.6710038,4.38155 -2.666339,1.178083 -5.423052,2.247506 -7.897077,3.796112 -0.775373,1.074154 0.814116,1.805444 1.379045,2.529994 3.492196,3.267846 7.166057,6.440324 9.740413,10.528346 3.3171781,5.07753 6.1005032,10.703903 6.954621,16.77425 1.2857625,11.229351 -3.0406946,22.653337 -10.5769,30.902173 -4.474163,4.953387 -10.329234,8.551714 -16.688725,10.534768 -5.135864,1.760923 -10.7232,2.723239 -16.235002,2.470703 -1.36583,0.366373 -0.359015,1.954243 -0.347286,2.909325 1.127708,7.68547 3.909518,15.1607182 8.466357,21.4803235 5.18474,7.3282036 12.265452,13.4200175 20.649736,16.7667345 3.691995,1.527244 7.527866,2.7138 11.443595,3.510889 -1.0188107,-0.142038 -2.699466,0.373978 -2.271205,1.707589 0.9510211,2.192357 2.4687425,4.085491 3.9739122,5.921107 -3.0335393,-1.117939 -5.6897142,-3.34936 -6.9224342,-6.384277 -1.519055,-2.830351 -4.976068,-3.453083 -7.699489,-4.574682 -6.150382,-2.349803 -11.873348,-5.887455 -16.493291,-10.6025747 -1.752185,-1.5497054 -3.306846,-3.4297215 -5.370905,-4.5681393 -1.242498,-0.3041911 -1.30763,1.2936839 -1.294992,2.1257678 -0.112342,6.0999682 0.553062,12.3500932 3.184441,17.9280342 4.033535,9.129573 12.679715,15.942341 22.435999,17.930618 4.12623,0.895375 8.251453,1.834193 12.4108819,2.553169 6.58325355,0.619866 13.2297607,0.125068 19.7766451,-0.677446 7.026941,-1.000925 13.906941,-3.392395 19.932685,-7.160645 8.437874,-5.560178 14.128654,-14.71816 16.344475,-24.490964 0.309238,-1.079397 0.576563,-2.2142608 0.997881,-3.2388769 1.219694,0.9013125 2.373546,-0.6054964 3.112444,-1.4243857 4.062127,-5.0825571 7.221715,-10.8241036 10.186259,-16.5960786 2.829847,-5.5655788 4.947841,-11.5955158 5.215518,-17.8824858 0.694323,-9.101986 -0.57545,-18.33007 -3.636989,-26.925245 -1.132372,-3.133884 -2.536938,-6.165994 -4.140973,-9.085519 3.066466,3.807566 5.026121,8.335385 7.852957,12.299107 0.349718,0.794877 1.690818,0.960937 1.806641,-0.06592 0.183184,-3.366836 0.09605,-6.81392 -1.001886,-10.038475 -2.545802,-9.326055 -7.699573,-17.864582 -14.634275,-24.58485 C 43.032594,-98.007352 25.610019,-104.63243 8.3288098,-104.48357 Z m 4.9145502,30.624648 c 5.168609,0.0626 10.350402,1.025475 14.893625,3.493304 -3.891273,-0.662767 -7.686507,-2.210025 -11.703402,-2.598281 -2.37412,-0.324469 -4.76732,-0.488075 -7.1602982,-0.591591 1.3143482,-0.198595 2.6405842,-0.30355 3.9700752,-0.303432 z m -0.236816,19.103655 c 5.904419,0.827715 11.769139,2.819334 16.923312,5.841124 0.444397,0.332378 1.284309,0.778396 1.335616,1.293712 -3.966069,-1.594914 -7.642901,-3.871073 -11.732094,-5.183845 -2.120443,-0.751553 -4.485477,-1.404359 -6.526834,-1.950991 z m -6.4777485,21.014231 c 4.2180645,2.48728 8.0844985,5.63723 11.2200055,9.371164 0.272405,0.355032 0.800991,1.046279 0.827637,1.244768 -4.055432,-3.606984 -7.774705,-7.678259 -12.3011996,-10.755789 l 0.1563625,0.08625 z"
           style="opacity:1;fill:#f9f9f9;fill-opacity:1;stroke:none;stroke-width:1.34983134;stroke-linecap:round;stroke-linejoin:bevel;stroke-miterlimit:4;stroke-dasharray:none;stroke-opacity:0.91764706" />
        <path
           transform="matrix(0.26458333,0,0,0.26458333,-168.11253,-11.759859)"
           inkscape:connector-curvature="0"
           id="path3391"
           d="m -25.430258,-94.18607 c -1.041768,0.01737 -1.081755,1.300226 -0.634068,1.978237 1.628582,4.657498 4.386488,8.903622 4.642155,13.931015 0.29032,3.686225 0.35129,7.492007 -0.215189,11.179546 -3.127003,11.691275 -11.964059,21.636048 -23.117779,26.289652 -4.800662,2.0262 -10.014848,3.14075 -15.231127,2.954303 -4.757279,0.006 -9.598267,-0.297482 -14.14063,-1.865328 -0.863403,-0.302404 -2.510688,-0.319413 -2.389788,0.989816 0.723574,1.826789 2.431053,3.052598 3.788365,4.406041 7.342743,6.619152 17.295391,10.222154 27.177386,9.773646 5.151843,-0.01015 10.423937,-0.439878 15.187289,-2.56243 8.672457,-3.495059 16.160064,-10.065793 20.237515,-18.535155 4.0787156,-8.190088 4.7096906,-17.904841 2.0466441,-26.62855 -1.7410982,-6.06752 -4.9440501,-11.756945 -9.5919841,-16.07339 -2.254118,-2.081437 -4.450466,-4.388268 -7.235632,-5.750559 -0.168293,-0.05567 -0.345054,-0.09306 -0.523157,-0.08684 z"
           style="opacity:1;fill:#f9f9f9;fill-opacity:1;stroke:none;stroke-width:1.34983134;stroke-linecap:round;stroke-linejoin:bevel;stroke-miterlimit:4;stroke-dasharray:none;stroke-opacity:0.91764706" />
        <path
           transform="matrix(0.26458333,0,0,0.26458333,-168.11253,-11.759859)"
           inkscape:connector-curvature="0"
           id="path3393"
           d="m 245.86822,-179.32558 c -1.24543,-0.0857 -1.7206,1.36993 -1.26744,2.34549 1.5297,4.21719 3.84547,8.11933 5.52906,12.26034 7.46296,17.44367 11.46821,36.16164 13.60388,54.95587 2.15888,19.350336 2.00094,38.894003 -0.24836,58.214062 -0.16833,2.383935 -0.72896,4.736976 -0.8391,7.117516 0.24758,1.504826 2.16143,1.207675 3.2714,1.236462 9.51771,-0.510548 19.30176,-3.155575 26.69791,-9.413082 7.05254,-6.098302 10.46254,-15.804929 9.72168,-24.996861 -0.3913,-3.653389 -1.50691,-7.482303 -4.13365,-10.162877 -0.81805,-0.758387 -1.99633,-0.07749 -2.27986,0.864236 -1.97618,3.837845 -4.50794,7.336263 -7.08318,10.785048 -1.67814,2.21512 -2.52284,4.98617 -2.80388,7.673052 -0.38474,1.835939 -0.96731,3.630441 -1.71108,5.351911 -0.0541,-1.789875 0.5506,-3.666161 0.0624,-5.42585 -0.52464,-1.202384 -2.06046,-0.807538 -2.80727,-0.06104 -1.16608,0.8914 -2.25144,1.882598 -3.39774,2.798898 4.51535,-4.921196 9.41267,-9.568484 13.00259,-15.259137 4.74725,-7.213875 7.79821,-15.509725 8.83899,-24.083628 1.38346,-10.72004 0.67369,-21.9054 -3.44488,-31.98884 -2.12849,-5.71148 -5.05158,-11.15226 -9.03111,-15.79486 -6.69003,-7.96465 -14.96447,-14.56175 -24.02429,-19.63969 -5.32724,-2.89055 -10.9449,-5.32786 -16.86039,-6.70973 -0.26272,-0.0436 -0.52901,-0.0737 -0.79571,-0.0673 z"
           style="opacity:1;fill:#f9f9f9;fill-opacity:1;stroke:none;stroke-width:1.34983134;stroke-linecap:round;stroke-linejoin:bevel;stroke-miterlimit:4;stroke-dasharray:none;stroke-opacity:0.91764706" />
        <path
           transform="matrix(0.26458333,0,0,0.26458333,-168.11253,-11.759859)"
           inkscape:connector-curvature="0"
           id="path3395"
           d="m 252.47083,-189.31791 c -3.96834,0.11469 -8.03595,0.10911 -11.87012,1.25663 -1.37836,0.28263 -2.12881,1.77589 -1.65283,3.06606 0.81178,2.83612 3.93673,3.84539 6.4788,4.5295 5.76261,1.3943 11.44466,3.17585 16.73226,5.91736 9.49969,4.80826 18.3493,11.05156 25.54132,18.94208 2.16617,2.2146 3.61205,5.02284 5.80119,7.2053 0.74732,0.91094 2.1555,0.54528 2.61719,-0.45724 1.3495,-2.78251 1.20331,-6.00569 1.32917,-9.02414 0.14777,-7.77439 -4.21912,-14.94256 -9.95396,-19.90025 -9.54421,-8.33871 -22.57747,-11.62188 -35.02302,-11.5353 z"
           style="opacity:1;fill:#f9f9f9;fill-opacity:1;stroke:none;stroke-width:1.34983134;stroke-linecap:round;stroke-linejoin:bevel;stroke-miterlimit:4;stroke-dasharray:none;stroke-opacity:0.91764706" />
      </g>
      <path
         style="fill:#0b0606;fill-opacity:1;stroke-width:0.26458332"
         d="m -180.28956,67.836516 c -0.0672,-0.06327 -0.71757,-0.171871 -1.44517,-0.241348 -4.7615,-0.454652 -10.18093,-3.187181 -13.33123,-6.721744 -3.63913,-4.083008 -4.8172,-9.009449 -3.56459,-14.90631 1.16143,-5.467623 5.69745,-10.785253 12.00103,-14.068959 2.54911,-1.327905 7.45456,-2.784827 9.07027,-2.693879 0.44429,0.025 0.44608,-0.01326 0.0311,-0.667295 -0.2421,-0.381604 -0.64146,-0.93195 -0.88745,-1.222992 -1.84984,-2.188557 -4.87576,-8.412348 -6.59522,-13.565177 -2.82112,-8.4542784 -4.04285,-16.9603016 -4.11019,-28.616346 l -0.0435,-7.521106 -1.44453,-1.066501 c -0.79449,-0.586576 -1.92077,-1.549223 -2.50286,-2.139217 -0.58208,-0.589995 -1.66519,-1.607135 -2.4069,-2.260309 -0.74172,-0.653177 -2.36127,-2.437749 -3.59899,-3.965718 -1.84421,-2.276665 -2.40073,-3.187531 -3.0832,-5.046263 -1.31312,-3.576378 -1.03855,-6.757717 0.83425,-9.666197 1.21444,-1.886032 4.50787,-4.769355 8.38714,-7.342759 7.88868,-5.233141 10.37805,-7.299193 12.64706,-10.496444 2.72123,-3.834471 4.83413,-8.522123 4.88598,-10.840003 0.0155,-0.694505 -0.27003,-2.002837 -0.68532,-3.139839 -0.98882,-2.707212 -1.38395,-6.191999 -1.02483,-9.038281 0.3292,-2.609138 1.58348,-8.652382 1.93061,-9.301881 0.51502,-0.963639 0.27705,-1.443499 -0.88632,-1.787218 -0.61846,-0.182727 -2.19604,-0.848472 -3.50573,-1.479433 -2.283,-1.099867 -2.42674,-1.221617 -3.48381,-2.950797 -1.28212,-2.09733 -4.86836,-5.75551 -6.4955,-6.62582 -0.86662,-0.46353 -0.98921,-0.60173 -0.53378,-0.60173 0.32517,0 0.59167,0.0893 0.59221,0.19844 5.6e-4,0.10914 0.52884,0.41549 1.17398,0.68078 1.42336,0.5853 4.67806,3.895 5.99062,6.09186 0.83508,1.39767 1.10647,1.61788 3.55003,2.88047 1.45521,0.751908 3.77693,1.762534 5.15938,2.245836 2.24079,0.783377 2.37013,0.921517 0.41862,0.447095 -0.8136,-0.197789 -0.97702,0.104119 -1.88264,3.478125 -0.38834,1.446786 -0.92531,3.404425 -1.19327,4.35031 -0.55533,1.960266 -0.63819,4.47697 -0.24948,7.577053 0.33361,2.660557 0.83456,4.087654 2.4834,7.074617 2.0728,3.754977 5.36163,6.623478 9.81641,8.561829 5.49561,2.39123 6.97996,2.817884 11.772,3.383693 6.15411,0.72663 9.53154,0.49512 15.79663,-1.082805 5.67277,-1.428739 10.87416,-4.257098 15.19667,-8.263482 1.07192,-0.993529 2.72286,-2.269411 3.66874,-2.835289 2.20409,-1.318606 4.48168,-3.600299 5.27798,-5.287491 1.42831,-3.026307 0.93831,-7.481932 -1.12474,-10.227371 -1.66289,-2.212916 -2.83434,-3.059885 -6.28487,-4.544018 -1.46256,-0.629071 -1.4719,-0.640421 -1.80281,-2.190896 -1.5536,-7.279316 -3.27222,-10.754026 -7.22539,-14.608366 -4.21433,-4.10898 -8.56312,-6.41746 -13.83838,-7.34587 -2.72493,-0.47957 -7.74726,-0.47934 -10.23424,4.6e-4 -4.69733,0.90624 -9.39138,3.3013 -12.75318,6.50708 l -1.8584,1.77215 0.84493,1.02506 c 1.22844,1.4903 1.03517,1.62854 -0.27954,0.19994 -2.92402,-3.17731 -6.86132,-4.07547 -11.26429,-2.56956 -3.51037,1.20062 -6.43081,1.88605 -6.68541,1.94659 -2.38117,0.56618 2.55761,-1.05374 2.74362,-1.05374 0.18601,0 1.16827,-0.39676 2.18281,-0.8817 2.76297,-1.32065 4.92611,-1.69085 7.18873,-1.2303 1.66025,0.33795 2.97215,0.86246 4.10611,1.64169 l 0.71897,0.49405 2.08504,-1.79781 c 6.69506,-5.77274 15.37665,-8.08054 23.76211,-6.31661 2.4977,0.52541 4.07036,1.07338 6.59087,2.29651 1.16929,0.56742 2.22961,1.03167 2.35628,1.03167 0.12667,0 0.59874,-0.27479 1.04904,-0.61064 3.1674,-2.36238 6.87341,-2.54562 11.30306,-0.55889 1.10972,0.49772 2.15152,0.90495 2.31511,0.90495 0.16358,0 2.97012,1.11562 2.97012,1.25418 0,0.25182 -2.98459,-0.83491 -7.03832,-2.18452 -2.8788,-0.95844 -5.86176,-0.8608 -8.14139,0.26651 -0.83974,0.41526 -1.64395,0.89618 -1.78713,1.06871 -0.1867,0.22496 0.31102,0.7513 1.75967,1.86088 2.45273,1.87863 4.61996,4.3485 6.46492,7.36766 l 1.38234,2.26212 1.74829,-0.92203 c 1.4683,-0.77435 1.9165,-1.18665 2.79849,-2.57433 2.05085,-3.22665 6.17653,-6.82908 7.79419,-6.80566 0.22882,0.003 0.0325,0.19512 -0.43624,0.42623 -1.05854,0.52191 -3.45582,2.60297 -4.83761,4.19951 -1.28763,1.48774 -2.64449,3.4413 -2.64449,3.80745 0,0.22046 -3.20588,2.18022 -4.05148,2.47667 -0.11826,0.0415 0.0225,0.6294 0.31271,1.30653 0.29026,0.67713 0.79381,2.31604 1.119,3.642028 l 0.59126,2.410883 2.08638,1.085455 c 5.86936,3.053575 8.62419,9.128786 6.57956,14.509826 -0.51751,1.361983 -1.83308,3.384394 -2.98694,4.591794 -0.40965,0.428659 -0.70484,0.819359 -0.65598,0.868219 0.0489,0.04886 1.15126,-0.141639 2.44977,-0.423328 6.96946,-1.511908 18.306599,-1.614453 24.585929,-0.222382 3.511137,0.778388 7.783483,4.17598 9.412766,7.485523 0.785296,1.595167 0.879771,2.02765 0.888447,4.067167 0.0082,1.930633 -0.09908,2.515584 -0.696471,3.797273 -0.912011,1.956679 -2.031378,3.332644 -3.915113,4.812591 -1.40456,1.103482 -4.924515,3.065036 -5.500127,3.065036 -0.137636,0 -0.449474,0.819693 -0.692975,1.821543 -0.400497,1.647796 -0.4043,1.919092 -0.03986,2.844271 1.17988,2.995271 1.432544,7.814085 0.5721,10.911152 -0.34364,1.236903 -0.345707,1.496986 -0.0159,2.00035 0.544356,0.830792 1.172064,3.037105 1.171742,4.118517 -5.3e-4,1.440199 -0.682049,3.655494 -1.478264,4.804434 -1.613729,2.328611 -4.039907,3.582353 -7.488569,3.869764 -2.168982,0.180761 -2.275286,0.219324 -2.34543,0.850802 -0.128762,1.159206 -1.158089,5.351066 -1.851625,7.540625 -0.64153,2.025372 -1.04385,2.994454 -2.96575,7.14375 -0.47182,1.0186458 -1.56481,3.459427 -2.42887,5.4239582 -0.86405,1.96453125 -1.73424,3.9290625 -1.93373,4.365625 -0.1995,0.4365625 -1.09163,2.4606249 -1.98252,4.4979165 -1.44109,3.2954943 -2.72457,5.7033453 -5.73309,10.7555053 -0.48967,0.822299 -0.89031,1.560365 -0.89031,1.640144 0,0.07978 0.38695,-0.01656 0.85989,-0.214082 1.379,-0.57594 4.89991,-1.223716 7.47448,-1.375151 5.95716,-0.350395 12.87999,1.940478 16.482004,5.454153 4.5482,4.436663 4.568095,10.132838 0.05295,15.161312 -5.137374,5.721459 -13.979814,9.088874 -24.472444,9.319702 -13.40198,0.294831 -25.27353,-4.944274 -29.06771,-12.828042 -1.66652,-3.462798 -0.76166,-7.254941 2.37916,-9.970754 2.74686,-2.375159 3.27773,-2.938034 3.13118,-3.319955 -0.0794,-0.207004 -0.0185,-0.707646 0.13546,-1.112541 0.2509,-0.659918 0.18224,-0.844256 -0.6628,-1.779624 -0.51849,-0.573897 -1.07078,-1.324549 -1.22732,-1.668113 l -0.28461,-0.624661 -0.96001,0.532403 c -3.20637,1.77819 -7.83986,6.063718 -9.95996,9.211995 -0.63697,0.945885 -1.57703,2.315104 -2.08901,3.042708 -0.51198,0.727605 -0.93509,1.508488 -0.94023,1.735297 -0.005,0.226806 0.33837,1.365152 0.76336,2.529657 1.39774,3.829899 2.04563,8.384934 1.97126,13.859004 -0.026,1.912514 -0.1979,3.020246 -0.71898,4.632614 -0.59697,1.847201 -2.3564,5.216413 -3.19755,6.123114 -3.42073,3.687331 -5.27715,5.189125 -8.23346,6.660658 -3.28843,1.63685 -4.02337,1.899467 -7.13044,2.547948 -2.56751,0.535866 -7.73345,0.908074 -8.07983,0.582152 z m 8.77274,-1.855388 c 8.79514,-2.250977 15.42069,-8.293341 17.20372,-15.689418 0.57346,-2.378771 0.5841,-2.632504 0.27031,-6.446147 -0.35945,-4.368493 -0.65148,-6.267675 -1.30114,-8.461782 -0.66948,-2.261026 -0.73327,-2.28423 -2.31224,-0.841143 -4.11589,3.761695 -13.0002,3.92003 -17.56341,0.313013 -1.37249,-1.084889 -2.41411,-2.848488 -2.41411,-4.08741 v -0.7443 l -1.38906,0.183201 c -0.76399,0.100761 -2.25725,0.47412 -3.31837,0.829685 -6.50452,2.179574 -11.50141,6.305267 -14.07735,11.622995 -2.05591,4.244187 -2.4089,7.611814 -1.19803,11.429571 2.12751,6.707878 8.03643,11.247747 16.41093,12.608655 1.93068,0.313746 7.17908,-0.07461 9.68875,-0.71692 z m 8.83209,-22.688221 c -5.89543,-2.571359 -8.272,-3.019513 -15.875,-2.993573 -3.34698,0.01143 -6.85933,0.09518 -7.80521,0.186148 -1.30818,0.125804 -1.52982,0.103412 -0.92604,-0.09355 4.05104,-1.321547 11.64715,-1.569781 16.64976,-0.544103 3.26701,0.669833 6.41212,1.804763 8.67244,3.129502 1.4417,0.844958 1.79859,1.147284 1.33457,1.130546 -0.10914,-0.0039 -1.03188,-0.370673 -2.05052,-0.814966 z m 53.8427,2.688534 c 11.051531,-2.33412 18.005421,-7.440753 19.35097,-14.210506 0.42945,-2.160656 0.02551,-3.961712 -1.36629,-6.09179 -1.7667,-2.703854 -5.390221,-4.962779 -9.99466,-6.230729 -2.76552,-0.761555 -9.36839,-0.836491 -11.95877,-0.135718 -2.54993,0.68983 -4.7625,1.54794 -4.7625,1.847059 0,0.144947 0.35132,0.663668 0.78071,1.152708 0.42938,0.489042 0.86069,1.315571 0.95846,1.836732 0.13876,0.739645 0.27225,0.908489 0.60836,0.769479 1.48549,-0.614365 4.53722,-1.67256 5.2906,-1.834525 1.57485,-0.338569 0.81772,0.435615 -1.03918,1.062582 -2.12274,0.716728 -5.14011,2.158082 -7.3927,3.531389 -3.49953,2.133513 -6.23398,3.893526 -7.40015,4.763063 l -1.1988,0.893866 0.92604,-0.997106 c 0.50932,-0.548407 1.34276,-1.399953 1.85208,-1.892324 l 0.92604,-0.895218 -0.79375,0.198914 c -0.43656,0.109403 -2.40109,0.190701 -4.36562,0.180663 -3.97977,-0.02035 -6.10018,-0.417753 -8.82789,-1.654553 -1.85181,-0.83965 -2.56572,-1.434058 -3.20338,-2.667159 -0.22975,-0.444302 -0.54802,-0.807821 -0.70727,-0.807821 -0.50881,0 -2.50767,2.293292 -3.10329,3.5604 -1.33955,2.84979 -0.93659,4.997688 1.55895,8.309515 3.73359,4.954849 10.30771,8.231547 19.44225,9.690483 3.56463,0.569331 10.83327,0.378082 14.41979,-0.379404 z m -54.9802,-9.835954 c 2.01402,-0.42609 4.62105,-1.669526 5.52158,-2.633546 1.05413,-1.128448 0.97389,-1.41523 -0.22486,-0.803677 -2.14562,1.094615 -4.0302,1.470488 -7.33422,1.462783 -4.32894,-0.01008 -7.41601,-0.972063 -9.77982,-3.047516 -1.09817,-0.964208 -1.25092,-0.569666 -0.41432,1.070197 1.59939,3.135072 7.33422,4.987862 12.23164,3.951759 z m 2.71753,-3.71919 c 2.80082,-0.867915 4.9401,-2.534949 6.22101,-4.847725 2.24839,-4.05965 7.14189,-8.805939 12.175,-11.808745 2.98144,-1.778762 8.80158,-4.216413 9.17515,-3.842838 0.23478,0.234784 -2.17999,1.695263 -4.41265,2.668815 -1.23693,0.539364 -2.40268,1.130435 -2.59056,1.313495 -0.54071,0.526825 -0.002,1.520915 1.50888,2.786184 1.44763,1.212028 1.64972,1.607048 0.82214,1.607048 -0.34232,0 -0.58337,0.236048 -0.69492,0.680487 -0.13461,0.536324 0.004,0.861295 0.65642,1.533951 0.89585,0.924285 1.05919,1.489728 0.43033,1.489728 -1.22281,0 0.48088,1.665587 2.57529,2.517685 0.77977,0.317244 2.39186,0.735 3.58242,0.928341 2.52699,0.410374 5.55222,0.08798 7.9975,-0.852275 1.5167,-0.583206 3.175,-1.658792 3.175,-2.05934 0,-0.127823 0.45797,-0.925436 1.0177,-1.772473 0.55974,-0.847034 1.39509,-2.33499 1.85633,-3.306566 0.46124,-0.971579 1.7945,-3.471082 2.96281,-5.554451 2.8016,-4.995926 3.80413,-7.0836895 9.50726,-19.7988367 0.5548,-1.2369271 1.09476,-2.5466145 1.19991,-2.9104166 0.10516,-0.3638021 0.70458,-1.8697497 1.33205,-3.3465477 2.25711,-5.312265 3.812452,-13.990418 3.817601,-21.300612 0.0052,-7.44543 -1.436491,-15.305529 -3.861741,-21.053649 l -1.00925,-2.392027 -0.87071,0.415214 c -0.47889,0.228369 -0.87071,0.507343 -0.87071,0.619945 0,0.112601 0.52086,1.251407 1.15747,2.530684 1.63101,3.277536 1.92583,4.180083 1.52369,4.664628 -0.17762,0.214026 -1.06191,0.519572 -1.96508,0.678989 -0.90317,0.159417 -2.36467,0.510471 -3.24779,0.780122 -0.88312,0.26965 -1.97834,0.435578 -2.43382,0.368728 -0.75722,-0.111138 -0.94177,-0.357071 -2.15498,-2.871636 -0.81071,-1.68033 -1.48137,-2.750088 -1.72412,-2.750088 -0.21852,0 -0.90747,0.164979 -1.53102,0.366618 -2.63999,0.853707 -7.9025,2.184963 -11.12175,2.813465 -1.03516,0.202097 -1.52135,0.422492 -1.52135,0.689636 0,0.21594 0.33887,1.189766 0.75304,2.164054 0.41417,0.974291 0.91106,2.389214 1.1042,3.144274 0.45477,1.77795 0.15624,2.199037 -1.55901,2.199037 -0.67346,0 -2.05786,0.182708 -3.07645,0.406019 -4.86713,1.067043 -4.71767,1.133985 -6.22303,-2.787269 -0.80883,-2.106899 -1.68717,-3.945388 -1.89089,-3.957905 -0.0971,-0.006 -0.31013,0.612174 -0.47343,1.37364 -0.57096,2.662298 -1.9053,5.912778 -3.03834,7.40143 -0.29978,0.393869 -1.07313,1.405901 -1.71856,2.248958 -1.0178,1.329436 -2.90736,3.136585 -4.98312,4.765781 l -0.60039,0.47122 0.58284,1.455209 c 0.53189,1.32802 0.58436,1.929273 0.60038,6.879166 0.0162,4.995336 -0.0309,5.568601 -0.59561,7.254304 -0.71887,2.145924 -1.70816,3.701505 -3.63153,5.7102794 -1.07406,1.121746 -1.43472,1.7125658 -1.57391,2.578301 -0.0993,0.6177015 -0.28927,1.1902757 -0.42213,1.2723865 -0.13286,0.082111 -0.24156,0.370795 -0.24156,0.641522 0,0.6801035 -2.46833,3.3189571 -3.87627,4.1440708 -4.29674,2.5180527 -10.48461,2.8294276 -15.0182,0.75571876 -1.81035,-0.82807706 -1.91009,-0.90026066 -3.65463,-2.64512416 -1.98809,-1.9884655 -2.42824,-3.1538122 -2.39521,-6.3416232 0.0202,-1.9538421 -0.0828,-2.8453631 -0.39746,-3.4395831 -0.23362,-0.441169 -0.61663,-1.685015 -0.85112,-2.7641 l -0.42634,-1.961972 -1.30862,-0.446374 c -2.12821,-0.725937 -2.61741,-0.964612 -3.50092,-1.708033 -0.46176,-0.388546 -0.96106,-0.631357 -1.10956,-0.539578 -0.6236,0.3854 -0.16434,13.8228093 0.65119,19.0533466 1.18744,7.615875 2.05004,11.1466998 4.16925,17.0656244 1.46432,4.089805 4.59636,9.93375 6.1643,11.501689 0.44728,0.447281 0.89722,0.989176 0.99987,1.204211 0.9373,1.96356 2.09233,2.823406 5.20789,3.87694 2.46053,0.832035 7.03076,0.850431 9.64982,0.03884 z m 37.23027,-3.791534 c 2.13411,-0.439958 5.2789,-1.86145 6.38408,-2.885694 0.90575,-0.839417 0.90067,-1.667246 -0.017,-2.766407 l -0.72777,-0.871754 -1.08065,1.807789 c -0.62821,1.050925 -1.51433,2.11088 -2.1165,2.531729 -3.14562,2.198412 -9.8913,2.655702 -14.20866,0.963208 -1.67356,-0.656069 -2.22297,-0.627618 -0.75377,0.03903 1.18458,0.537511 3.52074,1.197059 4.93075,1.392055 1.91357,0.264636 5.81024,0.156837 7.58947,-0.20996 z m -14.57045,-2.954944 c -0.45332,-0.549965 -0.82423,-1.234749 -0.82423,-1.521738 0,-0.379301 -0.0794,-0.442367 -0.29087,-0.230933 -0.41405,0.414057 -0.083,1.232818 0.87857,2.172941 1.11331,1.088469 1.26217,0.823994 0.23653,-0.42027 z m -24.71695,-26.39055962 c 3.2241,-0.89282058 5.06314,-2.15971958 6.58403,-4.53568588 0.47161,-0.7367693 0.99422,-1.867863 1.16134,-2.5135416 0.54665,-2.1120417 0.58097,-2.1922687 0.79187,-1.851025 0.33912,0.5487115 3.29179,-4.2782279 4.09299,-6.6911089 1.20345,-3.624275 0.49332,-8.811122 -1.70802,-12.475575 l -0.79471,-1.322916 0.90576,1.008822 c 0.49817,0.554852 1.24386,1.655897 1.65709,2.446766 0.41323,0.790871 0.85414,1.43823 0.97981,1.438574 0.32987,7.93e-4 -0.0582,-2.259182 -0.66751,-3.887753 -2.23944,-5.985449 -8.6131,-10.134534 -15.56826,-10.134534 -2.50382,0 -5.59016,0.659937 -7.39683,1.581631 l -1.08965,0.555901 1.45587,1.330579 c 1.72384,1.575498 3.20169,4.304807 3.46288,6.395301 0.49559,3.966607 -1.81773,8.386665 -5.41363,10.343798 -1.45411,0.791427 -3.94836,1.488623 -5.32561,1.488623 h -0.96662 l 0.24421,1.389062 c 0.5439,3.093585 2.75604,6.372331 5.47768,8.1188059 1.6031,1.0287053 3.66754,1.769491 5.8803,2.1100309 l 1.68702,0.2596303 -1.62377,-0.066508 c -1.56764,-0.064209 -1.61337,-0.047704 -1.32292,0.4773824 0.16548,0.2991379 0.53618,0.818388 0.8238,1.1538902 0.52087,0.6075813 0.52087,0.6092349 0,0.4166553 -1.00505,-0.3715967 -1.66241,-0.9258697 -1.96529,-1.6570775 -0.23303,-0.5625888 -0.63186,-0.8398721 -1.68594,-1.1721412 -1.7303,-0.5454305 -3.54787,-1.6877902 -4.8966,-3.0775618 -0.57272,-0.5901505 -1.13196,-1.0730025 -1.24275,-1.0730025 -0.1108,0 -0.13419,0.8892335 -0.052,1.9760757 0.30898,4.08532 3.03482,7.1318833 7.02898,7.85600817 0.8233,0.14925939 1.91363,0.37358108 2.42295,0.49849351 1.25243,0.30716008 5.37072,0.0811768 7.06353,-0.387599 z m -1.2466,-18.05072638 c -0.6527,-0.67572 -1.7225,-1.566426 -2.37734,-1.979348 -1.39092,-0.877059 -1.23499,-0.996675 0.28704,-0.220194 1.17767,0.6008 3.03925,2.192898 3.44031,2.942283 0.45198,0.844536 -0.12168,0.52892 -1.35001,-0.742741 z m 3.08185,-6.105523 c -0.70823,-0.380579 -2.13698,-0.897786 -3.175,-1.149344 -2.09318,-0.507267 -1.2928,-0.689478 0.94393,-0.214892 1.57084,0.333298 3.91563,1.425339 3.91563,1.823633 0,0.379243 -0.25164,0.310618 -1.68456,-0.459397 z m -0.69669,-5.657177 c -0.80037,-0.258578 -2.34818,-0.490728 -3.43959,-0.515896 l -1.98437,-0.04575 1.32291,-0.25473 c 1.59426,-0.306975 3.59278,-0.09177 5.01813,0.540358 1.46956,0.651741 0.83604,0.842413 -0.91708,0.276022 z m -13.65924,11.193568 c 5.50532,-2.576248 7.33755,-8.959593 4.06466,-14.16096 -0.70959,-1.127699 -3.03286,-3.252079 -3.283,-3.001944 -0.052,0.05204 0.2303,0.797361 0.62743,1.656265 0.58169,1.258078 0.7232,1.949844 0.72793,3.558654 0.005,1.726528 -0.11098,2.23439 -0.85692,3.749595 -1.48114,3.008635 -4.36452,5.185069 -7.6898,5.804421 -1.5435,0.287486 -4.31104,0.131874 -5.46631,-0.307356 -0.93046,-0.353761 -0.81693,0.07179 0.27489,1.030423 2.16013,1.896615 4.53906,2.705261 7.57927,2.576338 1.87728,-0.07961 2.60925,-0.244396 4.02185,-0.905436 z m -6.09974,-3.624985 c 4.38787,-1.142894 6.97096,-4.001392 7.25946,-8.033446 0.24987,-3.492264 -1.20573,-6.469599 -4.10083,-8.387976 -2.85241,-1.890096 -3.37539,-2.20489 -4.56632,-2.74859 -0.65484,-0.298955 -0.89297,-0.456803 -0.52917,-0.350769 1.04019,0.303176 2.05435,0.213424 4.86364,-0.430426 3.49943,-0.802021 6.48165,-1.971784 8.53182,-3.346575 0.92924,-0.623125 1.61489,-1.012182 1.52366,-0.864571 -0.65578,1.061077 -7.33875,4.51472 -10.22276,5.282949 -0.69123,0.184123 -1.25677,0.426082 -1.25677,0.537686 0,0.238091 4.09131,3.307913 4.96013,3.721716 0.49056,0.233649 0.95684,0.113118 2.66696,-0.689387 5.05996,-2.374498 10.19345,-2.305725 15.25936,0.204427 2.3713,1.174973 4.20039,2.664677 5.85362,4.767482 l 0.81832,1.040863 0.76508,-0.595196 c 2.80505,-2.182225 5.93846,-5.877568 7.3179,-8.630279 0.74452,-1.485694 1.78154,-4.674399 1.78154,-5.477989 0,-0.2901 0.18997,-0.927791 0.42216,-1.417087 0.41233,-0.868929 0.40199,-0.925272 -0.44427,-2.421237 -1.82123,-3.219436 -4.64957,-7.088063 -7.56011,-10.340789 -1.01241,-1.131435 -1.02743,-1.137426 -3.53028,-1.407708 -3.01545,-0.325639 -7.16676,-1.271506 -9.59976,-2.187287 -2.86148,-1.077055 -6.8094,-3.221863 -8.59092,-4.667231 -1.5673,-1.271569 -4.28246,-4.498999 -4.31313,-5.1269 -0.008,-0.1602 -0.22544,0.368686 -0.48358,1.175303 -0.59241,1.851065 -2.66236,5.933189 -4.15045,8.18507 -3.0562,4.624832 -5.59002,6.980283 -12.71304,11.818075 -2.60227,1.767406 -5.16573,3.612875 -5.69658,4.101042 -0.53084,0.488164 -1.46374,1.341887 -2.07312,1.897163 -0.60938,0.555278 -1.42521,1.686372 -1.81296,2.513541 -0.59998,1.279925 -0.705,1.858656 -0.705,3.8852 0,2.024375 0.10527,2.605794 0.70241,3.879533 1.56188,3.331622 7.28725,9.535109 11.75722,12.739057 2.27706,1.632138 5.02959,2.113069 7.86577,1.374336 z m 14.78121,-25.983906 c 0.78851,-0.902541 1.88782,-2.417566 2.44291,-3.366725 0.94311,-1.612651 1.74111,-2.590948 1.74111,-2.134502 0,0.661061 -1.98458,3.457633 -3.65823,5.154996 -1.79011,1.815473 -1.83554,1.845395 -0.52579,0.346231 z m 73.298086,24.79716 c 2.190789,-0.819679 3.743732,-2.124202 4.591529,-3.857038 1.127593,-2.304714 1.135596,-5.064686 0.01913,-6.591559 -0.351158,-0.480235 -0.39233,-0.460195 -0.832112,0.405051 -0.254471,0.500655 -0.864566,1.40657 -1.355767,2.013145 -0.505333,0.624015 -0.893101,1.403133 -0.893101,1.794436 0,0.67758 -0.649396,2.52666 -0.887365,2.52666 -0.06634,0 -0.05674,-0.47625 0.02133,-1.058333 0.157515,-1.174361 -0.02569,-1.297895 -0.836713,-0.564185 -1.845646,1.669706 -1.751862,1.115748 0.128453,-0.758732 3.486044,-3.475231 5.001588,-7.080139 5.009959,-11.916807 0.0046,-2.674495 -0.470982,-4.701931 -1.728409,-7.36787 -1.664327,-3.528632 -6.459132,-7.520085 -10.84721,-9.029808 -2.30912,-0.794452 -2.35254,-0.752195 -1.31641,1.280927 3.806573,7.469327 5.584504,18.867368 4.62956,29.679391 -0.147807,1.67349 -0.332743,3.328445 -0.410967,3.677682 -0.141258,0.630648 -0.130741,0.633899 1.543878,0.47752 0.927357,-0.08659 2.351249,-0.406313 3.164208,-0.71048 z m -38.805876,-17.461912 c 1.30232,-0.287891 2.91355,-0.526016 3.58052,-0.529167 0.66697,-0.0031 1.2797,-0.07275 1.36162,-0.154668 0.18109,-0.181094 -1.345,-4.015123 -2.61922,-6.580314 -2.20891,-4.446847 -6.10471,-10.299716 -8.65645,-13.005041 l -0.91061,-0.965414 -1.69797,0.295688 c -0.93389,0.162631 -2.67049,0.29569 -3.85911,0.29569 -1.18863,0 -2.16114,0.06012 -2.16114,0.133599 0,0.07348 1.04241,1.42549 2.31647,3.004468 1.27405,1.578978 3.0541,4.049289 3.95565,5.489583 1.74544,2.788491 4.39578,8.154937 5.37597,10.885371 0.32651,0.909505 0.67302,1.653646 0.77003,1.653646 0.097,0 1.24192,-0.235548 2.54424,-0.523441 z m 25.3866,-6.85183 c 1.16416,-0.304758 2.37753,-0.555932 2.69636,-0.558168 0.31883,-0.0021 0.65014,-0.118041 0.73624,-0.257347 0.16583,-0.268324 -1.40957,-3.575555 -2.96719,-6.229006 -2.43813,-4.153402 -5.3666,-7.824324 -8.94106,-11.207848 -2.44903,-2.318215 -5.25066,-4.53486 -5.73163,-4.53486 -0.17092,0 -0.87556,0.47625 -1.56587,1.058333 -0.69032,0.582084 -1.32804,1.058334 -1.41716,1.058334 -0.0891,0 -0.39879,0.220575 -0.68816,0.490167 -0.52092,0.485309 -0.51228,0.502026 0.87096,1.686443 4.9031,4.198337 8.71086,9.177303 12.04031,15.743698 1.51571,2.989305 1.87383,3.516842 2.32136,3.41948 0.29104,-0.06332 1.48167,-0.364469 2.64584,-0.669226 z m -18.35044,-2.431876 c 4.40229,-0.964258 10.3181,-2.559896 10.62367,-2.865461 0.67875,-0.678749 -6.50246,-9.466535 -10.40791,-12.736361 l -1.27983,-1.071542 -2.14121,1.076577 c -2.91747,1.466876 -4.4973,2.072574 -7.20939,2.764038 l -2.30677,0.588129 1.67122,2.096196 c 2.09219,2.624198 4.51514,6.238629 5.97233,8.909217 0.61538,1.127786 1.17624,2.05052 1.24637,2.05052 0.0701,0 1.79431,-0.36509 3.83152,-0.811313 z m 35.892022,-2.071766 c 0.363918,-5.031145 -5.255482,-9.003393 -12.315022,-8.705247 -2.69108,0.113652 -3.22107,0.357743 -2.67508,1.232011 0.23126,0.370303 0.83062,0.653386 1.80766,0.853773 4.286709,0.879182 9.772161,4.522499 12.03709,7.994775 0.655431,1.004813 1.003414,0.586965 1.145352,-1.375312 z m 3.303151,-2.199085 c 2.857881,-1.486834 5.222695,-3.720298 6.338152,-5.98611 0.742981,-1.50921 0.862943,-2.030296 0.862943,-3.748392 0,-2.717347 -1.032129,-4.852305 -3.430399,-7.095768 -3.719229,-3.479157 -7.374684,-4.394009 -17.603979,-4.405757 -8.58974,-0.0099 -16.10298,1.231157 -19.56444,3.231608 l -1.1759,0.67958 0.90566,0.756083 c 0.49812,0.415846 1.53581,0.991849 2.30599,1.280012 3.62482,1.356217 7.17331,3.626263 10.05278,6.430976 1.19976,1.168612 2.22037,2.074492 2.26802,2.013069 0.0477,-0.06142 0.39822,-0.656275 0.77905,-1.32189 1.34377,-2.348667 5.009477,-5.747795 6.942386,-6.437522 0.622204,-0.222025 0.49831,-0.10656 -1.47287,1.372638 -1.527066,1.145931 -2.601236,2.343827 -3.728916,4.158429 -1.19893,1.929241 -1.28317,1.850454 1.99533,1.866331 2.348758,0.01138 3.307651,0.137647 4.756147,0.626314 3.560265,1.201097 6.402252,3.824049 7.086136,6.540003 0.159793,0.634595 0.347517,1.15381 0.417161,1.15381 0.06964,0 1.089681,-0.501036 2.266749,-1.113414 z m -10.658279,-14.865569 c 0,-0.05719 0.184777,-0.17489 0.410617,-0.261554 0.235458,-0.09035 0.341662,-0.046 0.248968,0.103984 -0.155379,0.25141 -0.659585,0.371859 -0.659585,0.15757 z m -7.408334,11.779731 c 0,-0.982609 -5.99126,-7.225366 -7.7229,-8.047079 -0.48645,-0.230839 -1.29929,-0.700376 -1.8063,-1.043417 -0.50701,-0.34304 -1.10043,-0.730263 -1.31872,-0.860493 -0.21828,-0.130231 0.60719,0.827407 1.83438,2.128083 2.0898,2.214951 5.48545,6.529247 6.52782,8.293838 l 0.46161,0.781442 1.01205,-0.516314 c 0.55664,-0.283972 1.01206,-0.615198 1.01206,-0.73606 z m -38.36458,-9.830715 c -3.18284,-0.534403 -2.95605,-0.687679 0.84814,-0.57323 6.97889,0.20996 11.00315,-0.8415 14.7399,-3.851244 0.79693,-0.641884 0.86762,-0.660296 0.59849,-0.155879 -0.4413,0.827127 -2.3052,2.354646 -3.63712,2.980722 -3.1236,1.468265 -8.92644,2.207934 -12.54941,1.599631 z m -11.64167,-2.466753 c 0,-0.06114 0.31232,-0.315806 0.69404,-0.56592 0.38172,-0.25011 0.61321,-0.323977 0.51443,-0.164142 -0.18877,0.305432 -1.20847,0.921457 -1.20847,0.730062 z m 2.735,-2.287238 c 3.85913,-4.320553 4.47091,-10.638179 1.49899,-15.479583 -0.47171,-0.768442 -0.57494,-1.046736 -0.24629,-0.663982 1.39536,1.625079 2.62689,5.10835 2.62689,7.429921 v 1.230801 l 1.39552,0.28026 c 1.96861,0.395354 6.77007,0.977001 6.90356,0.836295 0.0613,-0.0646 -0.052,-0.891368 -0.25185,-1.837253 -0.50656,-2.398027 -0.46204,-4.334854 0.15511,-6.747899 1.15636,-4.521314 3.8101,-7.318621 7.59575,-8.006686 0.85919,-0.156163 1.51504,-0.150928 1.81056,0.01445 0.47867,0.267878 0.47807,-0.01306 -0.003,-1.175929 -0.28593,-0.691855 1.12004,-2.063529 2.30884,-2.252525 0.93491,-0.148633 1.09495,-0.06536 2.56005,1.332105 0.85953,0.819857 1.72045,1.49461 1.91316,1.499452 0.7096,0.01783 -0.89168,1.02693 -2.26146,1.425138 l -1.4021,0.407599 1.21321,1.265015 c 2.52213,2.629821 3.90831,7.255836 3.29184,10.985667 -0.14261,0.862862 -0.31931,1.063823 -1.32752,1.509802 -1.02755,0.454533 -4.17878,3.327265 -5.42277,4.943523 -0.3648,0.473958 -0.83087,0.602226 -2.77813,0.764545 -5.24021,0.436814 -10.92969,-1.0551 -14.08871,-3.694388 -0.62327,-0.520823 -1.27247,-0.946953 -1.44254,-0.946953 -0.17008,0 -0.44531,0.572875 -0.61164,1.273061 -0.58217,2.450798 -2.31297,5.244153 -4.05615,6.546273 -0.3638,0.271751 -0.0856,-0.150667 0.61833,-0.93871 z m 21.01722,-2.872102 c 0.56866,-0.162759 0.57838,-0.20455 0.17968,-0.772737 -0.23183,-0.330372 -1.03814,-0.954331 -1.7918,-1.386581 -1.32288,-0.758706 -1.48935,-0.786291 -4.80989,-0.797044 -1.89177,-0.0061 -4.24428,-0.114892 -5.2278,-0.241699 -1.82297,-0.23504 -2.84199,-0.136697 -2.84199,0.274275 0,0.549359 3.99975,2.182487 6.74687,2.754796 1.67814,0.349605 6.72883,0.459809 7.74493,0.16899 z m 1.31457,-4.269637 c 3.04635,-0.551283 5.86995,-1.442053 6.21614,-1.961026 0.33273,-0.498787 0.21372,-3.650154 -0.20491,-5.426151 -1.46422,-6.211753 -6.76822,-9.589823 -11.08507,-7.05998 -4.0832,2.392912 -6.19699,8.907015 -4.63539,14.284896 l 0.29963,1.031835 3.21776,-0.165684 c 1.76977,-0.09113 4.5561,-0.407874 6.19184,-0.70389 z m -5.67739,-4.126413 c -0.11391,-0.278995 -0.20711,-1.221639 -0.20711,-2.094764 0,-1.928572 0.26551,-2.750743 0.73628,-2.279973 0.19499,0.19499 0.32206,1.094542 0.32206,2.279973 0,2.039602 -0.43584,3.112143 -0.85123,2.094764 z m 7.06712,-1.966843 c -0.55207,-1.332818 0.088,-3.719452 0.80517,-3.002272 0.69649,0.696492 0.47256,3.800393 -0.27419,3.800393 -0.11021,0 -0.34915,-0.359154 -0.53098,-0.798121 z m 2.87275,-9.546512 c 0.45828,-0.159756 0.83323,-0.34876 0.83323,-0.420009 0,-0.07125 -0.64313,-0.788243 -1.42917,-1.593321 -0.86237,-0.883239 -1.55215,-1.387781 -1.73923,-1.272158 -0.21479,0.132746 -0.14149,0.30968 0.23855,0.575873 0.63715,0.446279 0.7299,1.147998 0.15173,1.147998 -0.21828,0 -0.39688,0.178594 -0.39688,0.396875 0,0.218281 0.19248,0.396875 0.42773,0.396875 0.29748,0 0.3856,0.161153 0.28936,0.529167 -0.16161,0.617987 0.32962,0.69016 1.62468,0.2387 z m -28.67285,3.094901 c -0.8759,-0.200763 -2.06653,-0.567751 -2.64584,-0.815528 l -1.05329,-0.450503 1.2329,-0.403251 c 0.6781,-0.221789 1.7941,-0.867002 2.48001,-1.433806 1.5449,-1.276626 2.18427,-1.444784 3.97212,-1.044681 1.50556,0.336928 2.9595,2.029617 3.44203,2.962838 0.25511,0.493381 -0.70643,-0.577726 -1.36363,-1.193452 -0.7997,-0.749235 -2.48738,-1.634927 -2.48738,-1.22368 0,0.130477 0.11906,0.310816 0.26458,0.400753 0.48511,0.299814 0.27281,0.625363 -0.46302,0.71003 -0.52331,0.06021 -0.72761,0.232299 -0.72761,0.612887 0,0.380588 0.2043,0.552672 0.72761,0.612886 0.80071,0.09213 0.89697,0.291865 0.39687,0.823476 -0.27373,0.290983 -0.0534,0.324398 1.27865,0.193892 2.06867,-0.202676 2.56048,-0.396753 2.37393,-0.936792 -0.10505,-0.304117 -0.0325,-0.279474 0.24938,0.08471 0.21864,0.282474 0.39752,0.596016 0.39752,0.696759 0,0.598337 -5.93158,0.894707 -8.07483,0.40346 z m -0.65642,-1.069027 c 0,-0.549407 -0.30488,-0.651283 -1.05833,-0.353643 -0.62936,0.248624 -0.63578,0.271892 -0.13229,0.479505 0.80969,0.333878 1.19062,0.293608 1.19062,-0.125862 z m -3.28286,-4.686465 c 0.68264,-0.94957 2.65113,-2.239379 3.94432,-2.584439 2.55736,-0.68236 5.12004,-0.0168 7.00015,1.817949 0.67857,0.662203 0.86941,0.889419 0.42409,0.504923 -1.44285,-1.245795 -3.06063,-1.889602 -5.07963,-2.021482 -1.64181,-0.10724 -2.09149,-0.0307 -3.43959,0.585322 -0.85297,0.389776 -1.95658,1.089191 -2.45246,1.554255 -0.78546,0.73664 -0.83659,0.755123 -0.39688,0.143472 z m 25.58957,-1.149984 c 0.79517,-1.589105 2.72348,-2.784025 4.47386,-2.772315 0.90112,0.006 2.93098,0.8015 3.21406,1.25954 0.0891,0.14416 -0.27858,0.0375 -0.81705,-0.23704 -2.0297,-1.0348 -4.81818,-0.35375 -6.44918,1.575135 -0.76719,0.907307 -0.7938,0.918332 -0.42169,0.17468 z m -52.55302,-8.520515 c -0.21254,-0.3439 8.78836,-1.24054 10.25115,-1.02118 1.64474,0.24664 1.76333,0.62824 0.14697,0.47293 -0.72024,-0.0692 -2.41286,0.004 -3.76139,0.16294 -4.33339,0.51035 -6.48234,0.63511 -6.63673,0.38531 z m -2.8266,-2.57945 c 0.94588,-0.20723 2.01744,-0.3805 2.38125,-0.38505 0.57893,-0.007 0.6031,0.0257 0.19371,0.26406 -0.25726,0.14978 -1.32882,0.32305 -2.38125,0.38505 l -2.90168,0.12028 z m 66.80729,-2.58757 c -1.30969,-0.13875 -3.53034,-0.27098 -4.93479,-0.29383 -2.68268,-0.0436 -3.1477,-0.28507 -1.13151,-0.58742 1.42135,-0.21314 10.57994,0.68515 10.09907,0.99053 -0.38249,0.24291 -0.82065,0.23104 -4.03277,-0.10928 z m 5.21209,-2.31617 c -0.48033,-0.11376 -0.95658,-0.29694 -1.05833,-0.40706 -0.17706,-0.19164 1.25926,-0.028 3.51915,0.40095 l 1.79348,0.69936 -2.05806,-0.49249 c -0.7276,0.003 -1.71591,-0.087 -2.19624,-0.2008 z"
         id="path3199"
         inkscape:connector-curvature="0"
         sodipodi:nodetypes="cccsccccsccccccccssccsccscsscccsscccccssscccssccscscccssscccccccsccsssccccccccccsccccscccssccccscccccsscscccscscsscssscccccscscccccssccscccccscscscssccccsscccsscssscccsssscsccccscscsssssccscsccscsccsccssccscccscsccccsscscccscssccsscccccccccccccscccccccsccscccsccccccccscscccscccsccccccccccsccccsscccscsccccccscccscccccccsscccccccccsccccsccccscccsssccscccccccsccsscscccccccsccsccssccscccsscsscsccscccccccccccsscccscccccsscscssccsccccccccsssscccssssscccccscccsccsssssccssccccsccsssscsssccscccscscccsccscsccccscscscsccccccsscccccscccccssscccsccscccssscccscscsccsccsccsccsccsccsccccccccccccccccccccccccccccccccccccc" />
      <path
         style="opacity:1;fill:url(#radialGradient3340);fill-opacity:1;stroke:none;stroke-width:7.63579893;stroke-linecap:round;stroke-linejoin:bevel;stroke-miterlimit:4;stroke-dasharray:none;stroke-opacity:0.91764706"
         d="m 242.20754,-171.32379 c -4.53425,0.20936 -7.92872,5.28583 -4.7037,9.20515 2.41579,7.33009 7.89507,13.89646 8.3576,21.61042 -9.04761,2.90171 -18.51427,5.45822 -27.97057,6.09051 -6.59187,-5.11211 -7.20447,-15.34486 -13.6193,-20.48321 -12.81117,1.60473 -24.95742,6.67155 -37.66962,9.05783 -5.60477,2.001 -12.79384,1.72362 -17.34423,5.6387 -0.25619,9.15276 7.1243,17.28066 6.54823,26.42378 -8.48071,2.39944 -17.48976,3.02814 -26.18111,4.66998 -3.60504,0.43018 -8.30726,0.28443 -9.12884,-4.14715 -3.84882,-6.68937 -4.75361,-15.59385 -10.60069,-20.85412 -4.82897,-0.111 -4.44867,7.11393 -6.17886,10.35447 -5.138805,20.40859 -20.540379,35.867651 -36.127194,48.974233 -1.394243,5.522284 3.449691,10.775764 2.704915,16.511652 -0.186363,13.984764 1.621861,28.335658 -1.367261,42.132433 -2.794719,11.9222341 -12.76448,19.6221724 -18.693732,29.728476 -2.653852,6.509574 -4.36104,13.466737 -9.959478,18.2518 -14.443635,14.83805 -37.5860898,16.609281 -56.645487,11.681858 -11.431096,-3.455105 -22.377944,-11.533386 -26.90123,-22.815234 -2.044695,-11.7152748 -1.553152,-23.9344942 -5.877432,-35.23696 -1.038426,-4.218871 -1.544016,-9.396722 -6.802746,-10.324476 -6.833388,-2.036952 -12.786199,-6.314999 -19.00744,-9.253149 -4.158732,6.142304 -2.193586,14.84898 -2.562867,22.091168 1.131271,52.23121 8.832592,106.379649 36.507188,151.718169 4.015684,7.03266 9.936316,12.57696 14.156303,19.45928 6.265643,6.57655 15.7512,9.39296 24.4725228,10.94594 16.5068482,0.95199 36.0908532,0.8217 47.6093602,-13.09646 9.370923,-11.9539 17.625728,-24.6167 29.239179,-34.69046 13.683506,-13.18716 30.975139,-21.78103 48.329489,-29.059634 -6.76564,4.344747 -15.80716,6.293301 -20.82059,12.814334 0.12039,5.92294 7.75331,9.42503 9.96934,13.72782 -6.3443,3.12478 -0.71895,10.35626 1.91771,14.09084 -4.4086,3.04277 1.58303,7.60831 4.36023,9.22356 16.723,9.58123 38.56205,9.27729 55.64519,0.75958 11.19882,-7.55393 15.26314,-21.51908 22.29045,-32.44129 20.67306,-37.184793 38.66366,-75.869323 53.92676,-115.5756512 15.29793,-42.5248768 17.11553,-89.6922658 6.64995,-133.5564688 -3.05777,-11.25086 -6.33064,-22.75619 -12.13872,-32.90168 -0.63851,-0.58108 -1.54106,-0.78719 -2.38332,-0.72604 z"
         id="path3201"
         inkscape:connector-curvature="0"
         transform="matrix(0.26458333,0,0,0.26458333,-168.11253,-11.759859)" />
      <path
         id="path3215"
         transform="matrix(0.26458333,0,0,0.26458333,-168.11253,-11.759859)"
         style="opacity:1;fill:url(#radialGradient3244);fill-opacity:1;stroke:none;stroke-width:1.90894973;stroke-linecap:round;stroke-linejoin:bevel;stroke-miterlimit:4;stroke-dasharray:none;stroke-opacity:0.91764706"
         d="m -36.408203,157.61914 c -1.022648,-0.0309 -2.100392,0.32289 -3.121094,0.38281 -15.585459,2.30848 -30.385586,8.95055 -43.076172,18.19532 -13.700247,9.98605 -24.166541,24.34321 -29.214841,40.54882 -3.32806,10.0399 -3.56264,21.08301 -0.36328,31.1875 4.32077,14.93004 14.488888,27.8805 27.599606,36.13282 11.167043,7.20714 24.134412,11.24019 37.216796,13.13281 12.348107,0.21247 24.851442,-0.46352 36.84375,-3.61719 19.7799111,-5.41128 38.164374,-16.76888 50.681641,-33.16015 7.616434,-9.925 12.339576,-21.95875 14.007813,-34.32422 0.401795,-9.21953 -0.880909,-18.40254 -1.707032,-27.56641 -1.014304,-8.86382 -2.450259,-17.81672 -5.830078,-26.11914 -0.468824,-1.34119 -2.123778,-1.89497 -3.263672,-1.00586 -3.346522,2.30399 -6.109645,5.40846 -9.730468,7.34375 -9.680126,5.64757 -21.117406,7.33646 -32.1152348,6.74414 -10.3498333,-0.78016 -21.0222852,-3.65513 -29.0781252,-10.48437 -3.849086,-3.45629 -7.062051,-8.02017 -7.912109,-13.20508 -0.279338,-1.36362 0.0029,-2.85593 -0.503906,-4.14649 -0.143562,-0.0221 -0.287502,-0.0346 -0.433594,-0.0391 z m 4.769531,2.11328 c -1.39359,0.42083 -0.470497,2.2471 -0.197266,3.1836 1.74939,4.8488 5.061019,9.07096 9.4375,11.81445 6.944903,4.50861 15.1433735,7.05169 23.38671925,7.5918 6.49530855,0.0852 13.15588475,0.18298 19.37109375,-1.99805 6.260281,-2.0942 12.658857,-4.73517 17.421875,-9.45117 0.889823,-1.18676 2.41933,-2.28985 2.488281,-3.85938 -0.774191,-1.10509 -2.299475,0.0591 -3.265625,0.31055 -6.519686,3.22614 -13.626644,5.4586 -20.949218,5.57226 -9.9326137,0.47785 -20.0489188,0.36467 -29.523438,-2.81445 -5.628394,-1.7626 -10.74503,-4.98603 -15.3125,-8.72461 -0.90201,-0.56101 -1.762176,-1.49047 -2.857422,-1.625 z m -4.642578,33.3711 c 12.820863,-0.0484 25.692026,1.38469 37.9863281,5.23437 9.2022549,2.81899 18.3817119,6.41611 26.2441409,12.12891 1.045389,0.79939 -2.264582,-0.72178 -1.498047,-0.35157 -12.76101,-5.34006 -25.61116255,-11.23581 -39.533203,-12.67578 -11.296084,-1.36191 -22.706553,-0.93164 -34.058594,-0.97851 -8.138865,0.10597 -16.321243,0.14843 -24.419922,0.8125 11.401956,-3.33171 23.443559,-4.09687 35.279297,-4.16992 z"
         inkscape:connector-curvature="0" />
      <path
         id="path3226"
         transform="matrix(0.26458333,0,0,0.26458333,-168.11253,-11.759859)"
         style="opacity:1;fill:url(#radialGradient3252);fill-opacity:1;stroke:none;stroke-width:0.67491567;stroke-linecap:round;stroke-linejoin:bevel;stroke-miterlimit:4;stroke-dasharray:none;stroke-opacity:0.91764706"
         d="m 116.87994,145.78354 c -0.59346,-0.0727 -0.92839,0.72467 -0.42742,1.07562 0.32499,0.40354 1.07553,0.68019 1.34364,0.0624 0.34381,-0.43978 0.0472,-1.10344 -0.52211,-1.10544 -0.12979,-0.0241 -0.26204,-0.0369 -0.39411,-0.0326 z m 111.66084,-30.51976 c -8.05078,0.07 -16.21467,0.4986 -23.91861,3.04279 -4.42563,1.42485 -9.01504,2.6659 -13.02643,5.07543 -1.17289,0.4929 -0.93883,1.82403 -0.20864,2.60282 2.46786,3.35976 5.30731,6.6735 6.08902,10.88824 0.36485,0.90599 0.7467,2.89843 2.12784,2.21957 7.33544,-2.61051 14.57252,-5.75777 22.21201,-7.27675 0.85828,-0.26171 1.00729,0.21687 0.18792,0.60521 -4.67005,2.88432 -10.20715,4.07941 -15.15803,6.45958 -14.62975,6.42283 -27.98126,15.31696 -41.36286,23.95447 -2.18077,1.44797 -4.40263,2.97943 -6.48836,4.47419 3.35235,-3.55662 6.90755,-6.93143 10.12964,-10.60512 0.14895,-1.37214 -1.63173,-0.41198 -2.32513,-0.32406 -6.9804,0.99048 -14.1437,0.74684 -21.20017,0.66477 -10.42025,-0.0923 -20.82814,-2.02392 -30.16982,-6.78294 -4.02914,-1.84856 -8.00831,-4.40019 -10.10134,-8.47281 -0.98383,-1.48257 -1.83508,-3.28983 -3.45711,-4.13482 -3.34308,1.54232 -5.478318,4.78513 -7.828823,7.48767 -5.113134,6.14297 -8.535621,14.47911 -6.528363,22.5106 2.022599,7.87818 7.102535,14.55104 12.396255,20.54854 13.006261,14.18553 31.076221,22.56454 49.395791,27.52798 13.62521,3.74397 27.74504,6.01162 41.90734,5.47794 13.79556,-0.0163 27.72129,-0.84728 41.08043,-4.53049 17.50526,-4.53031 34.89928,-11.58103 48.47185,-23.83464 9.51006,-8.55972 16.64555,-20.44784 17.34393,-33.43726 0.37976,-8.77382 -4.23535,-16.97027 -9.98077,-23.28059 -9.12109,-9.70399 -21.77977,-15.14359 -34.40169,-18.65455 -8.22237,-1.94876 -16.77192,-2.1646 -25.18588,-2.20577 z m -40.12841,12.67673 c -1.81413,2.00193 -2.87383,4.64642 -4.44372,6.86211 -2.97167,4.77236 -6.69056,9.47601 -12.01515,11.66787 -10.88823,4.89217 -23.17039,5.67273 -34.8912,4.55556 -6.37692,-0.51213 -12.49709,-2.76653 -18.54528,-4.83177 -0.95345,-0.49557 -1.66446,0.91834 -0.69349,1.37564 4.66771,2.52044 9.90123,3.8157 15.0053,5.15435 9.01733,2.2757 18.42133,1.76454 27.61445,1.20005 9.28393,-0.64061 18.18315,-4.06015 26.28271,-8.49555 3.10931,-1.91262 6.98201,-4.15739 7.48391,-8.14682 0.14297,-3.51165 -2.70826,-6.08745 -4.66538,-8.67129 -0.30439,-0.29847 -0.62968,-0.81445 -1.13215,-0.67015 z m -80.16704,6.08854 c -2.11646,1.61547 -1.22799,4.66877 0.22294,6.40766 1.69165,2.02883 3.41702,4.36618 5.88878,5.45028 1.3635,-0.19981 0.13378,-1.71829 -0.25205,-2.31033 -1.87576,-2.83496 -4.49336,-5.41316 -4.91567,-8.94634 -0.004,-0.48912 -0.49542,-1.00086 -0.944,-0.60127 z"
         inkscape:connector-curvature="0" />
      <path
         style="opacity:1;fill:url(#radialGradient3302);fill-opacity:1;stroke:none;stroke-width:1.90894973;stroke-linecap:round;stroke-linejoin:bevel;stroke-miterlimit:4;stroke-dasharray:none;stroke-opacity:0.91764706"
         d="m 73.886329,-408.99524 c -7.606388,-0.0744 -15.271319,0.40905 -22.624851,2.4869 -16.658479,4.29069 -32.178748,12.96622 -44.4946209,24.98617 -1.7624233,1.75433 -3.7925976,3.30787 -5.3175415,5.26859 0.4102557,1.53025 1.9326844,2.61083 2.7986352,3.9321 0.8144607,1.00421 1.6200776,2.01687 2.3759318,3.06646 -4.6333803,-4.43324 -9.1822538,-9.2537 -15.2158723,-11.77868 -9.3595153,-4.3528 -20.3092333,-3.90862 -29.9243343,-0.62478 -7.760965,2.56526 -15.620509,4.8144 -23.490979,7.0247 -4.785549,1.8976 -10.083756,1.99213 -15.156728,2.16532 -1.380083,0.1839 -3.019403,-0.1493 -4.224094,0.62197 -0.416228,1.29742 1.419487,1.88975 2.244164,2.48085 4.526983,2.1122 8.486891,5.11612 11.977743,8.68026 5.517849,5.2732 10.430136,11.10996 14.375001,17.64697 3.449131,5.11756 9.563506,7.21893 14.769736,10.02319 6.701569,3.37667 13.675965,6.16093 20.734144,8.69276 -1.815439,-0.42359 -4.476908,-1.21264 -5.635742,0.82025 -2.108633,4.19665 -2.887663,8.9196 -4.296603,13.37367 -1.780132,6.79261 -3.918609,13.50894 -5.300834,20.3964 -1.30391,10.1037 -0.618463,20.41995 1.303392,30.40093 1.752572,8.13019 5.802521,15.5364 9.885482,22.70103 7.939642,13.22437 20.58114584,23.16137 34.585886,29.34326 9.57123,4.31686 19.323584,8.47406 29.586663,10.83852 10.333805,2.08838 20.852675,3.19854 31.364055,3.87735 8.368609,-0.0575 16.807585,0.18528 25.074378,-1.35279 16.97328,-2.75889 33.84804,-7.29048 49.06628,-15.4696 11.17654,-5.83742 21.23436,-13.61092 30.50088,-22.0892 5.59246,-5.05076 12.193,-8.75505 18.13934,-13.33569 5.07861,-4.2997 9.97263,-9.10922 13.15468,-15.01862 2.78866,-5.87572 3.6185,-12.48091 3.09261,-18.92063 -0.59945,-9.10317 -4.29845,-18.00866 -10.66039,-24.59659 -5.21431,-6.0702 -12.49233,-9.72486 -19.71866,-12.83134 -1.94793,-1.0818 -4.45679,-1.60926 -5.84194,-3.47042 -1.66599,-3.95168 -2.07281,-8.30303 -3.24239,-12.42472 -3.16802,-12.71179 -7.32069,-25.54092 -15.35835,-36.08731 -7.78265,-10.39508 -17.64098,-19.16406 -28.45856,-26.29926 -12.15323,-7.87673 -26.25101,-12.70957 -40.65182,-14.12653 -5.126196,-0.41769 -10.275282,-0.40551 -15.414691,-0.40149 z m -100.857418,41.91886 c 2.369379,0.0261 4.851808,0.0903 7.135187,0.94061 -7.521204,0.1444 -15.084572,0.30854 -22.563196,1.33322 -6.350784,0.6662 -12.71626,1.45497 -19.092771,1.22323 7.63509,-1.62403 15.453282,-2.14472 23.210334,-2.87984 3.764071,-0.285 7.553636,-0.59162 11.310446,-0.61722 z m 180.310259,25.68145 c 3.90595,0.38139 7.60524,1.92162 10.96074,3.89264 -3.1243,-1.36947 -6.35931,-2.83342 -9.86822,-2.52702 -5.98733,-0.16357 -11.79231,2.53916 -15.86163,6.86999 -0.4722,0.37829 -2.18815,2.52383 -1.29074,1.10337 3.22935,-5.60292 9.65788,-9.18694 16.05985,-9.33898 z m -91.217567,4.07464 c 6.064953,-8.8e-4 12.058277,2.29102 16.712895,6.14379 -5.610048,-3.59191 -12.341783,-5.03461 -18.949729,-4.82071 -2.770437,-0.20604 -5.528277,0.28684 -8.015853,1.54116 -3.90227,1.71101 -7.623864,3.88384 -10.919085,6.59361 5.20996,-5.13764 12.126028,-9.20894 19.641411,-9.42348 0.509574,-0.0273 1.020105,-0.0358 1.530361,-0.0344 z m 91.915497,7.02865 c 3.09829,0.18175 5.0782,3.0006 7.31904,4.79883 2.51823,2.17911 4.93535,4.78433 7.93781,6.20335 -2.70039,2.58007 -6.46673,3.63187 -9.89018,4.83426 -1.29312,0.54427 -2.93383,0.60022 -4.03075,1.44499 -0.25023,1.04664 1.27457,1.73571 1.76704,2.58178 5.5474,5.46133 9.99757,12.09306 12.35267,19.54951 2.80324,8.00557 3.68202,16.70637 2.3271,25.10239 -0.31895,3.00018 -3.63067,3.92691 -5.79457,5.30034 -7.95503,5.24508 -14.29155,12.48261 -20.89654,19.24765 -2.42005,1.19762 -5.2367,1.06784 -7.87419,1.43864 -15.22614,1.30244 -30.95291,-1.07881 -44.755036,-7.87546 -4.886022,-2.25991 -8.891227,-5.9075 -13.326107,-8.86898 -0.88754,-0.74373 -2.261262,-0.66989 -2.733561,0.50273 -1.877328,4.09112 -2.581165,8.6609 -4.697061,12.64824 -2.696983,5.4823 -6.136696,10.81662 -10.752157,14.80492 5.584419,-6.27339 10.242556,-13.53269 12.503595,-21.68523 3.407502,-11.96025 2.346135,-25.24928 -3.535647,-36.27535 -0.223868,-0.53823 -1.752734,-3.19581 -0.989983,-1.97777 5.210036,8.46389 7.91548,18.64169 7.749931,28.62362 -0.09467,1.7164 2.069229,1.45966 3.183362,1.82795 9.385514,1.74206 18.871165,2.92569 28.376014,3.78412 1.1299,-0.54247 0.18762,-2.24289 0.2698,-3.28595 -1.18144,-6.91618 -2.64348,-13.88735 -1.76208,-20.90683 1.34251,-11.23728 5.32319,-22.85451 13.74729,-30.66275 5.72977,-5.22912 13.66788,-8.68605 21.48547,-8.3377 1.06329,-0.15876 2.61578,1.38416 3.22824,-0.0419 0.0593,-2.38179 -2.36242,-4.81103 -0.76107,-7.11152 2.07246,-3.1335 5.7676,-5.44603 9.55157,-5.66386 z m -89.039424,9.12048 c 4.63826,0.1777 9.243452,2.0569 12.368028,5.52077 1.80741,1.59708 3.089046,3.60548 4.671392,5.38917 1.122396,0.77051 1.941822,2.1849 2.452383,3.44429 -1.370916,1.15681 -3.445966,0.99511 -5.131297,1.3926 -7.024503,0.79201 -14.125597,0.96367 -21.160875,0.35347 -5.7151,-0.60545 -11.151554,-2.65784 -16.442016,-4.8298 4.635822,-1.52733 9.131698,-3.58804 12.94409,-6.68529 2.92775,-2.38134 6.279603,-4.89615 10.298295,-4.58521 z m 91.886894,90.69029 c -2.22226,3.43849 -5.62645,5.9345 -8.84192,8.39134 -6.54513,4.64476 -14.59309,6.40092 -22.34521,7.91987 -10.54805,1.81744 -21.43409,2.51897 -31.995251,0.49639 -1.558393,-0.27138 -3.120096,-0.5418 -4.65124,-0.94357 14.563381,-0.21888 29.530461,1.01324 43.745321,-3.04427 8.38057,-2.26531 16.07269,-6.55624 22.83511,-11.9485 0.39273,-0.28591 0.90661,-0.67728 1.25319,-0.87126 z m -102.243917,6.70213 c -0.915731,0.63455 -0.382136,0.23182 0.236755,-0.16968 l -0.205266,0.14711 z"
         id="path3294"
         inkscape:connector-curvature="0"
         transform="matrix(0.26458333,0,0,0.26458333,-168.11253,-11.759859)" />
      <path
         style="opacity:1;fill:url(#radialGradient3312);fill-opacity:1;stroke:none;stroke-width:1.90894973;stroke-linecap:round;stroke-linejoin:bevel;stroke-miterlimit:4;stroke-dasharray:none;stroke-opacity:0.91764706"
         d="m 138.67321,-315.85849 c -8.03472,-0.16045 -15.19716,4.8575 -20.08516,10.86901 -6.17328,7.7137 -9.69995,17.41586 -10.56781,27.21442 -0.38608,6.92594 -0.21116,14.00101 1.99988,20.64365 0.54995,1.07043 0.28999,3.57897 2.09253,3.01462 10.12245,-0.63326 20.30528,-1.04648 30.3517,-2.63483 8.74849,-1.39543 17.56428,-3.14229 25.73017,-6.67561 1.52027,-0.56824 2.8686,-1.77362 2.90469,-3.50298 0.5607,-6.27977 -0.0215,-12.65954 -1.29895,-18.82409 -2.61139,-11.62113 -9.72435,-22.91398 -20.81347,-28.01824 -3.21966,-1.54584 -6.75434,-2.19149 -10.31358,-2.08595 z m 15.37573,23.64388 c 1.77867,0.70952 1.77097,3.11196 2.05138,4.72375 0.12085,2.90967 0.30632,6.14394 -1.34556,8.72095 -0.68428,1.04283 -1.47099,-0.47555 -1.82745,-1.04172 -1.70483,-3.2601 -1.44905,-7.1098 -0.43306,-10.56369 0.303,-0.67517 0.67848,-1.76321 1.55469,-1.83929 z m -27.50841,2.32513 c 1.32069,0.84115 1.10843,2.83163 1.35986,4.22114 0.13158,4.13923 0.49902,8.44829 -0.78524,12.48091 -0.14519,0.56405 -0.74528,1.24006 -1.02889,0.40346 -1.25468,-2.32062 -0.91017,-5.17319 -1.12508,-7.7014 0.1088,-3.00389 -0.18143,-6.2312 1.00769,-9.0766 0.12015,-0.19447 0.3226,-0.38706 0.57166,-0.32751 z"
         id="path3304"
         inkscape:connector-curvature="0"
         transform="matrix(0.26458333,0,0,0.26458333,-168.11253,-11.759859)" />
      <path
         style="opacity:1;fill:url(#radialGradient3322);fill-opacity:1;stroke:none;stroke-width:3.81789947;stroke-linecap:round;stroke-linejoin:bevel;stroke-miterlimit:4;stroke-dasharray:none;stroke-opacity:0.91764706"
         d="m 156.3935,-402.90612 c -7.98733,-0.11259 -16.0089,2.58564 -22.39501,7.31868 -1.04999,2.2375 2.45294,3.57789 3.54738,5.05964 11.25327,8.93254 21.19292,19.58637 28.41799,32.04314 1.6043,2.04025 2.37118,5.2528 4.6941,6.56067 4.5663,-2.01877 9.1338,-4.50714 12.9337,-7.77936 5.163,-6.38442 9.69186,-13.31921 15.75531,-18.9441 4.00487,-4.26739 8.77445,-7.72485 13.47499,-11.05072 -2.75186,-1.55393 -6.66243,-1.3681 -9.91311,-1.98184 -11.57297,-1.31044 -22.22532,-6.47141 -33.41136,-9.42368 -4.21287,-1.45949 -8.66967,-1.87137 -13.10399,-1.80243 z m 3.54836,16.95064 c 11.24052,0.21869 22.52794,1.00743 33.58263,3.06893 1.0609,0.60525 -1.91524,0.60989 -2.55497,0.57216 -12.01373,-1.08539 -24.11241,-1.84845 -36.18694,-2.49678 -0.55913,-0.0314 -3.64845,-0.32921 -1.61585,-0.70434 2.22766,-0.42462 4.51575,-0.4113 6.77513,-0.43997 z"
         id="path3314"
         inkscape:connector-curvature="0"
         transform="matrix(0.26458333,0,0,0.26458333,-168.11253,-11.759859)" />
      <path
         style="opacity:1;fill:url(#linearGradient3358);fill-opacity:1;stroke:none;stroke-width:1.90894973;stroke-linecap:round;stroke-linejoin:bevel;stroke-miterlimit:4;stroke-dasharray:none;stroke-opacity:0.91764706"
         d="m 106.97376,-193.70426 c -8.44796,1.83913 -17.083089,2.19043 -25.702404,2.41697 -1.189946,0.2481 -2.751902,-0.30258 -3.672914,0.63815 -0.122814,1.50769 1.509657,2.55537 2.16877,3.80287 9.554242,12.21124 19.399443,24.32905 26.667188,38.09373 6.43313,11.69592 11.93054,23.86033 16.80735,36.27825 0.38831,1.2163 1.41718,2.80673 2.91481,2.10438 8.22978,-1.72301 16.4211,-3.64738 24.87081,-3.96978 1.12802,-0.016 3.07711,-0.12292 2.82723,-1.74264 -1.14106,-4.72715 -3.20941,-9.19266 -5.02133,-13.69591 -7.7438,-18.00284 -18.07632,-34.82028 -29.81562,-50.47968 -3.59985,-4.65345 -7.34795,-9.28314 -11.59605,-13.32628 -0.15525,-0.005 -0.27655,-0.20867 -0.44784,-0.12006 z"
         id="path3346"
         inkscape:connector-curvature="0"
         transform="matrix(0.26458333,0,0,0.26458333,-168.11253,-11.759859)" />
      <path
         style="opacity:1;fill:url(#linearGradient3356);fill-opacity:1;stroke:none;stroke-width:1.90894973;stroke-linecap:round;stroke-linejoin:bevel;stroke-miterlimit:4;stroke-dasharray:none;stroke-opacity:0.91764706"
         d="m 176.69845,-225.50533 c -3.91055,1.78698 -6.89414,5.09021 -10.43643,7.48046 -1.89361,1.0914 -3.92063,2.31692 -5.07839,4.24136 -0.40453,1.80644 1.7813,2.76439 2.72465,3.94492 10.78625,9.34333 20.78784,19.61011 29.14402,31.2022 7.86624,10.6968 14.36,22.29799 20.36003,34.13752 1.72272,2.89729 2.96546,6.26383 5.5251,8.55037 1.4756,0.91282 3.22758,-0.29572 4.78849,-0.40714 6.21825,-1.48224 12.39435,-3.09482 18.69953,-4.15926 1.2664,-0.12423 2.03195,-1.41035 1.47675,-2.56533 -2.44575,-7.11597 -6.19989,-13.70333 -9.7985,-20.28598 -13.09194,-23.06269 -31.11146,-43.27073 -52.27557,-59.21816 -1.63381,-1.00527 -3.18768,-2.59681 -5.12968,-2.92096 z"
         id="path3348"
         inkscape:connector-curvature="0"
         transform="matrix(0.26458333,0,0,0.26458333,-168.11253,-11.759859)" />
      <path
         style="opacity:1;fill:url(#radialGradient3385);fill-opacity:1;stroke:none;stroke-width:1.34983134;stroke-linecap:round;stroke-linejoin:bevel;stroke-miterlimit:4;stroke-dasharray:none;stroke-opacity:0.91764706"
         d="m 255.22857,-244.82288 c -7.73126,-0.0119 -15.46908,0.0945 -23.17086,0.83098 -13.75151,1.21074 -27.6192,2.94909 -40.7169,7.50363 -4.54168,1.56505 -8.83206,3.80963 -12.87423,6.38253 -0.81868,1.07458 0.7887,1.83549 1.40742,2.50618 4.15499,3.88126 9.52793,5.94316 14.699,8.07063 12.30077,5.24261 23.55949,12.79658 33.22369,22.05001 2.91919,2.64044 5.63178,5.54097 8.78338,7.9075 0.94187,0.69969 1.76078,-0.41834 2.06333,-1.21721 2.90625,-5.27922 6.43816,-10.27235 10.72824,-14.50614 4.57786,-4.61123 9.44253,-9.07126 15.13149,-12.27958 -5.22408,3.90312 -10.49136,7.93917 -14.33978,13.28195 -2.32472,3.25179 -4.67868,6.53 -6.46275,10.11649 -0.62608,1.05098 -0.43411,2.68433 0.91588,3.02385 3.0412,0.69367 6.21413,0.41794 9.31132,0.58476 5.79233,0.12789 11.74707,0.0452 17.29457,2.01275 9.92275,3.14928 19.16404,9.354 24.67271,18.3386 1.99751,3.1593 2.61399,6.83822 3.93241,10.27448 0.25518,0.86802 1.2574,0.97596 1.90232,0.4639 6.61949,-3.25443 13.32715,-6.52269 19.02223,-11.28767 7.16569,-5.72313 13.13745,-13.31775 15.71293,-22.21682 0.91992,-3.72889 0.65368,-7.63003 0.51165,-11.43206 -0.616,-7.88257 -4.62241,-15.14044 -10.04539,-20.7588 -6.02611,-6.40932 -13.29527,-11.86001 -21.69987,-14.68624 -10.09238,-3.44443 -20.83615,-4.2409 -31.41269,-4.80169 -6.19485,-0.1677 -12.39342,-0.16511 -18.5901,-0.16203 z"
         id="path3364"
         inkscape:connector-curvature="0"
         transform="matrix(0.26458333,0,0,0.26458333,-168.11253,-11.759859)" />
      <path
         style="opacity:1;fill:#000333;fill-opacity:1;stroke:none;stroke-width:1.34983134;stroke-linecap:round;stroke-linejoin:bevel;stroke-miterlimit:4;stroke-dasharray:none;stroke-opacity:0.91764706"
         d="m 108.70548,-135.4287 c -1.18391,0.2226 -1.28319,2.49084 0.18799,2.14599 0.94427,-0.11098 1.4909,-1.3805 0.56955,-1.93917 -0.20781,-0.17277 -0.48887,-0.26195 -0.75754,-0.20682 z"
         id="path3366"
         inkscape:connector-curvature="0"
         transform="matrix(0.26458333,0,0,0.26458333,-168.11253,-11.759859)" />
      <path
         id="path3368"
         transform="matrix(0.26458333,0,0,0.26458333,-168.11253,-11.759859)"
         style="opacity:1;fill:url(#radialGradient3377);fill-opacity:1;stroke:none;stroke-width:1.34983134;stroke-linecap:round;stroke-linejoin:bevel;stroke-miterlimit:4;stroke-dasharray:none;stroke-opacity:0.91764706"
         d="m 200.5048,-213.47348 c -1.1222,0.15851 -0.72339,1.51199 -0.0764,1.99881 5.19032,5.90432 10.67713,11.55011 15.58899,17.69758 5.98194,7.36699 11.83362,14.81378 16.70733,22.95916 0.80344,1.0128 1.97309,-0.22918 2.84711,-0.51418 2.09049,-1.13607 4.41578,-2.07815 6.01763,-3.90442 0.44412,-1.08936 -0.57786,-2.15102 -1.0449,-3.1146 -3.95353,-5.84835 -8.99007,-10.86063 -13.89687,-15.90058 -4.38961,-4.26405 -8.64366,-8.80906 -13.87484,-12.06183 -4.1057,-2.04823 -7.83689,-4.70805 -11.7756,-7.06543 -0.15671,-0.0596 -0.32276,-0.1076 -0.49247,-0.0945 z m -43.3395,2.13204 c -2.43972,0.66788 -4.60816,2.10519 -6.91145,3.12968 -7.89606,3.97169 -15.93783,7.82431 -24.53374,10.05799 -4.18838,1.19534 -8.44328,2.14966 -12.62707,3.35669 -1.1409,0.81739 0.31429,1.8557 0.75718,2.6165 8.62845,10.80318 16.91662,21.90553 23.98631,33.8055 2.78946,4.49508 5.09811,9.32674 8.06273,13.72519 1.05737,1.01986 2.58919,-0.0548 3.80659,-0.096 16.14959,-3.4142 32.26714,-7.09091 48.06917,-11.88828 1.4558,-0.54783 3.10996,-0.8587 4.316,-1.86578 0.14614,-2.53184 -1.58949,-4.67157 -2.78251,-6.76479 -6.12149,-9.23695 -13.34335,-17.68901 -20.71916,-25.93739 -6.51141,-7.13634 -13.27368,-14.11224 -20.911,-20.05312 -0.15979,-0.0739 -0.33853,-0.0975 -0.51305,-0.0862 z m -181.401362,-26.06968 c -1.270068,0.36212 -1.292268,2.04845 -1.806441,3.05634 -3.443814,9.89514 -8.331519,19.21584 -13.658494,28.23558 -6.053933,10.00324 -13.278122,19.38176 -22.084699,27.17917 -13.520271,12.02904 -29.089878,21.391 -43.650464,32.05463 -5.63915,3.88559 -10.56298,8.67725 -15.42972,13.46493 -3.70855,4.18277 -6.71976,9.21012 -7.80485,14.74727 -0.73508,5.6584 -0.61817,11.4183 0.0297,17.07855 1.57242,6.486526 5.4151,12.12736 9.315,17.433223 8.33022,10.889821 17.92956,20.78238 28.23317,29.811973 4.880012,4.096054 9.818341,8.329518 15.657137,11.002518 5.106682,2.2355 10.723348,3.275393 16.292784,2.880875 6.771666,-0.456232 13.396652,-2.631893 19.312266,-5.920839 6.842466,-3.893786 12.288622,-10.28684 14.624202,-17.845915 1.80077,-5.39781 2.025575,-11.214607 1.367934,-16.829782 -1.068425,-6.951532 -4.208664,-13.60583 -9.212366,-18.589737 -4.280343,-4.476226 -9.785579,-7.467566 -14.887882,-10.878776 -2.497207,-1.59084 -5.068172,-3.06877 -7.734886,-4.35769 5.764023,0.19456 11.394514,-1.37857 16.974516,-2.61322 6.838129,-1.67602 13.590525,-3.77459 20.050455,-6.58984 -7.912748,4.10635 -16.081764,7.86125 -24.667271,10.40562 -1.111777,0.52881 -2.751298,0.70239 -3.26695,1.96673 0.08113,1.21047 1.48397,1.76913 2.223075,2.57987 5.217163,4.1687 10.508173,8.2908 16.192802,11.807688 1.799232,1.27486 4.10353,0.814896 5.988769,0.01325 5.489663,-2.181685 10.685813,-4.921758 16.4324077,-6.380788 5.94838389,-1.67559 12.2630268,-2.51016 18.5222513,-2.26353 8.343368,0.15884 16.579668,2.36603 24.231777,5.65633 9.582282,4.175497 18.284943,10.590449 24.717908,18.88987 1.279,1.444293 2.306946,3.16309 3.714642,4.455045 0.979965,0.270195 1.665518,-0.93013 2.469625,-1.34453 9.404465,-7.356415 17.606893,-16.237829 24.382661,-26.059675 3.650572,-5.20085 6.345286,-11.00104 8.343323,-17.01906 1.46,-4.25009 2.75425,-8.593 3.3203,-13.05454 0.42913,-2.48518 2.17436,-4.6052 2.24611,-7.15437 -0.29663,-2.7126 -2.10811,-4.94504 -3.30541,-7.31489 -8.240055,-14.05618 -18.150823,-27.09778 -29.017537,-39.22034 -1.609643,-1.92582 -3.854089,-3.30605 -6.364822,-3.62609 -6.505357,-0.95618 -13.048875,-1.55136 -19.483076,-2.90051 -8.085583,-1.65819 -16.123077,-3.59305 -23.871572,-6.49976 -9.665943,-3.8934 -19.0790571,-8.75746 -27.8093607,-14.52358 -4.4032214,-2.79061 -7.8911233,-6.73631 -11.4819533,-10.43598 -2.823761,-3.19523 -5.658241,-6.45219 -7.823293,-10.14124 -0.253691,-0.52127 -0.588091,-1.21557 -1.281738,-1.15478 z m 43.164063,77.31201 c -2.072218,4.39232 -5.107639,8.24635 -8.110352,12.03195 2.842366,-3.94849 5.038139,-8.34169 8.139997,-12.10554 z"
         inkscape:connector-curvature="0" />
    </g>
    <path
       style="opacity:1;fill:url(#linearGradient3332);fill-opacity:1;stroke:none;stroke-width:0.41502437;stroke-linecap:round;stroke-linejoin:bevel;stroke-miterlimit:4;stroke-dasharray:none;stroke-opacity:0.91764706"
       d="m -17.892929,37.045888 c -0.139034,-0.05554 -0.268245,0.09014 -0.119138,0.17565 0.672624,0.402233 1.444206,0.64821 2.216545,0.770054 0.653807,0.02628 1.3233,0.09273 1.970977,-0.0061 0.243225,-0.09962 -0.07172,-0.319203 -0.173025,-0.402392 -0.35352,-0.271166 -0.754713,-0.520673 -1.220308,-0.453872 -0.891468,-0.03237 -1.782765,-0.08282 -2.675051,-0.08333 z"
       id="path3324"
       inkscape:connector-curvature="0" />
    <g
       aria-label="Apache Pig"
       style="font-style:normal;font-variant:normal;font-weight:normal;font-stretch:normal;font-size:52.6712265px;line-height:125%;font-family:Montserrat;-inkscape-font-specification:Montserrat;letter-spacing:0px;word-spacing:0px;fill:#000000;fill-opacity:1;stroke:none;stroke-width:1.91531718px;stroke-linecap:butt;stroke-linejoin:miter;stroke-opacity:1"
       id="text3405"
       transform="matrix(0.29051704,0,0,0.29051704,-24.762545,56.558852)">
      <path
         d="m 110.67624,-8.3353794 -3.68699,8.37472498 h -6.63657 L 116.57541,-36.777842 h 6.63658 l 16.22274,36.81718758 h -6.63658 l -3.68698,-8.37472498 z m 15.90671,-5.7411636 -6.68925,-15.169313 -6.68924,15.169313 z"
         style="stroke-width:1.91531718px"
         id="path3426"
         inkscape:connector-curvature="0" />
      <path
         d="m 158.72227,-28.403117 q 5.63582,0 9.63884,3.897671 4.00301,3.897671 4.00301,10.376232 0,6.4785605 -4.00301,10.534245 -3.95035,4.05568439 -9.27014,4.05568439 -5.26712,0 -9.48082,-4.63506789 V 10.257564 h -5.89918 v -38.239311 h 5.89918 v 4.898424 q 3.4763,-5.319794 9.11212,-5.319794 z m -9.21746,14.484588 q 0,4.0030128 2.42287,6.5839029 2.42288,2.5282188 5.89918,2.5282188 3.4763,0 6.05719,-2.5282188 2.58089,-2.5282189 2.58089,-6.5312319 0,-4.055685 -2.52822,-6.689246 -2.52822,-2.686233 -6.05719,-2.686233 -3.52897,0 -5.95185,2.686233 -2.42287,2.633561 -2.42287,6.636575 z"
         style="stroke-width:1.91531718px"
         id="path3428"
         inkscape:connector-curvature="0" />
      <path
         d="m 201.80075,0.03934558 h -5.37246 V -3.7003115 q -3.4763,4.16102689 -9.32281,4.16102689 -4.37171,0 -7.26863,-2.47554769 -2.84425,-2.4755476 -2.84425,-6.5839033 0,-4.1610264 3.05494,-6.2152044 3.05493,-2.054178 8.26938,-2.054178 h 7.63733 v -1.053425 q 0,-5.58315 -6.21521,-5.58315 -3.89767,0 -8.11137,2.844247 l -2.63356,-3.686986 q 5.10911,-4.055685 11.58767,-4.055685 4.9511,0 8.0587,2.528219 3.16027,2.475548 3.16027,7.848013 z M 195.90157,-10.389557 v -2.370205 H 189.265 q -6.37322,0 -6.37322,4.0030128 0,2.0541778 1.58014,3.1602735 1.58014,1.0534246 4.37171,1.0534246 2.84425,0 4.9511,-1.5801368 2.10684,-1.5801368 2.10684,-4.2663691 z"
         style="stroke-width:1.91531718px"
         id="path3430"
         inkscape:connector-curvature="0" />
      <path
         d="m 222.49478,0.46071539 q -5.8465,0 -10.0602,-3.95034199 -4.2137,-4.0030132 -4.2137,-10.4289024 0,-6.42589 4.37171,-10.428903 4.42439,-4.055685 10.74493,-4.055685 6.32055,0 10.69226,4.371712 l -3.4763,4.266369 q -3.63431,-3.160273 -7.3213,-3.160273 -3.68699,0 -6.42589,2.475547 -2.68623,2.422877 -2.68623,6.320548 0,3.844999 2.68623,6.5312317 2.68623,2.6862326 6.5839,2.6862326 3.95035,0 7.42665,-3.5816434 l 3.4763,3.7923283 q -5.10911,5.16178019 -11.79836,5.16178019 z"
         style="stroke-width:1.91531718px"
         id="path3432"
         inkscape:connector-curvature="0" />
      <path
         d="M 246.31122,-15.129968 V 0.03934558 h -5.89917 V -38.990033 h 5.89917 v 16.117395 q 1.26411,-2.58089 3.79233,-4.055684 2.58089,-1.474795 5.53048,-1.474795 4.74041,0 7.63733,2.896918 2.94959,2.896917 2.94959,8.374725 V 0.03934558 h -5.89918 V -15.340653 q 0,-7.74267 -6.42589,-7.74267 -3.05493,0 -5.31979,2.054178 -2.26487,2.001507 -2.26487,5.899177 z"
         style="stroke-width:1.91531718px"
         id="path3434"
         inkscape:connector-curvature="0" />
      <path
         d="m 300.53543,-11.390311 h -21.9639 q 0.21069,3.0549316 2.79158,4.9510957 2.58089,1.8434929 5.89918,1.8434929 5.26712,0 8.00602,-3.3182872 l 3.37096,3.6869858 q -4.52973,4.68773919 -11.79835,4.68773919 -5.89918,0 -10.06021,-3.89767079 -4.10835,-3.950342 -4.10835,-10.5342456 0,-6.636574 4.21369,-10.534245 4.2137,-3.897671 9.90219,-3.897671 5.74117,0 9.74418,3.476301 4.00301,3.42363 4.00301,9.480821 z m -21.9639,-4.635068 h 16.06473 q 0,-3.528972 -2.21219,-5.425136 -2.2122,-1.896164 -5.47781,-1.896164 -3.21295,0 -5.79384,2.001507 -2.58089,1.948835 -2.58089,5.319793 z"
         style="stroke-width:1.91531718px"
         id="path3436"
         inkscape:connector-curvature="0" />
      <path
         d="m 334.85732,-36.777842 q 8.37473,0 12.21972,3.212945 3.845,3.212945 3.845,9.902191 0,6.689245 -3.95034,9.796848 -3.89767,3.107602 -12.00904,3.107602 h -6.53123 V 0.03934558 h -6.2152 V -36.777842 Z m 0.79007,20.383765 q 5.16178,0 7.00527,-1.948835 1.89617,-2.001507 1.89617,-5.793835 0,-3.845 -2.37021,-5.425137 -2.3702,-1.580137 -7.42664,-1.580137 h -6.32055 v 14.747944 z"
         style="stroke-width:1.91531718px"
         id="path3438"
         inkscape:connector-curvature="0" />
      <path
         d="m 363.27839,0.03934558 h -5.89918 V -27.981747 h 5.89918 z M 357.74791,-33.564897 q -1.1061,-1.106096 -1.1061,-2.633561 0,-1.527466 1.1061,-2.633562 1.10609,-1.106095 2.63356,-1.106095 1.52746,0 2.63356,1.106095 1.1061,1.106096 1.1061,2.633562 0,1.527465 -1.1061,2.633561 -1.1061,1.106096 -2.63356,1.106096 -1.52747,0 -2.63356,-1.106096 z"
         style="stroke-width:1.91531718px"
         id="path3440"
         inkscape:connector-curvature="0" />
      <path
         d="m 397.69573,-27.981747 v 24.4394492 q 0,7.4266429 -4.05568,11.1136288 -4.00301,3.739657 -10.32356,3.739657 -6.32055,0 -11.42966,-3.9503419 l 2.79158,-4.4770543 q 4.10835,3.1076024 8.26938,3.1076024 4.2137,0 6.63658,-2.1595203 2.47554,-2.1595203 2.47554,-6.8999307 v -3.5816434 q -1.31678,2.4755477 -3.79233,3.950342 -2.42287,1.4747943 -5.4778,1.4747943 -5.58315,0 -9.1648,-3.8976707 -3.58164,-3.8976708 -3.58164,-9.6915054 0,-5.793835 3.58164,-9.691506 3.58165,-3.897671 9.11213,-3.897671 5.58315,0 9.05945,4.582397 v -4.161027 z m -21.85855,12.957122 q 0,3.42363 2.10684,5.9518484 2.15952,2.4755476 5.74117,2.4755476 3.63431,0 5.8465,-2.4228764 2.26487,-2.4228766 2.26487,-6.0045196 0,-3.634315 -2.26487,-6.109862 -2.26486,-2.528219 -5.8465,-2.528219 -3.58165,0 -5.74117,2.58089 -2.10684,2.58089 -2.10684,6.057191 z"
         style="stroke-width:1.91531718px"
         id="path3442"
         inkscape:connector-curvature="0" />
    </g>
    <path
       style="opacity:1;fill:#fdfeff;fill-opacity:1;stroke:#000000;stroke-width:0.0051878;stroke-linecap:round;stroke-linejoin:bevel;stroke-miterlimit:4;stroke-dasharray:none;stroke-opacity:0.67529411"
       d="m -19.498673,32.021556 c -0.04374,-0.002 -0.04021,0.0525 -0.02248,0.07815 0.03325,0.06442 0.121802,0.08626 0.138292,0.159981 -0.0092,0.06331 -0.08273,0.08611 -0.135639,0.09966 -0.0877,0.0236 -0.200187,0.01624 -0.260393,0.09658 -0.04813,0.07882 -0.03035,0.204741 0.06234,0.242512 0.09773,0.04703 0.219695,0.02299 0.308917,0.08808 0.04356,0.04361 -0.0047,0.10371 -0.03456,0.140759 -0.01949,0.0304 -0.05735,0.05525 -0.06407,0.09164 0.0266,0.03643 0.08167,0.02104 0.120276,0.02583 0.237358,-0.0085 0.474549,-0.03369 0.708394,-0.07525 0.0867,-0.02169 0.188726,-0.03288 0.251828,-0.102879 0.0212,-0.02428 0.03343,-0.07157 -0.0023,-0.08896 -0.234747,-0.21293 -0.442144,-0.464402 -0.725454,-0.616402 -0.108742,-0.05515 -0.216696,-0.126557 -0.340501,-0.139819 z"
       id="path969"
       inkscape:connector-curvature="0" />
    <path
       style="opacity:1;fill:#fdfeff;fill-opacity:1;stroke:#000000;stroke-width:0.0051878;stroke-linecap:round;stroke-linejoin:bevel;stroke-miterlimit:4;stroke-dasharray:none;stroke-opacity:0.67529411"
       d="m -20.896413,32.639202 c -0.105244,0.0087 -0.204207,0.05357 -0.297522,0.100318 -0.02052,0.0074 -0.02511,0.03487 -0.0016,0.04259 0.09333,0.05113 0.196164,0.09066 0.302256,0.103429 0.04789,0.007 0.11574,-0.0045 0.12395,-0.06238 0.0061,-0.05935 0.0073,-0.142185 -0.05437,-0.173439 -0.02274,-0.01 -0.0482,-0.01119 -0.07268,-0.01051 z"
       id="path971"
       inkscape:connector-curvature="0" />
    <path
       style="opacity:1;fill:#fdfeff;fill-opacity:1;stroke:#000000;stroke-width:0.0051878;stroke-linecap:round;stroke-linejoin:bevel;stroke-miterlimit:4;stroke-dasharray:none;stroke-opacity:0.67529411"
       d="m -12.907413,31.239947 c -0.04552,0.0047 -0.06202,0.065 -0.03003,0.09569 0.08108,0.08771 0.206201,0.149844 0.233719,0.275151 0.02001,0.05436 -0.01412,0.124295 -0.07596,0.128749 -0.05352,0.0071 -0.12419,0.02233 -0.136952,0.0848 -0.02245,0.0622 0.01904,0.134179 0.0841,0.145116 0.04209,0.01003 0.102559,0.0043 0.121483,0.05367 0.0065,0.06769 -0.01914,0.137203 -0.0066,0.204309 0.02586,0.0558 0.09235,0.05852 0.14521,0.05237 0.169739,-0.01637 0.331534,-0.07848 0.48684,-0.1459 0.02708,-0.01736 0.07462,-0.02732 0.08095,-0.06329 -0.07164,-0.103837 -0.16488,-0.191979 -0.248846,-0.286065 -0.170079,-0.177841 -0.338412,-0.362206 -0.543245,-0.500959 -0.03384,-0.02038 -0.07029,-0.04168 -0.110679,-0.04364 z"
       id="path973"
       inkscape:connector-curvature="0" />
  </g>
</svg>
