<?xml version="1.0" encoding="UTF-8"?>
<svg version="1.1" viewBox="0 0 298.1 61.5" xmlns="http://www.w3.org/2000/svg">
	<g transform="translate(-243.8,-253.5)">
		<polygon points="301.6 266.5 304.5 278 309.2 263.1"/>
		<path d="m293 253.5c-4.3 1-10.4 2.5-15.1 3.3l3.8 4.5z"/>
		<polygon points="281.3 293.1 295.7 302.1 292.1 287.9"/>
		<polygon points="282.9 262.8 288.4 269.4 294.6 254.7"/>
		<polygon points="272.8 281.2 285.4 272.2 268 273.8"/>
		<polygon points="285.8 309 295.7 304 281.2 294.9"/>
		<polygon points="271.3 282.3 266.5 274.8 255.6 293.5"/>
		<polygon points="291.6 286.1 288.5 273.9 281.2 291.1"/>
		<polygon points="290.2 273 293.3 285.3 302.5 280.9"/>
		<polygon points="286.6 273.6 273.8 282.7 279.2 291 279.4 290.6 279.4 290.7"/>
		<polygon points="302.9 279.2 299.9 267.2 290.6 271.3"/>
		<polygon points="281.4 263.9 269.8 272 286.8 270.4"/>
		<polygon points="272.3 283.8 256.3 295.3 277.8 292.3"/>
		<polygon points="280.2 262.5 276.4 257.9 269.3 270.1"/>
		<polygon points="301.2 264.7 309 261.2 298.4 253.8"/>
		<polygon points="297.3 301.2 303.1 282.6 293.7 287.1"/>
		<polygon points="290.4 269.4 299.4 265.4 296.7 254.5"/>
		<polygon points="287.4 313.9 293.5 313.9 295.9 305.9 286.4 310.8"/>
		<polygon points="264 313.9 260.1 308.4 252.7 313.9"/>
		<polygon points="260.5 305.8 276.1 294.2 254.4 297.2"/>
		<polygon points="285.5 313.9 284.7 311.6 280.2 313.9"/>
		<polygon points="243.8 313.9 249.6 313.9 259 306.9 252.9 298.2"/>
		<polygon points="266.2 313.9 269.5 313.9 277.4 295.5 261.6 307.3"/>
		<polygon points="271.8 313.9 276.2 313.9 284.2 309.8 279.4 295.4"/>
	</g>
	<g transform="translate(-243.8,-253.5)" fill="#4d6977">
		<path d="m330.1 303.8h6.4v-36.2h-6.4v-10.3h43.8v16.8h-11.9v-5.6h-11.3v11.5h16.6v11.1h-16.6v11.9h12.2v-5.6h11.9v16.8h-44.8v-10.4z"/>
		<path d="m381.9 304.2h5.2v-21.1h-5.6v-9.9h19.3v31h5.2v9.9h-24.1zm5.4-46.9h13.4v10.7h-13.4z"/>
		<path d="m411.6 304.2h5.2v-21.1h-5.6v-9.9h5.6v-1.7c0-13.4 11.8-15.2 18.1-15.2 2.8 0 4.9 0.3 4.9 0.3v10.8s-1-0.2-3.3-0.2c-2 0-5.9 0.1-5.9 4v2h8.4v9.9h-8.4v21.1h6v9.9h-25z"/>
		<path d="m443.5 304.2h5.2v-21.1h-5.6v-9.9h5.6v-1.7c0-13.4 11.8-15.2 18.1-15.2 2.8 0 4.9 0.3 4.9 0.3v10.8s-1-0.2-3.3-0.2c-2 0-5.9 0.1-5.9 4v2h8.4v9.9h-8.4v21.1h6v9.9h-25z"/>
		<path d="m496.3 272.2c12.2 0 19.1 8.4 19.1 19.8 0 1.4-0.3 4.1-0.3 4.1h-26c1 5.2 5.2 7.6 9.5 7.6 6 0 11.5-3.9 11.5-3.9l5 9.5s-6.6 5.7-17.7 5.7c-14.6 0-22.5-10.6-22.5-21.5 0.1-11.9 8.2-21.3 21.4-21.3zm4.8 16.4c0-3.3-2.1-6-5.2-6-4 0-5.9 2.9-6.6 6z"/>
		<path d="m522.7 267.2h-5.6v-9.9h19.3v41c0 3.9 0.7 5.2 3.8 5.2 0.9 0 1.7-0.1 1.7-0.1v10.9s-1.9 0.2-4.1 0.2c-7.3 0-15.1-1.8-15.1-15.5z"/>
	</g>
</svg>
