<?xml version="1.0" encoding="UTF-8"?>
<svg height="273.4" width="512" xmlns="http://www.w3.org/2000/svg">
 <metadata/>
 <path d="m160.386 183.788c-6.29852-5.73609-11.3129-12.3292-14.974-19.6266 39.4666-19.889 89.2998-41.3403 152.137-63.3398 2.845 10.4012 3.40594 23.1162 2.85302 36.6393-51.4114 10.4498-100.371 29.3109-140.016 46.3272zm65.3533-183.788c82.2811.52803 133.593 46.7719 142.981 107.49 7.95382 88.0314-57.001 143.876-163.292 143.064-65.4802.66528-116.713-24.05-131.851-85.863-21.5477-92.3322 49.8303-163.002 152.162-164.691zm-9.66583 216.226c52.8444-2.76916 99.7553-30.0755 96.6714-88.6407.53156-50.5245-26.1461-88.3807-96.1414-90.6794-54.1383 0-90.5126 38.291-90.5126 95.2831.0819 46.2203 37.2448 84.2254 89.9825 84.037zm-139.584-12.7021c-63.3311 41.6123-76.4897 69.7547-76.4897 69.7547l90.6499-50.7425c-5.34946-5.68646-10.0505-12.0001-14.1602-19.0122zm277.459 69.875h48.9996c24.0543-17.7793 48.041-43.403 72.0046-71.7209 34.4012-37.5125 56.3863-103.188 12.862-121.099-24.9984-12.6446-93.4275-4.77368-113.924-1.54443 6.03788 15.9202 9.39866 35.2446 7.60773 55.9436 38.808 9.68932 40.462 39.3754 26.2878 65.0797-16.6754 30.24-37.6753 59.7321-53.8381 73.3413z" fill="#1a1a1a"/>
</svg>
