<?xml version="1.0" encoding="UTF-8" standalone="no"?>
<!-- Created with Inkscape (http://www.inkscape.org/) -->
<svg
   xmlns:svg="http://www.w3.org/2000/svg"
   xmlns="http://www.w3.org/2000/svg"
   version="1.0"
   width="1322"
   height="873"
   id="svg2">
  <defs
     id="defs6" />
  <g
     transform="translate(50,50)"
     id="g2383">
    <path
       d="M 672.83331,771.9378 C 671.79863,771.6357 670.45664,770.9316 669.77561,770.3333 C 667.73926,768.5456 666.50207,764.839 666.50062,760.5213 C 666.49824,753.4619 669.18078,748.1187 673.89821,745.7861 C 675.94933,744.7721 677.54493,744.4321 680.24998,744.433 C 682.33113,744.4336 682.72742,744.4817 683.91665,744.8775 C 684.64996,745.1219 685.61345,745.5523 686.05772,745.834 L 686.86548,746.3463 L 688.33867,745.4405 C 689.14899,744.9418 689.84286,744.5651 689.88054,744.6029 C 689.91837,744.6407 689.91274,749.4154 689.86816,755.2133 C 689.77715,767.0339 689.78838,767.1787 690.86989,768.0883 C 691.34136,768.4853 691.50591,768.5286 692.24438,768.4502 C 692.70575,768.4012 693.68197,768.1697 694.41374,767.9362 C 695.14543,767.7022 695.79586,767.5646 695.85906,767.6304 C 695.92233,767.6962 696.02104,768.0123 696.07849,768.3333 L 696.18296,768.9165 L 694.21645,770.0097 C 691.36647,771.5937 690.27677,772.0365 689.00696,772.1274 C 686.86412,772.2808 685.85047,771.3372 685.42312,768.7915 C 685.3654,768.448 685.28916,768.1665 685.25364,768.1665 C 685.21811,768.1665 684.56524,768.5473 683.80282,769.0121 C 681.99254,770.1165 680.07169,771.039 678.4167,771.5987 C 676.8246,772.1372 674.08497,772.3037 672.83331,771.9378 z M 681.59091,767.8594 C 682.2284,767.5636 683.33421,766.9307 684.04824,766.4523 L 685.3464,765.5835 L 685.29822,757.3332 C 685.24477,748.1942 685.28786,748.5548 684.13099,747.5768 C 683.08284,746.6909 682.23795,746.4241 680.49999,746.4305 C 679.24378,746.4352 678.728,746.5144 678.00348,746.8143 C 676.80255,747.3108 675.1672,748.49 674.42839,749.3917 C 672.70961,751.489 671.67118,755.8852 671.88319,760.1668 C 672.17349,766.0292 674.40398,768.5895 679.09087,768.4396 C 680.19484,768.4043 680.63667,768.3017 681.59091,767.8594 z M 632.66666,770.8951 C 632.66666,770.559 633.16336,769.9444 634.79166,768.2654 C 642.64161,760.1716 647.42575,754.2776 649.52315,750.1173 C 651.80057,745.5993 652.30649,740.2496 650.75598,737.0807 C 650.1937,735.9315 648.96966,734.7546 647.67194,734.1157 C 646.69489,733.6349 646.4432,733.5833 645.06868,733.5833 C 643.56804,733.5833 643.52272,733.5954 641.79034,734.4567 C 640.82415,734.9367 639.41457,735.7992 638.65794,736.3731 C 637.90128,736.9473 637.15086,737.5148 636.99034,737.6349 C 636.73461,737.8259 636.64153,737.7784 636.23832,737.2494 L 635.77814,736.6462 L 637.09487,735.3218 C 642.92057,729.4614 650.20954,728.329 654.48287,732.6195 C 656.32387,734.4682 657.10404,736.6658 656.95499,739.5832 C 656.84549,741.726 656.29243,743.5391 654.89854,746.3244 C 652.8123,750.4929 648.92933,755.8758 642.72108,763.2059 C 641.49946,764.6481 640.49998,765.8961 640.49998,765.9795 C 640.49998,766.0629 640.61862,766.1766 640.7636,766.2323 C 640.90862,766.288 645.22112,766.3335 650.34696,766.3335 C 657.24476,766.3335 659.66665,766.3832 659.66665,766.5243 C 659.66665,766.6295 659.39921,767.6234 659.07237,768.7331 C 658.74555,769.8422 658.44047,770.8814 658.39447,771.0419 C 658.31578,771.3161 657.55731,771.3332 645.48876,771.3332 L 632.66666,771.3332 L 632.66666,770.8951 z M 357.80237,731.6608 C 356.26153,730.8471 355.07848,729.1553 351.97513,723.3272 C 351.04946,721.589 350.27157,720.1665 350.24651,720.1665 C 350.03275,720.1665 346.47883,726.1071 344.91189,729.0834 C 344.28454,730.2749 343.69145,731.3051 343.59395,731.3725 C 343.24176,731.6158 342.66478,731.4904 341.799,730.9822 C 341.31369,730.6977 340.88895,730.4386 340.85512,730.4068 C 340.6862,730.2482 344.13132,725.1659 347.35908,720.8117 C 348.35325,719.4704 349.16666,718.2747 349.16666,718.154 C 349.16666,717.7792 346.0289,712.0019 344.90876,710.3141 C 344.32383,709.4326 343.58103,708.4797 343.25812,708.1962 C 342.06975,707.1527 340.61881,707.1675 338.80733,708.2416 L 337.86466,708.8004 L 337.31732,708.3437 L 336.76994,707.8865 L 338.00996,707.0123 C 340.74033,705.088 342.64173,704.1659 343.87679,704.1676 C 346.2162,704.1706 347.12124,705.1829 350.58246,711.6665 C 351.38986,713.179 352.06778,714.4392 352.08896,714.4666 C 352.11013,714.494 352.53769,713.9308 353.03906,713.2152 C 355.49909,709.7048 360.35038,704.3284 361.04872,704.339 C 361.25701,704.3421 361.87418,704.7579 362.47117,705.2977 L 363.5257,706.2506 L 361.77087,707.8069 C 359.86632,709.4958 354.37018,715.037 353.60715,716.0375 L 353.13554,716.6556 L 354.73508,719.5605 C 358.06872,725.6147 359.81169,727.6672 361.61966,727.6667 C 362.27632,727.6665 363.90967,726.8475 365.0815,725.9308 L 366.07968,725.1501 L 366.37974,725.8566 L 366.67982,726.5631 L 365.29825,727.9604 C 363.75927,729.517 361.59957,731.2247 360.58332,731.6883 C 359.7211,732.082 358.57813,732.0706 357.80237,731.6608 z M 387.05753,723.3749 C 387.10154,723.2144 387.22657,722.6895 387.3354,722.2085 L 387.53324,721.3334 L 406.95112,721.3334 C 422.41693,721.3334 426.35273,721.3758 426.28909,721.542 C 426.24514,721.6561 426.11266,722.1813 425.99473,722.7083 L 425.78026,723.6667 L 406.3789,723.6667 C 387.98203,723.6667 386.98168,723.6516 387.05753,723.3749 z M 451.33332,716.5833 L 451.33332,715.3335 L 664.41664,715.3335 L 877.49997,715.3335 L 877.49997,716.5833 L 877.49997,717.8332 L 664.41664,717.8332 L 451.33332,717.8332 L 451.33332,716.5833 z M 387.05753,711.875 C 387.10154,711.7144 387.22657,711.1896 387.3354,710.7086 L 387.53324,709.8334 L 406.95112,709.8334 C 422.41693,709.8334 426.35273,709.8758 426.28909,710.0416 C 426.24514,710.1561 426.11266,710.6815 425.99473,711.2084 L 425.78026,712.1669 L 406.3789,712.1669 C 387.98203,712.1669 386.98168,712.1517 387.05753,711.875 z M 622.27288,697.2083 C 622.05317,696.7731 619.38215,690.9416 616.33723,684.25 C 613.2923,677.5583 610.75059,671.9925 610.689,671.8812 C 610.61351,671.7449 610.04752,672.083 608.95395,672.9176 C 608.06132,673.599 607.19185,674.2308 607.02184,674.3218 C 606.62345,674.5348 606.1067,674.1828 606.1902,673.7549 C 606.28042,673.2926 613.12106,668.1367 613.56095,668.1994 C 613.85823,668.2417 614.79154,670.1734 619.24245,679.9582 C 622.17164,686.3979 624.60913,691.6665 624.65913,691.6665 C 624.70907,691.6665 630.33146,680.1104 637.15323,665.9866 C 643.97501,651.8626 649.69922,640.125 649.87369,639.9032 L 650.19087,639.5001 L 763.84539,639.5001 L 877.49997,639.5001 L 877.49997,640.7499 L 877.49997,641.9997 L 764.37803,642.0415 L 651.25603,642.0833 L 637.89415,669.7329 C 630.54512,684.9399 624.41324,697.5213 624.26776,697.691 C 624.09219,697.8961 623.77948,698 623.33774,698 C 622.711,698 622.64901,697.9538 622.27288,697.2083 z M 860.40032,692.677 C 855.67712,691.9303 852.95048,688.3332 852.05452,681.6666 C 851.50794,677.5995 852.24194,673.5754 854.12185,670.3335 C 854.89454,669.0008 857.0897,666.7794 858.39036,666.0138 C 861.24974,664.331 865.7903,663.4388 868.53345,664.0207 C 869.73925,664.2767 870.87921,664.8792 871.68879,665.6889 C 872.402,666.402 873.24351,668.0164 873.41476,669.0001 C 873.51227,669.5599 873.45333,669.646 871.95307,671.1354 C 870.54294,672.5352 870.34489,672.676 869.93154,672.5722 C 869.42118,672.444 869.37239,672.3496 868.76432,670.3119 C 868.19244,668.3953 867.50404,667.3958 866.3333,666.7808 C 865.48408,666.3349 865.316,666.3055 864.04836,666.3809 C 859.08876,666.6758 856.15252,671.9337 856.83075,679.3055 C 857.2744,684.128 858.81676,686.9024 861.83332,688.3047 C 863.0546,688.8722 865.84876,689.0136 867.49998,688.5911 C 868.95079,688.2201 871.00804,687.1875 872.33333,686.1653 C 872.92916,685.706 873.61545,685.1811 873.85835,684.9989 L 874.30006,684.6675 L 874.70839,685.3589 L 875.11672,686.0505 L 873.68332,687.3679 C 871.00323,689.8308 867.90914,691.6597 865.30241,692.3219 C 863.79063,692.7062 861.59211,692.8655 860.40032,692.677 z M 507.55362,692.0907 C 505.66139,691.5549 504.2304,690.6074 503.6811,689.5256 C 502.95236,688.0906 502.91423,687.4403 502.96143,677.25 C 502.98606,671.9334 502.93919,665.1327 502.85725,662.1373 C 502.6612,654.9683 502.63201,654.8987 499.65715,654.5052 C 496.99499,654.1535 497.16665,654.2298 497.16665,653.3982 C 497.16665,652.9257 497.24048,652.6656 497.37499,652.6635 C 497.48959,652.6616 499.86795,652.4023 502.66026,652.0874 C 505.45256,651.7727 507.76768,651.5454 507.80495,651.5827 C 507.84217,651.62 507.74448,653.3229 507.5878,655.3669 C 507.43111,657.411 507.26186,661.3185 507.21164,664.0506 L 507.12037,669.0178 L 508.51589,668.0183 C 512.65056,665.0569 516.60447,663.8372 519.86678,664.5174 C 522.12925,664.9894 524.28301,666.6081 525.21144,668.5344 C 526.05916,670.2933 526.24862,671.3378 526.23315,674.1667 C 526.21173,678.0838 525.55468,681.1093 524.11577,683.9166 C 523.59066,684.9413 523.08255,685.5974 521.92199,686.7502 C 519.42531,689.2294 516.39346,691.0409 513.41664,691.8315 C 511.6603,692.2977 508.74189,692.4267 507.55362,692.0907 z M 514.53344,689.3157 C 516.5301,688.8996 518.672,687.4566 519.70171,685.8341 C 520.36924,684.7822 521.09819,682.3797 521.34197,680.4284 C 521.72313,677.3771 521.29723,672.769 520.47443,671.0418 C 520.01842,670.0845 518.48081,668.7468 517.3408,668.3152 C 514.86652,667.379 510.66258,668.6726 507.96569,671.2006 L 507.20164,671.9168 L 507.08011,675.3859 C 506.79235,683.5974 507.5725,686.7225 510.38991,688.6441 C 511.65064,689.5042 512.76432,689.6848 514.53344,689.3157 z M 662.5536,692.0907 C 660.66138,691.5549 659.2304,690.6074 658.68108,689.5256 C 657.95235,688.0906 657.91422,687.4403 657.96144,677.25 C 657.98606,671.9334 657.93919,665.1327 657.85727,662.1373 C 657.66119,654.9683 657.63201,654.8987 654.65714,654.5052 C 651.99499,654.1535 652.16665,654.2298 652.16665,653.3982 C 652.16665,652.9257 652.24048,652.6656 652.37499,652.6635 C 652.48959,652.6616 654.86793,652.4023 657.66026,652.0874 C 660.45259,651.7727 662.76768,651.5454 662.80494,651.5827 C 662.84217,651.62 662.74446,653.3229 662.5878,655.3669 C 662.4311,657.411 662.26186,661.3185 662.21163,664.0506 L 662.12037,669.0178 L 663.51588,668.0183 C 667.65059,665.0569 671.60447,663.8372 674.86678,664.5174 C 677.12922,664.9894 679.28296,666.6081 680.21141,668.5344 C 681.05914,670.2933 681.24861,671.3378 681.23318,674.1667 C 681.21173,678.0838 680.55466,681.1093 679.11577,683.9166 C 678.59065,684.9413 678.08258,685.5974 676.92197,686.7502 C 674.42531,689.2294 671.39345,691.0409 668.41664,691.8315 C 666.6603,692.2977 663.74192,692.4267 662.5536,692.0907 z M 669.53344,689.3157 C 671.53009,688.8996 673.672,687.4566 674.70171,685.8341 C 675.36924,684.7822 676.09822,682.3797 676.34195,680.4284 C 676.72311,677.3771 676.29723,672.769 675.47443,671.0418 C 675.01841,670.0845 673.48081,668.7468 672.3408,668.3152 C 669.86652,667.379 665.66257,668.6726 662.96567,671.2006 L 662.20167,671.9168 L 662.08009,675.3859 C 661.79234,683.5974 662.57249,686.7225 665.38991,688.6441 C 666.65062,689.5042 667.76432,689.6848 669.53344,689.3157 z M 824.83334,692.1048 C 823.79859,691.8022 822.45665,691.0981 821.77557,690.5002 C 819.73929,688.7122 818.50203,685.0055 818.50061,680.688 C 818.49824,673.6288 821.18076,668.2854 825.8982,665.9528 C 827.9493,664.9388 829.54496,664.5986 832.25001,664.5995 C 834.33114,664.6002 834.72744,664.6483 835.91666,665.0445 C 836.64998,665.2884 837.61348,665.719 838.05775,666.0006 L 838.86549,666.5131 L 840.33868,665.607 C 841.14893,665.1087 841.8428,664.7317 841.88057,664.7694 C 841.91838,664.8073 841.91271,669.5821 841.86811,675.38 C 841.7771,687.2004 841.78841,687.3452 842.86985,688.2554 C 843.34131,688.6518 843.50594,688.6952 844.24439,688.6167 C 844.70578,688.5678 845.682,688.3365 846.4137,688.1027 C 847.14546,687.8688 847.79582,687.7311 847.85909,687.797 C 847.92234,687.8628 848.02106,688.1793 848.07851,688.4999 L 848.18291,689.0835 L 846.21646,690.1762 C 843.36641,691.7602 842.27679,692.2033 841.00699,692.2941 C 838.86414,692.4474 837.8505,691.5039 837.42315,688.9585 C 837.36543,688.6145 837.28917,688.3333 837.25358,688.3333 C 837.21806,688.3333 836.5652,688.7138 835.80279,689.1788 C 833.99249,690.283 832.07172,691.2055 830.41664,691.7653 C 828.82463,692.3037 826.08495,692.4703 824.83334,692.1048 z M 833.59086,688.0259 C 834.22837,687.7302 835.33416,687.0972 836.0482,686.6193 L 837.34641,685.75 L 837.29818,677.5 C 837.2448,668.3607 837.28789,668.7214 836.13094,667.7434 C 835.0828,666.8575 834.23798,666.591 832.50002,666.5975 C 831.24381,666.6022 830.72796,666.6813 830.00344,666.9808 C 828.80258,667.4777 827.16718,668.6564 826.42839,669.5582 C 824.70959,671.6557 823.67117,676.0518 823.88317,680.3334 C 824.17351,686.1957 826.40396,688.756 831.09089,688.6061 C 832.19479,688.5709 832.63662,688.4682 833.59086,688.0259 z M 800.87528,691.787 C 800.7794,691.6633 800.76797,690.7981 800.84611,689.5834 C 800.91682,688.4832 800.98036,685.9897 800.98733,684.0416 L 800.99997,680.5002 L 792.49998,680.5002 L 783.99998,680.5002 L 784.00018,679.2082 L 784.00033,677.9166 L 792.33163,665.2499 L 800.66289,652.5835 L 802.8642,651.5595 C 804.07494,650.9964 805.16326,650.5731 805.28276,650.6189 C 805.45882,650.6864 805.49995,653.2874 805.49995,664.3512 L 805.49995,678 L 808.68446,678 C 811.16567,678 811.85048,678.0461 811.78519,678.2086 C 811.73905,678.3229 811.4962,678.8855 811.24552,679.4583 L 810.78974,680.5002 L 808.12503,680.5002 L 805.46024,680.5002 L 805.52654,685.3006 L 805.59286,690.1009 L 803.92141,690.7878 C 803.00209,691.1659 801.97614,691.5909 801.64155,691.7328 C 801.16717,691.9339 800.99828,691.9458 800.87528,691.787 z M 800.99997,667.5 C 800.99997,657.2389 800.99267,657 800.67838,657 C 800.06191,657 797.35065,660.7077 794.46291,665.5 C 792.21384,669.2323 787.66664,677.5215 787.66664,677.8888 C 787.66664,677.95 790.66669,678 794.33334,678 L 800.99997,678 L 800.99997,667.5 z M 547,691.4508 C 546.64975,691.2738 546.58332,691.1222 546.58332,690.5001 C 546.58332,689.8778 546.64975,689.7264 547,689.5491 C 547.31989,689.3871 549.43879,689.3376 556.12498,689.3357 L 564.83331,689.3333 L 564.83331,681.3335 L 564.83331,673.3334 L 556.12498,673.3309 C 549.43879,673.3291 547.31989,673.2795 547,673.1175 C 546.64975,672.9405 546.58332,672.789 546.58332,672.1667 C 546.58332,671.5444 546.64975,671.3929 547,671.2158 C 547.31989,671.0539 549.43879,671.0043 556.12498,671.0025 L 564.83331,671 L 564.83331,662.3223 C 564.83331,653.6612 564.86359,653.1524 565.39994,652.7941 C 565.75538,652.557 566.45197,652.6708 566.76581,653.0173 C 567.06836,653.3517 567.08549,653.7839 567.12927,662.1838 L 567.17521,671 L 575.79592,671.0025 C 582.41151,671.0043 584.51355,671.054 584.83333,671.2158 C 585.18355,671.3929 585.24998,671.5444 585.24998,672.1667 C 585.24998,672.789 585.18355,672.9405 584.83333,673.1175 C 584.51355,673.2794 582.41067,673.3291 575.79167,673.3309 L 567.16664,673.3334 L 567.16664,681.3335 L 567.16664,689.3333 L 575.79167,689.3357 C 582.41067,689.3376 584.51355,689.3872 584.83333,689.5491 C 585.18355,689.7264 585.24998,689.8778 585.24998,690.5001 C 585.24998,691.1222 585.18355,691.2738 584.83333,691.4508 C 584.50483,691.6171 580.5013,691.6617 565.91664,691.6617 C 551.332,691.6617 547.32847,691.6171 547,691.4508 z M 454.6485,676.7085 L 455.10955,675.5833 L 473.98953,675.541 C 489.07322,675.5071 492.85345,675.5406 492.78952,675.7077 C 492.74556,675.8227 492.57367,676.3479 492.40765,676.8748 L 492.10579,677.8333 L 473.14661,677.8333 L 454.18743,677.8333 L 454.6485,676.7085 z M 729.81515,676.7085 L 730.2762,675.5833 L 749.15624,675.541 C 764.23986,675.5071 768.02012,675.5406 767.95618,675.7077 C 767.9122,675.8227 767.74033,676.3479 767.57429,676.8748 L 767.27246,677.8333 L 748.31331,677.8333 L 729.3541,677.8333 L 729.81515,676.7085 z M 687.01189,674.125 C 687.01994,673.8705 687.48201,673.3483 688.44957,672.5 C 690.91393,670.3394 696.59685,664.5621 698.08473,662.7051 C 700.65945,659.4912 701.98935,656.1281 701.78385,653.3507 C 701.65868,651.658 701.277,650.6438 700.4422,649.7861 C 699.35745,648.6715 698.36309,648.2712 696.64902,648.2596 C 695.24523,648.2501 695.1773,648.2685 693.45255,649.1256 C 692.48336,649.6074 691.35692,650.2559 690.94933,650.5669 L 690.20836,651.1328 L 689.78656,650.7108 L 689.36482,650.2892 L 690.47407,649.3192 C 696.00637,644.482 703.40544,644.5102 705.58936,649.3767 C 707.29537,653.1782 705.26072,657.4665 697.88586,665.6133 C 696.82196,666.7884 695.3156,668.3982 694.53837,669.1907 C 693.7361,670.0087 693.17444,670.711 693.23913,670.8157 C 693.31958,670.9458 695.55797,671 700.86103,671 C 707.94303,671 708.3626,671.0166 708.25705,671.2918 C 708.19548,671.4519 707.94526,672.2395 707.70108,673.0415 L 707.25715,674.4999 L 697.12854,674.4999 L 686.99997,674.4999 L 687.01189,674.125 z M 679.57695,510.5993 C 678.29869,510.3065 676.64747,509.5591 675.38707,508.7032 C 673.8424,507.6541 673.83992,507.8194 675.43165,505.705 C 677.14106,503.4343 677.28518,503.3907 678.24996,504.8529 C 680.39471,508.1035 683.611,508.9958 687.03659,507.2909 C 689.24208,506.1931 690.80778,503.9904 691.59874,500.8722 C 691.98591,499.3461 692.46799,495.5792 692.29789,495.409 C 692.25127,495.3624 691.43386,495.7886 690.48152,496.3563 C 688.43718,497.5746 686.3231,498.5872 684.25,499.3412 C 682.92939,499.8215 682.54067,499.8883 681.00002,499.9001 C 679.51207,499.9116 679.12517,499.8567 678.4167,499.5322 C 677.25711,499.0014 676.23349,497.9481 675.83047,496.8708 C 675.05844,494.8074 674.92777,493.2005 674.97355,486.3333 C 675.01813,479.6425 674.91126,478.0178 674.34187,476.7305 C 673.97492,475.901 673.18017,475.3348 672.38115,475.3339 C 671.72158,475.3331 670.42131,475.8348 669.14725,476.5814 L 668.1857,477.1451 L 667.84418,476.6142 L 667.50266,476.0833 L 667.86007,475.7859 C 668.57599,475.1906 671.28798,473.5914 672.79554,472.8755 C 675.12691,471.7687 676.60493,471.742 677.84353,472.7842 C 679.09223,473.8348 679.19304,474.5673 679.23823,482.9166 C 679.26922,488.6425 679.32702,490.1897 679.55578,491.4167 C 679.95714,493.5689 680.24457,494.2268 681.12024,494.9977 C 683.29888,496.9153 686.87041,496.424 691.02491,493.6347 L 692.29972,492.7787 L 692.42333,489.8477 C 692.53268,487.254 692.33064,479.3897 692.05464,475.5001 L 691.966,474.25 L 694.23829,473.1232 C 695.94236,472.2781 696.61471,472.0225 696.92704,472.1008 C 697.23983,472.1793 697.31893,472.2828 697.2447,472.5167 C 697.19038,472.6877 697.07759,477.5354 696.99402,483.289 C 696.83271,494.3961 696.77473,495.2435 695.91367,499.0833 C 695.12303,502.609 694.31637,504.305 692.52936,506.1992 C 690.70317,508.1352 688.15199,509.6426 685.50351,510.3505 C 683.86712,510.7879 680.93661,510.9109 679.57695,510.5993 z M 897.24365,510.5993 C 895.96539,510.3065 894.31411,509.5591 893.05371,508.7032 C 891.50906,507.6541 891.50662,507.8194 893.09829,505.705 C 894.8077,503.4343 894.95182,503.3907 895.91668,504.8529 C 898.06141,508.1035 901.27764,508.9958 904.70323,507.2909 C 906.90872,506.1931 908.47442,503.9904 909.26538,500.8722 C 909.65255,499.3461 910.13463,495.5792 909.96459,495.409 C 909.91791,495.3624 909.10048,495.7886 908.14822,496.3563 C 906.10382,497.5746 903.9898,498.5872 901.91664,499.3412 C 900.59603,499.8215 900.20737,499.8883 898.66666,499.9001 C 897.17871,499.9116 896.79181,499.8567 896.08332,499.5322 C 894.92381,499.0014 893.90016,497.9481 893.49709,496.8708 C 892.72514,494.8074 892.59442,493.2005 892.64022,486.3333 C 892.68482,479.6425 892.5779,478.0178 892.00854,476.7305 C 891.64161,475.901 890.84679,475.3348 890.04784,475.3339 C 889.3882,475.3331 888.08795,475.8348 886.81387,476.5814 L 885.85233,477.1451 L 885.51085,476.6142 L 885.16936,476.0833 L 885.52676,475.7859 C 886.24262,475.1906 888.95463,473.5914 890.4622,472.8755 C 892.79361,471.7687 894.27161,471.742 895.51017,472.7842 C 896.75887,473.8348 896.85968,474.5673 896.90487,482.9166 C 896.93586,488.6425 896.99366,490.1897 897.2224,491.4167 C 897.62378,493.5689 897.91121,494.2268 898.78696,494.9977 C 900.96552,496.9153 904.53705,496.424 908.69155,493.6347 L 909.96643,492.7787 L 910.08997,489.8477 C 910.19932,487.254 909.99728,479.3897 909.72135,475.5001 L 909.63264,474.25 L 911.90493,473.1232 C 913.60906,472.2781 914.28135,472.0225 914.59366,472.1008 C 914.90647,472.1793 914.98557,472.2828 914.91142,472.5167 C 914.857,472.6877 914.74422,477.5354 914.66066,483.289 C 914.49935,494.3961 914.44136,495.2435 913.58031,499.0833 C 912.78967,502.609 911.98307,504.305 910.196,506.1992 C 908.36987,508.1352 905.81863,509.6426 903.17015,510.3505 C 901.53374,510.7879 898.60331,510.9109 897.24365,510.5993 z M 926.17214,510.0548 C 926.17715,509.6273 926.31484,509.5181 927.65123,508.8818 C 929.37139,508.063 930.7274,506.9035 931.39123,505.6839 C 933.37007,502.0481 934.32119,493.9236 934.11528,482.4168 C 933.86954,468.69 931.75666,461.2712 927.24898,458.3075 C 926.27864,457.6696 926.16667,457.5389 926.16667,457.0449 C 926.16667,456.5277 926.19495,456.5005 926.62501,456.6049 C 927.52699,456.8239 928.76724,457.4654 929.80239,458.2484 C 934.62477,461.896 937.169,470.7262 937.16589,483.8048 C 937.16364,493.1269 936.03404,500.6158 934.00655,504.75 C 933.07797,506.6434 932.09065,507.8528 930.74384,508.7469 C 929.85219,509.3386 927.84495,510.166 926.7083,510.4102 C 926.19664,510.5201 926.16694,510.5004 926.17214,510.0548 z M 573.74781,510.0336 C 572.35154,509.5507 571.31436,508.8477 569.90436,507.4284 C 567.72278,505.2324 566.63873,503.0621 565.7777,499.1666 C 564.74694,494.5034 564.41975,490.6693 564.42656,483.3334 C 564.43282,476.5771 564.62281,474.2054 565.51458,469.75 C 566.98396,462.4089 569.57028,458.4127 573.97604,456.6761 L 574.83331,456.3381 L 574.83331,456.9169 C 574.83331,457.417 574.73683,457.5565 574.125,457.9413 C 569.6191,460.7752 567.32902,469.5068 567.33494,483.8304 C 567.33933,494.4891 568.55792,502.3837 570.71352,505.719 C 571.53572,506.991 573.3756,508.8367 574.20831,509.2244 C 574.68156,509.445 574.83331,509.615 574.83331,509.9244 C 574.83331,510.406 574.82674,510.4067 573.74781,510.0336 z M 737.3333,494.8312 L 737.3333,485.3332 L 728.25,485.3332 C 723.25412,485.3332 719.16668,485.2744 719.16668,485.2023 C 719.16668,485.1302 719.3399,484.6239 719.55162,484.0773 L 719.9366,483.0833 L 728.6335,483.0401 L 737.33039,482.9971 L 737.3735,474.1394 L 737.41667,465.2817 L 738.24999,464.9985 C 738.70833,464.8429 739.25206,464.6619 739.45828,464.5965 L 739.83334,464.4774 L 739.83334,473.7388 L 739.83334,483 L 748.85115,483 C 755.99684,483 757.85247,483.0432 757.78926,483.2084 C 757.74541,483.323 757.5737,483.8479 757.40765,484.375 L 757.10575,485.3332 L 748.46955,485.3332 L 739.83334,485.3332 L 739.83334,494.3139 C 739.83334,502.7235 739.8148,503.2999 739.54164,503.3789 C 739.38122,503.4254 738.81875,503.6581 738.29166,503.8961 L 737.3333,504.3292 L 737.3333,494.8312 z M 288.84313,499.9184 C 285.06108,499.0596 282.89106,496.1663 281.89137,490.6502 C 281.51162,488.5548 281.50795,484.0641 281.88462,482.3974 C 282.66129,478.9609 284.21191,476.5668 286.99999,474.5001 C 290.90284,471.6068 296.62305,470.6703 300.16441,472.3452 C 302.57899,473.4871 304.32546,476.362 304.33134,479.2045 C 304.33301,480.0146 304.27661,480.1947 303.95834,480.3946 C 303.75207,480.5243 299.69746,482.3001 294.94805,484.3411 L 286.31278,488.0518 L 286.427,488.7279 C 286.77874,490.8097 287.77144,492.7894 289.15797,494.1741 C 290.20906,495.2237 291.13764,495.7126 292.64271,496.0086 C 295.38775,496.5486 298.2518,495.643 302.19839,492.9869 L 303.64678,492.0121 L 304.166,492.7144 L 304.68521,493.4167 L 304.13425,493.8934 C 300.6684,496.8927 297.3885,498.8933 294.66666,499.6679 C 293.02894,500.134 290.30811,500.2511 288.84313,499.9184 z M 293,483.1196 C 295.88749,481.9774 298.42075,480.9901 298.62942,480.9256 C 300.12356,480.463 299.56004,477.434 297.60784,475.4344 C 295.89456,473.6797 293.80371,473.3874 291.41353,474.5686 C 288.42066,476.0478 286.48246,479.6147 286.21656,484.1326 L 286.11557,485.8486 L 286.93278,485.5224 C 287.38225,485.3429 290.11249,484.2618 293,483.1196 z M 509.84311,499.9184 C 506.06107,499.0596 503.89104,496.1663 502.89137,490.6502 C 502.51161,488.5548 502.50796,484.0641 502.88462,482.3974 C 503.66127,478.9609 505.21192,476.5668 507.99999,474.5001 C 511.90285,471.6068 517.62304,470.6703 521.16441,472.3452 C 523.57899,473.4871 525.32545,476.362 525.33133,479.2045 C 525.33303,480.0146 525.27661,480.1947 524.95833,480.3946 C 524.75206,480.5243 520.69744,482.3001 515.94805,484.3411 L 507.31276,488.0518 L 507.42698,488.7279 C 507.77875,490.8097 508.77143,492.7894 510.15798,494.1741 C 511.20905,495.2237 512.13764,495.7126 513.64271,496.0086 C 516.38775,496.5486 519.25178,495.643 523.19837,492.9869 L 524.64678,492.0121 L 525.16599,492.7144 L 525.68521,493.4167 L 525.13425,493.8934 C 521.6684,496.8927 518.38849,498.8933 515.66666,499.6679 C 514.02893,500.134 511.30812,500.2511 509.84311,499.9184 z M 513.99998,483.1196 C 516.88749,481.9774 519.42074,480.9901 519.62942,480.9256 C 521.12356,480.463 520.56003,477.434 518.60784,475.4344 C 516.89454,473.6797 514.8037,473.3874 512.41353,474.5686 C 509.42066,476.0478 507.48247,479.6147 507.21655,484.1326 L 507.11558,485.8486 L 507.93276,485.5224 C 508.38224,485.3429 511.11249,484.2618 513.99998,483.1196 z M 592.41929,499.8901 C 588.63855,499.0801 585.28438,496.323 583.59906,492.64 C 582.65128,490.569 582.41747,489.3867 582.4341,486.75 C 582.4469,484.727 582.50792,484.2214 582.89313,482.9488 C 584.28988,478.3339 587.33339,475.1655 591.67253,473.8091 C 593.46678,473.2482 596.70061,473.2484 598.49578,473.8096 C 600.2163,474.3474 601.23494,474.8946 602.20543,475.8023 C 603.80005,477.294 604.40631,479.3888 603.67848,480.8923 C 602.77376,482.7611 599.9063,482.7889 599.01001,480.9374 C 598.21263,479.2902 598.93905,477.6192 600.67048,477.1181 L 601.39783,476.9075 L 600.59144,476.3734 C 598.4723,474.9697 595.27349,474.457 593.13355,475.1778 C 589.08168,476.5428 586.9199,481.1395 587.22088,487.75 C 587.2803,489.0552 587.45736,490.4782 587.66623,491.3293 C 588.82571,496.0538 592.13241,498.9178 596.08371,498.6199 C 599.25734,498.3807 601.5488,496.5814 602.81617,493.3334 C 603.28412,492.1342 603.32761,492.0813 603.88779,492.0325 C 604.6686,491.9645 604.7806,492.3508 604.34184,493.599 C 602.63676,498.4504 597.74554,501.0313 592.41929,499.8901 z M 618.79388,500.0052 C 615.89949,499.4781 612.94292,497.7638 611.07422,495.5294 C 610.03065,494.2815 608.83535,491.9653 608.39284,490.3333 C 607.94086,488.6667 607.97741,485.1539 608.46437,483.4519 C 609.20796,480.8532 610.35398,478.8521 612.10601,477.0929 C 617.06782,472.111 624.78229,472.1136 629.72632,477.0989 C 631.45841,478.8455 632.53066,480.6636 633.27463,483.1154 C 633.66339,484.3967 633.72109,484.8801 633.72854,486.9166 C 633.73851,489.6517 633.52257,490.6414 632.41945,492.9167 C 631.11867,495.5996 629.15502,497.5415 626.41664,498.8528 C 625.68333,499.2041 624.63331,499.6112 624.08332,499.7579 C 622.90821,500.071 619.92142,500.2109 618.79388,500.0052 z M 622.74416,498.4112 C 625.64342,497.6561 627.59444,495.5215 628.528,492.0833 C 628.8502,490.8968 628.89152,490.3097 628.90336,486.75 C 628.9185,482.1865 628.74191,481.0282 627.71903,478.9836 C 625.33121,474.2106 619.30476,473.233 615.48668,476.9993 C 614.39262,478.0785 613.66973,479.4904 613.22467,481.4167 C 612.78991,483.2988 612.78104,489.7779 613.21062,491.75 C 614.2871,496.6925 618.37551,499.5491 622.74416,498.4112 z M 637.85121,499.9383 C 637.7166,499.776 637.67443,498.2663 637.70579,494.7339 L 637.74999,489.7579 L 638.20915,489.5964 C 638.84767,489.3721 638.96753,489.5432 639.44452,491.3596 C 640.85828,496.7433 643.59219,499.0701 648.16665,498.7826 C 651.53839,498.5705 653.6653,496.8614 653.94636,494.138 C 654.14427,492.2207 653.39889,490.6497 651.79202,489.5973 C 650.66655,488.8602 649.39549,488.4544 645.99999,487.7481 C 643.86586,487.3042 642.94662,487.0262 641.8954,486.5068 C 640.24338,485.6904 638.89328,484.4186 638.23383,483.0573 C 637.81748,482.198 637.76188,481.8971 637.76128,480.5 C 637.76038,478.4692 638.16329,477.3827 639.42111,476.0242 C 640.93413,474.3898 643.0057,473.57 646.08334,473.3874 C 648.28842,473.2566 649.804,473.5232 651.39327,474.3216 L 652.64562,474.9507 L 653.36446,474.2182 C 654.15279,473.4148 654.70411,473.1853 655.08548,473.5018 C 655.29206,473.6733 655.33332,474.3647 655.33332,477.6537 C 655.33332,481.7972 655.29835,482 654.58332,482 C 654.07544,482 653.83365,481.6813 653.83085,481.0084 C 653.82949,480.683 653.71502,479.9356 653.57644,479.3479 C 652.86257,476.3193 650.94011,474.7604 647.65662,474.5473 C 644.42736,474.3378 641.85427,475.3535 640.88985,477.2184 C 640.74297,477.5025 640.58864,478.1884 640.54689,478.7424 C 640.48371,479.5811 640.53841,479.8758 640.87319,480.5 C 641.6513,481.951 643.10874,482.7147 646.49999,483.448 C 651.64821,484.5612 652.85279,485.0462 654.45712,486.6504 C 657.61222,489.8056 657.63659,494.7447 654.51178,497.7251 C 652.9174,499.2458 651.09768,499.9381 648.24999,500.1069 C 645.60102,500.2639 643.69915,499.756 641.91918,498.4163 L 640.92172,497.6656 L 639.78071,498.9162 C 638.65211,500.1531 638.21963,500.3821 637.85121,499.9383 z M 806.6845,499.9383 C 806.54993,499.776 806.50778,498.2663 806.53918,494.7339 L 806.58336,489.7579 L 807.0425,489.5964 C 807.68103,489.3721 807.80086,489.5432 808.27788,491.3596 C 809.6916,496.7433 812.42553,499.0701 817,498.7826 C 820.37173,498.5705 822.49861,496.8614 822.77973,494.138 C 822.97757,492.2207 822.23222,490.6497 820.62533,489.5973 C 819.49984,488.8602 818.22882,488.4544 814.83328,487.7481 C 812.69923,487.3042 811.77997,487.0262 810.72872,486.5068 C 809.07676,485.6904 807.72663,484.4186 807.0672,483.0573 C 806.65082,482.198 806.5952,481.8971 806.59458,480.5 C 806.5937,478.4692 806.99663,477.3827 808.2544,476.0242 C 809.76745,474.3898 811.83905,473.57 814.91664,473.3874 C 817.12179,473.2566 818.63736,473.5232 820.22659,474.3216 L 821.47894,474.9507 L 822.19779,474.2182 C 822.98611,473.4148 823.53748,473.1853 823.91881,473.5018 C 824.1254,473.6733 824.16666,474.3647 824.16666,477.6537 C 824.16666,481.7972 824.13169,482 823.41664,482 C 822.90877,482 822.66701,481.6813 822.66417,481.0084 C 822.66281,480.683 822.54834,479.9356 822.40976,479.3479 C 821.69593,476.3193 819.77347,474.7604 816.48997,474.5473 C 813.26068,474.3378 810.68757,475.3535 809.72319,477.2184 C 809.5763,477.5025 809.42197,478.1884 809.38022,478.7424 C 809.31702,479.5811 809.37177,479.8758 809.70648,480.5 C 810.48459,481.951 811.94209,482.7147 815.33329,483.448 C 820.48153,484.5612 821.68613,485.0462 823.29044,486.6504 C 826.44551,489.8056 826.46987,494.7447 823.34512,497.7251 C 821.75074,499.2458 819.93098,499.9381 817.0833,500.1069 C 814.43434,500.2639 812.53251,499.756 810.75253,498.4163 L 809.75506,497.6656 L 808.61401,498.9162 C 807.48543,500.1531 807.05292,500.3821 806.6845,499.9383 z M 784.5,499.6743 C 783.36688,499.2851 782.50885,498.3783 782.09821,497.1363 C 781.68284,495.8793 781.6229,493.8118 781.78968,486.4912 C 781.94408,479.7163 781.86532,477.67 781.40618,476.5224 C 780.80656,475.0238 779.42477,474.9677 776.75254,476.3332 L 775.08847,477.1835 L 774.63121,476.6334 L 774.17388,476.0833 L 774.62863,475.6995 C 775.62515,474.858 778.34435,473.1399 779.59385,472.562 C 782.45256,471.2402 784.9616,471.745 785.88598,473.8278 C 786.28498,474.7269 786.29669,475.8847 785.99383,484.5176 C 785.72806,492.0948 785.96169,494.1571 787.21695,495.3109 C 787.83491,495.8789 788.86336,495.9515 789.98776,495.5064 C 790.93983,495.1295 792.93917,493.8609 793.4218,493.3277 C 793.69942,493.0209 793.71986,493.0236 794.26805,493.4417 L 794.82978,493.8701 L 794.46068,494.3935 C 793.69306,495.4816 791.07422,498.0285 790.07228,498.6613 C 788.02281,499.9557 786.25494,500.2771 784.5,499.6743 z M 829.66661,498.561 L 829.66661,497.7053 L 831.30633,497.6396 C 833.10018,497.5675 833.71962,497.3208 834.00738,496.5638 C 834.25292,495.9181 834.1986,478.2302 833.94892,477.5082 C 833.65561,476.6604 832.93346,476.3132 831.24402,476.2077 L 829.83333,476.1197 L 829.83333,475.2386 L 829.83333,474.3573 L 830.70833,474.2635 C 831.18954,474.2118 832.59582,474.0927 833.83328,473.9988 C 835.07082,473.9049 836.51458,473.7842 837.04167,473.731 L 837.99997,473.6339 L 837.99997,484.8895 C 837.99997,491.6392 838.06369,496.3126 838.15924,496.5638 C 838.43063,497.2778 839.03647,497.5345 840.66956,497.6275 L 842.16664,497.7129 L 842.16664,498.5648 L 842.16664,499.4167 L 835.91659,499.4167 L 829.66661,499.4167 L 829.66661,498.561 z M 845.66664,498.5635 L 845.66664,497.7103 L 847.42409,497.6322 C 849.33803,497.5472 849.96322,497.2875 850.18774,496.4851 C 850.39971,495.7274 850.33286,478.1371 850.1156,477.5001 C 849.83256,476.6703 849.01001,476.3112 847.14951,476.205 L 845.66664,476.1204 L 845.66664,475.2433 L 845.66664,474.3663 L 846.625,474.2656 C 847.15208,474.2105 848.5583,474.0915 849.74995,474.0018 C 850.94168,473.9119 852.38538,473.7937 852.95834,473.7392 L 854,473.6402 L 854.00094,476.6117 L 854.00181,479.5833 L 854.67099,478.468 C 855.51317,477.0644 856.76769,475.6838 857.8071,475.0167 C 860.31932,473.4048 864.25161,473.2311 867.0087,474.6104 C 868.87724,475.5453 870.01882,477.2897 870.32987,479.6853 C 870.41776,480.3626 870.49198,484.4187 870.49483,488.6991 L 870.49997,496.4815 L 870.87495,496.916 C 871.33349,497.4476 872.1767,497.6575 873.875,497.6627 L 875.16666,497.6667 L 875.16666,498.5416 L 875.16666,499.4167 L 868.58331,499.4167 L 861.99997,499.4167 L 861.99997,498.561 L 861.99997,497.7053 L 863.66208,497.6387 C 865.55803,497.5625 866.1324,497.2886 866.37721,496.344 C 866.45529,496.0426 866.49574,491.9608 866.46713,487.2731 C 866.41618,478.9271 866.40739,478.7292 866.04283,477.75 C 865.59829,476.556 864.53221,475.4505 863.56709,475.1825 C 860.63388,474.3681 856.92927,476.3421 855.41785,479.5245 C 854.41091,481.6449 854.33945,482.3115 854.3362,489.6142 C 854.3345,493.3691 854.40103,496.323 854.49257,496.5638 C 854.7804,497.3208 855.39978,497.5675 857.19362,497.6396 L 858.83333,497.7053 L 858.83333,498.561 L 858.83327,499.4167 L 852.24999,499.4167 L 845.66664,499.4167 L 845.66664,498.5635 z M 441.2242,491.5417 C 441.26822,491.3812 441.39325,490.8562 441.50204,490.375 L 441.69991,489.5 L 461.11776,489.5 C 476.5836,489.5 480.51938,489.5425 480.45573,489.7083 C 480.41178,489.8228 480.27934,490.3479 480.16138,490.8751 L 479.94695,491.8335 L 460.54557,491.8335 C 442.1487,491.8335 441.14832,491.8183 441.2242,491.5417 z M 398.03362,482.8408 C 396.7626,482.4962 395.0311,481.6616 394.6007,481.1858 C 394.37291,480.9342 394.4506,480.788 395.43278,479.6208 C 396.02859,478.9127 396.6437,478.3339 396.79971,478.3345 C 396.95568,478.3352 397.26626,478.6042 397.48988,478.9325 C 398.43092,480.3142 400.26811,481.3334 401.81755,481.3334 C 403.53354,481.3334 405.80984,480.2557 406.82805,478.9613 C 407.69088,477.8644 408.38527,475.7539 408.58517,473.6208 L 408.70451,472.3472 L 406.8106,473.3264 C 405.76893,473.8651 404.12915,474.587 403.16665,474.9308 C 401.63344,475.4784 401.22054,475.5574 399.83333,475.5696 C 398.45909,475.5815 398.14105,475.5283 397.42518,475.1667 C 395.39073,474.139 395.00541,472.6495 395.00219,465.7999 C 395.00089,463.0947 394.92447,460.8309 394.81758,460.3324 C 394.41713,458.4654 393.41311,458.1152 391.1106,459.0398 C 389.71196,459.6013 389.66559,459.6084 389.39055,459.3045 C 389.20543,459.0999 389.1644,458.9356 389.27164,458.8283 C 389.3617,458.7383 390.32095,458.2155 391.40333,457.6665 C 394.44412,456.1242 395.60013,455.879 396.94727,456.4906 C 397.69475,456.8299 398.06367,457.3651 398.25565,458.3881 C 398.32032,458.7329 398.3868,461.2428 398.40341,463.9657 C 398.44379,470.5772 398.68907,471.6364 400.39073,472.5463 C 400.96604,472.854 401.33735,472.9147 402.58333,472.9047 C 404.30055,472.891 405.51446,472.5014 407.48139,471.3329 L 408.62969,470.6507 L 408.75031,468.16 C 408.86168,465.8605 408.80948,463.3817 408.56408,459.3155 L 408.46746,457.7142 L 410.30786,456.9421 C 411.32008,456.5175 412.25499,456.211 412.38549,456.2611 C 412.63001,456.3549 412.63631,458.0661 412.42895,468.0833 C 412.2675,475.8815 410.70661,479.4681 406.52824,481.6419 C 403.85298,483.0336 400.49373,483.5077 398.03362,482.8408 z M 441.2242,480.0417 C 441.26822,479.8813 441.39325,479.3563 441.50204,478.875 L 441.69991,478 L 461.11776,478 C 476.5836,478 480.51938,478.0424 480.45573,478.2084 C 480.41178,478.323 480.27934,478.8479 480.16138,479.375 L 479.94695,480.3333 L 460.54557,480.3333 C 442.1487,480.3333 441.14832,480.3182 441.2242,480.0417 z M 350.66667,472.0023 L 350.66667,465.3333 L 343.81549,465.3333 C 338.40429,465.3333 336.98065,465.2895 337.04194,465.125 C 337.08462,465.0104 337.2202,464.6356 337.34325,464.2917 L 337.56696,463.6667 L 344.1168,463.6667 L 350.66667,463.6667 L 350.66667,457.5263 L 350.66667,451.3861 L 351.35067,451.1812 C 351.72687,451.0684 352.13939,450.9361 352.26735,450.8869 C 352.46394,450.8115 352.5,451.7944 352.5,457.232 L 352.5,463.6667 L 359.35139,463.6667 L 366.20278,463.6667 L 366.10007,464.076 C 366.04356,464.3011 365.92479,464.6761 365.83613,464.9093 L 365.67488,465.3333 L 359.08747,465.3333 L 352.5,465.3333 L 352.5,471.6472 C 352.5,477.5171 352.47947,477.967 352.20833,478.0458 C 352.04791,478.0922 351.63542,478.2521 351.29166,478.4007 L 350.66667,478.6711 L 350.66667,472.0023 z M 324.58332,475.5576 C 323.36208,474.9165 322.30071,473.5597 320.00335,469.7029 C 319.33266,468.577 318.73505,467.6255 318.67531,467.5886 C 318.53425,467.5015 316.25023,470.7928 314.71834,473.2907 C 314.05926,474.3654 313.37622,475.3086 313.20047,475.3871 C 312.97413,475.4881 312.63088,475.403 312.0239,475.0955 L 311.16693,474.6612 L 312.04146,473.4555 C 312.9044,472.266 315.30796,469.2394 317.00449,467.206 L 317.87554,466.162 L 317.08563,464.7893 C 315.85613,462.6527 314.26081,460.3039 313.52255,459.5431 C 312.43004,458.4174 311.35083,458.3109 309.60341,459.1569 C 308.88311,459.5056 308.83484,459.5087 308.41287,459.2322 L 307.97302,458.944 L 308.8615,458.3727 C 309.35017,458.0584 310.42498,457.4658 311.24999,457.0557 C 312.65273,456.3583 312.82259,456.3137 313.86966,456.3684 C 314.66808,456.4102 315.12239,456.5249 315.45301,456.7684 C 316.11415,457.2556 317.26356,458.8356 318.77445,461.3342 C 319.49433,462.5246 320.12083,463.496 320.16664,463.4926 C 320.21248,463.4893 320.58751,463.0259 321,462.4627 C 321.9432,461.175 326.50223,456.5747 326.98785,456.4206 C 327.26222,456.3334 327.57098,456.4762 328.26252,457.0097 C 328.76446,457.3969 329.15447,457.7318 329.12924,457.7538 C 329.10397,457.7759 328.48334,458.2648 327.75,458.8401 C 325.33455,460.7353 321,464.7065 321,465.0243 C 321,465.1829 322.61268,467.8562 323.54609,469.2448 C 325.12967,471.601 326.51892,472.8373 327.57428,472.8297 C 328.21246,472.8251 329.31539,472.3305 330.35798,471.5816 L 331.16062,471.0048 L 331.41113,471.4892 C 331.66005,471.9706 331.65616,471.9786 330.78914,472.7634 C 327.88391,475.3929 325.93846,476.2689 324.58332,475.5576 z M 545.74997,475.5576 C 544.52875,474.9165 543.46738,473.5597 541.17002,469.7029 C 540.49936,468.577 539.90173,467.6255 539.84198,467.5886 C 539.70092,467.5015 537.4169,470.7928 535.88499,473.2907 C 535.22591,474.3654 534.54289,475.3086 534.36712,475.3871 C 534.14078,475.4881 533.79755,475.403 533.19056,475.0955 L 532.3336,474.6612 L 533.20813,473.4555 C 534.07108,472.266 536.47463,469.2394 538.17114,467.206 L 539.04221,466.162 L 538.2523,464.7893 C 537.02278,462.6527 535.42747,460.3039 534.68921,459.5431 C 533.5967,458.4174 532.51748,458.3109 530.77007,459.1569 C 530.04976,459.5056 530.00151,459.5087 529.57953,459.2322 L 529.13969,458.944 L 530.02816,458.3727 C 530.51684,458.0584 531.59167,457.4658 532.41664,457.0557 C 533.81938,456.3583 533.98924,456.3137 535.03631,456.3684 C 535.83475,456.4102 536.28904,456.5249 536.61966,456.7684 C 537.2808,457.2556 538.43023,458.8356 539.9411,461.3342 C 540.66098,462.5246 541.28749,463.496 541.33334,463.4926 C 541.37915,463.4893 541.75416,463.0259 542.16665,462.4627 C 543.10985,461.175 547.66889,456.5747 548.1545,456.4206 C 548.42889,456.3334 548.73763,456.4762 549.42917,457.0097 C 549.93113,457.3969 550.32114,457.7318 550.29589,457.7538 C 550.27063,457.7759 549.65,458.2648 548.91665,458.8401 C 546.50121,460.7353 542.16665,464.7065 542.16665,465.0243 C 542.16665,465.1829 543.77935,467.8562 544.71276,469.2448 C 546.29632,471.601 547.68557,472.8373 548.74095,472.8297 C 549.37911,472.8251 550.48205,472.3305 551.52463,471.5816 L 552.32729,471.0048 L 552.57778,471.4892 C 552.8267,471.9706 552.82282,471.9786 551.95579,472.7634 C 549.05058,475.3929 547.10513,476.2689 545.74997,475.5576 z M 379.24998,475.4718 C 378.37078,475.1448 377.8007,474.6344 377.43731,473.8486 C 377.0923,473.1028 377.08471,472.9182 377.13791,466.5672 C 377.1968,459.5315 377.15272,459.1052 376.3201,458.6595 C 375.74998,458.3544 374.39413,458.5663 373.0392,459.1721 L 371.83791,459.7093 L 371.51461,459.3129 L 371.19132,458.9166 L 372.53106,458.0569 C 375.36764,456.2366 377.68771,455.6251 379.20718,456.2972 C 379.62777,456.4833 380.10727,456.8422 380.2728,457.0948 C 380.67692,457.7115 380.74629,459.7137 380.52931,464.5 C 380.34687,468.5252 380.47571,470.9807 380.91376,471.8277 C 381.20405,472.389 381.93717,472.8333 382.57326,472.8333 C 383.23483,472.8333 384.56226,472.2672 385.66404,471.5151 C 386.63413,470.853 386.68529,470.8378 387.08031,471.0967 L 387.49008,471.3652 L 386.95798,472.0274 C 386.13673,473.0493 384.34638,474.4332 383.07066,475.0322 C 381.80073,475.6285 380.17484,475.8155 379.24998,475.4718 z M 833.72442,466.1666 C 832.49237,465.5399 831.81271,464.1339 832.07246,462.7494 C 832.20778,462.0279 833.19795,460.874 833.95298,460.5579 C 834.95722,460.1375 836.38894,460.3884 837.22571,461.1313 C 837.70767,461.5593 838.1593,462.6649 838.1593,463.4166 C 838.1593,465.6635 835.71496,467.1792 833.72442,466.1666 z M 782.23821,465.8606 C 780.96616,465.2652 779.99495,463.5474 780.26695,462.3734 C 780.8577,459.8238 784.06283,458.6456 785.99222,460.2691 C 787.13638,461.2318 787.34924,463.6012 786.3973,464.7774 C 785.39807,466.012 783.57595,466.4866 782.23821,465.8606 z M 377.28456,451.8182 C 375.58006,450.9188 375.58564,448.5744 377.2943,447.7267 C 377.69886,447.5259 378.2802,447.4177 378.95554,447.4173 C 379.92932,447.4167 380.03261,447.4549 380.60347,448.0257 C 381.82073,449.243 381.47044,450.9672 379.83832,451.7917 C 378.93049,452.2503 378.11908,452.2589 377.28456,451.8182 z M 33.65489,312.2721 C 31.320426,311.6427 29.521892,309.5949 28.51309,306.4181 C 27.757702,304.0391 27.581775,302.7077 27.59894,299.5001 C 27.612739,296.9207 27.664437,296.3962 28.045804,294.9657 C 28.896286,291.7756 30.337057,289.2861 32.656111,287 C 34.249682,285.429 35.242512,284.7797 37.388032,283.9048 L 38.833846,283.3154 L 39.996566,283.9264 C 43.488509,285.7614 46.051141,289.7065 46.756616,294.3335 C 47.660134,300.2591 45.990476,306.2644 42.48608,309.6935 C 40.295684,311.8367 36.332371,312.9941 33.65489,312.2721 z M 39.885742,309.2856 C 43.66621,307.555 45.247304,301.0653 43.325689,295.1667 C 42.1306,291.4982 39.18982,287.0433 37.327394,286.0803 C 36.837408,285.8271 36.785713,285.8362 35.919503,286.3318 C 33.514906,287.7074 31.391558,291.0361 30.737282,294.4559 C 30.124289,297.6598 30.793516,302.5664 32.259082,305.6133 C 33.01948,307.1943 34.384479,308.6643 35.719329,309.34 C 36.638559,309.8052 36.868828,309.8537 37.849019,309.7884 C 38.545002,309.7418 39.291915,309.5575 39.885742,309.2856 z M 5.8936589,308.9177 C 2.8895478,308.2644 0.97752154,306.3675 0.95613376,304.0194 C 0.94196933,302.4642 1.7465075,301.4913 3.0363134,301.5037 C 3.6747619,301.5099 4.7620165,302.0984 5.1553774,302.6508 C 5.6152056,303.2965 5.6514596,304.4422 5.2344108,305.1483 C 4.8851859,305.7393 4.9800149,305.9013 6.1167133,306.6542 C 6.9047773,307.1762 8.0511083,307.4454 8.6611569,307.2517 C 10.267288,306.742 11.58023,303.8654 12.237246,299.4167 C 12.999162,294.2577 13.172311,284.1637 12.85764,263.25 C 12.675877,251.1697 12.668659,243.9679 12.820554,226.25 C 13.035243,201.2076 13.200584,196.2616 14.012846,190.5833 C 14.894684,184.4188 16.60071,180.7018 19.104718,179.4897 C 21.129197,178.5097 25.007263,179.1792 26.892269,180.8343 C 28.793705,182.5037 29.082334,185.7314 27.393299,186.4372 C 26.676159,186.7368 26.157195,186.7269 25.334556,186.3977 C 24.03532,185.8779 23.493461,184.4208 24.138874,183.1827 L 24.48621,182.5162 L 23.74478,181.8635 C 22.9444,181.159 21.76656,180.7303 21.094711,180.899 C 20.117704,181.1441 19.356501,182.5671 18.751894,185.2784 C 17.729091,189.8651 17.41854,197.0068 17.564562,212.5834 C 18.006738,259.7517 17.813367,283.4526 16.905104,293.4115 C 15.776848,305.7826 12.526228,310.3601 5.8936589,308.9177 z M 1038.6549,299.9389 C 1036.3204,299.3093 1034.5219,297.2616 1033.513,294.0848 C 1032.7577,291.7058 1032.5818,290.3744 1032.5989,287.1666 C 1032.6127,284.5875 1032.6644,284.0628 1033.0457,282.6325 C 1033.8962,279.4422 1035.337,276.9529 1037.6561,274.6666 C 1039.2496,273.0956 1040.2425,272.4463 1042.388,271.5715 L 1043.8339,270.9821 L 1044.9966,271.5931 C 1048.4885,273.4281 1051.0511,277.3732 1051.7566,282 C 1052.6601,287.9256 1050.9904,293.931 1047.4861,297.3602 C 1045.2956,299.5035 1041.3323,300.6608 1038.6549,299.9389 z M 1044.8857,296.9523 C 1048.6662,295.2215 1050.2473,288.7319 1048.3256,282.8334 C 1047.1306,279.1648 1044.1898,274.7101 1042.3274,273.7469 C 1041.8374,273.4936 1041.7857,273.5029 1040.9195,273.9985 C 1038.5148,275.3741 1036.3915,278.7029 1035.7373,282.1225 C 1035.1242,285.3263 1035.7935,290.2331 1037.259,293.2801 C 1038.0194,294.861 1039.3844,296.3311 1040.7193,297.0065 C 1041.6386,297.4719 1041.8688,297.5203 1042.849,297.4549 C 1043.5449,297.4085 1044.2919,297.2241 1044.8857,296.9523 z M 1002.8333,295.25 L 1002.8333,293.8333 L 1008.0833,293.8333 L 1013.3333,293.8333 L 1013.3333,243.9166 L 1013.3333,194 L 1008.0833,194 L 1002.8333,194 L 1002.8333,192.5833 L 1002.8333,191.1666 L 1009.5,191.1666 L 1016.1667,191.1666 L 1016.1667,243.9166 L 1016.1667,296.6667 L 1009.5,296.6667 L 1002.8333,296.6667 L 1002.8333,295.25 z M 191.99999,253.9979 L 191.99999,244.5 L 182.91666,244.5 C 177.92083,244.5 173.83333,244.441 173.83333,244.3691 C 173.83333,244.297 174.00656,243.7907 174.21831,243.244 L 174.6033,242.25 L 183.30017,242.2068 L 191.99708,242.1637 L 192.04019,233.3061 L 192.08333,224.4484 L 192.91667,224.1653 C 193.375,224.0096 193.91875,223.8286 194.12499,223.7631 L 194.5,223.6441 L 194.5,232.9054 L 194.5,242.1667 L 203.51782,242.1667 C 210.6635,242.1667 212.51911,242.2099 212.45592,242.375 C 212.41207,242.4897 212.24036,243.0146 212.07434,243.5417 L 211.77247,244.5 L 203.13622,244.5 L 194.5,244.5 L 194.5,253.4806 C 194.5,261.8902 194.48144,262.4665 194.20833,262.5455 C 194.04791,262.5921 193.48541,262.8249 192.95832,263.0628 L 191.99999,263.4958 L 191.99999,253.9979 z M 322.5,253.9979 L 322.5,244.5 L 313.41665,244.5 C 308.42082,244.5 304.33333,244.441 304.33333,244.3691 C 304.33333,244.297 304.50656,243.7907 304.71832,243.244 L 305.1033,242.25 L 313.80019,242.2068 L 322.49707,242.1637 L 322.54018,233.3061 L 322.58332,224.4484 L 323.41667,224.1653 C 323.87501,224.0096 324.41873,223.8286 324.62501,223.7631 L 324.99999,223.6441 L 324.99999,232.9054 L 324.99999,242.1667 L 334.01783,242.1667 C 341.16348,242.1667 343.0191,242.2099 342.95594,242.375 C 342.91208,242.4897 342.74035,243.0146 342.57433,243.5417 L 342.27248,244.5 L 333.63621,244.5 L 324.99999,244.5 L 324.99999,253.4806 C 324.99999,261.8902 324.98143,262.4665 324.70832,262.5455 C 324.54793,262.5921 323.9854,262.8249 323.45833,263.0628 L 322.5,263.4958 L 322.5,253.9979 z M 663.49998,253.9979 L 663.49998,244.5 L 654.41665,244.5 C 649.42083,244.5 645.33333,244.441 645.33333,244.3691 C 645.33333,244.297 645.50656,243.7907 645.71832,243.244 L 646.10327,242.25 L 654.80016,242.2068 L 663.49706,242.1637 L 663.5402,233.3061 L 663.58332,224.4484 L 664.41664,224.1653 C 664.87498,224.0096 665.41874,223.8286 665.62498,223.7631 L 665.99999,223.6441 L 665.99999,232.9054 L 665.99999,242.1667 L 675.01781,242.1667 C 682.16346,242.1667 684.01908,242.2099 683.95588,242.375 C 683.91203,242.4897 683.74038,243.0146 683.57434,243.5417 L 683.27243,244.5 L 674.63623,244.5 L 665.99999,244.5 L 665.99999,253.4806 C 665.99999,261.8902 665.98145,262.4665 665.70832,262.5455 C 665.5479,262.5921 664.9854,262.8249 664.45833,263.0628 L 663.49998,263.4958 L 663.49998,253.9979 z M 793.33331,253.9979 L 793.33331,244.5 L 784.24999,244.5 C 779.25413,244.5 775.16661,244.441 775.16661,244.3691 C 775.16661,244.297 775.33989,243.7907 775.55161,243.244 L 775.9366,242.25 L 784.63349,242.2068 L 793.3304,242.1637 L 793.37356,233.3061 L 793.41667,224.4484 L 794.24998,224.1653 C 794.70832,224.0096 795.25205,223.8286 795.45835,223.7631 L 795.83333,223.6441 L 795.83333,232.9054 L 795.83333,242.1667 L 804.85116,242.1667 C 811.99684,242.1667 813.85238,242.2099 813.78926,242.375 C 813.74542,242.4897 813.57369,243.0146 813.40764,243.5417 L 813.10581,244.5 L 804.46954,244.5 L 795.83333,244.5 L 795.83333,253.4806 C 795.83333,261.8902 795.81473,262.4665 795.54165,262.5455 C 795.38122,262.5921 794.81874,262.8249 794.29167,263.0628 L 793.33331,263.4958 L 793.33331,253.9979 z M 923.66663,253.9979 L 923.66663,244.5 L 914.58333,244.5 C 909.58745,244.5 905.49994,244.441 905.49994,244.3691 C 905.49994,244.297 905.67322,243.7907 905.88493,243.244 L 906.26993,242.25 L 914.96682,242.2068 L 923.66372,242.1637 L 923.70689,233.3061 L 923.74999,224.4484 L 924.58332,224.1653 C 925.04165,224.0096 925.58537,223.8286 925.79167,223.7631 L 926.16667,223.6441 L 926.16667,232.9054 L 926.16667,242.1667 L 935.18447,242.1667 C 942.33016,242.1667 944.18571,242.2099 944.12259,242.375 C 944.07874,242.4897 943.90701,243.0146 943.74097,243.5417 L 943.43914,244.5 L 934.80286,244.5 L 926.16667,244.5 L 926.16667,253.4806 C 926.16667,261.8902 926.14806,262.4665 925.87497,262.5455 C 925.71454,262.5921 925.15208,262.8249 924.62499,263.0628 L 923.66663,263.4958 L 923.66663,253.9979 z M 409.69604,259.4995 C 408.78617,259.3064 407.26405,258.6139 406.54631,258.0664 C 405.2152,257.0512 403.88226,254.7192 403.2963,252.3808 C 402.8038,250.4155 402.76434,245.8332 403.22119,243.6666 C 403.99295,240.0071 405.18314,237.6607 407.41665,235.395 C 408.70806,234.0851 409.13681,233.7673 410.49998,233.1093 C 411.37084,232.6892 412.57083,232.2295 413.16666,232.088 C 415.63352,231.5024 418.54374,231.5897 420.96066,232.3214 L 421.99998,232.6362 L 421.99857,229.9431 C 421.99666,226.3573 421.745,223.5815 421.36242,222.9265 C 420.89929,222.1335 420.14749,221.7291 418.75014,221.5213 C 418.05507,221.4179 417.23652,221.3334 416.93118,221.3334 C 416.40927,221.3334 416.36931,221.2919 416.26575,220.6444 C 416.20517,220.2655 416.18411,219.9269 416.21897,219.8922 C 416.25383,219.8573 418.60004,219.53 421.43282,219.1644 C 424.2656,218.7992 426.58332,218.5002 426.58332,218.5002 C 426.58332,218.5 426.58332,226.4312 426.58332,236.125 L 426.58332,253.75 L 426.99998,254.5833 C 427.29427,255.172 427.59453,255.5036 428.02229,255.713 C 428.62783,256.0088 428.62837,256.0087 430.2723,255.4079 C 431.17671,255.0773 432.01983,254.794 432.14588,254.7785 C 432.27278,254.7626 432.47204,255.0248 432.59225,255.3656 L 432.80937,255.9811 L 431.25672,256.9871 C 429.34774,258.2238 426.8983,259.4316 425.98738,259.5856 C 424.92002,259.7659 423.89147,259.5409 423.26401,258.99 C 422.67383,258.4717 422.05118,257.2161 421.86361,256.1657 L 421.75,255.5292 L 420.41666,256.3664 C 418.72263,257.4301 416.4567,258.5197 414.75821,259.0875 C 413.29297,259.5776 410.95892,259.7676 409.69604,259.4995 z M 417.66665,255.241 C 419.02247,254.8291 420.43201,254.0696 421.26398,253.3027 L 421.99998,252.6243 L 421.99709,245.7705 C 421.99396,238.3327 421.89868,237.293 421.09443,235.9205 C 420.56837,235.0231 419.70961,234.2659 418.8893,233.9765 C 418.52435,233.8476 417.57051,233.7507 416.66667,233.7504 C 415.22317,233.7501 414.98154,233.7982 413.93094,234.2958 C 413.09399,234.6921 412.44682,235.1785 411.5665,236.0734 C 409.2027,238.4757 408.009,242.0324 408.01096,246.6668 C 408.01285,251.1817 409.63109,254.3794 412.44965,255.438 C 413.27423,255.7477 416.38611,255.6303 417.66665,255.241 z M 548.77402,259.412 C 546.06216,258.8978 541.99998,256.7755 541.99998,255.8733 C 541.99998,255.7281 542.48233,254.7786 543.07188,253.7631 C 543.66141,252.7476 544.24753,251.7164 544.37435,251.4716 L 544.60496,251.0267 L 545.46689,252.3298 C 547.76585,255.8058 550.37124,257.3404 553.59057,257.115 C 558.0708,256.8012 561.13402,253.4841 561.43974,248.6151 C 561.60989,245.9054 560.71084,243.4503 558.80049,241.408 C 557.17529,239.6709 554.5116,238.7899 550.17831,238.557 L 548.16664,238.4488 L 548.16664,237.7308 C 548.16664,237.0261 548.17964,237.0095 548.87499,236.8296 C 554.33077,235.4177 557.07017,233.693 558.50223,230.768 C 559.31789,229.102 559.60625,227.4848 559.34269,226.0546 C 558.86469,223.4611 557.26389,221.8311 554.69911,221.3264 C 552.3597,220.8663 550.01926,221.619 546.39822,223.9964 L 545.87981,224.3365 L 545.44198,223.675 L 545.00416,223.0134 L 547.12709,221.4193 C 550.48419,218.8982 553.59297,217.4982 555.82665,217.5013 C 558.46631,217.5048 560.61882,218.3122 562.0838,219.8481 C 563.69246,221.5347 564.26614,223.2876 564.12452,226.0838 C 563.91397,230.2415 561.9125,233.0336 557.58333,235.209 C 556.94164,235.5315 556.0979,235.8906 555.70831,236.0073 C 555.20816,236.157 554.99999,236.3097 554.99999,236.5264 C 554.99999,236.7761 555.13203,236.8337 555.70831,236.8351 C 557.60421,236.8398 561.65583,237.9827 563.24999,238.9624 C 566.75946,241.1194 567.93318,245.7265 566.15073,250.3486 C 564.87859,253.6473 561.9827,256.6375 558.55467,258.1919 C 555.80213,259.4399 551.65121,259.9577 548.77402,259.412 z M 980.91668,259.3921 C 975.54062,258.769 972.2149,257.1224 969.56371,253.7715 C 967.64755,251.3496 966.35784,248.3956 965.62676,244.754 C 965.13857,242.3217 965.0994,236.8049 965.5528,234.3333 C 966.38938,229.773 967.96297,226.5814 970.70193,223.8895 C 973.67193,220.9707 977.2396,219.13 981.83329,218.1469 C 984.36647,217.6048 988.92958,217.596 991.05024,218.129 C 994.01138,218.8734 996.30585,220.2983 998.02277,222.4589 C 999.58636,224.4264 999.61065,224.1324 997.72871,226.0213 C 995.69324,228.0645 995.39615,228.1368 994.82446,226.7281 C 993.92842,224.5204 991.91563,222.1363 990.22429,221.2792 C 988.6228,220.4676 987.47491,220.2593 984.66662,220.27 C 981.61048,220.2818 980.27808,220.5714 977.91663,221.7374 C 976.04855,222.6599 974.77076,223.7896 973.60387,225.5513 C 970.41097,230.3713 969.42197,238.5846 971.26677,244.9608 C 972.36816,248.7677 974.92591,252.4507 977.70132,254.226 C 979.98058,255.6842 982.0787,256.2312 985.41664,256.2381 C 987.64658,256.2427 988.09673,256.1935 989.58333,255.7813 C 991.34943,255.2915 993.98432,254.1135 995.54242,253.1168 L 996.48129,252.5161 L 997.00027,253.3597 C 997.28566,253.8234 997.49615,254.2236 997.46793,254.2489 C 997.43973,254.2741 996.59165,254.8041 995.58329,255.4266 C 991.02033,258.2437 987.04418,259.5335 983.10316,259.4751 C 982.17559,259.4614 981.19165,259.424 980.91668,259.3921 z M 1174.4811,259.2699 C 1170.6787,258.1636 1168.369,254.7731 1167.0876,248.4167 C 1165.3587,239.8402 1166.6469,231.752 1170.7109,225.6667 C 1173.1175,222.0631 1175.0906,220.3183 1178.7473,218.5601 L 1180.6436,217.6481 L 1181.3634,218.0112 C 1185.0678,219.879 1188.4682,224.3951 1189.8884,229.3333 C 1191.4878,234.894 1191.321,242.5668 1189.481,248.0779 C 1187.0927,255.2315 1182.7226,259.1777 1176.9167,259.4232 C 1175.8171,259.4697 1174.9883,259.4175 1174.4811,259.2699 z M 1180.73,255.4149 C 1182.0728,255.0651 1183.0161,254.4688 1184.0712,253.3029 C 1187.1931,249.8529 1188.3232,242.7227 1186.8002,236.0834 C 1185.4846,230.3482 1181.5567,223.2347 1178.7465,221.4978 L 1178.1776,221.1463 L 1177.4013,221.6011 C 1174.3879,223.3672 1171.6418,227.8525 1170.5754,232.7501 C 1169.7293,236.636 1170.2879,243.7767 1171.7714,248.0384 C 1172.676,250.6373 1173.5896,252.2153 1175.0196,253.6489 C 1176.8785,255.5124 1178.4682,256.0039 1180.73,255.4149 z M 119.80239,258.9943 C 118.26153,258.1804 117.0785,256.4885 113.97514,250.6606 C 113.04945,248.9224 112.27157,247.4999 112.24651,247.4999 C 112.03276,247.4999 108.47884,253.4403 106.91191,256.4168 C 106.28455,257.6083 105.69147,258.6384 105.59395,258.7058 C 105.24176,258.9491 104.66479,258.8236 103.799,258.3155 C 103.31371,258.031 102.88897,257.772 102.85512,257.7402 C 102.68619,257.5816 106.13131,252.4992 109.3591,248.1451 C 110.35326,246.8038 111.16667,245.608 111.16667,245.4873 C 111.16667,245.1127 108.02892,239.3353 106.90878,237.6475 C 106.32382,236.7661 105.58104,235.8131 105.25814,235.5296 C 104.06974,234.4861 102.61881,234.5009 100.80733,235.575 L 99.864668,236.1337 L 99.317305,235.6768 L 98.769949,235.2199 L 100.00998,234.3457 C 102.74034,232.4214 104.64173,231.4992 105.87679,231.5008 C 108.2162,231.5039 109.12125,232.5162 112.58247,238.9998 C 113.38988,240.5126 114.0678,241.7726 114.08897,241.8 C 114.11014,241.8272 114.53769,241.2644 115.03909,240.5486 C 117.49908,237.038 122.35039,231.6617 123.04874,231.6723 C 123.25703,231.6754 123.87419,232.0913 124.47119,232.6309 L 125.52571,233.584 L 123.77087,235.1402 C 121.86633,236.8292 116.37017,242.3702 115.60716,243.3706 L 115.13557,243.9889 L 116.73509,246.8939 C 120.06874,252.9482 121.81168,255.0004 123.61964,254.9999 C 124.27631,254.9997 125.90968,254.1807 127.0815,253.2642 L 128.07967,252.4834 L 128.37974,253.19 L 128.67981,253.8965 L 127.29824,255.2938 C 125.75926,256.8504 123.59957,258.5579 122.58333,259.0219 C 121.72112,259.4153 120.57814,259.4039 119.80239,258.9943 z M 278.8024,258.9943 C 277.26152,258.1804 276.07849,256.4885 272.97515,250.6606 C 272.04947,248.9224 271.27156,247.4999 271.2465,247.4999 C 271.03275,247.4999 267.47882,253.4403 265.91191,256.4168 C 265.28455,257.6083 264.69146,258.6384 264.59397,258.7058 C 264.24177,258.9491 263.66477,258.8236 262.79899,258.3155 C 262.31371,258.031 261.88897,257.772 261.85511,257.7402 C 261.68619,257.5816 265.13132,252.4992 268.35909,248.1451 C 269.35326,246.8038 270.16667,245.608 270.16667,245.4873 C 270.16667,245.1127 267.02891,239.3353 265.90878,237.6475 C 265.32383,236.7661 264.58102,235.8131 264.25813,235.5296 C 263.06974,234.4861 261.61882,234.5009 259.80733,235.575 L 258.86465,236.1337 L 258.3173,235.6768 L 257.76994,235.2199 L 259.00997,234.3457 C 261.74034,232.4214 263.64173,231.4992 264.87678,231.5008 C 267.21619,231.5039 268.12125,232.5162 271.58247,238.9998 C 272.38987,240.5126 273.06779,241.7726 273.08896,241.8 C 273.11012,241.8272 273.5377,241.2644 274.03908,240.5486 C 276.49908,237.038 281.35037,231.6617 282.04873,231.6723 C 282.25702,231.6754 282.87419,232.0913 283.47118,232.6309 L 284.52571,233.584 L 282.77086,235.1402 C 280.86633,236.8292 275.37018,242.3702 274.60716,243.3706 L 274.13556,243.9889 L 275.73508,246.8939 C 279.06872,252.9482 280.81168,255.0004 282.61965,254.9999 C 283.27631,254.9997 284.90968,254.1807 286.0815,253.2642 L 287.07965,252.4834 L 287.37975,253.19 L 287.67981,253.8965 L 286.29824,255.2938 C 284.75926,256.8504 282.59956,258.5579 281.58333,259.0219 C 280.72111,259.4153 279.57814,259.4039 278.8024,258.9943 z M 454.3024,258.9943 C 452.76151,258.1804 451.5785,256.4885 448.47512,250.6606 C 447.54945,248.9224 446.77156,247.4999 446.74649,247.4999 C 446.53276,247.4999 442.97883,253.4403 441.4119,256.4168 C 440.78454,257.6083 440.19145,258.6384 440.09394,258.7058 C 439.74176,258.9491 439.16478,258.8236 438.29898,258.3155 C 437.81372,258.031 437.38894,257.772 437.35511,257.7402 C 437.1862,257.5816 440.63132,252.4992 443.85908,248.1451 C 444.85324,246.8038 445.66666,245.608 445.66666,245.4873 C 445.66666,245.1127 442.5289,239.3353 441.40877,237.6475 C 440.82382,236.7661 440.08103,235.8131 439.75812,235.5296 C 438.56975,234.4861 437.11881,234.5009 435.30732,235.575 L 434.36466,236.1337 L 433.8173,235.6768 L 433.26993,235.2199 L 434.50995,234.3457 C 437.24033,232.4214 439.14173,231.4992 440.37679,231.5008 C 442.7162,231.5039 443.62124,232.5162 447.08244,238.9998 C 447.88986,240.5126 448.56778,241.7726 448.58896,241.8 C 448.61013,241.8272 449.03769,241.2644 449.53905,240.5486 C 451.99907,237.038 456.85038,231.6617 457.54872,231.6723 C 457.75701,231.6754 458.37418,232.0913 458.97117,232.6309 L 460.02569,233.584 L 458.27087,235.1402 C 456.36632,236.8292 450.87018,242.3702 450.10716,243.3706 L 449.63556,243.9889 L 451.23507,246.8939 C 454.56871,252.9482 456.31168,255.0004 458.11964,254.9999 C 458.7763,254.9997 460.40965,254.1807 461.58149,253.2642 L 462.57966,252.4834 L 462.87974,253.19 L 463.17981,253.8965 L 461.79824,255.2938 C 460.25927,256.8504 458.09957,258.5579 457.08331,259.0219 C 456.2211,259.4153 455.07813,259.4039 454.3024,258.9943 z M 591.30239,258.9943 C 589.76153,258.1804 588.5785,256.4885 585.47514,250.6606 C 584.54947,248.9224 583.77156,247.4999 583.74651,247.4999 C 583.53276,247.4999 579.97881,253.4403 578.4119,256.4168 C 577.78452,257.6083 577.19147,258.6384 577.09396,258.7058 C 576.74176,258.9491 576.16478,258.8236 575.29899,258.3155 C 574.8137,258.031 574.38896,257.772 574.3551,257.7402 C 574.18617,257.5816 577.63129,252.4992 580.85909,248.1451 C 581.85326,246.8038 582.66664,245.608 582.66664,245.4873 C 582.66664,245.1127 579.52892,239.3353 578.40877,237.6475 C 577.82384,236.7661 577.08103,235.8131 576.75812,235.5296 C 575.56973,234.4861 574.11879,234.5009 572.30732,235.575 L 571.36466,236.1337 L 570.81729,235.6768 L 570.26995,235.2199 L 571.50997,234.3457 C 574.24033,232.4214 576.14171,231.4992 577.37677,231.5008 C 579.71617,231.5039 580.62124,232.5162 584.08245,238.9998 C 584.88988,240.5126 585.56779,241.7726 585.58896,241.8 C 585.61011,241.8272 586.03769,241.2644 586.53907,240.5486 C 588.99907,237.038 593.85036,231.6617 594.54873,231.6723 C 594.75703,231.6754 595.37419,232.0913 595.97117,232.6309 L 597.02571,233.584 L 595.27084,235.1402 C 593.36633,236.8292 587.87018,242.3702 587.10717,243.3706 L 586.63555,243.9889 L 588.23507,246.8939 C 591.56873,252.9482 593.31167,255.0004 595.11963,254.9999 C 595.77631,254.9997 597.40967,254.1807 598.58149,253.2642 L 599.57964,252.4834 L 599.87975,253.19 L 600.1798,253.8965 L 598.79823,255.2938 C 597.25923,256.8504 595.09954,258.5579 594.08333,259.0219 C 593.22112,259.4153 592.07814,259.4039 591.30239,258.9943 z M 720.96906,258.9943 C 719.4282,258.1804 718.24514,256.4885 715.14183,250.6606 C 714.21608,248.9224 713.43824,247.4999 713.41321,247.4999 C 713.1994,247.4999 709.64547,253.4403 708.07856,256.4168 C 707.4512,257.6083 706.85814,258.6384 706.76065,258.7058 C 706.4084,258.9491 705.83145,258.8236 704.96565,258.3155 C 704.48038,258.031 704.0556,257.772 704.02177,257.7402 C 703.85281,257.5816 707.29795,252.4992 710.52575,248.1451 C 711.5199,246.8038 712.33333,245.608 712.33333,245.4873 C 712.33333,245.1127 709.19559,239.3353 708.07544,237.6475 C 707.49051,236.7661 706.74765,235.8131 706.42478,235.5296 C 705.23643,234.4861 703.7855,234.5009 701.97398,235.575 L 701.03132,236.1337 L 700.48395,235.6768 L 699.93656,235.2199 L 701.17666,234.3457 C 703.90695,232.4214 705.80837,231.4992 707.04348,231.5008 C 709.38287,231.5039 710.28791,232.5162 713.74914,238.9998 C 714.55656,240.5126 715.23447,241.7726 715.25563,241.8 C 715.27682,241.8272 715.70437,241.2644 716.20574,240.5486 C 718.66572,237.038 723.51706,231.6617 724.21539,231.6723 C 724.42373,231.6754 725.04087,232.0913 725.63784,232.6309 L 726.69235,233.584 L 724.93748,235.1402 C 723.03294,236.8292 717.53685,242.3702 716.77384,243.3706 L 716.30222,243.9889 L 717.90175,246.8939 C 721.23537,252.9482 722.97834,255.0004 724.78633,254.9999 C 725.44299,254.9997 727.07634,254.1807 728.24817,253.2642 L 729.24632,252.4834 L 729.54639,253.19 L 729.84647,253.8965 L 728.46488,255.2938 C 726.92592,256.8504 724.76624,258.5579 723.75002,259.0219 C 722.88774,259.4153 721.7448,259.4039 720.96906,258.9943 z M 879.96901,258.9943 C 878.42816,258.1804 877.24517,256.4885 874.1418,250.6606 C 873.21611,248.9224 872.43821,247.4999 872.41316,247.4999 C 872.19943,247.4999 868.6455,253.4403 867.07859,256.4168 C 866.45116,257.6083 865.85811,258.6384 865.7606,258.7058 C 865.40843,258.9491 864.83141,258.8236 863.96568,258.3155 C 863.48034,258.031 863.05563,257.772 863.02172,257.7402 C 862.85284,257.5816 866.29798,252.4992 869.52578,248.1451 C 870.51993,246.8038 871.33328,245.608 871.33328,245.4873 C 871.33328,245.1127 868.19554,239.3353 867.07541,237.6475 C 866.49048,236.7661 865.74768,235.8131 865.42479,235.5296 C 864.23639,234.4861 862.78545,234.5009 860.97401,235.575 L 860.03135,236.1337 L 859.48396,235.6768 L 858.93659,235.2199 L 860.17663,234.3457 C 862.90697,232.4214 864.8084,231.4992 866.04343,231.5008 C 868.38284,231.5039 869.28788,232.5162 872.74911,238.9998 C 873.55652,240.5126 874.23448,241.7726 874.2556,241.8 C 874.27677,241.8272 874.70433,241.2644 875.20571,240.5486 C 877.66574,237.038 882.51702,231.6617 883.21536,231.6723 C 883.42368,231.6754 884.04083,232.0913 884.63781,232.6309 L 885.69238,233.584 L 883.93751,235.1402 C 882.03298,236.8292 876.53681,242.3702 875.77379,243.3706 L 875.30219,243.9889 L 876.90171,246.8939 C 880.2354,252.9482 881.97829,255.0004 883.78629,254.9999 C 884.44294,254.9997 886.07637,254.1807 887.24813,253.2642 L 888.24635,252.4834 L 888.54636,253.19 L 888.84644,253.8965 L 887.46492,255.2938 C 885.92589,256.8504 883.76619,258.5579 882.74999,259.0219 C 881.88777,259.4153 880.74483,259.4039 879.96901,258.9943 z M 76.702414,258.9692 C 76.286436,258.553 78.635955,254.7113 82.493462,249.5001 C 85.295638,245.7143 89.840237,238.772 89.637562,238.5867 C 89.607738,238.5594 88.945829,238.7954 88.166664,239.111 C 85.86269,240.0446 82.504709,241.0186 81.249996,241.1167 C 77.339307,241.423 73.735719,238.7125 72.231532,234.3333 C 71.766636,232.9799 71.801346,229.8767 72.301069,228.1169 C 73.50962,223.8604 75.79685,221.4896 81.485628,218.5969 C 83.919155,217.3594 84.109617,217.3291 86.833331,217.7421 C 90.124565,218.2411 92.124251,219.1276 93.65896,220.7683 C 95.33151,222.5563 96.323464,225.1048 96.330434,227.6319 C 96.33787,230.3238 94.943748,234.2632 92.454738,238.5834 C 92.085062,239.2249 90.603846,241.5499 89.163167,243.7499 C 87.722479,245.9499 86.110352,248.4999 85.580663,249.4167 C 84.040465,252.0822 82.38992,255.5823 82.083406,256.833 C 81.897654,257.5909 81.70578,258.0163 81.525183,258.07 C 81.37383,258.1152 80.387499,258.346 79.333331,258.5832 C 78.279161,258.8206 77.300637,259.0492 77.158825,259.091 C 77.017013,259.1331 76.811633,259.0782 76.702414,258.9692 z M 86.85733,237.5928 C 88.361577,237.2741 89.146136,236.8406 90.061449,235.8226 C 91.186745,234.5709 91.583331,233.2057 91.583331,230.5833 C 91.583331,228.2542 91.247526,226.931 90.213674,225.1862 C 88.487436,222.2729 86.190219,221.0025 82.587959,220.9691 L 80.925924,220.9536 L 79.736776,222.2142 C 77.666099,224.4092 76.678922,226.9783 76.884851,229.6361 C 77.198299,233.6814 79.597313,237.0739 82.559175,237.6601 C 83.662108,237.8784 85.657465,237.8472 86.85733,237.5928 z M 375.7086,258.7872 C 375.61275,258.6633 375.6013,257.7981 375.67943,256.5834 C 375.75016,255.4833 375.81372,252.9896 375.82071,251.0418 L 375.83332,247.4999 L 367.33331,247.4999 L 358.83333,247.4999 L 358.8335,246.2082 L 358.83369,244.9166 L 367.16495,232.2501 L 375.49624,219.5834 L 377.69753,218.5596 C 378.90826,217.9964 379.99661,217.5731 380.11611,217.6189 C 380.29217,217.6865 380.33332,220.2875 380.33332,231.3511 L 380.33332,245 L 383.51782,245 C 385.99902,245 386.6838,245.0461 386.61851,245.2083 C 386.57238,245.3229 386.32955,245.8855 386.07887,246.4583 L 385.62309,247.4999 L 382.95834,247.4999 L 380.29358,247.4999 L 380.35988,252.3005 L 380.42618,257.1011 L 378.75474,257.788 C 377.83546,258.1659 376.80952,258.591 376.47487,258.7328 C 376.00053,258.9339 375.83159,258.9458 375.7086,258.7872 z M 375.83332,234.5 C 375.83332,224.239 375.82601,224 375.51172,224 C 374.89525,224 372.18399,227.7078 369.29629,232.5001 C 367.04719,236.2325 362.49999,244.5214 362.49999,244.8891 C 362.49999,244.95 365.49998,245 369.16664,245 L 375.83332,245 L 375.83332,234.5 z M 846.54191,258.7872 C 846.44603,258.6633 846.4346,257.7981 846.51276,256.5834 C 846.58345,255.4833 846.64707,252.9896 846.65402,251.0418 L 846.66662,247.4999 L 838.16669,247.4999 L 829.66661,247.4999 L 829.66681,246.2082 L 829.66702,244.9166 L 837.99834,232.2501 L 846.32958,219.5834 L 848.53083,218.5596 C 849.74157,217.9964 850.82991,217.5731 850.94939,217.6189 C 851.12545,217.6865 851.16666,220.2875 851.16666,231.3511 L 851.16666,245 L 854.35115,245 C 856.83238,245 857.51711,245.0461 857.45182,245.2083 C 857.40568,245.3229 857.1629,245.8855 856.91221,246.4583 L 856.45637,247.4999 L 853.79166,247.4999 L 851.12687,247.4999 L 851.19317,252.3005 L 851.25949,257.1011 L 849.5881,257.788 C 848.66879,258.1659 847.64283,258.591 847.30818,258.7328 C 846.83387,258.9339 846.66493,258.9458 846.54191,258.7872 z M 846.66662,234.5 C 846.66662,224.239 846.6593,224 846.34509,224 C 845.72856,224 843.01728,227.7078 840.12962,232.5001 C 837.88054,236.2325 833.33334,244.5214 833.33334,244.8891 C 833.33334,244.95 836.33332,245 839.99997,245 L 846.66662,245 L 846.66662,234.5 z M 1147.7948,258.7919 C 1147.553,258.6044 1147.541,258.1866 1147.6764,254.6667 C 1147.7592,252.5125 1147.8728,244.975 1147.929,237.9168 L 1148.0311,225.0832 L 1147.6406,224.3339 C 1147.387,223.8477 1147.016,223.4539 1146.5833,223.2119 C 1145.9677,222.8673 1145.7029,222.8386 1143.1249,222.8361 L 1140.3333,222.8333 L 1140.3333,222.0402 L 1140.3333,221.2471 L 1146.668,219.1372 C 1152.5765,217.1694 1153.014,217.0481 1153.168,217.3358 C 1153.2772,217.54 1153.2709,219.3791 1153.149,222.7804 C 1153.0392,225.8457 1152.9889,233.8732 1153.0241,242.6898 L 1153.0833,257.463 L 1150.6386,258.2315 C 1149.2941,258.6542 1148.1647,259.0001 1148.1288,259.0001 C 1148.093,259.0001 1147.9427,258.9064 1147.7948,258.7919 z M 228.99999,258.0616 C 228.99999,257.7257 229.49671,257.1111 231.125,255.4322 C 238.97494,247.3382 243.75907,241.4443 245.85649,237.2839 C 248.13391,232.7664 248.63982,227.4163 247.08933,224.2475 C 246.52704,223.098 245.303,221.9215 244.00526,221.2824 C 243.02825,220.8016 242.77654,220.75 241.40201,220.75 C 239.9014,220.75 239.85606,220.7621 238.12368,221.6233 C 237.15751,222.1035 235.74792,222.966 234.99128,223.5398 C 234.23464,224.1138 233.4842,224.6815 233.3237,224.8016 C 233.06797,224.9926 232.97488,224.9449 232.57166,224.4162 L 232.1115,223.8129 L 233.42821,222.4884 C 239.25393,216.6282 246.54289,215.4957 250.81621,219.7863 C 252.65721,221.6349 253.43738,223.8325 253.28832,226.7499 C 253.17884,228.893 252.62577,230.7059 251.2319,233.4911 C 249.14566,237.6597 245.26267,243.0425 239.05444,250.3724 C 237.83282,251.8147 236.83332,253.0629 236.83332,253.1461 C 236.83332,253.2295 236.95197,253.3433 237.09696,253.399 C 237.24196,253.4545 241.55446,253.5001 246.6803,253.5001 C 253.57812,253.5001 255.99999,253.5498 255.99999,253.6911 C 255.99999,253.7963 255.73257,254.7901 255.40573,255.8996 C 255.07887,257.0088 254.77383,258.0479 254.72783,258.2084 C 254.6491,258.4829 253.89064,258.5001 241.8221,258.5001 L 228.99999,258.5001 L 228.99999,258.0616 z M 1194.1666,258.0616 C 1194.1666,257.7257 1194.6633,257.1111 1196.2916,255.4322 C 1204.1416,247.3382 1208.9257,241.4443 1211.0231,237.2839 C 1213.3005,232.7664 1213.8065,227.4163 1212.256,224.2475 C 1211.6936,223.098 1210.4696,221.9215 1209.1719,221.2824 C 1208.1949,220.8016 1207.9432,220.75 1206.5687,220.75 C 1205.0681,220.75 1205.0227,220.7621 1203.2903,221.6233 C 1202.3242,222.1035 1200.9146,222.966 1200.1579,223.5398 C 1199.4013,224.1138 1198.6508,224.6815 1198.4903,224.8016 C 1198.2346,224.9926 1198.1415,224.9449 1197.7383,224.4162 L 1197.2781,223.8129 L 1198.5948,222.4884 C 1204.4206,216.6282 1211.7095,215.4957 1215.9829,219.7863 C 1217.8239,221.6349 1218.604,223.8325 1218.4549,226.7499 C 1218.3455,228.893 1217.7924,230.7059 1216.3986,233.4911 C 1214.3123,237.6597 1210.4293,243.0425 1204.2211,250.3724 C 1202.9994,251.8147 1202,253.0629 1202,253.1461 C 1202,253.2295 1202.1186,253.3433 1202.2636,253.399 C 1202.4086,253.4545 1206.7211,253.5001 1211.847,253.5001 C 1218.7448,253.5001 1221.1666,253.5498 1221.1666,253.6911 C 1221.1666,253.7963 1220.8992,254.7901 1220.5724,255.8996 C 1220.2455,257.0088 1219.9404,258.0479 1219.8944,258.2084 C 1219.8158,258.4829 1219.0573,258.5001 1206.9887,258.5001 L 1194.1666,258.5001 L 1194.1666,258.0616 z M 483.55756,250.7084 C 483.60154,250.548 483.72657,250.0229 483.83539,249.5416 L 484.03324,248.6667 L 503.45112,248.6667 C 518.91693,248.6667 522.85273,248.7091 522.78908,248.875 C 522.74514,248.9898 522.61265,249.5148 522.49473,250.0417 L 522.28025,251.0001 L 502.87893,251.0001 C 484.48206,251.0001 483.48168,250.9849 483.55756,250.7084 z M 1077.5575,250.7084 C 1077.6015,250.548 1077.7265,250.0229 1077.8353,249.5416 L 1078.0333,248.6667 L 1097.4511,248.6667 C 1112.9169,248.6667 1116.8527,248.7091 1116.7891,248.875 C 1116.7451,248.9898 1116.6126,249.5148 1116.4947,250.0417 L 1116.2802,251.0001 L 1096.8789,251.0001 C 1078.4821,251.0001 1077.4817,250.9849 1077.5575,250.7084 z M 483.55756,239.2084 C 483.60154,239.0478 483.72657,238.5229 483.83539,238.0417 L 484.03324,237.1667 L 503.45112,237.1667 C 518.91693,237.1667 522.85273,237.2091 522.78908,237.3751 C 522.74514,237.4896 522.61265,238.0146 522.49473,238.5417 L 522.28025,239.5001 L 502.87893,239.5001 C 484.48206,239.5001 483.48168,239.4849 483.55756,239.2084 z M 1077.5575,239.2084 C 1077.6015,239.0478 1077.7265,238.5229 1077.8353,238.0417 L 1078.0333,237.1667 L 1097.4511,237.1667 C 1112.9169,237.1667 1116.8527,237.2091 1116.7891,237.3751 C 1116.7451,237.4896 1116.6126,238.0146 1116.4947,238.5417 L 1116.2802,239.5001 L 1096.8789,239.5001 C 1078.4821,239.5001 1077.4817,239.4849 1077.5575,239.2084 z M 608.16665,234.9255 C 607.57081,234.7975 606.76015,234.5761 606.36516,234.4335 C 605.11535,233.9827 603.34827,232.9764 603.24719,232.6579 C 603.18173,232.4517 603.50087,231.8261 604.22154,230.7483 L 605.29324,229.1458 L 605.63727,229.698 C 606.08024,230.409 607.74793,232.0173 608.49999,232.4591 C 610.38886,233.5681 612.981,233.6093 615.07626,232.5632 C 617.99686,231.105 619.31362,227.3144 617.90149,224.4303 C 616.58655,221.745 614.43254,220.6627 609.86637,220.3929 L 607.98273,220.2816 L 608.03304,219.7798 C 608.08174,219.294 608.13219,219.2659 609.64028,218.8875 C 613.73606,217.86 615.85438,216.2823 616.60508,213.6999 C 617.33699,211.182 615.99408,208.8837 613.47538,208.3436 C 611.59943,207.9414 610.02989,208.2961 607.63958,209.6626 L 606.25989,210.4515 L 605.95243,210.0609 C 605.78332,209.8458 605.69254,209.5929 605.75065,209.499 C 605.94977,209.1767 608.34055,207.6516 609.80173,206.9148 C 611.81681,205.8984 613.06238,205.6016 614.8333,205.7154 C 616.87455,205.8467 618.0298,206.318 619.18489,207.4905 C 620.40129,208.7254 620.73487,209.6635 620.63486,211.5688 C 620.45675,214.9623 618.15896,217.3048 613.59711,218.7436 C 613.04338,218.918 613.52831,219.1125 615.01793,219.3129 C 617.76466,219.6823 619.84217,220.4327 621.0461,221.4897 C 621.87572,222.218 622.67206,223.8776 622.78389,225.1109 C 623.07635,228.3362 620.79878,231.8513 617.30073,233.5731 C 616.44783,233.9932 615.14998,234.4908 614.41667,234.6793 C 612.68435,235.1243 609.64883,235.244 608.16665,234.9255 z M 131.34524,233.9584 C 131.35331,233.7038 131.81532,233.1817 132.78288,232.3333 C 135.24731,230.1729 140.93018,224.3955 142.41807,222.5384 C 144.99279,219.3246 146.32267,215.9615 146.11721,213.184 C 145.99199,211.4913 145.61031,210.4771 144.77556,209.6195 C 143.69078,208.5049 142.6964,208.1044 140.98238,208.0929 C 139.57855,208.0834 139.51067,208.1018 137.7859,208.959 C 136.81671,209.4407 135.69027,210.0893 135.28272,210.4002 L 134.54171,210.966 L 134.11992,210.5441 L 133.69812,210.1225 L 134.8074,209.1525 C 140.3397,204.3154 147.7388,204.3436 149.92273,209.2101 C 151.62871,213.0115 149.59407,217.3 142.21918,225.4466 C 141.15531,226.6216 139.64896,228.2316 138.87173,229.0241 C 138.06941,229.8421 137.50782,230.5444 137.57247,230.6491 C 137.6529,230.7792 139.89132,230.8334 145.19433,230.8334 C 152.27634,230.8334 152.69598,230.8499 152.59037,231.1251 C 152.5288,231.2853 152.27863,232.0729 152.03444,232.8749 L 151.59046,234.3333 L 141.4619,234.3333 L 131.33333,234.3333 L 131.34524,233.9584 z M 732.51187,233.9584 C 732.52,233.7038 732.98198,233.1817 733.94955,232.3333 C 736.41399,230.1729 742.09682,224.3955 743.58471,222.5384 C 746.15944,219.3246 747.48932,215.9615 747.28384,213.184 C 747.15867,211.4913 746.77699,210.4771 745.94225,209.6195 C 744.85742,208.5049 743.86306,208.1044 742.14906,208.0929 C 740.74521,208.0834 740.67728,208.1018 738.95258,208.959 C 737.98333,209.4407 736.85689,210.0893 736.44938,210.4002 L 735.70834,210.966 L 735.28654,210.5441 L 734.86481,210.1225 L 735.97405,209.1525 C 741.50634,204.3154 748.90542,204.3436 751.0894,209.2101 C 752.79536,213.0115 750.76077,217.3 743.38585,225.4466 C 742.32194,226.6216 740.81565,228.2316 740.03843,229.0241 C 739.2361,229.8421 738.6745,230.5444 738.73912,230.6491 C 738.81957,230.7792 741.05795,230.8334 746.361,230.8334 C 753.44301,230.8334 753.86266,230.8499 753.75703,231.1251 C 753.69545,231.2853 753.44532,232.0729 753.20106,232.8749 L 752.75712,234.3333 L 742.62851,234.3333 L 732.49997,234.3333 L 732.51187,233.9584 z M 1036.6667,206.2589 C 1036.0708,206.1308 1035.2602,205.9094 1034.8652,205.7668 C 1033.6153,205.3161 1031.8483,204.3097 1031.7472,203.9912 C 1031.6817,203.7849 1032.0008,203.1596 1032.7215,202.0817 L 1033.7933,200.4792 L 1034.1373,201.0313 C 1034.5802,201.7423 1036.2479,203.3507 1037,203.7923 C 1038.8889,204.9017 1041.481,204.9427 1043.5763,203.8965 C 1046.4968,202.4383 1047.8137,198.6478 1046.4014,195.7636 C 1045.0865,193.0783 1042.9325,191.9959 1038.3663,191.7263 L 1036.4828,191.6149 L 1036.533,191.1131 C 1036.5817,190.6272 1036.6322,190.5992 1038.1403,190.2209 C 1042.236,189.1933 1044.3544,187.6156 1045.1051,185.0332 C 1045.837,182.5154 1044.4941,180.2172 1041.9754,179.677 C 1040.0994,179.2747 1038.5299,179.6294 1036.1396,180.9961 L 1034.7599,181.7849 L 1034.4524,181.3941 C 1034.2833,181.1791 1034.1925,180.9264 1034.2507,180.8323 C 1034.4498,180.51 1036.8405,178.9849 1038.3017,178.248 C 1040.3168,177.2318 1041.5623,176.9349 1043.3333,177.0489 C 1045.3745,177.1801 1046.5298,177.6514 1047.6849,178.8238 C 1048.9013,180.0587 1049.2349,180.9968 1049.1349,182.9021 C 1048.9567,186.2956 1046.6589,188.6382 1042.0971,190.0769 C 1041.5434,190.2514 1042.0283,190.4458 1043.518,190.6462 C 1046.2647,191.0158 1048.3421,191.7661 1049.5461,192.8231 C 1050.3757,193.5514 1051.172,195.2109 1051.2839,196.4443 C 1051.5763,199.6695 1049.2988,203.1846 1045.8007,204.9067 C 1044.9478,205.3264 1043.65,205.8241 1042.9166,206.0125 C 1041.1844,206.4579 1038.1489,206.5772 1036.6667,206.2589 z M 38.166666,193.9255 C 37.570833,193.7975 36.760166,193.5761 36.365185,193.4335 C 35.115359,192.9828 33.348296,191.9763 33.247197,191.6579 C 33.181728,191.4516 33.500906,190.8261 34.221546,189.7485 L 35.293255,188.1458 L 35.637265,188.6979 C 36.080257,189.409 37.747933,191.0173 38.5,191.459 C 40.388885,192.5683 42.981014,192.6093 45.076287,191.5633 C 47.996869,190.105 49.313631,186.3145 47.901477,183.4304 C 46.586562,180.7451 44.432533,179.6626 39.86637,179.3929 L 37.982741,179.2816 L 38.033036,178.7797 C 38.081755,178.2939 38.132194,178.2659 39.640292,177.8875 C 43.73608,176.8601 45.854379,175.2822 46.60509,172.6998 C 47.33702,170.1821 45.994102,167.8838 43.475398,167.3435 C 41.599424,166.9413 40.029904,167.2961 37.639587,168.6628 L 36.259892,169.4516 L 35.952448,169.0607 C 35.783355,168.8458 35.692548,168.5929 35.750658,168.499 C 35.949806,168.1767 38.340544,166.6517 39.801729,165.9148 C 41.816807,164.8984 43.062385,164.6016 44.833332,164.7155 C 46.87457,164.8466 48.029807,165.3179 49.184898,166.4905 C 50.401313,167.7254 50.734876,168.6635 50.634874,170.5688 C 50.456767,173.9623 48.158982,176.3048 43.59713,177.7436 C 43.043399,177.9182 43.528337,178.1125 45.017927,178.3129 C 47.764674,178.6824 49.842182,179.4326 51.046136,180.4896 C 51.875743,181.2181 52.672057,182.8775 52.783909,184.1111 C 53.076356,187.3362 50.798772,190.8512 47.300732,192.5732 C 46.447831,192.9932 45.149999,193.4908 44.416665,193.6793 C 42.684371,194.1244 39.648833,194.2439 38.166666,193.9255 z M 573.12722,42.673 C 570.92958,42.2703 569.22608,41.4007 567.82894,39.9685 C 566.79715,38.9109 565.73668,37.1304 565.93662,36.7916 C 566.00422,36.677 566.76507,35.7771 567.62744,34.7916 C 569.65965,32.4694 569.82712,32.4602 570.66039,34.623 C 571.98205,38.0537 573.8893,39.5608 577.20029,39.7906 C 578.85912,39.9059 580.27824,39.6257 581.79537,38.8833 C 585.42348,37.1074 587.22546,32.7609 585.84084,29.1246 C 585.11347,27.2146 583.51393,25.7034 580.82436,24.3852 C 580.05014,24.0059 578.02914,23.0195 576.33331,22.1933 C 573.05017,20.5937 571.70118,19.6618 570.64366,18.2626 C 569.14267,16.2766 568.40163,13.8234 568.55117,11.3348 C 568.73461,8.2819 569.57477,6.2579 571.43475,4.3885 C 572.41474,3.4037 572.92744,3.0478 574.35344,2.3628 C 576.86797,1.1551 578.02378,0.9146 581.24998,0.9268 C 586.15966,0.9451 588.45677,1.9932 590.5428,5.1667 L 591.36447,6.4168 L 590.39057,7.3083 C 587.26209,10.1722 587.04913,10.2464 586.59968,8.6298 C 585.73343,5.5141 584.09926,3.8575 581.36614,3.3247 C 576.73001,2.4207 572.90931,5.6733 573.20447,10.2726 C 573.35891,12.6789 575.00932,15.0977 577.73289,16.9101 C 578.47929,17.4066 580.66903,18.6332 582.59895,19.6355 C 584.52892,20.6377 586.60864,21.774 587.22061,22.1604 C 589.38706,23.5287 590.78097,25.5836 591.28781,28.1561 C 591.5229,29.3495 591.53197,29.7408 591.3532,30.9791 C 590.96366,33.6767 589.94949,35.5584 587.65903,37.8334 C 585.3447,40.132 582.95421,41.473 579.65635,42.3228 C 578.08571,42.7277 574.48089,42.9209 573.12722,42.673 z M 662.45765,42.663 C 661.44781,42.4079 660.25896,41.7325 659.70089,41.0969 C 659.09204,40.4035 658.59899,38.9259 658.32479,36.9731 C 658.20317,36.1071 658.12092,32.8192 658.10649,28.25 C 658.08091,20.1544 658.03739,19.7501 657.08238,18.7376 C 656.27905,17.8858 655.63275,17.9448 653.38761,19.0748 L 651.5833,19.9829 L 651.08332,19.4813 L 650.58333,18.9797 L 651.08332,18.5686 C 652.13255,17.706 654.87755,15.9626 656.1032,15.3806 C 658.16658,14.4006 659.91773,14.4619 661.11137,15.5558 C 662.14127,16.4998 662.19412,16.9375 662.34164,25.7501 C 662.48074,34.057 662.58584,35.2058 663.35133,36.7872 C 664.18628,38.512 666.69425,39.3916 669.13451,38.8154 C 670.26488,38.5485 672.72539,37.3296 674.12499,36.343 L 675.33334,35.4915 L 675.37499,30.6207 C 675.39791,27.9418 675.41665,23.6682 675.41665,21.1238 L 675.41665,16.4977 L 677.63506,15.4718 L 679.85349,14.4461 L 680.19206,14.7847 C 680.51881,15.1114 680.52429,15.2063 680.34844,17.5199 C 679.85559,24.0058 679.68075,33.1169 680.00972,35.1667 C 680.3303,37.1642 681.00868,37.9871 682.44588,38.122 C 683.50316,38.2211 684.68453,37.7721 686.6936,36.5073 L 688.24996,35.5276 L 688.61074,36.2221 L 688.9715,36.9167 L 688.61074,37.3069 C 687.29093,38.7343 682.74392,41.6991 681.11626,42.1934 C 678.31925,43.043 676.07732,41.8267 675.72684,39.2697 C 675.55981,38.0512 675.47319,38.01 674.38037,38.6308 C 672.52996,39.6818 668.90443,41.4598 667.34523,42.0811 C 666.08482,42.5834 665.50762,42.7186 664.42857,42.7642 C 663.68869,42.7956 662.80175,42.7501 662.45765,42.663 z M 490.5,42.309 C 489.51782,41.6484 488.88432,40.0097 486.8208,32.7916 L 484.92677,26.1667 L 477.83838,26.1727 L 470.75,26.1788 L 467.33332,33.5175 C 465.45416,37.5536 463.85084,40.8989 463.77039,40.951 C 463.68989,41.0032 462.47306,41.2883 461.06629,41.5844 C 458.71193,42.0799 458.50126,42.1 458.41767,41.8366 C 458.36083,41.6576 459.01962,40.3762 460.17995,38.4091 C 468.39393,24.4845 478.25596,6.2531 478.13656,5.2137 L 478.08333,4.75 L 475.20832,4.2524 L 472.33332,3.7554 L 472.33332,2.9611 L 472.33332,2.1667 L 477.9783,2.1667 L 483.62329,2.1667 L 483.82178,3.2084 C 484.5538,7.0501 489.5399,25.5941 491.18232,30.5833 C 491.72548,32.2333 492.60638,34.4833 493.13984,35.5833 C 494.63055,38.6571 495.30864,39.0995 498.46675,39.0593 L 500.35013,39.0352 L 500.30008,39.8001 L 500.24998,40.565 L 496.91667,41.5376 C 492.83377,42.7288 491.38312,42.903 490.5,42.309 z M 484.2555,23.2083 C 484.01826,22.2542 479.79113,8.24 479.67765,8.0317 C 479.57175,7.837 478.32476,10.3679 473.0617,21.4584 L 472.01377,23.6666 L 478.19159,23.6666 L 484.36945,23.6666 L 484.2555,23.2083 z M 699.14749,42.4478 C 697.67456,41.8947 697.02697,41.0434 696.54326,39.0239 C 696.31455,38.0692 696.26463,35.7828 696.18066,22.4166 C 696.09229,8.3512 696.05724,6.8593 695.80168,6.2954 C 695.44782,5.5146 694.71362,5.0611 693.60924,4.9413 C 693.13663,4.8899 692.28124,4.7997 691.70829,4.7409 L 690.66664,4.6339 L 690.66664,3.9078 C 690.66664,3.0454 690.10314,3.1989 695.83328,2.4985 C 698.07918,2.224 700.1934,1.956 700.5317,1.9033 L 701.14669,1.8075 L 701.07164,3.2787 C 700.43048,15.8569 700.2001,33.1777 700.6447,35.3797 C 701.03525,37.3137 701.93204,38.2499 703.39367,38.2499 C 704.42402,38.2499 705.50444,37.6652 707.37427,36.0955 L 708.55098,35.1076 L 708.94131,35.5954 C 709.156,35.8638 709.33206,36.1449 709.33246,36.2202 C 709.33415,36.4962 707.77442,38.5308 706.81106,39.5092 C 705.65044,40.6879 704.17867,41.6803 702.85785,42.1743 C 701.65895,42.623 699.94982,42.7489 699.14749,42.4478 z M 721.17644,42.4184 C 717.39442,41.5596 715.22438,38.6664 714.22468,33.1503 C 713.84496,31.0548 713.84131,26.5642 714.21798,24.8975 C 714.9946,21.4609 716.54526,19.0668 719.33334,17 C 723.23619,14.1067 728.95639,13.1704 732.49774,14.8453 C 734.9123,15.9871 736.65878,18.8621 736.66468,21.7045 C 736.66637,22.5146 736.60993,22.6948 736.29166,22.8947 C 736.08542,23.0243 732.0308,24.8001 727.28135,26.8411 L 718.64609,30.5518 L 718.76031,31.2279 C 719.11208,33.3098 720.10474,35.2895 721.49134,36.674 C 722.54239,37.7237 723.47098,38.2125 724.97605,38.5086 C 727.72109,39.0486 730.58514,38.1431 734.53171,35.4871 L 735.98014,34.5122 L 736.49931,35.2144 L 737.01847,35.9165 L 736.46758,36.3934 C 733.00175,39.3928 729.72184,41.3931 727.00002,42.1678 C 725.36227,42.634 722.64145,42.7512 721.17644,42.4184 z M 725.33331,25.6196 C 728.22083,24.4775 730.75409,23.4902 730.96276,23.4256 C 732.45686,22.9631 731.89331,19.934 729.9412,17.9345 C 728.22787,16.1797 726.13706,15.8872 723.74684,17.0686 C 720.75395,18.5477 718.8158,22.1146 718.54988,26.6326 L 718.44886,28.3486 L 719.26609,28.0225 C 719.71555,27.843 722.44585,26.7617 725.33331,25.6196 z M 551.66698,42.1622 C 551.30441,42.077 550.88641,41.7898 550.5614,41.4027 L 550.03878,40.7802 L 549.93283,37.4318 C 549.87458,35.5901 549.71243,30.1084 549.57253,25.25 C 549.16343,11.0431 549.10802,9.9398 548.77831,9.4365 C 548.38088,8.8301 548.16664,8.8913 548.16664,9.6123 C 548.16664,10.0923 547.57611,11.2895 545.43322,15.1539 C 541.41142,22.4068 538.39875,28.1128 534.71297,35.4584 L 531.43057,42.0001 L 530.42363,41.9987 L 529.41666,41.9972 L 528.68012,40.2069 C 522.23281,24.5362 516.17983,10.8177 515.29901,9.8802 C 514.81512,9.3651 514.43266,9.3757 514.56438,9.9007 C 514.61969,10.1209 514.51678,11.3951 514.33575,12.732 C 513.61283,18.0709 512.30587,30.4873 511.6465,38.2815 L 511.44647,40.6464 L 509.19695,41.4136 C 507.84659,41.8741 506.88683,42.1201 506.79584,42.0293 C 506.70488,41.9383 506.8797,40.653 507.23329,38.8139 C 509.57539,26.6312 512.49997,8.6735 512.49997,6.4752 C 512.49997,5.7165 512.43446,5.5629 511.87498,5.011 C 511.32898,4.4726 510.98145,4.3223 509.1255,3.8226 L 507.001,3.25 L 507.00051,2.375 L 506.99997,1.5002 L 512.375,1.5034 L 517.75,1.5064 L 518.73608,4.2115 C 520.78273,9.8263 524.14279,17.631 528.9967,28.045 C 530.39683,31.0488 531.61999,33.5545 531.71484,33.613 C 531.80969,33.6717 532.01792,33.5584 532.17757,33.3612 C 532.73362,32.6746 537.948,22.7897 544.74273,9.5417 L 548.86716,1.5002 L 551.88293,1.5002 L 554.89869,1.5002 L 554.35308,2.0629 C 554.05297,2.3726 553.74002,2.9164 553.65767,3.2713 C 553.2986,4.8191 553.53095,22.7309 554.00227,29.8333 C 554.44984,36.5784 554.6182,37.4496 555.65481,38.3862 C 556.74586,39.3719 557.4817,39.4775 560.38574,39.0655 L 561.18817,38.9517 L 561.13574,39.6812 L 561.08334,40.4104 L 558.99998,41.1114 C 555.77418,42.1967 553.31404,42.5492 551.66698,42.1622 z M 747.25076,42.1043 C 747.02288,41.9378 747.01279,41.3366 747.1611,36.75 C 747.47932,26.9094 747.35319,21.6498 746.74883,19.5594 C 746.43692,18.4806 745.58479,17.6667 744.76697,17.6667 C 744.42675,17.6667 743.43802,18.0478 742.20995,18.6521 L 740.20772,19.6376 L 739.8577,19.164 L 739.50762,18.6905 L 740.71212,17.7914 C 743.5688,15.6594 745.7986,14.4884 747.22767,14.3699 C 749.55098,14.1774 751.07614,15.4926 751.55823,18.1045 L 751.75398,19.1653 L 752.78899,18.2626 C 755.52679,15.8747 757.52362,14.6667 758.73186,14.6667 C 759.89849,14.6667 761.17411,15.1349 761.85073,15.8116 C 762.30684,16.2676 762.57078,16.7699 762.89697,17.8027 C 763.13698,18.5622 763.33333,19.2084 763.33333,19.2381 C 763.33333,19.2681 762.63295,19.9352 761.77697,20.721 C 759.95971,22.3891 759.65138,22.4487 759.33825,21.193 C 759.02341,19.9305 758.43503,19.077 757.66795,18.77 C 755.62348,17.952 753.32677,19.1936 752.04743,21.8084 L 751.59138,22.7405 L 751.5874,31.8756 L 751.58334,41.0106 L 750.41664,41.3445 C 749.77494,41.5282 748.85791,41.8166 748.37868,41.9855 C 747.71512,42.219 747.44623,42.2474 747.25076,42.1043 z M 624.49758,41.759 C 624.26709,41.6335 623.89208,41.205 623.66424,40.8069 L 623.24997,40.0833 L 623.154,23.7501 C 623.08036,11.2192 623.00764,7.2033 622.84161,6.5002 C 622.4654,4.9066 621.34319,4.1594 618.70832,3.748 L 617.99999,3.6373 L 617.99999,2.8407 L 617.99999,2.0439 L 625.70834,1.9438 C 629.94789,1.889 634.91666,1.7688 636.75001,1.6768 C 638.58334,1.5848 640.9716,1.5564 642.05731,1.6139 L 644.03128,1.7186 L 643.91553,3.2343 C 643.85188,4.0679 643.74456,4.8091 643.67702,4.8813 C 643.60949,4.9535 641.04827,4.8974 637.98544,4.7565 C 634.9226,4.6158 631.54848,4.5005 630.48737,4.5004 C 628.67926,4.5001 628.53505,4.5246 628.19122,4.8906 C 627.61773,5.501 627.502,6.7936 627.50094,12.6002 C 627.49996,18.2077 627.56902,18.8377 628.22585,19.2095 C 628.79515,19.5318 634.10973,19.5618 638.32481,19.2666 C 641.28824,19.0588 642.09563,19.0472 642.20729,19.2105 C 642.34572,19.4129 642.23886,21.4505 642.05782,22.0602 C 641.98246,22.3142 641.85541,22.3533 641.35788,22.2749 C 639.663,22.008 633.84704,21.8265 631.12794,21.9552 C 627.80301,22.1122 627.77972,22.1221 627.57422,23.4445 C 627.51486,23.8265 627.5016,26.6389 627.54474,29.6945 C 627.60432,33.9145 627.68224,35.4504 627.86894,36.0833 C 628.33231,37.6545 628.83699,38.3283 630,38.929 C 631.20102,39.5492 636.48852,39.4508 644.49434,38.6594 C 646.6161,38.4497 647.79527,38.3953 647.90223,38.5023 C 648.00919,38.6093 647.93368,39.2138 647.68398,40.2496 L 647.30219,41.8333 L 636.3314,41.8333 C 630.29742,41.8333 625.26069,41.8681 625.1386,41.9105 C 625.01653,41.953 624.72809,41.8848 624.49758,41.759 z"
       id="path3"
       style="fill:#000000" />
  </g>
</svg>
