<?xml version="1.0" encoding="utf-8"?>
<!-- Generator: Adobe Illustrator 14.0.0, SVG Export Plug-In . SVG Version: 6.00 Build 43363)  -->
<!DOCTYPE svg PUBLIC "-//W3C//DTD SVG 1.0//EN" "http://www.w3.org/TR/2001/REC-SVG-20010904/DTD/svg10.dtd">
<svg version="1.0" id="Ebene_1" xmlns="http://www.w3.org/2000/svg" xmlns:xlink="http://www.w3.org/1999/xlink" x="0px" y="0px"
	 width="575.038px" height="700.997px" viewBox="0 0 575.038 700.997" enable-background="new 0 0 575.038 700.997"
	 xml:space="preserve">
<g>
	<rect y="700.997" fill="#00519E" width="0" height="0"/>
	<rect x="10.183" y="32.019" fill="#00519E" width="508.875" height="661.063"/>
	<rect x="37.1" y="2" fill="#FFFFFF" width="535.938" height="663.81"/>
	<rect x="37.1" y="2" fill="none" stroke="#00519E" stroke-width="4" width="535.938" height="663.81"/>
	<rect x="72.1" y="323.597" fill="#00519E" width="121.938" height="4.938"/>
	<rect x="371.1" y="323.597" fill="#00519E" width="159.938" height="4.938"/>
	<path fill="#00519E" d="M183.517,260.098c-8-0.64-16-1.601-23.999-1.601c-8,0-16,0.96-24,1.601V63.302
		c-22.72,0-42.879,2.24-59.518,4.48c0.64-4.48,1.6-8.96,1.6-13.76c0-4.48-0.96-8.959-1.6-13.439h164.796
		c-0.64,4.48-1.601,8.959-1.601,13.439c0,4.8,0.96,9.28,1.601,13.76c-18.88-2.24-37.759-4.48-57.278-4.48L183.517,260.098"/>
	<path fill="#00519E" d="M346.369,110.583c-0.64,4.48-1.601,9.279-1.601,13.76c0,4.48,0.96,9.279,1.601,13.76
		c-19.52-2.56-41.279-5.12-73.918-4.479v68.798h33.278c14.4,0,27.521-1.28,39.359-2.88c-0.641,4.48-1.601,9.279-1.601,13.76
		c0,4.48,0.96,9.279,1.601,13.76c-11.84-1.6-24.96-2.88-39.359-2.88h-33.278v81.278c32.639-0.32,54.398-1.92,73.918-4.479
		c-0.64,4.479-1.601,9.28-1.601,13.76c0,4.48,0.96,9.28,1.601,13.76H224.452V110.584L346.369,110.583"/>
	<path fill="#00519E" d="M497.089,84.102c-12.479,17.6-24.639,35.199-37.119,52.799l4.16,7.359
		c21.119,37.759,42.559,74.878,62.718,115.837c-9.279-0.641-18.56-1.601-27.84-1.601c-8.96,0-18.239,0.96-27.519,1.601
		c-13.76-27.839-28.159-54.719-42.239-81.598l-29.438,46.079c-7.359,11.52-15.359,26.239-19.84,34.879
		c-5.439-0.32-10.56-0.96-16-0.96c-5.439,0-10.559,0.64-15.999,0.96c24.64-34.559,47.358-67.518,69.118-101.117L351.494,40.582
		c9.6,0.64,18.879,1.601,28.479,1.601s18.88-0.96,28.479-1.601c12.16,26.239,26.56,51.519,39.68,77.438
		c16.319-25.6,31.358-51.519,48.318-77.438c5.12,0.64,10.56,0.96,15.68,0.96c5.439,0,10.56-0.32,16-0.96L497.089,84.102"/>
	<path fill="#00519E" d="M87.181,376.956c0-17.67-0.935-19-7.945-20.521l-3.895-0.949c-1.246-1.141-1.402-5.32,0.312-6.46
		c7.478,0.38,15.268,0.57,22.746,0.57c7.634,0,15.268-0.19,22.745-0.57c1.247,1.14,1.247,5.32,0,6.46l-3.739,0.76
		c-7.011,1.71-7.945,3.04-7.945,20.71v43.891c0,22.23,2.025,46.741,25.706,46.741c19.942,0,26.017-21.28,26.017-47.311v-22.99
		c0-15.391-0.623-29.83-2.337-34.771c-1.402-3.99-4.829-5.13-9.036-6.08l-4.207-0.95c-1.246-1.52-0.935-5.32,0-6.46
		c8.413,0.38,14.489,0.57,20.876,0.57c5.764,0,11.528-0.19,17.449-0.57c0.935,1.14,1.246,4.94,0,6.46l-2.804,0.761
		c-4.051,1.14-7.011,2.28-8.413,6.27c-1.714,4.94-2.337,19.38-2.337,34.771v21.28c0,17.86-1.402,34.201-9.971,45.791
		c-6.855,8.93-18.228,13.68-30.847,13.68c-11.84,0-22.434-2.279-30.846-10.64c-8.102-8.17-11.529-22.229-11.529-42.939v-47.501"/>
	<path fill="#00519E" d="M220.544,478.037c-14.333,0-23.213-4.939-26.484-7.22c-2.96-4.18-4.986-17.86-4.986-30.78
		c1.091-2.471,4.674-2.66,5.92-0.57c3.116,12.351,13.554,29.83,26.796,29.83c11.528,0,16.825-9.689,16.825-19.19
		c0-15.39-11.84-24.51-21.188-30.21c-11.217-6.841-23.369-18.24-23.525-37.051c0-21.471,13.554-36.291,36.144-36.291
		c5.141,0,11.528,0.76,17.76,3.04c2.026,0.76,3.427,1.14,5.297,1.52c1.246,4.18,2.805,14.44,2.805,27.17
		c-0.779,2.28-4.674,2.471-6.076,0.57c-2.648-9.69-9.348-23.561-20.564-23.561c-10.282,0-15.891,8.171-15.891,17.67
		c0,8.74,6.388,16.721,14.177,21.661l10.282,6.65c9.659,6.27,21.967,17.29,21.967,38.19
		C259.803,462.837,244.068,478.037,220.544,478.037"/>
	<path fill="#00519E" d="M304.343,398.996c0,5.32,0.156,5.7,4.362,5.7h10.749c8.102,0,9.815-1.33,11.529-10.45l0.778-4.75
		c1.091-1.52,4.985-1.52,5.765,0.19c-0.312,6.08-0.468,12.92-0.468,20.14s0.156,14.061,0.468,20.141
		c-0.779,1.71-4.675,1.899-5.765,0.189l-0.778-4.75c-1.714-9.12-3.428-10.64-11.529-10.64h-10.749c-4.207,0-4.362,0.189-4.362,5.89
		v22.61c0,8.74,0.623,14.82,2.492,18.051c2.025,3.42,4.985,4.94,16.358,4.94c13.555,0,18.852-0.57,27.42-22.041
		c1.246-2.09,5.141-1.33,5.764,0.95c-0.623,9.88-4.361,25.271-6.543,30.4c-8.257-0.38-23.213-0.57-35.987-0.57h-20.253
		c-7.478,0-15.112,0.19-26.796,0.57c-1.246-1.141-1.246-5.7,0-6.65l7.322-1.33c7.011-1.14,7.945-2.47,7.945-19.95v-70.87
		c0-17.29-0.935-18.621-7.945-20.141l-3.895-0.949c-1.402-1.141-1.246-5.51,0.312-6.65c7.322,0.38,14.956,0.57,22.434,0.57H326
		c9.971,0,18.851-0.19,20.876-0.57c0.156,3.04,1.246,16.721,2.025,29.45c-0.624,2.09-4.207,2.471-5.765,0.761
		c-1.713-6.65-3.895-12.351-5.92-15.011c-2.96-3.61-7.634-5.89-15.268-5.89h-12.463c-5.142,0-5.142,0.38-5.142,7.41L304.343,398.996
		"/>
	<path fill="#00519E" d="M374.419,380.376c0-19-0.311-21.091-6.854-22.23l-4.207-0.761c-1.558-0.949-1.558-5.699,0.312-6.649
		c11.685-0.95,23.836-1.71,38.637-1.71c13.242,0,24.615,2.47,30.535,6.84c9.036,6.46,13.709,15.96,13.709,28.12
		c0,16.91-9.347,24.131-16.514,28.501c-1.558,0.949-1.558,2.09-0.778,4.18c10.282,25.461,16.67,39.711,24.147,47.501
		c4.051,3.99,8.102,5.13,10.438,5.32c1.401,0.95,1.401,3.8,0.623,4.939c-2.492,1.33-7.478,1.71-12.308,1.71
		c-14.333,0-23.369-6.27-30.224-19.949c-4.985-10.071-8.569-19.38-12.152-29.451c-1.869-5.13-4.362-6.65-8.257-6.65
		c-5.452,0-5.764,0.38-5.764,4.181v23.37c0,17.48,0.935,18.81,7.945,20.33l4.206,0.95c1.091,0.949,1.091,5.51,0,6.649
		c-8.257-0.38-15.423-0.57-22.901-0.57c-7.789,0-14.644,0.19-22.745,0.57c-1.246-1.14-1.246-5.7,0-6.649l4.207-0.95
		c7.01-1.52,7.944-2.85,7.944-20.33V380.376L374.419,380.376z M395.763,404.507c0,6.65,0.468,7.22,9.66,7.22
		c5.607,0,8.88-1.71,11.84-5.32c2.648-3.229,5.608-9.311,5.608-20.52c0-17.101-8.257-28.12-20.409-28.12
		c-6.388,0-6.388,0.569-6.699,9.689V404.507"/>
	<path fill="#00519E" d="M495.137,478.037c-14.333,0-23.214-4.939-26.485-7.22c-2.96-4.18-4.985-17.86-4.985-30.78
		c1.091-2.471,4.675-2.66,5.921-0.57c3.115,12.351,13.554,29.83,26.796,29.83c11.528,0,16.825-9.689,16.825-19.19
		c0-15.39-11.84-24.51-21.188-30.21c-11.217-6.841-23.369-18.24-23.524-37.051c0-21.471,13.554-36.291,36.144-36.291
		c5.141,0,11.528,0.76,17.76,3.04c2.026,0.76,3.428,1.14,5.297,1.52c1.246,4.18,2.805,14.44,2.805,27.17
		c-0.779,2.28-4.674,2.471-6.075,0.57c-2.648-9.69-9.348-23.561-20.564-23.561c-10.282,0-15.892,8.171-15.892,17.67
		c0,8.74,6.388,16.721,14.177,21.661l10.282,6.65c9.659,6.27,21.967,17.29,21.967,38.19
		C534.396,462.837,518.661,478.037,495.137,478.037"/>
	<path fill="#00519E" d="M164.678,598.527c0,7.979,0.285,11.78,2.992,12.54c0.57,0.76,0.428,3.989-0.427,4.56
		c-2.422,0.57-6.128,1.14-9.975,2.85c-4.988,2.09-17.243,4.561-25.223,4.561c-9.69,0-17.955-1.33-28.073-6.65
		C87.3,607.457,75.9,586.366,75.9,559.006c0-23.75,7.98-44.65,25.081-57.38c9.69-7.03,21.233-10.07,33.346-10.07
		c15.818,0,23.656,4.561,28.216,4.561c0.428,5.699,0.57,19,1.995,30.59c-0.57,2.09-4.417,2.28-5.415,0.38
		c-4.56-17.86-13.538-26.79-26.79-26.79c-22.658,0-33.631,25.08-33.631,55.101c0,27.17,6.983,43.32,16.245,51.681
		c6.84,6.079,14.25,7.22,19.523,7.22c8.123,0,9.833-2.09,9.833-14.44v-17.409c0-10.261-0.855-11.4-7.695-12.73l-6.27-1.14
		c-1.568-1.141-1.568-5.511,0-6.65c10.118,0.38,17.1,0.57,24.083,0.57c6.84,0,13.823-0.19,18.668-0.57c1.14,1.14,1.14,5.51,0,6.65
		l-3.277,0.76c-4.275,1.14-5.13,2.85-5.13,13.11v16.079"/>
	<path fill="#00519E" d="M186.749,525.376c0-19-0.285-21.091-6.27-22.229l-3.847-0.761c-1.425-0.949-1.425-5.7,0.285-6.649
		c10.688-0.95,21.803-1.71,35.341-1.71c12.113,0,22.516,2.47,27.931,6.84c8.265,6.46,12.54,15.96,12.54,28.12
		c0,16.91-8.55,24.13-15.105,28.501c-1.425,0.949-1.425,2.09-0.712,4.18c9.405,25.461,15.248,39.711,22.088,47.501
		c3.705,3.99,7.41,5.13,9.548,5.32c1.283,0.949,1.283,3.8,0.57,4.94c-2.28,1.33-6.84,1.71-11.258,1.71
		c-13.11,0-21.375-6.271-27.645-19.95c-4.56-10.07-7.838-19.38-11.115-29.45c-1.71-5.13-3.99-6.65-7.553-6.65
		c-4.987,0-5.272,0.38-5.272,4.181v23.37c0,17.48,0.855,18.811,7.268,20.331l3.847,0.949c0.998,0.95,0.998,5.511,0,6.65
		c-7.553-0.38-14.107-0.569-20.948-0.569c-7.125,0-13.395,0.189-20.806,0.569c-1.14-1.14-1.14-5.699,0-6.65l3.848-0.949
		c6.413-1.521,7.268-2.851,7.268-20.331v-67.26L186.749,525.376z M206.271,549.506c0,6.65,0.428,7.221,8.835,7.221
		c5.13,0,8.123-1.711,10.83-5.32c2.423-3.23,5.13-9.311,5.13-20.521c0-17.1-7.553-28.12-18.668-28.12
		c-5.842,0-5.842,0.57-6.127,9.69V549.506"/>
	<path fill="#00519E" d="M362.426,556.727c0,41.421-20.805,66.311-51.443,66.311c-28.643,0-49.448-25.08-49.448-64.791
		c0-37.62,21.09-66.69,50.873-66.69C342.048,491.556,362.426,518.156,362.426,556.727L362.426,556.727z M311.268,500.296
		c-17.528,0-26.933,21.851-26.933,53.581c0,23.18,6.128,60.42,29.355,60.42c18.668,0,25.936-24.32,25.936-55.1
		C339.626,526.706,328.939,500.296,311.268,500.296"/>
	<path fill="#00519E" d="M372.235,521.956c0-17.67-0.855-19-7.268-20.52l-3.563-0.95c-1.14-1.14-1.282-5.32,0.285-6.46
		c6.84,0.38,13.965,0.569,20.805,0.569c6.983,0,13.966-0.189,20.806-0.569c1.14,1.14,1.14,5.32,0,6.46l-3.42,0.76
		c-6.413,1.71-7.269,3.041-7.269,20.711v43.891c0,22.229,1.853,46.74,23.514,46.74c18.239,0,23.797-21.28,23.797-47.311v-22.99
		c0-15.39-0.569-29.83-2.137-34.771c-1.282-3.99-4.418-5.13-8.265-6.08l-3.849-0.949c-1.14-1.521-0.854-5.32,0-6.461
		c7.695,0.38,13.253,0.57,19.096,0.57c5.272,0,10.545-0.19,15.96-0.57c0.854,1.141,1.14,4.94,0,6.461l-2.565,0.76
		c-3.705,1.14-6.412,2.28-7.694,6.27c-1.568,4.94-2.139,19.381-2.139,34.771v21.279c0,17.86-1.282,34.201-9.119,45.791
		c-6.271,8.93-16.673,13.681-28.216,13.681c-10.83,0-20.52-2.28-28.215-10.641c-7.41-8.17-10.545-22.229-10.545-42.94
		L372.235,521.956"/>
	<path fill="#00519E" d="M474.122,525.376c0-19.19-0.285-21.28-6.271-22.42l-4.418-0.761c-1.282-0.949-1.282-5.13,0.285-6.46
		c9.405-0.949,20.521-1.71,32.918-1.71c12.113,0,20.093,1.9,26.078,4.94c8.692,4.369,17.385,14.439,17.385,32.87
		c0,31.16-23.513,35.72-31.065,35.72c-1.71,0-2.992,0-4.561-0.189c-1.14-0.95-1.425-3.99-0.427-5.13
		c11.828-4.94,14.25-16.15,14.25-30.211s-5.415-29.261-18.24-29.261c-5.272,0-5.558,2.09-5.558,9.69v80.181
		c0,17.67,0.854,19.001,7.268,20.521l4.561,0.949c1.567,0.95,1.567,5.32,0,6.461c-7.98-0.38-14.963-0.57-21.804-0.57
		c-6.84,0-13.68,0.19-21.375,0.57c-1.567-1.141-1.853-5.511-0.285-6.461l3.99-0.949c6.412-1.52,7.268-2.851,7.268-20.521
		L474.122,525.376"/>
</g>
</svg>
