<?xml version="1.0" encoding="UTF-8" standalone="no"?>
<!-- Created with Inkscape (http://www.inkscape.org/) -->

<svg
   xmlns:dc="http://purl.org/dc/elements/1.1/"
   xmlns:cc="http://creativecommons.org/ns#"
   xmlns:rdf="http://www.w3.org/1999/02/22-rdf-syntax-ns#"
   xmlns:svg="http://www.w3.org/2000/svg"
   xmlns="http://www.w3.org/2000/svg"
   xmlns:sodipodi="http://sodipodi.sourceforge.net/DTD/sodipodi-0.dtd"
   xmlns:inkscape="http://www.inkscape.org/namespaces/inkscape"
   id="svg3336"
   version="1.1"
   inkscape:version="0.91 r13725"
   xml:space="preserve"
   width="303"
   height="161"
   viewBox="0 0 303 161"
   sodipodi:docname="Jade_logo_cmyk_landSM.svg"><metadata
     id="metadata3342"><rdf:RDF><cc:Work
         rdf:about=""><dc:format>image/svg+xml</dc:format><dc:type
           rdf:resource="http://purl.org/dc/dcmitype/StillImage" /><dc:title></dc:title></cc:Work></rdf:RDF></metadata><defs
     id="defs3340"><clipPath
       clipPathUnits="userSpaceOnUse"
       id="clipPath3352"><path
         d="m 0,0 4283.3,0 0,2250.02 L 0,2250.02 0,0 Z"
         id="path3354"
         inkscape:connector-curvature="0" /></clipPath></defs><sodipodi:namedview
     pagecolor="#ffffff"
     bordercolor="#666666"
     borderopacity="1"
     objecttolerance="10"
     gridtolerance="10"
     guidetolerance="10"
     inkscape:pageopacity="0"
     inkscape:pageshadow="2"
     inkscape:window-width="1280"
     inkscape:window-height="744"
     id="namedview3338"
     showgrid="false"
     inkscape:zoom="0.54848485"
     inkscape:cx="157.33425"
     inkscape:cy="495"
     inkscape:window-x="-4"
     inkscape:window-y="-4"
     inkscape:window-maximized="1"
     inkscape:current-layer="g3344" /><g
     id="g3344"
     inkscape:groupmode="layer"
     inkscape:label="ink_ext_XXXXXX"
     transform="matrix(1.25,0,0,-1.25,0,161)"><g
       id="g3346"
       transform="matrix(0.05603156,0,0,0.05603156,1.2000095,1.3639347)"><g
         id="g3348"><g
           id="g3350"
           clip-path="url(#clipPath3352)"><path
             d="m 4115.59,1119.09 -33.07,0 0,11.93 80.5,0 0,-11.93 -33.23,0 0,-96.79 -14.2,0 0,96.79"
             style="fill:#7b7678;fill-opacity:1;fill-rule:nonzero;stroke:none"
             id="path3356"
             inkscape:connector-curvature="0" /><path
             d="m 4266.83,1070.05 c -0.82,15.18 -1.8,33.38 -1.63,46.93 l -0.49,0 c -3.68,-12.74 -8.25,-26.44 -13.71,-41.3 l -19.19,-52.74 -10.63,0 -17.62,51.77 c -5.15,15.34 -9.54,29.36 -12.57,42.27 l -0.33,0 c -0.33,-13.55 -1.14,-31.75 -2.12,-48.07 l -2.87,-46.61 -13.38,0 7.53,108.72 17.94,0 18.6,-52.57 c 4.49,-13.39 8.18,-25.37 10.94,-36.64 l 0.49,0 c 2.72,11 6.61,22.93 11.44,36.64 l 19.35,52.57 17.94,0 6.78,-108.72 -13.71,0 -2.76,47.75"
             style="fill:#7b7678;fill-opacity:1;fill-rule:nonzero;stroke:none"
             id="path3358"
             inkscape:connector-curvature="0" /><path
             d="m 1968.81,883.469 0,-575.957 C 1968.81,181.641 1932.76,79.1406 1860.75,0 l -123.51,86.0703 c 49.43,53.4497 74.21,127.2887 74.21,221.4417 l 0,575.957 157.36,0"
             style="fill:#7b7678;fill-opacity:1;fill-rule:nonzero;stroke:none"
             id="path3360"
             inkscape:connector-curvature="0" /><path
             d="m 2358.32,548.961 c -75.64,0 -113.43,-23.801 -113.43,-71.289 0,-47.481 31.62,-71.223 95.02,-71.223 64.1,0 118.5,16.199 163.27,48.672 l 0,81.957 c -39.62,7.922 -87.89,11.883 -144.86,11.883 z m -270.77,-73.02 c 0,127.821 90.25,191.731 270.77,191.731 54.18,0 102.48,-3.961 144.86,-11.883 l 0,40.992 c 0,55.828 -54.04,83.688 -162.1,83.688 -68.11,0 -135.79,-9.86 -203.06,-29.649 l 0,124.68 c 67.27,19.781 134.95,29.711 203.06,29.711 212.89,0 319.42,-68.52 319.42,-205.449 l 0,-417.992 -79.58,0 -67.65,43.902 c -54.24,-29.274 -112.05,-43.902 -173.36,-43.902 -168.26,0 -252.36,64.71 -252.36,194.171"
             style="fill:#7b7678;fill-opacity:1;fill-rule:nonzero;stroke:none"
             id="path3362"
             inkscape:connector-curvature="0" /><path
             d="m 3227.5,742.469 c -40.38,21.422 -89.06,32.09 -146.03,32.09 -97.79,0 -146.68,-54.848 -146.68,-164.457 0,-130.27 48.89,-195.364 146.68,-195.364 56.97,0 105.65,7.75 146.03,23.141 l 0,304.59 z m 157.37,-463.629 -82.29,0 c 0,0 -73.72,47 -73.72,41.629 0,0 -77.19,-34.699 -135.52,-38.699 -208.92,-14.372 -314.07,108.039 -314.07,324.16 0,199.531 100.5,299.281 301.61,299.281 53.82,0 102.71,-9.93 146.62,-29.711 l 0,255.3 157.37,0 0,-851.96"
             style="fill:#7b7678;fill-opacity:1;fill-rule:nonzero;stroke:none"
             id="path3364"
             inkscape:connector-curvature="0" /><path
             d="m 3652.06,647.5 260.03,0 c 5.53,89.441 -36,134.172 -124.68,134.172 -83.09,0 -128.2,-44.731 -135.35,-134.172 z m 407.91,-115.191 -407.91,0 c 0,-83.911 68.46,-125.86 205.44,-125.86 62.94,0 125.87,5.903 188.81,17.832 l 0,-124.742 c -55.08,-11.859 -125.87,-17.769 -212.55,-17.769 -226.05,0 -339.07,106.242 -339.07,318.851 0,203.051 103.54,304.59 310.55,304.59 206.64,0 291.54,-124.301 254.73,-372.902"
             style="fill:#7b7678;fill-opacity:1;fill-rule:nonzero;stroke:none"
             id="path3366"
             inkscape:connector-curvature="0" /><path
             d="m 985.027,2046.74 c -374.406,0 -677.941,-303.56 -677.941,-677.97 0,-373.372 301.773,-676.168 674.746,-677.961 l 0,294.73 c -210.215,1.742 -380.156,172.581 -380.156,383.231 0,211.73 171.676,383.36 383.351,383.36 211.733,0 383.443,-171.63 383.443,-383.36 0,-69.6 -18.63,-134.81 -51.1,-191.08 l 255.43,-146.83 c 57.35,99.51 90.28,214.8 90.28,337.91 0,374.41 -303.53,677.97 -678.053,677.97"
             style="fill:#c4cec1;fill-opacity:1;fill-rule:nonzero;stroke:none"
             id="path3368"
             inkscape:connector-curvature="0" /><path
             d="m 1574.53,1704 c -116.14,203.75 -334.87,341.44 -585.921,342.73 l 0,99.42 c 288.011,-1.31 538.881,-159.31 672.111,-393.05 l -86.19,-49.1"
             style="fill:#3b92d5;fill-opacity:1;fill-rule:nonzero;stroke:none"
             id="path3370"
             inkscape:connector-curvature="0" /><path
             d="m 981.832,793.75 c -316.086,1.801 -571.836,258.52 -571.836,575.02 0,317.61 257.484,575.03 575.031,575.03 1.246,0 2.414,-0.1 3.582,-0.1 l 0,103.03 C 1239.66,2045.44 1458.39,1907.75 1574.53,1704 l -169.77,-96.71 c -83.1,145.81 -239.82,244.25 -419.733,244.25 -266.589,0 -482.711,-216.18 -482.711,-482.77 0,-265.55 214.387,-480.911 479.516,-482.7 l 0,-92.32"
             style="fill:#358cca;fill-opacity:1;fill-rule:nonzero;stroke:none"
             id="path3372"
             inkscape:connector-curvature="0" /><path
             d="m 310.617,1755.68 -89.867,52.02 c 152.121,264.34 437.414,442.32 764.277,442.32 1.246,0 2.414,-0.11 3.582,-0.11 l 0,-103.76 c -1.203,0.01 -2.379,0.01 -3.582,0.01 -288.472,0 -540.25,-157.12 -674.41,-390.48"
             style="fill:#c7da3a;fill-opacity:1;fill-rule:nonzero;stroke:none"
             id="path3374"
             inkscape:connector-curvature="0" /><path
             d="m 981.832,689.891 c -373.434,1.847 -675.695,305.019 -675.695,678.879 0,122.89 32.847,238.03 89.929,337.44 l -85.449,49.47 c 134.16,233.36 385.938,390.48 674.41,390.48 1.203,0 2.379,0 3.582,-0.01 l 0,-99.42 c -1.187,0.01 -2.39,0.01 -3.582,0.01 -374.406,0 -677.941,-303.56 -677.941,-677.97 0,-373.372 301.773,-676.168 674.746,-677.961 l 0,102.941 0,-103.859"
             style="fill:#9fc443;fill-opacity:1;fill-rule:nonzero;stroke:none"
             id="path3376"
             inkscape:connector-curvature="0" /><path
             d="m 981.832,690.809 c -372.973,1.793 -674.746,304.589 -674.746,677.961 0,374.41 303.535,677.97 677.941,677.97 1.192,0 2.395,0 3.582,-0.01 l 0,-103.03 c -1.168,0 -2.336,0.1 -3.582,0.1 -317.547,0 -575.031,-257.42 -575.031,-575.03 0,-316.5 255.75,-573.219 571.836,-575.02 l 0,-102.941"
             style="fill:#9ec341;fill-opacity:1;fill-rule:nonzero;stroke:none"
             id="path3378"
             inkscape:connector-curvature="0" /><path
             d="M 132.117,875.66 C 48.1094,1020.67 0,1189.11 0,1368.77 c 0,178.72 47.6211,346.44 130.883,490.96 l 89.867,-52.03 c -74.371,-129.24 -116.918,-279.12 -116.918,-438.93 0,-160.77 43.066,-311.49 118.27,-441.239 L 132.117,875.66"
             style="fill:#f03f3b;fill-opacity:1;fill-rule:nonzero;stroke:none"
             id="path3380"
             inkscape:connector-curvature="0" /><path
             d="M 981.832,586.789 C 694.586,588.801 444.367,745.828 310.313,978.379 L 222.102,927.531 C 146.898,1057.28 103.832,1208 103.832,1368.77 c 0,159.81 42.547,309.69 116.918,438.93 l 89.867,-52.02 c -65.5,-113.94 -102.976,-246.06 -102.976,-386.91 0,-428.282 346.328,-775.59 774.191,-777.309 l 0,98.43 0,-103.102"
             style="fill:#ec4031;fill-opacity:1;fill-rule:nonzero;stroke:none"
             id="path3382"
             inkscape:connector-curvature="0" /><path
             d="m 981.832,591.461 c -427.863,1.719 -774.191,349.027 -774.191,777.309 0,140.85 37.476,272.97 102.976,386.91 l 85.449,-49.47 c -57.082,-99.41 -89.929,-214.55 -89.929,-337.44 0,-373.86 302.261,-677.032 675.695,-678.879 l 0,-98.43"
             style="fill:#e83f31;fill-opacity:1;fill-rule:nonzero;stroke:none"
             id="path3384"
             inkscape:connector-curvature="0" /><path
             d="M 981.832,284.961 C 582.813,286.969 234.855,504.719 48.707,827.578 l 83.41,48.082 C 302.012,582.422 618.785,384.941 981.832,383.781 l 0,203.008 0,-301.828"
             style="fill:#fdd834;fill-opacity:1;fill-rule:nonzero;stroke:none"
             id="path3386"
             inkscape:connector-curvature="0" /><path
             d="m 981.832,383.781 c -363.047,1.16 -679.82,198.641 -849.715,491.879 l 89.985,51.871 C 374.055,665.359 657.27,488.781 981.832,487.59 l 0,99.199 0,-203.008"
             style="fill:#fab414;fill-opacity:1;fill-rule:nonzero;stroke:none"
             id="path3388"
             inkscape:connector-curvature="0" /><path
             d="M 981.832,487.59 C 657.27,488.781 374.055,665.359 222.102,927.531 l 88.211,50.848 C 444.367,745.828 694.586,588.801 981.832,586.789 l 0,-99.199"
             style="fill:#f9b311;fill-opacity:1;fill-rule:nonzero;stroke:none"
             id="path3390"
             inkscape:connector-curvature="0" /></g></g></g></g></svg>