<?xml version="1.0" encoding="UTF-8"?>
<svg width="517px" height="50px" viewBox="0 0 517 50" version="1.1" xmlns="http://www.w3.org/2000/svg" xmlns:xlink="http://www.w3.org/1999/xlink">
    <!-- Generator: Sketch 64 (93537) - https://sketch.com -->
    <title>Artboard</title>
    <desc>Created with Sketch.</desc>
    <g id="Artboard" stroke="none" stroke-width="1" fill="none" fill-rule="evenodd">
        <path d="M2.95579994,49.6246 C4.48259992,49.1388 6.0093999,48.8612 7.60559988,48.5836 L9.40999985,40.2556001 C10.6591998,34.4954002 12.2553998,30.8172003 15.3089998,26.8614003 C17.6685997,23.8078004 19.5423997,22.3504004 21.0691997,22.3504004 C22.1101997,22.3504004 22.8041997,22.6974004 23.5675996,23.6690004 L24.5391996,23.6690004 C24.7473996,21.0318004 25.0943996,18.8110004 25.6495996,15.9656005 C24.8861996,15.6186005 24.6085996,15.5492005 24.2615996,15.5492005 C22.1101997,15.5492005 19.9587997,17.2148005 17.4603997,20.7542004 C15.1007998,24.1548004 12.6717998,27.4860003 10.9367998,31.2336003 L12.7411998,22.4892004 C13.0881998,20.9624004 13.5739998,19.3662004 13.5739998,17.7700004 C13.5739998,16.3820005 13.0187998,15.5492005 11.9777998,15.5492005 C10.5203998,15.5492005 7.88319987,17.0066005 2.74759995,20.6848004 L0.804399974,22.0728004 L1.29019997,23.4608004 L3.51099994,22.0034004 C5.45419991,20.7542004 6.2175999,20.4072004 6.84219989,20.4072004 C7.53619988,20.4072004 8.02199987,21.0318004 8.02199987,21.9340004 C8.02199987,25.9592003 5.03779991,40.2556001 2.26179995,49.1388 L2.95579994,49.6246 Z M33.3529995,49.7634 C37.3087994,49.7634 41.1257994,47.8202 47.5799993,42.6152001 L47.0247993,41.2966001 L45.3591993,42.4764001 C41.6809994,45.1136001 38.3497994,46.5016 35.8513995,46.5016 C32.5201995,46.5016 30.5769995,43.9338001 30.5769995,39.7004001 C30.5769995,37.8960002 30.7157995,36.1610002 31.1321995,34.1484002 L36.8229995,32.7604002 C38.0027994,32.4828002 39.8071994,31.7888002 41.6115994,31.0254003 C47.5105993,28.3882003 50.2171993,25.2652003 50.2171993,20.9624004 C50.2171993,17.7006005 47.9269993,15.5492005 44.3875993,15.5492005 C39.8765994,15.5492005 32.3119995,20.1990004 29.5359996,24.6406004 C27.4539996,28.0412003 25.3025996,36.3692002 25.3025996,41.2272001 C25.3025996,46.571 28.3561996,49.7634 33.3529995,49.7634 Z M31.4791995,32.5522002 L32.1037995,29.9844003 C33.2141995,25.3346003 34.6021995,22.3504004 36.4759995,20.6154004 C37.7945994,19.3662004 40.0153994,18.4640004 41.7503994,18.4640004 C43.7629994,18.4640004 45.0815993,19.8520004 45.0815993,22.0728004 C45.0815993,25.1264003 42.6525994,28.3882003 39.0437994,30.1232003 C37.1005995,31.0254003 34.6021995,31.8582002 31.4791995,32.5522002 Z M76.1129988,49 C78.0281988,49 79.7609988,48.4756 81.3113988,47.4268 C82.8617988,46.378 83.6369987,45.0328001 83.6369987,43.3912001 L83.6369987,43.3912001 L83.6369987,41.8864001 C83.6369987,41.2480001 83.5571987,40.6666001 83.3975987,40.1422001 C83.2379987,39.6178001 82.9073988,39.0364001 82.4057988,38.3980002 L82.4057988,38.3980002 L60.5177991,10.7644006 C60.3809991,10.5364006 60.3125991,10.3084006 60.3125991,10.0804006 C60.3125991,9.30520058 60.5633991,8.91760059 61.0649991,8.91760059 L61.0649991,8.91760059 L76.7285988,8.91760059 C77.2301988,10.1488006 77.6405988,11.0608006 77.9597988,11.6536005 C79.0085988,13.4320005 80.1485988,14.3212005 81.3797988,14.3212005 C82.2917988,14.3212005 82.9073988,14.1388005 83.2265987,13.7740005 C83.5457987,13.4092005 83.7053987,12.8848005 83.7053987,12.2008005 C83.7053987,11.7448005 83.6825987,10.9924006 83.6369987,9.94360057 C83.6369987,7.8916006 82.8959988,6.26140062 81.4139988,5.05300064 C79.9319988,3.84460066 78.2561988,3.24040067 76.3865988,3.24040067 L76.3865988,3.24040067 L59.6285991,3.24040067 C58.0325991,3.24040067 56.7101991,4.02700066 55.6613991,5.60020063 C54.6125992,7.17340061 54.0881992,8.89480059 54.0881992,10.7644006 C54.0881992,11.2204006 54.1793992,11.6422005 54.3617992,12.0298005 C54.5441992,12.4174005 54.8405992,12.8620005 55.2509992,13.3636005 L55.2509992,13.3636005 L78.3701988,43.3912001 L62.1593991,43.3912001 C61.2929991,43.3912001 60.6089991,42.7984001 60.1073991,41.6128001 C59.0585991,39.1960001 57.8501991,37.9876002 56.4821991,37.9876002 C55.6157991,37.9876002 55.0001992,38.3752002 54.6353992,39.1504001 C54.2705992,39.9256001 54.0881992,40.8832001 54.0881992,42.0232001 C54.0881992,44.1208001 54.7721992,45.808 56.1401991,47.0848 C57.5081991,48.3616 59.1497991,49 61.0649991,49 L61.0649991,49 L76.1129988,49 Z M110.515798,49 C111.803798,49 113.220598,48.5277333 114.766198,47.5832 C116.526465,46.5098667 117.406598,45.2218667 117.406598,43.7192001 C117.406598,43.3328001 117.428065,42.8390668 117.470998,42.2380001 C117.513931,41.6369335 117.535398,41.2505335 117.535398,41.0788002 C117.535398,40.2630668 117.352931,39.6512669 116.987998,39.2434002 C116.623065,38.8355335 115.925398,38.6316002 114.894998,38.6316002 C114.379798,38.6316002 113.370865,39.7049335 111.868198,41.8516001 C111.224198,42.7961335 110.472865,43.2684001 109.614198,43.2684001 L109.614198,43.2684001 L103.496198,43.2684001 C102.766332,43.2684001 102.090132,43.0000668 101.467598,42.4634001 C100.845065,41.9267335 100.533798,41.3364002 100.533798,40.6924002 L100.533798,40.6924002 L100.533798,22.2740006 L112.640998,22.2740006 C113.242065,22.2740006 113.735798,22.0164006 114.122198,21.5012006 C114.508598,20.9860006 114.701798,20.3849339 114.701798,19.6980006 C114.701798,19.0110673 114.454931,18.356334 113.961198,17.7338006 C113.467465,17.1112673 113.027398,16.8000007 112.640998,16.8000007 L112.640998,16.8000007 L100.533798,16.8000007 L100.533798,9.26520082 C100.533798,8.75000083 100.297665,8.32066751 99.8253984,7.97720085 C99.3531317,7.63373419 98.8379317,7.46200086 98.2797984,7.46200086 C97.4640651,7.46200086 96.7771318,7.61226752 96.2189985,7.91280085 C95.6608651,8.21333418 95.3817985,8.66413417 95.3817985,9.26520082 L95.3817985,9.26520082 L95.3817985,16.8000007 L91.1957986,16.8000007 C90.5088652,16.8000007 90.0258653,17.068334 89.7467986,17.6050007 C89.4677319,18.1416673 89.3281986,18.839334 89.3281986,19.6980006 C89.3281986,20.3849339 89.4677319,20.9860006 89.7467986,21.5012006 C90.0258653,22.0164006 90.4444653,22.2740006 91.0025986,22.2740006 L91.0025986,22.2740006 L95.2529985,22.2740006 L95.2529985,42.0448001 C95.2529985,43.8909334 96.1009318,45.5116667 97.7967984,46.907 C99.4926651,48.3023333 101.392465,49 103.496198,49 L103.496198,49 L110.515798,49 Z M126.934198,49.2576 C127.621131,49.2576 128.243664,49.1073333 128.801798,48.8068 C129.359931,48.5062667 129.638998,48.0769334 129.638998,47.5188 L129.638998,47.5188 L129.638998,30.0664004 L138.397398,23.1112005 C139.084331,22.5530672 139.696131,22.1881339 140.232798,22.0164006 C140.769464,21.8446672 141.467131,21.7588006 142.325797,21.7588006 C145.288197,22.0164006 146.769397,23.9913339 146.769397,27.6836004 C146.769397,28.1558671 147.069931,28.5744671 147.670997,28.9394004 C148.272064,29.3043337 148.916064,29.4868004 149.602997,29.4868004 C150.289931,29.4868004 150.901731,29.3258004 151.438397,29.0038004 C151.975064,28.6818004 152.243397,28.2202671 152.243397,27.6192004 C152.243397,23.1970672 151.105664,20.0844006 148.830197,18.2812006 C147.284597,17.0790673 145.116464,16.4780007 142.325797,16.4780007 C141.939397,16.4780007 141.381264,16.456534 140.651398,16.4136007 C140.179131,16.4136007 139.749798,16.456534 139.363398,16.5424007 C138.976998,16.6282673 138.612064,16.8000007 138.268598,17.0576007 L138.268598,17.0576007 L129.638998,23.1112005 L129.638998,20.4064006 C129.638998,19.6765339 129.402864,19.0110673 128.930598,18.4100006 C128.458331,17.808934 127.792864,17.5084007 126.934198,17.5084007 C126.032598,17.5084007 125.324198,17.744534 124.808998,18.2168006 C124.293798,18.6890673 124.036198,19.4404006 124.036198,20.4708006 L124.036198,20.4708006 L124.036198,47.5188 C124.036198,48.1198667 124.336731,48.5599333 124.937798,48.839 C125.538864,49.1180667 126.204331,49.2576 126.934198,49.2576 Z M171.370197,49.1932 L181.738597,43.5260001 L181.738597,46.5528001 C181.738597,48.3130667 182.61873,49.1932 184.378997,49.1932 C185.237663,49.1932 185.946063,48.8068 186.504197,48.034 C186.890597,47.4758667 187.083797,46.9821334 187.083797,46.5528001 L187.083797,46.5528001 L187.083797,18.1524006 C187.083797,16.7356007 186.246597,16.0272007 184.572197,16.0272007 C182.726063,16.0272007 181.802997,16.7356007 181.802997,18.1524006 L181.802997,18.1524006 L181.802997,37.7944002 L172.464997,42.8820001 C171.949797,43.1825335 171.466797,43.3757334 171.015997,43.4616001 C170.565197,43.5474668 170.082197,43.5904001 169.566997,43.5904001 C168.278997,43.5904001 167.184197,43.2254668 166.282597,42.4956001 C165.380997,41.7657335 164.930197,40.8641335 164.930197,39.7908002 L164.930197,39.7908002 L164.930197,17.8948006 C164.930197,17.293734 164.694064,16.8322007 164.221797,16.5102007 C163.74953,16.1882007 163.16993,16.0272007 162.482997,16.0272007 C161.796064,16.0272007 161.194997,16.1882007 160.679797,16.5102007 C160.164597,16.8322007 159.906997,17.293734 159.906997,17.8948006 L159.906997,17.8948006 L159.906997,40.0484002 C159.906997,42.4097335 160.65833,44.5242001 162.160997,46.3918001 C163.663664,48.2594 165.48833,49.1932 167.634997,49.1932 L167.634997,49.1932 L171.370197,49.1932 Z M219.412596,49 C220.099529,49 220.646929,48.6887333 221.054796,48.0662 C221.462662,47.4436667 221.666596,46.7245334 221.666596,45.9088001 C221.666596,45.2218667 221.484129,44.6100668 221.119196,44.0734001 C220.754263,43.5367334 220.292729,43.2684001 219.734596,43.2684001 L219.734596,43.2684001 L205.630996,43.2684001 L200.350196,37.3436002 C199.834996,36.7854669 199.45933,36.1307336 199.223196,35.3794003 C198.987063,34.628067 198.868996,33.9733336 198.868996,33.4152003 L198.868996,33.4152003 L198.868996,32.3204003 C198.868996,31.2900004 198.965596,30.5172004 199.158796,30.0020004 C199.351996,29.4868004 199.62033,29.0789337 199.963796,28.7784004 L199.963796,28.7784004 L205.502196,23.4332005 L218.124596,23.4332005 C219.369663,23.4332005 220.228329,23.1648672 220.700596,22.6282005 C221.172862,22.0915339 221.408996,21.3080006 221.408996,20.2776006 C221.408996,19.5048006 221.076263,18.8286006 220.410796,18.2490006 C219.745329,17.6694006 218.983263,17.3796007 218.124596,17.3796007 L218.124596,17.3796007 L205.502196,17.3796007 C205.072863,17.3796007 204.568396,17.4762007 203.988796,17.6694006 C203.409196,17.8626006 202.926196,18.1524006 202.539796,18.5388006 L202.539796,18.5388006 L195.520196,25.8160005 C194.704463,26.6746671 194.135596,27.8231338 193.813596,29.2614004 C193.491596,30.699667 193.330596,32.084267 193.330596,33.4152003 C193.330596,34.4885336 193.513063,35.7550669 193.877996,37.2148002 C194.24293,38.6745335 194.640063,39.6190669 195.069396,40.0484002 L195.069396,40.0484002 L203.054996,48.034 C203.48433,48.4633333 203.913663,48.7316667 204.342996,48.839 C204.77233,48.9463333 205.373396,49 206.146196,49 L206.146196,49 L219.412596,49 Z M250.778995,49 C252.066995,49 253.483795,48.5277333 255.029395,47.5832 C256.789662,46.5098667 257.669795,45.2218667 257.669795,43.7192001 C257.669795,43.3328001 257.691262,42.8390668 257.734195,42.2380001 C257.777128,41.6369335 257.798595,41.2505335 257.798595,41.0788002 C257.798595,40.2630668 257.616128,39.6512669 257.251195,39.2434002 C256.886262,38.8355335 256.188595,38.6316002 255.158195,38.6316002 C254.642995,38.6316002 253.634062,39.7049335 252.131395,41.8516001 C251.487395,42.7961335 250.736062,43.2684001 249.877395,43.2684001 L249.877395,43.2684001 L243.759395,43.2684001 C243.029529,43.2684001 242.353329,43.0000668 241.730795,42.4634001 C241.108262,41.9267335 240.796995,41.3364002 240.796995,40.6924002 L240.796995,40.6924002 L240.796995,22.2740006 L252.904195,22.2740006 C253.505262,22.2740006 253.998995,22.0164006 254.385395,21.5012006 C254.771795,20.9860006 254.964995,20.3849339 254.964995,19.6980006 C254.964995,19.0110673 254.718129,18.356334 254.224395,17.7338006 C253.730662,17.1112673 253.290595,16.8000007 252.904195,16.8000007 L252.904195,16.8000007 L240.796995,16.8000007 L240.796995,9.26520082 C240.796995,8.75000083 240.560862,8.32066751 240.088595,7.97720085 C239.616329,7.63373419 239.101129,7.46200086 238.542996,7.46200086 C237.727262,7.46200086 237.040329,7.61226752 236.482196,7.91280085 C235.924062,8.21333418 235.644996,8.66413417 235.644996,9.26520082 L235.644996,9.26520082 L235.644996,16.8000007 L231.458996,16.8000007 C230.772062,16.8000007 230.289062,17.068334 230.009996,17.6050007 C229.730929,18.1416673 229.591396,18.839334 229.591396,19.6980006 C229.591396,20.3849339 229.730929,20.9860006 230.009996,21.5012006 C230.289062,22.0164006 230.707662,22.2740006 231.265796,22.2740006 L231.265796,22.2740006 L235.516196,22.2740006 L235.516196,42.0448001 C235.516196,43.8909334 236.364129,45.5116667 238.059996,46.907 C239.755862,48.3023333 241.655662,49 243.759395,49 L243.759395,49 L250.778995,49 Z M277.311795,49.1932 L287.680194,43.5260001 L287.680194,46.5528001 C287.680194,48.3130667 288.560328,49.1932 290.320594,49.1932 C291.179261,49.1932 291.887661,48.8068 292.445794,48.034 C292.832194,47.4758667 293.025394,46.9821334 293.025394,46.5528001 L293.025394,46.5528001 L293.025394,18.1524006 C293.025394,16.7356007 292.188194,16.0272007 290.513794,16.0272007 C288.667661,16.0272007 287.744594,16.7356007 287.744594,18.1524006 L287.744594,18.1524006 L287.744594,37.7944002 L278.406595,42.8820001 C277.891395,43.1825335 277.408395,43.3757334 276.957595,43.4616001 C276.506795,43.5474668 276.023795,43.5904001 275.508595,43.5904001 C274.220595,43.5904001 273.125795,43.2254668 272.224195,42.4956001 C271.322595,41.7657335 270.871795,40.8641335 270.871795,39.7908002 L270.871795,39.7908002 L270.871795,17.8948006 C270.871795,17.293734 270.635662,16.8322007 270.163395,16.5102007 C269.691128,16.1882007 269.111528,16.0272007 268.424595,16.0272007 C267.737662,16.0272007 267.136595,16.1882007 266.621395,16.5102007 C266.106195,16.8322007 265.848595,17.293734 265.848595,17.8948006 L265.848595,17.8948006 L265.848595,40.0484002 C265.848595,42.4097335 266.599928,44.5242001 268.102595,46.3918001 C269.605262,48.2594 271.429928,49.1932 273.576595,49.1932 L273.576595,49.1932 L277.311795,49.1932 Z M303.264994,49.2576 C303.951927,49.2576 304.574461,49.1073333 305.132594,48.8068 C305.690727,48.5062667 305.969794,48.0769334 305.969794,47.5188 L305.969794,47.5188 L305.969794,30.0664004 L314.728194,23.1112005 C315.415127,22.5530672 316.026927,22.1881339 316.563594,22.0164006 C317.100261,21.8446672 317.797927,21.7588006 318.656594,21.7588006 C321.618994,22.0164006 323.100194,23.9913339 323.100194,27.6836004 C323.100194,28.1558671 323.400727,28.5744671 324.001794,28.9394004 C324.60286,29.3043337 325.24686,29.4868004 325.933794,29.4868004 C326.620727,29.4868004 327.232527,29.3258004 327.769194,29.0038004 C328.30586,28.6818004 328.574194,28.2202671 328.574194,27.6192004 C328.574194,23.1970672 327.43646,20.0844006 325.160994,18.2812006 C323.615394,17.0790673 321.44726,16.4780007 318.656594,16.4780007 C318.270194,16.4780007 317.712061,16.456534 316.982194,16.4136007 C316.509927,16.4136007 316.080594,16.456534 315.694194,16.5424007 C315.307794,16.6282673 314.942861,16.8000007 314.599394,17.0576007 L314.599394,17.0576007 L305.969794,23.1112005 L305.969794,20.4064006 C305.969794,19.6765339 305.733661,19.0110673 305.261394,18.4100006 C304.789127,17.808934 304.123661,17.5084007 303.264994,17.5084007 C302.363394,17.5084007 301.654994,17.744534 301.139794,18.2168006 C300.624594,18.6890673 300.366994,19.4404006 300.366994,20.4708006 L300.366994,20.4708006 L300.366994,47.5188 C300.366994,48.1198667 300.667528,48.5599333 301.268594,48.839 C301.869661,49.1180667 302.535128,49.2576 303.264994,49.2576 Z M360.160593,49 C360.76166,49 361.287593,48.6565333 361.738393,47.9696 C362.189193,47.2826667 362.414593,46.6386667 362.414593,46.0376001 C362.414593,45.5653334 362.156993,45.0501334 361.641793,44.4920001 C361.126593,43.9338668 360.589926,43.6548001 360.031793,43.6548001 L360.031793,43.6548001 L344.575793,43.6548001 C343.845927,43.6548001 342.965793,43.2040001 341.935393,42.3024001 C340.904993,41.4008002 340.389793,40.6065335 340.389793,39.9196002 L340.389793,39.9196002 L340.389793,37.3436002 L359.580993,37.3436002 C360.139126,37.3436002 360.750926,37.1504002 361.416393,36.7640003 C362.08186,36.3776003 362.414593,36.0126669 362.414593,35.6692003 L362.414593,35.6692003 L362.414593,26.9108005 C362.414593,24.8070672 361.43786,22.7999339 359.484393,20.8894006 C357.530926,18.9788673 355.631126,18.0236006 353.784993,18.0236006 L353.784993,18.0236006 L342.772593,18.0236006 C341.269927,18.0236006 339.552593,18.968134 337.620593,20.8572006 C335.688593,22.7462672 334.722593,24.4206672 334.722593,25.8804005 L334.722593,25.8804005 L334.722593,40.1128002 C334.722593,41.8730668 335.591993,43.7943334 337.330793,45.8766001 C339.069593,47.9588667 340.690327,49 342.192993,49 L342.192993,49 L360.160593,49 Z M357.554193,32.1916003 L341.389793,32.1916003 L341.389793,26.3312005 C341.389793,25.7301338 341.786927,25.1183338 342.581193,24.4958005 C343.37546,23.8732672 344.223393,23.5620005 345.124993,23.5620005 L345.124993,23.5620005 L354.076593,23.5620005 C354.849393,23.5620005 355.622193,23.9269339 356.394993,24.6568005 C357.167793,25.3866672 357.554193,26.1380005 357.554193,26.9108005 L357.554193,26.9108005 L357.554193,32.1916003 Z M384.825792,49 C386.285526,49 387.637926,48.5921333 388.882992,47.7764 C389.269392,47.5188 390.342726,46.6172 392.102992,45.0716001 L392.102992,45.0716001 L392.102992,47.1968 C392.102992,47.7549334 392.317659,48.195 392.746992,48.517 C393.176326,48.839 393.712992,49 394.356992,49 C396.288992,49 397.254992,48.3989333 397.254992,47.1968 L397.254992,47.1968 L397.254992,7.52640086 C397.254992,6.96826754 397.008126,6.58186755 396.514392,6.36720088 C396.020659,6.15253422 395.430326,6.04520089 394.743392,6.04520089 C394.056459,6.04520089 393.444659,6.23840089 392.907992,6.62480088 C392.371326,7.01120087 392.102992,7.46200086 392.102992,7.97720085 L392.102992,7.97720085 L392.102992,20.6640006 C391.244326,20.1058673 390.353459,19.5262673 389.430392,18.9252006 C388.507326,18.324134 387.530592,18.0236006 386.500192,18.0236006 L386.500192,18.0236006 L377.419793,18.0236006 C376.131793,18.0236006 374.500326,18.903734 372.525393,20.6640006 C370.550459,22.4242672 369.562993,23.9054672 369.562993,25.1076005 L369.562993,25.1076005 L369.562993,41.1432002 C369.562993,42.4741335 370.689993,44.1163334 372.943993,46.0698001 C375.197993,48.0232667 376.968993,49 378.256993,49 L378.256993,49 L384.825792,49 Z M383.378593,43.8480001 C382.262326,43.8480001 380.802593,43.4616001 378.999393,42.6888001 C376.895659,41.7872001 375.843793,40.8212002 375.843793,39.7908002 L375.843793,39.7908002 L375.843793,27.3616004 C375.843793,26.6317338 376.101393,25.8482005 376.616593,25.0110005 C377.131793,24.1738005 377.775793,23.7552005 378.548593,23.7552005 L378.548593,23.7552005 L387.500192,23.7552005 C388.487659,23.7552005 389.475126,24.2382005 390.462592,25.2042005 C391.450059,26.1702005 392.244326,27.4689338 392.845392,29.1004004 L392.845392,29.1004004 L392.845392,37.9876002 C391.900859,39.2756002 390.677259,40.4777335 389.174592,41.5940002 C387.113792,43.0966668 385.181792,43.8480001 383.378593,43.8480001 Z M427.019392,49.2082 L427.227592,47.265 L423.132992,47.0568 C421.328592,46.9874 420.634592,46.4322 420.634592,44.9748 C420.634592,44.2808 420.634592,44.0032 420.912192,42.5458 L427.435792,4.1676 L432.501992,4.1676 C437.915192,4.1676 440.413592,4.5146 440.621792,5.3474 C440.829992,5.9026 440.968792,7.2212 440.899392,7.9152 L440.621792,12.3568 L442.564992,12.3568 L444.438792,0.9752 C437.915192,1.114 431.391592,1.1834 424.867992,1.1834 C418.344392,1.1834 411.820792,1.114 405.297192,0.9752 L404.047992,12.3568 L406.060592,12.3568 L407.101592,8.1928 C407.448592,6.666 407.934392,5.5556 408.350792,5.0698 C408.767192,4.584 411.404392,4.1676 413.972192,4.1676 L421.744992,4.1676 L415.776592,40.325 C414.735592,46.6404 414.527392,46.918 411.751392,47.0568 L408.211992,47.265 L407.934392,49.2082 C411.196192,49.0694 414.527392,49 417.789192,49 C420.912192,49 423.965792,49.0694 427.019392,49.2082 Z M444.224592,49.7634 C448.180392,49.7634 451.997392,47.8202 458.451592,42.6152 L457.896392,41.2966 L456.230792,42.4764 C452.552592,45.1136 449.221392,46.5016 446.722992,46.5016 C443.391792,46.5016 441.448592,43.9338 441.448592,39.7004 C441.448592,37.896 441.587392,36.161 442.003792,34.1484 L447.694592,32.7604 C448.874392,32.4828 450.678792,31.7888 452.483192,31.0254 C458.382192,28.3882 461.088792,25.2652 461.088792,20.9624 C461.088792,17.7006 458.798592,15.5492 455.259192,15.5492 C450.748192,15.5492 443.183592,20.199 440.407592,24.6406 C438.325592,28.0412 436.174192,36.3692 436.174192,41.2272 C436.174192,46.571 439.227792,49.7634 444.224592,49.7634 Z M442.350792,32.5522 L442.975392,29.9844 C444.085792,25.3346 445.473792,22.3504 447.347592,20.6154 C448.666192,19.3662 450.886992,18.464 452.621992,18.464 C454.634592,18.464 455.953192,19.852 455.953192,22.0728 C455.953192,25.1264 453.524192,28.3882 449.915392,30.1232 C447.972192,31.0254 445.473792,31.8582 442.350792,32.5522 Z M482.527392,49.7634 C484.054192,49.7634 486.274992,48.5836 488.495792,46.571 L491.896392,43.5174 L491.271792,42.1988 C488.773392,44.2808 487.038392,45.3218 485.927992,45.3218 C484.886992,45.3218 483.984792,44.6278 483.290792,43.2398 C482.666192,41.9212 481.902792,39.3534 481.555792,37.3408 L480.306592,30.3314 L482.735592,26.9308 C485.997392,22.4198 487.871192,20.8236 490.022592,20.8236 C491.132992,20.8236 491.965792,21.3788 492.312792,22.4198 L493.284392,22.1422 L494.325392,16.2432 C493.492592,15.7574 492.867992,15.5492 492.243392,15.5492 C489.467392,15.5492 486.691392,18.0476 482.388592,24.4324 L479.820792,28.2494 L479.404392,24.9182 C478.571592,18.0476 476.697792,15.5492 472.603192,15.5492 C470.798792,15.5492 469.271992,16.1044 468.647392,17.0066 L464.622192,22.7668 L465.801992,23.4608 C467.883992,21.1012 469.271992,20.1296 470.590592,20.1296 C472.880792,20.1296 474.407592,22.975 475.587392,29.7762 L476.350792,34.079 L473.574792,38.3818 C470.590592,43.0316 468.230992,45.2524 466.287792,45.2524 C465.246792,45.2524 464.483392,44.9748 464.344592,44.6278 L463.581192,42.6846 L462.193192,42.8928 C462.193192,44.2808 462.054392,45.183 461.637992,47.4038 C461.499192,48.2366 461.429792,48.4448 461.360392,48.9306 C462.401392,49.4858 463.511792,49.7634 464.344592,49.7634 C466.634792,49.7634 469.341392,47.7508 471.492792,44.489 L476.767192,36.3692 L477.530592,41.1578 C478.502192,47.0568 480.028992,49.7634 482.527392,49.7634 Z M500.704192,49.6246 C503.133192,49.6246 505.492792,48.2366 510.975392,43.8644 C512.224592,42.8928 511.808192,43.1704 513.126792,42.1294 L512.432792,40.8802 L509.309792,43.0316 C507.227792,44.489 505.909192,45.1136 505.076392,45.1136 C504.521192,45.1136 504.174192,44.5584 504.174192,43.7256 C504.174192,41.9212 505.006992,36.508 507.158392,26.2368 L508.060592,21.934 L515.486392,21.934 L516.249792,18.464 C513.612592,18.7416 511.252992,18.8804 508.615792,18.8804 C509.726192,12.3568 510.489592,8.9562 511.738792,5.2086 L510.975392,4.1676 C509.587392,5.0004 507.713592,5.8332 505.562192,6.666 L503.827192,18.464 C500.773592,19.9214 498.969192,20.6848 497.719992,21.0318 L497.581192,21.934 L503.410792,21.934 L499.524392,41.5742 C499.177392,43.3092 498.622192,45.0442 498.622192,46.8486 C498.622192,48.5836 499.385592,49.6246 500.704192,49.6246 Z" id="reStructuredText" fill="#000000" fill-rule="nonzero"></path>
    </g>
</svg>