<svg version="1.1" x="0px" y="0px" width="512px" height="512px" xmlns="http://www.w3.org/2000/svg" xmlns:svg="http://www.w3.org/2000/svg">
	<path id="M" fill="#309700" d="M 61.9558603893,276.305273044 0,214.077166629 21.1617775344,192.823620764 71.2611693312,231.788454849 33.6545065666,180.275830726 54.3054403823,159.53312858 116.261300771,221.75817608 103.640096073,234.43444178 50.7784774597,181.34034339 94.5886795181,243.525624606 81.88488332,256.28754075 20.6937590374,211.559655368 73.5553776498,264.65375375 61.9558603896,276.30527307"/>
	<path id="o" fill="#309700" d="m 93.9095938571,162.775609648 c -0.027530495,-1.107337887 0.437429051,-2.147378986 1.4009965474,-3.117064373 0.8779170498,-0.880975994 1.8567792658,-1.306169269 2.9335277039,-1.278638767 1.0736894933,0.02753046 2.1657326526,0.59649419 3.2700115906,1.706890987 l 26.814706832,26.930946724 c 1.018628493,1.02474638 1.5355901,2.125966371 1.550884823,3.306718919 0.01223577,1.18381149 -0.461900605,2.257500983 -1.425468102,3.224127425 -0.819797111,0.825914993 -1.755834101,1.22357777 -2.801993094,1.192988322 -1.049217937,-0.02753046 -2.138202153,-0.60872996 -3.273070535,-1.749716201 L 95.8642593449,166.36069251 c -1.2755798253,-1.281697716 -1.927134988,-2.474686039 -1.9546654878,-3.585082862 z m 12.8108592539,-20.549988647 c -3.526962923,-0.724969799 -6.9560396237,-0.397662766 -10.2841711583,0.981921154 -3.3281315344,1.379583938 -6.9193322897,4.004158254 -10.7705433217,7.873722951 -3.8542699756,3.8695647 -6.3167202381,7.781954623 -7.3934686758,11.737169767 -1.0767484369,3.955215134 -0.9482727719,7.711598888 0.382368051,11.26609231 0.9910979936,2.64904588 3.0467086481,5.536689415 6.1607140726,8.665989563 l 22.6484245252,22.749369687 c 1.220518826,1.22357777 2.961058204,2.489980762 5.227736023,3.796150031 2.263618874,1.309228214 4.475235694,2.021962265 6.628732569,2.135143212 3.000824481,0.171300926 6.081181518,-0.446605928 9.241071109,-1.856779269 3.156830648,-1.410173382 6.295307627,-3.676851197 9.412371996,-6.806151348 2.918232982,-2.930468758 5.083965636,-5.906821686 6.500256905,-8.92294088 1.416291268,-3.013060267 2.104553764,-5.952705857 2.061728542,-8.812818894 -0.04282523,-2.860113033 -0.65767305,-5.35621169 -1.847602434,-7.491354898 -1.18992938,-2.132084266 -2.55115965,-3.967450923 -4.080631862,-5.503041018 l -23.581402575,-23.68846563 c -3.343426257,-3.35566204 -6.778620846,-5.399036913 -10.305583769,-6.124006738"/>
	<path id="d" fill="#309700" d="m 133.767639719,128.203419748 c -0.312012329,-1.391819713 0.07035573,-2.630692206 1.147104158,-3.713558528 0.877917051,-0.880975994 1.798659323,-1.321463993 2.762226817,-1.321463993 0.96050855,0 1.911840266,0.468018497 2.844818315,1.407114437 l 22.734074968,22.835020135 c 1.049217939,1.052276878 1.581474269,2.055610658 1.593710047,3.01000131 0.01529473,0.951331718 -0.41907539,1.869015043 -1.296992437,2.753049986 -0.93297805,0.939095939 -1.896545543,1.379583934 -2.887643537,1.321463989 -0.991097994,-0.05506099 -2.196322098,-0.795325531 -3.612613366,-2.217734707 l -20.862000981,-20.956828256 c -1.474411212,-1.480529106 -2.281972541,-2.51751126 -2.422683984,-3.117064373 z m -9.498022441,-12.483552197 c -2.676576372,0.412957497 -5.331740133,1.942429713 -7.968550228,4.588416639 -2.918232981,2.930468761 -4.276404307,6.160714069 -4.077572919,9.687676993 0.198831391,3.530021874 2.337033541,7.341466625 6.417665405,11.440452152 l 26.386454612,26.502694503 c 4.927959469,4.952431023 9.390959385,7.570887455 13.385940805,7.852310336 3.991922474,0.284481789 7.577005341,-1.165457824 10.74913071,-4.352877917 2.321738819,-2.330915649 3.695204866,-4.750540694 4.123457086,-7.25581618 0.422134327,-2.502216537 -0.183536667,-5.689636623 -1.829248767,-9.559201324 l 5.821171242,5.845642795 13.30029036,-13.3584103 -61.952801445,-62.2281064487 -13.59700797,13.6581868614 14.701286908,14.7685836813 4.123457086,3.967450923 c -3.713558533,-1.446880713 -6.907096513,-1.966901265 -9.583672885,-1.557002714"/>
	<path id="u" fill="#309700" d="m 182.888169299,131.959803503 -38.157272761,-38.3255146972 13.59700797,-13.6581868614 35.055503114,35.2115092806 c 1.416291269,1.422409153 2.676576372,2.174909484 3.78085531,2.260559932 1.107337882,0.08565063 2.153496876,-0.36707331 3.14459487,-1.364289214 0.905447549,-0.911565442 1.324522935,-1.856779265 1.254167213,-2.83870043 -0.07035573,-0.978862216 -0.828973941,-2.199381041 -2.272795707,-3.649320699 l -35.226804002,-35.382810173 13.725483637,-13.7836035744 49.545722855,49.7629079104 -13.300290361,13.361469249 -6.33201496,-6.359545459 c 2.691871094,6.858153403 1.7283036,12.602851026 -2.887643538,17.240210782 -3.175184313,3.187420089 -6.500256904,4.695479686 -9.987453548,4.524178802 -3.484137701,-0.168241966 -7.463824398,-2.502216537 -11.939060092,-6.998864848"/>
	<path id="l" fill="#309700" d="M 245.223338798,92.22411542 231.329613219,106.182078836 169.376811773,43.9539723941 183.270537352,29.9990679201 245.223338798,92.22411542"/>
	<path id="a" fill="#309700" d="m 257.015569557,59.040686322 c 0.100945168,1.2113419918 -0.360955442,2.3278567068 -1.379583937,3.3495441412 -0.764736103,0.770853993 -1.636535267,1.1318094387 -2.615397484,1.0889842129 -0.97580327,-0.042825298 -1.933252875,-0.5322562999 -2.866230926,-1.4713522659 l -4.54865036,-4.567004024 c -1.697714157,-1.7068909909 -2.676576371,-3.1843611516 -2.930468759,-4.4385283654 -0.253892391,-1.2511082684 0.055061,-4.2825221973 0.93297805,-9.091182826 l 11.091732485,11.1406755895 c 1.44382177,1.4499396586 2.217734709,2.7805804838 2.315620931,3.9888635377 z m -34.35500484,-25.7134868377 c -0.055061,-1.1654578318 0.394603828,-2.2330294337 1.361230269,-3.2027148208 0.988039049,-0.9941569323 2.037256987,-1.4621754294 3.144594868,-1.407114429 1.104278939,0.058120139 2.37679982,0.810620262 3.823680533,2.2605599244 1.131809437,1.1409862677 1.853720322,2.3217388234 2.165732653,3.542257648 0.312012329,1.2266367156 0.269187107,2.7775215345 -0.125416732,4.6526544681 -0.171300892,1.0247463874 -0.945213827,3.9368614753 -2.315620929,8.7302273916 -1.376524991,4.7933659164 -2.202439987,8.0725543334 -2.486921817,9.8375652702 -0.480254275,2.7591678766 -0.587317327,4.9585489172 -0.31813022,6.5920252347 0.269187106,1.6365352668 0.856504441,3.1660074823 1.761951988,4.5884166426 0.908506494,1.4224091604 3.612613367,4.3957031397 8.115379559,8.9198819416 3.14459487,3.1598895875 5.879291187,5.1512624165 8.201030005,5.9771774099 2.324797762,0.8259149972 4.781130137,0.8901528265 7.37511501,0.1896545386 2.587866984,-0.6943804233 4.863721637,-2.0250212107 6.818387125,-3.9888635264 2.06784643,-2.0770232655 3.343426254,-4.3804084196 3.823680529,-6.9132144039 0.480254276,-2.5328059843 0.226361877,-5.6926955718 -0.764736102,-9.476609832 l 5.567278855,4.909605808 13.428766024,-13.4868859694 -36.927577101,-37.0897011598 c -2.887643538,-2.902938259 -5.735520797,-4.7658354181 -8.540572836,-5.5917504115 -2.805052037,-0.8228560327 -6.084240462,-0.6179067666 -9.83756527,0.6179067629 -3.753324811,1.2388724939 -7.598417953,3.835916315 -11.535279428,7.7911314521 -5.610104077,5.631516688 -8.583398058,11.1682060991 -8.922940889,16.6008913969 -0.342601776,5.4388031888 1.471352269,10.1465186572 5.438803188,14.1292643039 l 4.885134255,4.9065468511 13.59700797,-13.65818685 -5.521394688,-5.5458662515 c -1.416291268,-1.4224091528 -2.153496875,-2.7194015925 -2.211616819,-3.884859413"/>
	<path id="3" fill="#0008ff" d="m 386.014314902,252.40574029 c 15.897334178,-27.151190714 12.33978181,-69.404390065 -1.685478377,-82.227485093 -2.719401596,-1.052276885 1.703832046,-5.071729859 4.634300803,-2.125966378 C 429.95605157,209.277682836 470.96120159,250.466369523 512,291.685645658 c -41.876949181,42.063544789 -82.882099202,83.67130686 -125.447310881,126.254872209 -1.893486599,1.896545541 -5.655988241,-0.07341494 -4.830073248,-1.220518832 21.235192204,-29.381161199 24.474614348,-71.209167275 1.443821768,-99.923478598 -6.157655128,-7.681009451 -13.465473359,-13.719365741 -22.054989303,-17.986593215 -11.523043653,-5.723285019 -38.105270706,-7.754424121 -36.640036328,-10.486061488 -2.095376931,-3.364838872 21.109775483,-4.386526303 30.867808196,-9.455197217 12.150127257,-6.310602353 23.251036578,-13.786662531 30.675094698,-26.462928227 M 213.743741715,429.882636901 c 31.195115249,21.993810414 59.490351183,30.999342803 94.753862518,25.358649286 9.788622157,-1.566179546 35.437871166,-8.620105394 55.694201149,-21.98769253 2.499157595,-1.648771045 4.230520143,1.804777209 -0.373191231,6.010825799 C 337.447454262,465.751819228 316.726164724,485.723667381 290.982088442,512 c -26.521048169,-26.637288057 -53.103275224,-53.032919506 -79.67938439,-79.722209614 -2.30950304,-2.32173882 0.177418776,-3.991922476 2.441037652,-2.395153485 M 193.97072495,169.462462193 c 0.700498273,-0.562845766 3.233304258,0.302835515 2.95799926,1.024746376 -4.57618086,11.997180042 -10.155695492,23.844471799 -6.185185629,37.040758055 2.300326208,7.644302112 6.62873257,13.909020298 13.376763972,18.246603492 15.251896905,9.80697583 35.759060331,9.822270546 48.881931914,-2.529747039 17.582812558,-16.548889342 10.791955933,-50.799890072 -13.089223194,-58.532901578 6.533905293,-12.648735198 23.195975578,-15.930982568 35.896712831,-12.248013476 9.855918939,2.857054088 19.653717929,9.137066998 19.565008543,19.849490374 -0.247774488,29.980714315 0.04894307,57.037077753 0,86.500830457 -0.04282522,24.355315511 -35.168684058,19.338646659 -56.192809093,20.017732313 -4.184635974,0.137652511 -3.66461542,1.713008882 -3.793091086,8.436568732 -0.116239892,5.983295294 -1.244990382,10.510533041 2.79893415,10.550299318 27.992400435,0.281422942 47.563526866,-2.138202153 54.999820763,20.39398249 2.697988985,8.173499501 1.667124714,80.792840154 1.437703884,84.454396631 -0.333424932,5.359270636 -2.199381044,10.170990214 -5.273620191,14.652343801 -14.517750244,21.167895421 -46.450071097,17.974357441 -58.649141466,-2.863171982 10.635949767,-1.869015043 20.133972207,-7.304759293 24.759096178,-16.989377341 9.072829168,-18.992985933 1.9210171,-44.694236996 -18.919571269,-52.745378722 -19.372295045,-7.488295952 -44.01821028,-0.339542816 -50.891658404,21.014948198 -1.761951989,5.469392636 -2.575631205,10.856193763 -1.667124711,16.741602841 0.874858105,5.668224019 2.630692205,10.580888765 4.23052014,15.940159401 1.599827934,5.35621169 7.95631445,10.782779101 6.28307185,16.249112784 C 152.427200711,371.992113657 72.2675620474,291.896712819 72.2675620474,291.896712819 c 0,0 118.2893809236,-119.690377465 121.7031629026,-122.434250618 m 24.122835738,-23.303038644 c 24.538852178,-25.294411457 74.772837528,-74.9961404764 74.772837528,-74.9961404764 0,0 51.277085402,51.0843719024 78.700522176,79.0002987264 2.141261098,2.181027372 -1.345935545,4.267227474 -3.218009534,3.181302203 -47.435051203,-27.524381942 -104.524131014,-32.736823239 -149.573205563,0.143770355 -1.440762824,1.052276886 -4.869839525,2.511393377 -5.224677078,-0.599553067 -0.312012329,-2.740814207 2.554218595,-4.683243919 4.542532471,-6.729677737"/>
</svg>
