<?xml version="1.0" encoding="utf-8"?>
<!-- Generator: Adobe Illustrator 24.3.0, SVG Export Plug-In . SVG Version: 6.00 Build 0)  -->
<svg version="1.1" id="Layer_1" xmlns="http://www.w3.org/2000/svg" xmlns:xlink="http://www.w3.org/1999/xlink" x="0px" y="0px"
	 viewBox="0 0 306 344.4" style="enable-background:new 0 0 306 344.4;" xml:space="preserve">
<style type="text/css">
	.st0{fill:#9A6B00;}
	.st1{fill:#704D00;}
	.st2{fill:#FFD700;}
	.st3{fill:#FFFFFF;}
</style>
<path class="st0" d="M302.1,86L153,172.2l149.1,86.1c2.4-4.2,3.9-8.8,3.9-13.1V99.1C306,94.9,304.5,90.2,302.1,86z"/>
<path class="st1" d="M166.3,341.2l126.5-73c3.6-2.1,7-5.7,9.4-9.9L153,172.2L3.9,258.3c2.4,4.2,5.7,7.8,9.4,9.9l126.5,73
	C147,345.4,159,345.4,166.3,341.2z"/>
<path class="st2" d="M302.1,86.1c-2.4-4.2-5.7-7.8-9.4-9.9l-126.5-73C158.9-1,147-1,139.7,3.2l-126.5,73C6,80.4,0,90.7,0,99.1v146.1
	c0,4.2,1.5,8.9,3.9,13.1L153,172.2L302.1,86.1z"/>
<g>
	<path class="st3" d="M153,274.2c-56.2,0-102-45.8-102-102s45.8-102,102-102c36.3,0,70.1,19.5,88.3,51l-44.1,25.5
		c-9.1-15.7-26-25.5-44.2-25.5c-28.1,0-51,22.9-51,51s22.9,51,51,51c18.2,0,35.1-9.8,44.2-25.5l44.1,25.5
		C223.1,254.6,189.3,274.2,153,274.2z"/>
</g>
<g id="_x3C_Path_x3E_">
	<g>
		<polygon class="st3" points="255,155.2 243.7,155.2 243.7,143.9 232.3,143.9 232.3,155.2 221,155.2 221,166.5 232.3,166.5 
			232.3,200.6 243.6,200.6 243.7,166.5 255,166.5 		"/>
	</g>
</g>
</svg>
