<?xml version="1.0" encoding="UTF-8" standalone="no"?>
<!DOCTYPE svg PUBLIC "-//W3C//DTD SVG 20010904//EN"
"http://www.w3.org/TR/2001/REC-SVG-20010904/DTD/svg10.dtd">
<!-- Created with Sodipodi ("http://www.sodipodi.com/") -->
<svg
   id="svg596"
   sodipodi:version="0.32"
   width="72pt"
   height="72pt"
   sodipodi:docbase="/home/zeus/desktop/icons/gartoon/svg"
   sodipodi:docname="/home/zeus/desktop/icons/gartoon/svg/gnome-mime-image-x-portable-pixmap.svg"
   xmlns="http://www.w3.org/2000/svg"
   xmlns:sodipodi="http://sodipodi.sourceforge.net/DTD/sodipodi-0.dtd"
   xmlns:xlink="http://www.w3.org/1999/xlink">
  <defs
     id="defs598">
    <linearGradient
       id="linearGradient612">
      <stop
         style="stop-color:#7fa8e3;stop-opacity:0.741176;"
         offset="0.000000"
         id="stop613" />
      <stop
         style="stop-color:#ffffff;stop-opacity:0;"
         offset="1.000000"
         id="stop614" />
    </linearGradient>
    <linearGradient
       id="linearGradient626">
      <stop
         style="stop-color:#ff0047;stop-opacity:1;"
         offset="0.000000"
         id="stop627" />
      <stop
         style="stop-color:#ab322d;stop-opacity:0;"
         offset="1.000000"
         id="stop628" />
    </linearGradient>
    <linearGradient
       id="linearGradient618">
      <stop
         style="stop-color:#956d47;stop-opacity:1;"
         offset="0.000000"
         id="stop619" />
      <stop
         style="stop-color:#ab322d;stop-opacity:0;"
         offset="1.000000"
         id="stop620" />
    </linearGradient>
    <linearGradient
       id="linearGradient614">
      <stop
         style="stop-color:#000;stop-opacity:1;"
         offset="0"
         id="stop615" />
      <stop
         style="stop-color:#fff;stop-opacity:1;"
         offset="1"
         id="stop616" />
    </linearGradient>
    <linearGradient
       xlink:href="#linearGradient618"
       id="linearGradient617"
       x1="-0.19608469"
       y1="0.57031226"
       x2="1.07843077"
       y2="0.52343726"
       gradientUnits="objectBoundingBox"
       spreadMethod="pad" />
    <linearGradient
       xlink:href="#linearGradient626"
       id="linearGradient625"
       x1="42.9995728"
       y1="77.3980103"
       x2="28.5382881"
       y2="63.0152588"
       gradientUnits="userSpaceOnUse"
       spreadMethod="pad"
       gradientTransform="matrix(0.934001,0.000000,0.000000,1.070663,-1.516226e-6,-1.716230e-7)" />
    <linearGradient
       xlink:href="#linearGradient612"
       id="linearGradient636"
       x1="16.4110699"
       y1="10.6072874"
       x2="24.6243172"
       y2="61.6665344"
       gradientUnits="userSpaceOnUse"
       spreadMethod="pad" />
  </defs>
  <sodipodi:namedview
     id="base" />
  <g
     id="g898"
     transform="translate(-1.146498,1.146498)">
    <path
       style="fill:#000000;fill-rule:evenodd;stroke:none;stroke-opacity:1;stroke-width:1pt;stroke-linejoin:miter;stroke-linecap:butt;fill-opacity:0.301471;"
       d="M 12.8163 74.753 C 10.3856 73.6481 7.07107 70.1126 8.83884 65.2512 C 9.72267 59.948 25.6326 13.1021 29.1682 10.8924 C 31.3778 8.90368 34.582 8.13026 39.1119 9.34561 C 42.8684 10.2295 76.6769 19.0684 78.6656 20.8361 C 80.6544 22.6039 82.2012 24.0402 80.6544 27.9072 C 79.5496 29.8959 66.4017 74.532 66.1808 77.4047 C 65.2969 80.4983 62.7558 84.2548 58.5573 84.0338 C 54.3589 83.8128 15.9099 75.4159 12.8163 74.753 z "
       id="path794"
       sodipodi:nodetypes="ccccccccc"
       transform="matrix(1.114903,0.000000,0.000000,1.114903,1.287023,-5.035753)" />
    <path
       style="fill:#3d4e67;fill-rule:evenodd;stroke:none;stroke-opacity:1;stroke-width:1pt;stroke-linejoin:miter;stroke-linecap:butt;fill-opacity:1;"
       d="M 12.8163 74.753 C 10.3856 73.6481 7.07107 70.1126 8.83884 65.2512 C 9.72267 59.948 25.6326 13.1021 29.1682 10.8924 C 31.3778 8.90368 34.582 8.13026 39.1119 9.34561 C 42.8684 10.2295 76.6769 19.0684 78.6656 20.8361 C 80.6544 22.6039 82.2012 24.0402 80.6544 27.9072 C 79.5496 29.8959 66.4017 74.532 66.1808 77.4047 C 65.2969 80.4983 62.7558 84.2548 58.5573 84.0338 C 54.3589 83.8128 15.9099 75.4159 12.8163 74.753 z "
       id="path895"
       sodipodi:nodetypes="ccccccccc"
       transform="matrix(1.114903,0.000000,0.000000,1.114903,-1.570116,-9.607182)" />
    <path
       style="fill:#ffffff;fill-rule:evenodd;stroke:none;stroke-opacity:1;stroke-width:1pt;stroke-linejoin:miter;stroke-linecap:butt;fill-opacity:1;"
       d="M 17.8987 70.9965 C 15.3576 70.3336 11.7114 69.6706 13.0373 65.6932 C 15.468 55.9705 27.8424 18.6264 33.1456 13.986 C 34.361 12.8811 38.4489 12.4392 46.1829 14.8699 C 55.0218 17.5215 72.9204 23.4877 74.6882 24.3716 C 76.4559 25.2555 77.1189 25.2555 75.793 29.233 C 73.8043 33.2105 64.9655 67.24 62.7557 72.9852 C 61.209 77.0732 60.8775 78.9514 58.2258 78.9514 "
       id="path896"
       sodipodi:nodetypes="cccccccs"
       transform="matrix(1.114903,0.000000,0.000000,1.114903,-1.570116,-9.607182)" />
    <path
       style="fill:url(#linearGradient636);fill-rule:evenodd;stroke:none;stroke-opacity:1;stroke-width:1pt;stroke-linejoin:miter;stroke-linecap:butt;fill-opacity:1;"
       d="M 28.75 13.75 C 28.75 13.75 31.875 7.49995 39.6875 9.37495 C 47.5 11.25 78.125 19.375 77.8125 21.875 C 77.5 24.375 71.875 39.0625 71.5625 40.3125 C 71.25 41.5625 42.5 40.9375 31.5625 47.5 C 20.625 54.0625 12.5 59.6875 12.5 59.6875 C 12.5 59.6875 23.75 24.6875 28.75 13.75 z "
       id="path636"
       transform="matrix(0.946780,0.000000,0.000000,0.946780,6.111789,-0.736980)" />
  </g>
  <path
     style="font-size:12;fill:#470000;fill-rule:evenodd;stroke-width:1pt;"
     d="M 67.911 66.4866 C 67.911 68.1832 66.4512 69.56 64.6525 69.56 C 62.8537 69.56 61.3939 68.1832 61.3939 66.4866 C 61.3939 64.7901 62.8537 63.4132 64.6525 63.4132 C 66.4512 63.4132 67.911 64.7901 67.911 66.4866 z "
     id="path613"
     transform="matrix(0.665098,0.000000,0.000000,0.665098,26.75834,4.099827)" />
  <path
     style="font-size:12;fill:#470000;fill-rule:evenodd;stroke-width:1pt;"
     d="M 61.2458 74.2998 C 59.6905 72.5223 57.1726 73.4851 56.3579 74.7441 C 55.4692 77.8545 56.8764 80.6687 60.5793 79.3357 C 64.2822 78.0026 65.6152 75.929 65.6152 76.0771 C 65.6152 76.2253 62.6529 84.0754 58.2094 84.6678 C 53.7659 85.2603 51.322 85.4084 46.4342 85.4825 C 41.3983 86.3712 38.9544 86.2971 38.9544 86.2971 L 45.1752 77.4102 C 45.1752 77.4102 46.8045 76.5215 49.4706 72.078 C 52.1367 67.6346 56.8763 66.5977 59.2462 68.0789 C 61.3939 68.9675 62.5788 70.1525 63.1713 72.4483 C 63.0232 74.9662 62.5788 75.929 61.2458 74.2998 z "
     id="path610"
     sodipodi:nodetypes="cccccccccccc"
     transform="matrix(0.665098,0.000000,0.000000,0.665098,26.75834,4.099827)" />
  <path
     style="font-size:12;fill:#230000;fill-opacity:0.99899;fill-rule:evenodd;stroke-width:1pt;"
     d="M 37.9176 76.4474 C 40.1393 77.0399 37.5473 80.2243 36.1402 78.0026 C 35.0293 79.5578 35.5477 75.7809 35.5477 75.7809 L 30.808 85.7046 C 30.808 85.7046 38.9544 88.667 42.0648 84.3716 C 45.1752 80.0763 45.5456 77.8545 43.8423 76.0771 C 41.8426 73.3371 40.0652 74.4479 39.3247 74.8922 C 38.5841 75.3366 38.2879 75.6328 37.9176 76.4474 z "
     id="path609"
     sodipodi:nodetypes="cccccccc"
     transform="matrix(0.665098,0.000000,0.000000,0.665098,26.95536,4.099827)" />
  <path
     style="font-size:12;fill:#230000;fill-rule:evenodd;stroke-width:1pt;"
     d="M 36.1402 62.0062 C 36.1402 62.0062 37.0288 56.674 36.7326 53.8598 C 36.2883 47.787 23.5503 -3.31281 14.071 5.57413 C 3.11042 9.86949 16.1446 58.8957 17.7739 61.7099 C 19.4031 64.5241 21.773 66.5977 21.773 66.5977 C 21.773 66.5977 18.07 83.483 31.9189 85.8527 C 36.9549 76.5215 40.5087 72.8006 39.695 68.5973 C 39.2506 66.2275 38.6582 64.0057 36.1402 62.0062 z "
     id="path608"
     sodipodi:nodetypes="cccccccc"
     transform="matrix(0.665098,0.000000,0.000000,0.665098,26.75834,4.099827)" />
  <path
     style="font-size:12;fill:#f2962c;fill-rule:evenodd;stroke-width:1pt;"
     d="M 19.4031 58.3033 C 22.0692 55.0448 25.0315 52.6749 32.5854 53.4155 C 30.2156 40.2331 21.773 4.68543 15.7002 7.94398 C 8.88697 9.12891 15.2559 48.8239 19.4031 58.3033 z "
     id="path600"
     sodipodi:nodetypes="cccc"
     transform="matrix(0.665098,0.000000,0.000000,0.665098,26.75834,4.099827)" />
  <path
     style="font-size:12;fill:#8b8b8b;fill-rule:evenodd;stroke-width:1pt;"
     d="M 19.8475 59.6363 C 19.8475 59.6363 21.1805 63.9316 24.7353 64.2279 C 26.3646 61.7099 30.0675 61.2656 33.1779 61.4137 C 33.9185 58.5995 34.5109 55.1928 33.326 55.0447 C 31.8449 54.156 23.5504 52.5268 19.8475 59.6363 z "
     id="path601"
     sodipodi:nodetypes="ccccc"
     transform="matrix(0.665098,0.000000,0.000000,0.665098,26.75834,4.099827)" />
  <path
     style="font-size:12;fill:#65532d;fill-rule:evenodd;stroke-width:1pt;"
     d="M 24.8834 66.4496 C 25.624 63.1911 31.2524 60.9694 33.7703 63.6354 C 39.8431 67.0421 37.177 75.4847 34.5109 75.6328 C 33.7703 86.149 40.8799 80.3724 40.7318 78.1508 C 46.0639 77.4102 41.7686 84.9641 38.2138 84.5197 C 33.326 85.2603 20.2918 80.8169 24.8834 66.4496 z "
     id="path602"
     sodipodi:nodetypes="cccccc"
     transform="matrix(0.665098,0.000000,0.000000,0.665098,26.75834,4.099827)" />
  <path
     style="font-size:12;fill:#bc0000;fill-rule:evenodd;stroke-width:1pt;"
     d="M 44.5828 81.2612 C 44.7309 81.4093 46.6564 81.2612 47.6932 79.4838 C 48.73 77.7064 52.2848 70.4487 54.8028 70.3006 C 60.8755 68.0789 60.8755 72.2261 60.8755 72.2261 C 60.8755 72.2261 55.2471 70.1525 54.6546 73.7073 C 54.0622 77.2621 53.0254 79.3357 59.8386 82.1499 C 55.9877 83.4829 43.966 83.74 43.2253 83.74 C 42.4847 83.74 44.7309 81.1131 44.5828 81.2612 z "
     id="path603"
     sodipodi:nodetypes="cccccccc"
     transform="matrix(0.665098,0.000000,0.000000,0.665098,26.75834,4.099827)" />
  <path
     style="font-size:12;fill:#470000;fill-rule:evenodd;stroke-width:1pt;"
     d="M 46.6564 67.6346 C 48.4338 64.9685 54.5806 66.3015 57.3947 65.7091 C 60.8014 64.8204 59.02 58.5954 55.169 58.5955 C 52.5142 58.0648 46.9527 58.1551 46.6564 67.6346 z "
     id="path611"
     sodipodi:nodetypes="cccc"
     transform="matrix(0.665098,0.000000,0.000000,0.665098,26.75834,4.099827)" />
  <path
     style="font-size:12;fill:#bc0000;fill-rule:evenodd;stroke-width:1pt;"
     d="M 48.1376 64.8204 C 48.1376 64.8204 54.5065 64.2279 56.1358 64.2279 C 58.0613 64.6397 58.1915 61.7181 56.5801 60.6731 C 53.766 58.7476 49.9149 58.5995 48.1376 64.8204 z "
     id="path604"
     sodipodi:nodetypes="cccc"
     transform="matrix(0.665098,0.000000,0.000000,0.665098,26.75834,4.099827)" />
  <path
     style="font-size:12;fill:#bc0000;fill-rule:evenodd;stroke-width:1pt;"
     d="M 66.8001 66.5977 C 66.8001 67.7424 65.838 68.6714 64.6524 68.6714 C 63.4669 68.6714 62.5048 67.7424 62.5048 66.5977 C 62.5048 65.4531 63.4669 64.5241 64.6524 64.5241 C 65.838 64.5241 66.8001 65.4531 66.8001 66.5977 z "
     id="path606"
     transform="matrix(0.665098,0.000000,0.000000,0.665098,26.75834,4.099827)" />
  <path
     style="font-size:12;fill:url(#linearGradient617);fill-rule:evenodd;stroke-width:1pt;"
     d="M 19.4031 58.3033 C 22.0692 55.0448 25.0315 52.6749 32.5854 53.4155 C 30.2156 40.2331 21.773 4.68543 15.7002 7.94398 C 8.88697 9.12891 15.2559 48.8239 19.4031 58.3033 z "
     id="path621"
     sodipodi:nodetypes="cccc"
     transform="matrix(0.665098,0.000000,0.000000,0.665098,26.75834,4.099827)" />
  <path
     style="font-size:12;fill:#f2d0a8;fill-rule:evenodd;stroke-width:1pt;"
     d="M 28.4382 52.5267 C 25.1369 52.6775 14.6017 8.00417 18.6625 10.462 C 19.6179 11.1298 34.3749 52.522 28.4382 52.5267 z "
     id="path622"
     sodipodi:nodetypes="css"
     transform="matrix(0.665098,0.000000,0.000000,0.665098,26.75834,4.099827)" />
  <path
     style="font-size:12;fill:#f2f2f2;fill-rule:evenodd;stroke-width:1pt;"
     d="M 30.5118 54.4523 L 31.1043 61.2656 L 27.6976 62.0062 L 26.2165 54.6003 C 26.2165 54.6003 30.2156 54.1561 30.5118 54.4523 z "
     id="path623"
     sodipodi:nodetypes="ccccc"
     transform="matrix(0.665098,0.000000,0.000000,0.665098,26.75834,4.099827)" />
  <path
     style="font-size:12;fill:url(#linearGradient625);fill-rule:nonzero;stroke-width:1pt;"
     d="M 24.8834 66.4496 C 25.624 63.1911 31.2524 60.9694 33.7703 63.6354 C 39.8431 67.0421 37.177 75.4847 34.5109 75.6328 C 33.7703 86.149 40.8799 80.3724 40.7318 78.1508 C 46.0639 77.4102 41.7686 84.9641 38.2138 84.5197 C 33.326 85.2603 20.2918 80.8169 24.8834 66.4496 z "
     id="path624"
     sodipodi:nodetypes="cccccc"
     transform="matrix(0.665098,0.000000,0.000000,0.665098,26.75834,4.099827)" />
  <path
     transform="matrix(0.978621,0.205675,-0.205675,0.978621,0.000000,0.000000)"
     style="font-size:13;font-weight:bold;fill:#3d4e67;stroke-width:1pt;font-family:Kid Kosmic;"
     d="M 70.0008 52.4328 C 69.9924 52.4074 69.9966 52.3693 70.0135 52.3186 C 70.4452 51.76 70.9784 51.4807 71.6131 51.4807 C 72.4172 51.4807 72.8192 51.7261 72.8192 52.217 C 72.8192 52.327 72.7896 52.4497 72.7303 52.5852 C 72.231 53.787 71.8205 55.2977 71.4989 57.1174 C 71.228 58.6239 70.9657 60.4139 70.7118 62.4875 C 70.6694 62.8514 70.5129 63.1604 70.242 63.4143 C 69.9712 63.6597 69.6581 63.7824 69.3026 63.7824 C 68.9302 63.7824 68.5409 63.5878 68.1346 63.1984 C 68.4732 61.7596 68.8371 59.8638 69.2264 57.5109 C 68.2023 58.6027 67.1825 59.538 66.1668 60.3166 C 65.8452 60.8583 65.3797 61.1418 64.7704 61.1672 C 64.1017 61.201 63.6955 60.9725 63.5516 60.4816 C 62.9676 59.246 62.5275 57.8749 62.2313 56.3684 C 61.6896 58.1203 61.4188 59.923 61.4188 61.7766 C 61.4188 62.0135 61.423 62.2463 61.4315 62.4748 C 61.3638 62.8472 61.1987 63.1604 60.9364 63.4143 C 60.674 63.6597 60.3609 63.7824 59.9969 63.7824 C 59.633 63.7824 59.2521 63.592 58.8543 63.2111 C 59.1336 59.301 59.853 55.6659 61.0125 52.3059 C 61.478 51.688 62.1297 51.413 62.9676 51.4807 C 63.6701 51.5399 64.0213 51.7811 64.0213 52.2043 C 64.0213 52.3059 64.0002 52.4074 63.9579 52.509 C 64.2287 54.8026 64.7661 56.4742 65.5702 57.5236 C 66.9243 56.7958 68.4012 55.0988 70.0008 52.4328 z M 46.5526 57.0793 C 46.6288 56.7323 46.8361 55.9198 47.1747 54.6418 C 47.5386 53.2707 47.7459 52.564 47.7967 52.5217 C 47.8475 52.5894 47.8771 52.6317 47.8856 52.6486 L 47.9872 52.2932 L 48.0506 52.2805 C 48.4653 51.8742 48.9985 51.6711 49.6502 51.6711 C 49.8788 51.6711 50.0861 51.705 50.2723 51.7727 C 51.7534 51.5272 53.2049 51.4087 54.6268 51.4172 C 56.1248 51.4257 56.9924 51.688 57.2293 52.2043 C 57.8641 53.6092 58.1815 54.8238 58.1815 55.8479 C 58.1815 57.1089 57.7118 58.0822 56.7723 58.7678 C 55.4097 59.7495 53.2769 60.2404 50.3739 60.2404 C 49.7306 60.2404 49.0536 60.2193 48.3426 60.177 C 48.2495 61.0233 48.2241 61.8527 48.2664 62.6652 C 48.1987 63.0376 48.0337 63.3508 47.7713 63.6047 C 47.5174 63.8501 47.2085 63.9729 46.8446 63.9729 C 46.4806 63.9729 46.0956 63.7824 45.6893 63.4016 C 45.8501 61.1587 46.1379 59.0513 46.5526 57.0793 z M 48.6981 57.968 C 49.2651 58.0357 50.0015 58.0695 50.9071 58.0695 C 53.2007 58.0526 54.7114 57.566 55.4393 56.6096 C 55.5916 56.4149 55.6678 56.1779 55.6678 55.8986 C 55.6678 55.5178 55.5282 55.065 55.2489 54.5402 C 54.7072 54.2355 54.0809 54.0832 53.37 54.0832 C 52.6082 54.0832 51.4234 54.2525 49.8153 54.591 C 49.3159 55.6828 48.9435 56.8085 48.6981 57.968 z M 33.3748 57.0793 C 33.451 56.7323 33.6584 55.9198 33.9969 54.6418 C 34.3609 53.2707 34.5682 52.564 34.619 52.5217 C 34.6698 52.5894 34.6994 52.6317 34.7079 52.6486 L 34.8094 52.2932 L 34.8729 52.2805 C 35.2876 51.8742 35.8208 51.6711 36.4725 51.6711 C 36.701 51.6711 36.9084 51.705 37.0946 51.7727 C 38.5757 51.5272 40.0272 51.4087 41.4491 51.4172 C 42.9471 51.4257 43.8146 51.688 44.0516 52.2043 C 44.6864 53.6092 45.0038 54.8238 45.0038 55.8479 C 45.0038 57.1089 44.534 58.0822 43.5946 58.7678 C 42.2319 59.7495 40.0991 60.2404 37.1961 60.2404 C 36.5529 60.2404 35.8758 60.2193 35.1649 60.177 C 35.0718 61.0233 35.0464 61.8527 35.0887 62.6652 C 35.021 63.0376 34.856 63.3508 34.5936 63.6047 C 34.3397 63.8501 34.0308 63.9729 33.6668 63.9729 C 33.3029 63.9729 32.9178 63.7824 32.5116 63.4016 C 32.6724 61.1587 32.9601 59.0513 33.3748 57.0793 z M 35.5204 57.968 C 36.0874 58.0357 36.8237 58.0695 37.7293 58.0695 C 40.023 58.0526 41.5337 57.566 42.2616 56.6096 C 42.4139 56.4149 42.4901 56.1779 42.4901 55.8986 C 42.4901 55.5178 42.3504 55.065 42.0711 54.5402 C 41.5295 54.2355 40.9032 54.0832 40.1922 54.0832 C 39.4305 54.0832 38.2456 54.2525 36.6375 54.591 C 36.1382 55.6828 35.7658 56.8085 35.5204 57.968 z M 31.7118 61.5988 C 31.7118 62.022 31.5086 62.3944 31.1024 62.716 C 30.7046 63.0376 30.2772 63.1984 29.8202 63.1984 C 29.6509 63.1984 29.4943 63.173 29.3504 63.1223 C 28.9273 62.953 28.7157 62.6525 28.7157 62.2209 C 28.7157 61.9247 28.8215 61.6369 29.0331 61.3576 C 29.4393 60.8413 29.9471 60.5832 30.5565 60.5832 C 30.7342 60.5832 30.9035 60.6128 31.0643 60.6721 C 31.4959 60.8329 31.7118 61.1418 31.7118 61.5988 z "
     id="path1035" />
</svg>
